G75*
%MOIN*%
%OFA0B0*%
%FSLAX24Y24*%
%IPPOS*%
%LPD*%
%AMOC8*
5,1,8,0,0,1.08239X$1,22.5*
%
%ADD10C,0.2080*%
%ADD11R,0.0680X0.0680*%
%ADD12C,0.0680*%
%ADD13C,0.1182*%
%ADD14C,0.0780*%
%ADD15C,0.1464*%
%ADD16R,0.1464X0.1464*%
%ADD17C,0.0930*%
%ADD18C,0.0820*%
%ADD19R,0.0946X0.0316*%
%ADD20R,0.0560X0.0820*%
%ADD21R,0.0430X0.0500*%
%ADD22R,0.0460X0.0680*%
%ADD23R,0.1655X0.0710*%
%ADD24R,0.0820X0.0820*%
%ADD25R,0.0500X0.0430*%
%ADD26C,0.1379*%
D10*
X005060Y009950D03*
X005060Y037950D03*
X039060Y037950D03*
X039060Y009950D03*
D11*
X018658Y011352D03*
D12*
X018658Y012352D03*
X018658Y013352D03*
X018658Y014352D03*
X018658Y015352D03*
X018658Y016352D03*
X018658Y017352D03*
X018658Y018352D03*
X018658Y019352D03*
X018658Y020352D03*
X018658Y021352D03*
X018658Y022352D03*
X018658Y023352D03*
X018658Y024352D03*
X018658Y025352D03*
X018658Y026352D03*
X004060Y015450D03*
X004060Y014450D03*
X004060Y013450D03*
X004060Y012450D03*
D13*
X018658Y009186D03*
X030862Y009186D03*
X030862Y038714D03*
X018658Y038714D03*
D14*
X010340Y037150D03*
X007781Y037150D03*
D15*
X040060Y026714D03*
X040060Y025139D03*
X040060Y015775D03*
X040060Y014200D03*
D16*
X040060Y012625D03*
X040060Y023564D03*
D17*
X040044Y030989D03*
X038076Y030989D03*
X038076Y035911D03*
X040044Y035911D03*
D18*
X035160Y029450D03*
X035160Y028450D03*
X035160Y027450D03*
X035160Y026450D03*
X035160Y025450D03*
X035160Y024450D03*
X035160Y022450D03*
X035160Y021450D03*
X035160Y020450D03*
X035160Y019450D03*
X035160Y018450D03*
X035160Y017450D03*
X016160Y016950D03*
X016160Y017950D03*
X016160Y018950D03*
X016160Y019950D03*
X016160Y020950D03*
X016160Y022450D03*
X016160Y023450D03*
X016160Y024450D03*
X016160Y025450D03*
X016160Y026450D03*
X016160Y027450D03*
X016160Y028450D03*
X016160Y029450D03*
X014680Y032950D03*
X014680Y033950D03*
X015940Y036360D03*
X015940Y038140D03*
X013380Y038140D03*
X013380Y036360D03*
X016160Y015950D03*
X016160Y014950D03*
X016160Y013950D03*
D19*
X014371Y013700D03*
X014371Y014200D03*
X014371Y014700D03*
X014371Y015200D03*
X014371Y015700D03*
X014371Y013200D03*
X014371Y012700D03*
X014371Y012200D03*
X014371Y011700D03*
X014371Y011200D03*
X014371Y010700D03*
X014371Y010200D03*
X010749Y010200D03*
X010749Y010700D03*
X010749Y011200D03*
X010749Y011700D03*
X010749Y012200D03*
X010749Y012700D03*
X010749Y013200D03*
X010749Y013700D03*
X010749Y014200D03*
X010749Y014700D03*
X010749Y015200D03*
X010749Y015700D03*
D20*
X010785Y016575D03*
X012085Y016575D03*
X013035Y016575D03*
X014335Y016575D03*
D21*
X009220Y008950D03*
X009900Y008950D03*
X010470Y008950D03*
X011150Y008950D03*
X009900Y009700D03*
X009900Y010450D03*
X009220Y010450D03*
X009220Y009700D03*
X009220Y011200D03*
X009900Y011200D03*
X009900Y014700D03*
X009220Y014700D03*
X009220Y015700D03*
X009900Y015700D03*
X014345Y017450D03*
X015025Y017450D03*
X015220Y011200D03*
X015900Y011200D03*
X015900Y010450D03*
X015900Y009700D03*
X015220Y009700D03*
X015220Y010450D03*
X015220Y008950D03*
X014650Y008950D03*
X013970Y008950D03*
X015900Y008950D03*
D22*
X012970Y009075D03*
X012150Y009075D03*
X033400Y012450D03*
X034220Y012450D03*
D23*
X033484Y014950D03*
X035886Y014950D03*
D24*
X014680Y031950D03*
D25*
X035935Y035110D03*
X035935Y035790D03*
D26*
X007310Y032218D03*
X007310Y015682D03*
M02*
