%
M48
M72
T01C0.0200
T02C0.0354
T03C0.0394
T04C0.0400
T05C0.0472
T06C0.0984
T07C0.1102
T08C0.1299
T09C0.2000
%
T01
X8810Y9700
X11560Y8950
X13560Y8950
X13510Y11400
X13560Y12700
X13560Y13200
X13610Y14400
X11560Y11700
X10060Y12700
X10060Y13200
X8810Y14700
X8685Y15575
X9900Y16575
X10650Y17325
X10435Y17825
X14935Y19200
X15060Y20075
X20060Y13950
X17310Y11325
X17060Y10825
X16310Y10825
X16185Y11700
X16435Y12200
X17185Y8325
X6560Y13450
X4685Y11700
X2761Y11700
X18810Y29600
X17310Y33650
X17310Y34950
X12185Y31325
X13685Y29825
X23510Y30750
X30860Y17450
X34685Y12450
X35685Y9575
T02
X10340Y37150
X7781Y37150
T03
X11435Y16575
X13685Y16575
X12560Y12200
X12560Y9700
X33560Y14200
X36060Y13200
T04
X35160Y17450
X35160Y18450
X35160Y19450
X35160Y20450
X35160Y21450
X35160Y22450
X35160Y24450
X35160Y25450
X35160Y26450
X35160Y27450
X35160Y28450
X35160Y29450
X18658Y26352
X18658Y25352
X18658Y24352
X18658Y23352
X18658Y22352
X18658Y21352
X18658Y20352
X18658Y19352
X18658Y18352
X18658Y17352
X18658Y16352
X18658Y15352
X18658Y14352
X18658Y13352
X18658Y12352
X18658Y11352
X16160Y13950
X16160Y14950
X16160Y15950
X16160Y16950
X16160Y17950
X16160Y18950
X16160Y19950
X16160Y20950
X16160Y22450
X16160Y23450
X16160Y24450
X16160Y25450
X16160Y26450
X16160Y27450
X16160Y28450
X16160Y29450
X14680Y31950
X14680Y32950
X14680Y33950
X15940Y36360
X15940Y38140
X13380Y38140
X13380Y36360
X4060Y15450
X4060Y14450
X4060Y13450
X4060Y12450
T05
X38076Y30989
X40044Y30989
X40044Y35911
X38076Y35911
T06
X40060Y26714
X40060Y25139
X40060Y23564
X40060Y15775
X40060Y14200
X40060Y12625
T07
X30862Y9186
X18658Y9186
X18658Y38714
X30862Y38714
T08
X7310Y32218
X7310Y15682
T09
X5060Y9950
X5060Y37950
X39060Y37950
X39060Y9950
M30
