G75*
%MOIN*%
%OFA0B0*%
%FSLAX24Y24*%
%IPPOS*%
%LPD*%
%AMOC8*
5,1,8,0,0,1.08239X$1,22.5*
%
%ADD10C,0.2080*%
%ADD11R,0.0680X0.0680*%
%ADD12C,0.0680*%
%ADD13C,0.1182*%
%ADD14C,0.0780*%
%ADD15C,0.1464*%
%ADD16R,0.1464X0.1464*%
%ADD17C,0.0930*%
%ADD18C,0.0820*%
%ADD19R,0.0820X0.0820*%
%ADD20C,0.1379*%
D10*
X005060Y009950D03*
X005060Y037950D03*
X039060Y037950D03*
X039060Y009950D03*
D11*
X018658Y011352D03*
D12*
X018658Y012352D03*
X018658Y013352D03*
X018658Y014352D03*
X018658Y015352D03*
X018658Y016352D03*
X018658Y017352D03*
X018658Y018352D03*
X018658Y019352D03*
X018658Y020352D03*
X018658Y021352D03*
X018658Y022352D03*
X018658Y023352D03*
X018658Y024352D03*
X018658Y025352D03*
X018658Y026352D03*
X004060Y015450D03*
X004060Y014450D03*
X004060Y013450D03*
X004060Y012450D03*
D13*
X018658Y009186D03*
X030862Y009186D03*
X030862Y038714D03*
X018658Y038714D03*
D14*
X010340Y037150D03*
X007781Y037150D03*
D15*
X040060Y026714D03*
X040060Y025139D03*
X040060Y015775D03*
X040060Y014200D03*
D16*
X040060Y012625D03*
X040060Y023564D03*
D17*
X040044Y030989D03*
X038076Y030989D03*
X038076Y035911D03*
X040044Y035911D03*
D18*
X035160Y029450D03*
X035160Y028450D03*
X035160Y027450D03*
X035160Y026450D03*
X035160Y025450D03*
X035160Y024450D03*
X035160Y022450D03*
X035160Y021450D03*
X035160Y020450D03*
X035160Y019450D03*
X035160Y018450D03*
X035160Y017450D03*
X016160Y016950D03*
X016160Y017950D03*
X016160Y018950D03*
X016160Y019950D03*
X016160Y020950D03*
X016160Y022450D03*
X016160Y023450D03*
X016160Y024450D03*
X016160Y025450D03*
X016160Y026450D03*
X016160Y027450D03*
X016160Y028450D03*
X016160Y029450D03*
X014680Y032950D03*
X014680Y033950D03*
X015940Y036360D03*
X015940Y038140D03*
X013380Y038140D03*
X013380Y036360D03*
X016160Y015950D03*
X016160Y014950D03*
X016160Y013950D03*
D19*
X014680Y031950D03*
D20*
X007310Y032218D03*
X007310Y015682D03*
M02*
