G75*
%MOIN*%
%OFA0B0*%
%FSLAX24Y24*%
%IPPOS*%
%LPD*%
%AMOC8*
5,1,8,0,0,1.08239X$1,22.5*
%
%ADD10C,0.0170*%
%ADD11C,0.0070*%
%ADD12C,0.0090*%
%ADD13C,0.0080*%
%ADD14C,0.0060*%
%ADD15C,0.0276*%
D10*
X021924Y010335D02*
X021924Y010969D01*
X021924Y010652D02*
X022875Y010652D01*
X022875Y011366D02*
X022875Y012000D01*
X022875Y011366D02*
X021924Y011366D01*
X021924Y012000D01*
X021924Y012398D02*
X021924Y013031D01*
X021924Y012714D02*
X022875Y012714D01*
X022875Y013429D02*
X021924Y013429D01*
X021924Y013904D01*
X022083Y014063D01*
X022400Y014063D01*
X022558Y013904D01*
X022558Y013429D01*
X022558Y013746D02*
X022875Y014063D01*
X022717Y014460D02*
X022875Y014619D01*
X022875Y014936D01*
X022717Y015094D01*
X022083Y015094D01*
X021924Y014936D01*
X021924Y014619D01*
X022083Y014460D01*
X022717Y014460D01*
X022875Y015491D02*
X021924Y015491D01*
X021924Y015967D01*
X022083Y016125D01*
X022717Y016125D01*
X022875Y015967D01*
X022875Y015491D01*
X022875Y016523D02*
X021924Y016523D01*
X021924Y017157D01*
X022400Y016840D02*
X022400Y016523D01*
X022875Y016523D02*
X022875Y017157D01*
X022717Y018585D02*
X022875Y018744D01*
X022875Y019061D01*
X022717Y019219D01*
X022558Y019219D01*
X022400Y019061D01*
X022400Y018744D01*
X022241Y018585D01*
X022083Y018585D01*
X021924Y018744D01*
X021924Y019061D01*
X022083Y019219D01*
X021924Y019617D02*
X021924Y020250D01*
X021924Y019933D02*
X022875Y019933D01*
X022875Y020648D02*
X022875Y021282D01*
X022875Y021679D02*
X021924Y021679D01*
X021924Y022154D01*
X022083Y022313D01*
X022400Y022313D01*
X022558Y022154D01*
X022558Y021679D01*
X022400Y020965D02*
X022400Y020648D01*
X022875Y020648D02*
X021924Y020648D01*
X021924Y021282D01*
X021924Y022710D02*
X021924Y023186D01*
X022083Y023344D01*
X022400Y023344D01*
X022558Y023186D01*
X022558Y022710D01*
X022875Y022710D02*
X021924Y022710D01*
X021924Y023742D02*
X022875Y023742D01*
X022875Y024376D01*
X022875Y024773D02*
X021924Y024773D01*
X021924Y025248D01*
X022083Y025407D01*
X022400Y025407D01*
X022558Y025248D01*
X022558Y024773D01*
X022558Y025090D02*
X022875Y025407D01*
X021924Y024376D02*
X021924Y023742D01*
X022400Y023742D02*
X022400Y024059D01*
X022400Y026835D02*
X022400Y027152D01*
X022875Y026835D02*
X021924Y026835D01*
X021924Y027469D01*
X022083Y027867D02*
X021924Y028025D01*
X021924Y028342D01*
X022083Y028501D01*
X022717Y028501D01*
X022875Y028342D01*
X022875Y028025D01*
X022717Y027867D01*
X022083Y027867D01*
X021924Y028898D02*
X021924Y029373D01*
X022083Y029532D01*
X022400Y029532D01*
X022558Y029373D01*
X022558Y028898D01*
X022558Y029215D02*
X022875Y029532D01*
X022875Y028898D02*
X021924Y028898D01*
X022241Y030961D02*
X021924Y031278D01*
X022241Y031594D01*
X022875Y031594D01*
X022875Y031992D02*
X021924Y031992D01*
X021924Y032467D01*
X022083Y032626D01*
X022400Y032626D01*
X022558Y032467D01*
X022558Y031992D01*
X022558Y032309D02*
X022875Y032626D01*
X022875Y033023D02*
X022875Y033499D01*
X022717Y033657D01*
X022083Y033657D01*
X021924Y033499D01*
X021924Y033023D01*
X022875Y033023D01*
X022717Y034054D02*
X022875Y034213D01*
X022875Y034530D01*
X022717Y034688D01*
X021924Y034688D01*
X021924Y035086D02*
X021924Y035403D01*
X021924Y035244D02*
X022875Y035244D01*
X022875Y035086D02*
X022875Y035403D01*
X022875Y035773D02*
X021924Y035773D01*
X022875Y036407D01*
X021924Y036407D01*
X022083Y036805D02*
X021924Y036963D01*
X021924Y037280D01*
X022083Y037438D01*
X022717Y037438D01*
X022875Y037280D01*
X022875Y036963D01*
X022717Y036805D01*
X022083Y036805D01*
X021924Y034054D02*
X022717Y034054D01*
X022400Y031594D02*
X022400Y030961D01*
X022241Y030961D02*
X022875Y030961D01*
X022400Y011683D02*
X022400Y011366D01*
D11*
X023520Y011550D02*
X023520Y011130D01*
X024150Y011130D01*
X024150Y011550D01*
X024045Y011774D02*
X024150Y011879D01*
X024150Y012089D01*
X024045Y012194D01*
X023940Y012194D01*
X023835Y012089D01*
X023835Y011879D01*
X023730Y011774D01*
X023625Y011774D01*
X023520Y011879D01*
X023520Y012089D01*
X023625Y012194D01*
X023520Y012419D02*
X023520Y012629D01*
X023520Y012524D02*
X024150Y012524D01*
X024150Y012419D02*
X024150Y012629D01*
X024045Y012848D02*
X024150Y012953D01*
X024150Y013164D01*
X024045Y013269D01*
X023835Y013269D01*
X023835Y013059D01*
X023625Y013269D02*
X023520Y013164D01*
X023520Y012953D01*
X023625Y012848D01*
X024045Y012848D01*
X024150Y013493D02*
X023520Y013493D01*
X024150Y013913D01*
X023520Y013913D01*
X023520Y014137D02*
X024150Y014137D01*
X024150Y014558D01*
X024150Y014782D02*
X024150Y015097D01*
X024045Y015202D01*
X023625Y015202D01*
X023520Y015097D01*
X023520Y014782D01*
X024150Y014782D01*
X023835Y014348D02*
X023835Y014137D01*
X023520Y014137D02*
X023520Y014558D01*
X024770Y014457D02*
X024875Y014352D01*
X025295Y014352D01*
X025400Y014457D01*
X025400Y014668D01*
X025295Y014773D01*
X024875Y014773D01*
X024770Y014668D01*
X024770Y014457D01*
X024770Y014997D02*
X025400Y015417D01*
X024770Y015417D01*
X024770Y014997D02*
X025400Y014997D01*
X024875Y016286D02*
X024980Y016391D01*
X024875Y016286D02*
X024664Y016286D01*
X024770Y016608D02*
X024770Y017029D01*
X024770Y016818D02*
X025400Y016818D01*
X025400Y017253D02*
X025190Y017463D01*
X025400Y017673D01*
X024770Y017673D01*
X024770Y017897D02*
X024770Y018108D01*
X024770Y018002D02*
X025400Y018002D01*
X025400Y017897D02*
X025400Y018108D01*
X025295Y018327D02*
X025400Y018432D01*
X025400Y018642D01*
X025295Y018747D01*
X025190Y018747D01*
X025085Y018642D01*
X025085Y018432D01*
X024980Y018327D01*
X024875Y018327D01*
X024770Y018432D01*
X024770Y018642D01*
X024875Y018747D01*
X024770Y018972D02*
X024770Y019392D01*
X024770Y019182D02*
X025400Y019182D01*
X025400Y019616D02*
X025400Y020036D01*
X025400Y020261D02*
X024770Y020261D01*
X024770Y020576D01*
X024875Y020681D01*
X025085Y020681D01*
X025190Y020576D01*
X025190Y020261D01*
X025190Y020471D02*
X025400Y020681D01*
X024980Y020905D02*
X024875Y021010D01*
X024664Y021010D01*
X024150Y021003D02*
X023520Y021003D01*
X023520Y021227D02*
X023730Y021438D01*
X023520Y021648D01*
X024150Y021648D01*
X024150Y021872D02*
X023730Y021872D01*
X023520Y022082D01*
X023730Y022292D01*
X024150Y022292D01*
X024150Y022517D02*
X023520Y022517D01*
X024150Y022937D01*
X023520Y022937D01*
X023625Y023161D02*
X023520Y023266D01*
X023520Y023476D01*
X023625Y023582D01*
X023835Y023582D01*
X023940Y023476D01*
X023730Y023476D01*
X023730Y023266D01*
X023940Y023266D01*
X023940Y023476D01*
X024045Y023582D02*
X024150Y023476D01*
X024150Y023266D01*
X024045Y023161D01*
X023625Y023161D01*
X023520Y023806D02*
X023730Y024016D01*
X023520Y024226D01*
X024150Y024226D01*
X024150Y024450D02*
X024150Y024660D01*
X024150Y024555D02*
X023520Y024555D01*
X023520Y024450D02*
X023520Y024660D01*
X023520Y024880D02*
X023520Y025300D01*
X023520Y025090D02*
X024150Y025090D01*
X024770Y025095D02*
X024770Y025305D01*
X024770Y025200D02*
X025400Y025200D01*
X025400Y025095D02*
X025400Y025305D01*
X025400Y025524D02*
X025400Y025945D01*
X025295Y026169D02*
X025400Y026274D01*
X025400Y026484D01*
X025295Y026589D01*
X025085Y026589D01*
X025085Y026379D01*
X024875Y026169D02*
X025295Y026169D01*
X024875Y026169D02*
X024770Y026274D01*
X024770Y026484D01*
X024875Y026589D01*
X024770Y026814D02*
X025400Y026814D01*
X025400Y027234D01*
X025400Y027458D02*
X025400Y027879D01*
X025295Y028103D02*
X025400Y028208D01*
X025400Y028418D01*
X025295Y028523D01*
X025190Y028418D02*
X024980Y028418D01*
X024980Y028208D01*
X025190Y028208D01*
X025190Y028418D01*
X025085Y028523D01*
X024875Y028523D01*
X024770Y028418D01*
X024770Y028208D01*
X024875Y028103D01*
X025295Y028103D01*
X025085Y027668D02*
X025085Y027458D01*
X024770Y027458D02*
X025400Y027458D01*
X024770Y027458D02*
X024770Y027879D01*
X024770Y028747D02*
X024980Y028957D01*
X024770Y029168D01*
X025400Y029168D01*
X025400Y029392D02*
X025400Y029602D01*
X025400Y029497D02*
X024770Y029497D01*
X024770Y029392D02*
X024770Y029602D01*
X024770Y029821D02*
X024770Y030242D01*
X024770Y030032D02*
X025400Y030032D01*
X025400Y028747D02*
X024770Y028747D01*
X024770Y025945D02*
X024770Y025524D01*
X025400Y025524D01*
X025085Y025524D02*
X025085Y025735D01*
X025190Y024871D02*
X025295Y024871D01*
X025400Y024766D01*
X025400Y024555D01*
X025295Y024450D01*
X025085Y024555D02*
X024980Y024450D01*
X024875Y024450D01*
X024770Y024555D01*
X024770Y024766D01*
X024875Y024871D01*
X025085Y024766D02*
X025190Y024871D01*
X025085Y024766D02*
X025085Y024555D01*
X024770Y024226D02*
X024770Y024016D01*
X024770Y024121D02*
X025295Y024121D01*
X025400Y024016D01*
X025400Y023911D01*
X025295Y023806D01*
X024875Y022937D02*
X024770Y022937D01*
X024875Y022937D02*
X025085Y022727D01*
X025400Y022727D01*
X025085Y022727D02*
X024875Y022517D01*
X024770Y022517D01*
X024875Y022292D02*
X024980Y022292D01*
X025085Y022187D01*
X025085Y021872D01*
X025400Y021872D02*
X025400Y022187D01*
X025295Y022292D01*
X025190Y022292D01*
X025085Y022187D01*
X024875Y022292D02*
X024770Y022187D01*
X024770Y021872D01*
X025400Y021872D01*
X024150Y021227D02*
X023520Y021227D01*
X023940Y020793D02*
X024150Y021003D01*
X023940Y020793D02*
X024150Y020583D01*
X023520Y020583D01*
X023520Y020359D02*
X023520Y019938D01*
X024150Y019938D01*
X024150Y020359D01*
X023835Y020149D02*
X023835Y019938D01*
X024150Y019714D02*
X023520Y019714D01*
X023520Y019294D02*
X024150Y019714D01*
X024770Y019616D02*
X025400Y019616D01*
X025085Y019616D02*
X025085Y019826D01*
X024770Y020036D02*
X024770Y019616D01*
X024150Y019294D02*
X023520Y019294D01*
X023625Y019070D02*
X023835Y019070D01*
X023940Y018965D01*
X023940Y018649D01*
X024150Y018649D02*
X023520Y018649D01*
X023520Y018965D01*
X023625Y019070D01*
X023520Y018425D02*
X023520Y018215D01*
X023520Y018320D02*
X024045Y018320D01*
X024150Y018215D01*
X024150Y018110D01*
X024045Y018005D01*
X023625Y017136D02*
X023520Y017136D01*
X023625Y017136D02*
X023835Y016926D01*
X024150Y016926D01*
X023835Y016926D02*
X023625Y016716D01*
X023520Y016716D01*
X023625Y016491D02*
X023730Y016491D01*
X023835Y016386D01*
X023835Y016071D01*
X024150Y016071D02*
X024150Y016386D01*
X024045Y016491D01*
X023940Y016491D01*
X023835Y016386D01*
X023625Y016491D02*
X023520Y016386D01*
X023520Y016071D01*
X024150Y016071D01*
X024770Y017253D02*
X025400Y017253D01*
X025295Y013484D02*
X024875Y013484D01*
X024770Y013378D01*
X024770Y013063D01*
X025400Y013063D01*
X025400Y013378D01*
X025295Y013484D01*
X025400Y012839D02*
X025400Y012419D01*
X024770Y012419D01*
X024770Y012839D01*
X025085Y012629D02*
X025085Y012419D01*
X025190Y012194D02*
X025295Y012194D01*
X025400Y012089D01*
X025400Y011879D01*
X025295Y011774D01*
X025085Y011879D02*
X025085Y012089D01*
X025190Y012194D01*
X024875Y012194D02*
X024770Y012089D01*
X024770Y011879D01*
X024875Y011774D01*
X024980Y011774D01*
X025085Y011879D01*
X025085Y011550D02*
X025085Y011130D01*
X024980Y011130D02*
X024770Y011340D01*
X024980Y011550D01*
X025400Y011550D01*
X025400Y011130D02*
X024980Y011130D01*
X024980Y010905D02*
X025085Y010800D01*
X025085Y010485D01*
X025400Y010485D02*
X024770Y010485D01*
X024770Y010800D01*
X024875Y010905D01*
X024980Y010905D01*
X025085Y010800D02*
X025190Y010905D01*
X025295Y010905D01*
X025400Y010800D01*
X025400Y010485D01*
X024150Y010485D02*
X024150Y010800D01*
X024045Y010905D01*
X023625Y010905D01*
X023520Y010800D01*
X023520Y010485D01*
X024150Y010485D01*
X023835Y011130D02*
X023835Y011340D01*
X023835Y021872D02*
X023835Y022292D01*
X024150Y023806D02*
X023520Y023806D01*
X025075Y034782D02*
X024970Y034887D01*
X024970Y035097D01*
X025075Y035202D01*
X025180Y035202D01*
X025600Y034782D01*
X025600Y035202D01*
X025495Y035426D02*
X025075Y035426D01*
X024970Y035531D01*
X024970Y035742D01*
X025075Y035847D01*
X025495Y035426D01*
X025600Y035531D01*
X025600Y035742D01*
X025495Y035847D01*
X025075Y035847D01*
X025180Y036071D02*
X024970Y036281D01*
X025600Y036281D01*
X025600Y036071D02*
X025600Y036491D01*
X025285Y036715D02*
X025285Y037136D01*
X025600Y037031D02*
X024970Y037031D01*
X025285Y036715D01*
D12*
X006434Y009155D02*
X006434Y008745D01*
X006434Y008882D02*
X006639Y008882D01*
X006708Y008950D01*
X006708Y009087D01*
X006639Y009155D01*
X006434Y009155D01*
X006571Y008882D02*
X006708Y008745D01*
X006895Y008813D02*
X006963Y008745D01*
X007100Y008745D01*
X007168Y008813D01*
X007168Y009087D01*
X007100Y009155D01*
X006963Y009155D01*
X006895Y009087D01*
X006895Y009019D01*
X006963Y008950D01*
X007168Y008950D01*
X007599Y009019D02*
X007736Y009155D01*
X007736Y008745D01*
X007872Y008745D02*
X007599Y008745D01*
X008059Y008813D02*
X008333Y009087D01*
X008333Y008813D01*
X008264Y008745D01*
X008128Y008745D01*
X008059Y008813D01*
X008059Y009087D01*
X008128Y009155D01*
X008264Y009155D01*
X008333Y009087D01*
X008520Y009155D02*
X008520Y008745D01*
X008520Y008882D02*
X008793Y009155D01*
X008588Y008950D02*
X008793Y008745D01*
X008793Y009495D02*
X008588Y009700D01*
X008520Y009632D02*
X008793Y009905D01*
X008520Y009905D02*
X008520Y009495D01*
X008333Y009563D02*
X008333Y009837D01*
X008059Y009563D01*
X008128Y009495D01*
X008264Y009495D01*
X008333Y009563D01*
X008059Y009563D02*
X008059Y009837D01*
X008128Y009905D01*
X008264Y009905D01*
X008333Y009837D01*
X008059Y010108D02*
X008059Y010519D01*
X008264Y010519D01*
X008333Y010450D01*
X008333Y010313D01*
X008264Y010245D01*
X008059Y010245D01*
X007872Y010313D02*
X007872Y010587D01*
X007599Y010313D01*
X007667Y010245D01*
X007804Y010245D01*
X007872Y010313D01*
X007599Y010313D02*
X007599Y010587D01*
X007667Y010655D01*
X007804Y010655D01*
X007872Y010587D01*
X007872Y010995D02*
X007599Y010995D01*
X007736Y010995D02*
X007736Y011405D01*
X007599Y011269D01*
X007381Y011548D02*
X007007Y011448D01*
X007032Y011354D01*
X007150Y011286D01*
X007244Y011311D01*
X007381Y011548D01*
X007356Y011641D01*
X007237Y011710D01*
X007144Y011685D01*
X007007Y011448D01*
X006811Y011482D02*
X006574Y011619D01*
X006693Y011550D02*
X006898Y011906D01*
X006711Y011856D01*
X006583Y012008D02*
X006515Y011890D01*
X006421Y011865D01*
X006244Y011968D01*
X006362Y011899D02*
X006412Y011712D01*
X006175Y011849D02*
X006381Y012204D01*
X006558Y012102D01*
X006583Y012008D01*
X006082Y011122D02*
X005963Y011190D01*
X005870Y011165D01*
X005733Y010928D01*
X005758Y010835D01*
X005877Y010766D01*
X005970Y010791D01*
X006132Y010698D02*
X006157Y010604D01*
X006275Y010536D01*
X006369Y010561D01*
X006437Y010680D01*
X006412Y010773D01*
X006353Y010807D01*
X006200Y010816D01*
X006303Y010994D01*
X006540Y010857D01*
X006815Y010587D02*
X006678Y010450D01*
X006883Y010450D01*
X006952Y010382D01*
X006952Y010313D01*
X006883Y010245D01*
X006746Y010245D01*
X006678Y010313D01*
X006678Y010450D01*
X006815Y010587D02*
X006952Y010655D01*
X007138Y010587D02*
X007138Y010519D01*
X007207Y010450D01*
X007344Y010450D01*
X007412Y010382D01*
X007412Y010313D01*
X007344Y010245D01*
X007207Y010245D01*
X007138Y010313D01*
X007138Y010382D01*
X007207Y010450D01*
X007344Y010450D02*
X007412Y010519D01*
X007412Y010587D01*
X007344Y010655D01*
X007207Y010655D01*
X007138Y010587D01*
X007350Y009905D02*
X007145Y009700D01*
X007418Y009700D01*
X007350Y009495D02*
X007350Y009905D01*
X007599Y009837D02*
X007667Y009905D01*
X007804Y009905D01*
X007872Y009837D01*
X007872Y009769D01*
X007599Y009495D01*
X007872Y009495D01*
X006958Y009495D02*
X006684Y009495D01*
X006821Y009495D02*
X006821Y009905D01*
X006684Y009769D01*
X006497Y009837D02*
X006497Y009700D01*
X006429Y009632D01*
X006224Y009632D01*
X006361Y009632D02*
X006497Y009495D01*
X006224Y009495D02*
X006224Y009905D01*
X006429Y009905D01*
X006497Y009837D01*
X006107Y011028D02*
X006082Y011122D01*
X008059Y011063D02*
X008333Y011337D01*
X008333Y011063D01*
X008264Y010995D01*
X008128Y010995D01*
X008059Y011063D01*
X008059Y011337D01*
X008128Y011405D01*
X008264Y011405D01*
X008333Y011337D01*
X008520Y011405D02*
X008520Y010995D01*
X008520Y011132D02*
X008793Y011405D01*
X008588Y011200D02*
X008793Y010995D01*
X008793Y010655D02*
X008520Y010655D01*
X008520Y010245D01*
X008520Y010450D02*
X008656Y010450D01*
X010355Y009780D02*
X010355Y009370D01*
X010355Y009507D02*
X010560Y009507D01*
X010629Y009575D01*
X010629Y009712D01*
X010560Y009780D01*
X010355Y009780D01*
X010492Y009507D02*
X010629Y009370D01*
X010815Y009370D02*
X011089Y009370D01*
X010952Y009370D02*
X010952Y009780D01*
X010815Y009644D01*
X011276Y009712D02*
X011344Y009780D01*
X011481Y009780D01*
X011549Y009712D01*
X011549Y009644D01*
X011481Y009575D01*
X011549Y009507D01*
X011549Y009438D01*
X011481Y009370D01*
X011344Y009370D01*
X011276Y009438D01*
X011413Y009575D02*
X011481Y009575D01*
X011730Y009688D02*
X011798Y009620D01*
X012072Y009620D01*
X012140Y009688D01*
X012140Y009825D01*
X012072Y009894D01*
X012140Y010080D02*
X012140Y010354D01*
X012140Y010217D02*
X011730Y010217D01*
X011866Y010080D01*
X011798Y009894D02*
X011730Y009825D01*
X011730Y009688D01*
X012117Y008530D02*
X012117Y008120D01*
X011980Y008120D02*
X012254Y008120D01*
X012440Y008188D02*
X012509Y008120D01*
X012714Y008120D01*
X012714Y008394D01*
X012901Y008325D02*
X013038Y008325D01*
X012901Y008530D02*
X013174Y008530D01*
X012901Y008530D02*
X012901Y008120D01*
X012440Y008188D02*
X012440Y008394D01*
X012117Y008530D02*
X011980Y008394D01*
X013730Y008394D02*
X013867Y008530D01*
X013867Y008120D01*
X013730Y008120D02*
X014004Y008120D01*
X014190Y008188D02*
X014464Y008462D01*
X014464Y008188D01*
X014396Y008120D01*
X014259Y008120D01*
X014190Y008188D01*
X014190Y008462D01*
X014259Y008530D01*
X014396Y008530D01*
X014464Y008462D01*
X014651Y008530D02*
X014651Y008120D01*
X014651Y008257D02*
X014924Y008530D01*
X014719Y008325D02*
X014924Y008120D01*
X014646Y009370D02*
X014509Y009370D01*
X014440Y009438D01*
X014440Y009575D02*
X014577Y009644D01*
X014646Y009644D01*
X014714Y009575D01*
X014714Y009438D01*
X014646Y009370D01*
X014440Y009575D02*
X014440Y009780D01*
X014714Y009780D01*
X014254Y009712D02*
X014254Y009575D01*
X014185Y009507D01*
X013980Y009507D01*
X014117Y009507D02*
X014254Y009370D01*
X013980Y009370D02*
X013980Y009780D01*
X014185Y009780D01*
X014254Y009712D01*
X015105Y011620D02*
X015379Y011620D01*
X015242Y011620D02*
X015242Y012030D01*
X015105Y011894D01*
X015105Y012245D02*
X015105Y012655D01*
X015310Y012655D01*
X015379Y012587D01*
X015379Y012450D01*
X015310Y012382D01*
X015105Y012382D01*
X015242Y012382D02*
X015379Y012245D01*
X015565Y012245D02*
X015565Y012313D01*
X015839Y012587D01*
X015839Y012655D01*
X015565Y012655D01*
X015634Y012030D02*
X015771Y012030D01*
X015839Y011962D01*
X015565Y011688D01*
X015634Y011620D01*
X015771Y011620D01*
X015839Y011688D01*
X015839Y011962D01*
X016026Y012030D02*
X016026Y011620D01*
X016026Y011757D02*
X016299Y012030D01*
X016094Y011825D02*
X016299Y011620D01*
X015565Y011688D02*
X015565Y011962D01*
X015634Y012030D01*
X016367Y010587D02*
X016230Y010450D01*
X016435Y010450D01*
X016504Y010382D01*
X016504Y010313D01*
X016435Y010245D01*
X016298Y010245D01*
X016230Y010313D01*
X016230Y010450D01*
X016367Y010587D02*
X016504Y010655D01*
X016690Y010587D02*
X016690Y010519D01*
X016759Y010450D01*
X016896Y010450D01*
X016964Y010382D01*
X016964Y010313D01*
X016896Y010245D01*
X016759Y010245D01*
X016690Y010313D01*
X016690Y010382D01*
X016759Y010450D01*
X016896Y010450D02*
X016964Y010519D01*
X016964Y010587D01*
X016896Y010655D01*
X016759Y010655D01*
X016690Y010587D01*
X017151Y010587D02*
X017151Y010313D01*
X017424Y010587D01*
X017424Y010313D01*
X017356Y010245D01*
X017219Y010245D01*
X017151Y010313D01*
X017151Y010587D02*
X017219Y010655D01*
X017356Y010655D01*
X017424Y010587D01*
X017611Y010519D02*
X017816Y010519D01*
X017885Y010450D01*
X017885Y010313D01*
X017816Y010245D01*
X017611Y010245D01*
X017611Y010108D02*
X017611Y010519D01*
X018072Y010450D02*
X018208Y010450D01*
X018072Y010245D02*
X018072Y010655D01*
X018345Y010655D01*
X018605Y010587D02*
X018605Y010313D01*
X018673Y010245D01*
X018810Y010245D01*
X018879Y010313D01*
X019065Y010450D02*
X019271Y010655D01*
X019271Y010245D01*
X019339Y010450D02*
X019065Y010450D01*
X018879Y010587D02*
X018810Y010655D01*
X018673Y010655D01*
X018605Y010587D01*
X018199Y010192D02*
X018104Y010072D01*
X018037Y009890D01*
X018223Y009977D01*
X018314Y009944D01*
X018343Y009882D01*
X018310Y009791D01*
X018186Y009733D01*
X018095Y009766D01*
X018037Y009890D01*
X017868Y009811D02*
X017835Y009720D01*
X017649Y009634D01*
X017773Y009692D02*
X017955Y009625D01*
X017868Y009811D02*
X017810Y009935D01*
X017719Y009968D01*
X017533Y009882D01*
X017707Y009510D01*
X017424Y009495D02*
X017219Y009700D01*
X017151Y009632D02*
X017424Y009905D01*
X017151Y009905D02*
X017151Y009495D01*
X016964Y009563D02*
X016896Y009495D01*
X016759Y009495D01*
X016690Y009563D01*
X016964Y009837D01*
X016964Y009563D01*
X016690Y009563D02*
X016690Y009837D01*
X016759Y009905D01*
X016896Y009905D01*
X016964Y009837D01*
X016504Y009837D02*
X016435Y009905D01*
X016298Y009905D01*
X016230Y009837D01*
X016504Y009837D02*
X016504Y009769D01*
X016230Y009495D01*
X016504Y009495D01*
X016367Y009155D02*
X016367Y008745D01*
X016230Y008745D02*
X016504Y008745D01*
X016690Y008745D02*
X016964Y008745D01*
X016827Y008745D02*
X016827Y009155D01*
X016690Y009019D01*
X016367Y009155D02*
X016230Y009019D01*
X017151Y009155D02*
X017151Y008745D01*
X017151Y008882D02*
X017424Y009155D01*
X017219Y008950D02*
X017424Y008745D01*
X017572Y008619D02*
X017758Y008532D01*
X017849Y008566D01*
X017907Y008689D01*
X017874Y008780D01*
X017688Y008867D01*
X017514Y008495D01*
X017696Y008561D02*
X017762Y008380D01*
X018018Y008487D02*
X018266Y008371D01*
X018291Y008586D02*
X018018Y008487D01*
X018117Y008214D02*
X018291Y008586D01*
X019191Y011495D02*
X019055Y011632D01*
X019465Y011632D01*
X019465Y011495D02*
X019465Y011769D01*
X018186Y013795D02*
X018186Y014205D01*
X018460Y014205D01*
X018323Y014000D02*
X018186Y014000D01*
X017999Y013795D02*
X017726Y013795D01*
X017726Y014205D01*
X017999Y014205D01*
X017863Y014000D02*
X017726Y014000D01*
X017539Y014000D02*
X017471Y013932D01*
X017265Y013932D01*
X017265Y013795D02*
X017265Y014205D01*
X017471Y014205D01*
X017539Y014137D01*
X017539Y014000D01*
X017402Y013932D02*
X017539Y013795D01*
X017079Y013795D02*
X017079Y014069D01*
X016942Y014205D01*
X016805Y014069D01*
X016805Y013795D01*
X016805Y014000D02*
X017079Y014000D01*
X017010Y014795D02*
X016873Y014795D01*
X016805Y014863D01*
X016805Y015137D01*
X016873Y015205D01*
X017010Y015205D01*
X017079Y015137D01*
X017079Y015000D02*
X016942Y015000D01*
X017079Y015000D02*
X017079Y014863D01*
X017010Y014795D01*
X017265Y014795D02*
X017265Y015205D01*
X017539Y014795D01*
X017539Y015205D01*
X017726Y015205D02*
X017931Y015205D01*
X017999Y015137D01*
X017999Y014863D01*
X017931Y014795D01*
X017726Y014795D01*
X017726Y015205D01*
X017471Y015795D02*
X017334Y015795D01*
X017265Y015863D01*
X017402Y016000D02*
X017471Y016000D01*
X017539Y015932D01*
X017539Y015863D01*
X017471Y015795D01*
X017471Y016000D02*
X017539Y016069D01*
X017539Y016137D01*
X017471Y016205D01*
X017334Y016205D01*
X017265Y016137D01*
X016942Y016205D02*
X016942Y015795D01*
X016805Y015795D02*
X017079Y015795D01*
X016805Y016069D02*
X016942Y016205D01*
X016942Y016795D02*
X016942Y017205D01*
X016805Y017069D01*
X016805Y016795D02*
X017079Y016795D01*
X017265Y016795D02*
X017539Y017069D01*
X017539Y017137D01*
X017471Y017205D01*
X017334Y017205D01*
X017265Y017137D01*
X017265Y016795D02*
X017539Y016795D01*
X017539Y017795D02*
X017265Y017795D01*
X017402Y017795D02*
X017402Y018205D01*
X017265Y018069D01*
X017079Y017795D02*
X016805Y017795D01*
X016942Y017795D02*
X016942Y018205D01*
X016805Y018069D01*
X016805Y018795D02*
X017079Y018795D01*
X016942Y018795D02*
X016942Y019205D01*
X016805Y019069D01*
X017265Y019137D02*
X017265Y018863D01*
X017539Y019137D01*
X017539Y018863D01*
X017471Y018795D01*
X017334Y018795D01*
X017265Y018863D01*
X017265Y019137D02*
X017334Y019205D01*
X017471Y019205D01*
X017539Y019137D01*
X017010Y019795D02*
X016873Y019795D01*
X016805Y019863D01*
X016873Y020000D02*
X017079Y020000D01*
X017079Y019863D02*
X017079Y020137D01*
X017010Y020205D01*
X016873Y020205D01*
X016805Y020137D01*
X016805Y020069D01*
X016873Y020000D01*
X017010Y019795D02*
X017079Y019863D01*
X017010Y020795D02*
X016873Y020795D01*
X016805Y020863D01*
X016805Y020932D01*
X016873Y021000D01*
X017010Y021000D01*
X017079Y020932D01*
X017079Y020863D01*
X017010Y020795D01*
X017010Y021000D02*
X017079Y021069D01*
X017079Y021137D01*
X017010Y021205D01*
X016873Y021205D01*
X016805Y021137D01*
X016805Y021069D01*
X016873Y021000D01*
X016805Y022295D02*
X016805Y022363D01*
X017079Y022637D01*
X017079Y022705D01*
X016805Y022705D01*
X016873Y023295D02*
X017010Y023295D01*
X017079Y023363D01*
X017079Y023432D01*
X017010Y023500D01*
X016805Y023500D01*
X016805Y023363D01*
X016873Y023295D01*
X016805Y023500D02*
X016942Y023637D01*
X017079Y023705D01*
X017010Y024295D02*
X016873Y024295D01*
X016805Y024363D01*
X016805Y024500D02*
X016942Y024569D01*
X017010Y024569D01*
X017079Y024500D01*
X017079Y024363D01*
X017010Y024295D01*
X016805Y024500D02*
X016805Y024705D01*
X017079Y024705D01*
X017010Y025295D02*
X017010Y025705D01*
X016805Y025500D01*
X017079Y025500D01*
X017010Y026295D02*
X016873Y026295D01*
X016805Y026363D01*
X016942Y026500D02*
X017010Y026500D01*
X017079Y026432D01*
X017079Y026363D01*
X017010Y026295D01*
X017010Y026500D02*
X017079Y026569D01*
X017079Y026637D01*
X017010Y026705D01*
X016873Y026705D01*
X016805Y026637D01*
X016805Y027295D02*
X017079Y027569D01*
X017079Y027637D01*
X017010Y027705D01*
X016873Y027705D01*
X016805Y027637D01*
X016805Y027295D02*
X017079Y027295D01*
X016942Y028295D02*
X016942Y028705D01*
X016805Y028705D02*
X017079Y028705D01*
X017265Y028705D02*
X017539Y028295D01*
X017265Y028295D02*
X017539Y028705D01*
X017539Y029295D02*
X017265Y029705D01*
X017079Y029637D02*
X017079Y029500D01*
X017010Y029432D01*
X016805Y029432D01*
X016942Y029432D02*
X017079Y029295D01*
X017265Y029295D02*
X017539Y029705D01*
X017079Y029637D02*
X017010Y029705D01*
X016805Y029705D01*
X016805Y029295D01*
X016340Y030870D02*
X016340Y031280D01*
X016476Y031280D02*
X016203Y031280D01*
X016016Y031212D02*
X015948Y031280D01*
X015811Y031280D01*
X015742Y031212D01*
X015742Y031144D01*
X015811Y031075D01*
X015948Y031075D01*
X016016Y031007D01*
X016016Y030938D01*
X015948Y030870D01*
X015811Y030870D01*
X015742Y030938D01*
X015556Y030870D02*
X015556Y031144D01*
X015419Y031280D01*
X015282Y031144D01*
X015282Y030870D01*
X015095Y030870D02*
X014958Y031007D01*
X015027Y031007D02*
X014822Y031007D01*
X014822Y030870D02*
X014822Y031280D01*
X015027Y031280D01*
X015095Y031212D01*
X015095Y031075D01*
X015027Y031007D01*
X015282Y031075D02*
X015556Y031075D01*
X014635Y031280D02*
X014361Y031280D01*
X014498Y031280D02*
X014498Y030870D01*
X014174Y030870D02*
X014174Y031280D01*
X013901Y031280D02*
X013901Y030870D01*
X013714Y030938D02*
X013714Y031212D01*
X013646Y031280D01*
X013509Y031280D01*
X013440Y031212D01*
X013440Y030938D01*
X013509Y030870D01*
X013646Y030870D01*
X013714Y030938D01*
X013901Y031280D02*
X014174Y030870D01*
X013254Y030938D02*
X013185Y030870D01*
X013048Y030870D01*
X012980Y030938D01*
X012980Y031212D01*
X013048Y031280D01*
X013185Y031280D01*
X013254Y031212D01*
X010394Y034206D02*
X010257Y034343D01*
X010325Y034343D02*
X010120Y034343D01*
X010120Y034206D02*
X010120Y034616D01*
X010325Y034616D01*
X010394Y034548D01*
X010394Y034411D01*
X010325Y034343D01*
X009933Y034206D02*
X009660Y034206D01*
X009660Y034616D01*
X009933Y034616D01*
X009796Y034411D02*
X009660Y034411D01*
X009473Y034548D02*
X009199Y034274D01*
X009199Y034206D01*
X009473Y034206D01*
X009473Y034548D02*
X009473Y034616D01*
X009199Y034616D01*
X009012Y034616D02*
X009012Y034548D01*
X008739Y034274D01*
X008739Y034206D01*
X009012Y034206D01*
X009012Y034616D02*
X008739Y034616D01*
X008552Y034616D02*
X008552Y034274D01*
X008484Y034206D01*
X008347Y034206D01*
X008278Y034274D01*
X008278Y034616D01*
X008092Y034548D02*
X008092Y034480D01*
X008023Y034411D01*
X007818Y034411D01*
X007818Y034206D02*
X008023Y034206D01*
X008092Y034274D01*
X008092Y034343D01*
X008023Y034411D01*
X008092Y034548D02*
X008023Y034616D01*
X007818Y034616D01*
X007818Y034206D01*
X008673Y038495D02*
X008605Y038563D01*
X008673Y038495D02*
X008810Y038495D01*
X008879Y038563D01*
X008879Y038632D01*
X008810Y038700D01*
X008673Y038700D01*
X008605Y038769D01*
X008605Y038837D01*
X008673Y038905D01*
X008810Y038905D01*
X008879Y038837D01*
X009065Y038837D02*
X009065Y038563D01*
X009134Y038495D01*
X009271Y038495D01*
X009339Y038563D01*
X009339Y038700D01*
X009202Y038700D01*
X009065Y038837D02*
X009134Y038905D01*
X009271Y038905D01*
X009339Y038837D01*
X009526Y038769D02*
X009663Y038905D01*
X009663Y038495D01*
X009799Y038495D02*
X009526Y038495D01*
X013855Y038620D02*
X014129Y038894D01*
X014129Y038962D01*
X014060Y039030D01*
X013923Y039030D01*
X013855Y038962D01*
X013855Y038620D02*
X014129Y038620D01*
X014315Y038620D02*
X014315Y039030D01*
X014521Y039030D01*
X014589Y038962D01*
X014589Y038825D01*
X014521Y038757D01*
X014315Y038757D01*
X014776Y039030D02*
X015049Y039030D01*
X014913Y039030D02*
X014913Y038620D01*
X015236Y038620D02*
X015236Y039030D01*
X015236Y038825D02*
X015510Y038825D01*
X015510Y039030D02*
X015510Y038620D01*
X015447Y035905D02*
X015720Y035905D01*
X015583Y035905D02*
X015583Y035495D01*
X015260Y035495D02*
X014986Y035495D01*
X014986Y035905D01*
X015260Y035905D01*
X015123Y035700D02*
X014986Y035700D01*
X014799Y035632D02*
X014799Y035563D01*
X014731Y035495D01*
X014594Y035495D01*
X014526Y035563D01*
X014594Y035700D02*
X014731Y035700D01*
X014799Y035632D01*
X014799Y035837D02*
X014731Y035905D01*
X014594Y035905D01*
X014526Y035837D01*
X014526Y035769D01*
X014594Y035700D01*
X014339Y035495D02*
X014065Y035495D01*
X014065Y035905D01*
X014339Y035905D01*
X014202Y035700D02*
X014065Y035700D01*
X013879Y035700D02*
X013879Y035837D01*
X013810Y035905D01*
X013605Y035905D01*
X013605Y035495D01*
X013605Y035632D02*
X013810Y035632D01*
X013879Y035700D01*
X013742Y035632D02*
X013879Y035495D01*
X014242Y035030D02*
X014242Y034620D01*
X014105Y034620D02*
X014379Y034620D01*
X014565Y034688D02*
X014839Y034962D01*
X014839Y034688D01*
X014771Y034620D01*
X014634Y034620D01*
X014565Y034688D01*
X014565Y034962D01*
X014634Y035030D01*
X014771Y035030D01*
X014839Y034962D01*
X015026Y035030D02*
X015026Y034620D01*
X015026Y034757D02*
X015231Y034894D01*
X015026Y034757D02*
X015231Y034620D01*
X014242Y035030D02*
X014105Y034894D01*
X023604Y035647D02*
X024375Y035647D01*
X024375Y035390D02*
X024375Y035904D01*
X024375Y036182D02*
X024375Y036311D01*
X024247Y036311D01*
X024247Y036182D01*
X024375Y036182D01*
X024247Y036578D02*
X023733Y037092D01*
X024247Y037092D01*
X024375Y036963D01*
X024375Y036707D01*
X024247Y036578D01*
X023733Y036578D01*
X023604Y036707D01*
X023604Y036963D01*
X023733Y037092D01*
X023604Y035647D02*
X023861Y035390D01*
X023861Y035116D02*
X023861Y034987D01*
X024118Y034730D01*
X024375Y034730D02*
X023861Y034730D01*
X023990Y034452D02*
X024118Y034452D01*
X024118Y033939D01*
X023990Y033939D02*
X024247Y033939D01*
X024375Y034067D01*
X024375Y034324D01*
X023990Y034452D02*
X023861Y034324D01*
X023861Y034067D01*
X023990Y033939D01*
X023861Y033660D02*
X024375Y033404D01*
X023861Y033147D01*
X033296Y028290D02*
X033296Y028085D01*
X033570Y028085D01*
X033570Y027914D02*
X033570Y027778D01*
X033570Y027846D02*
X033160Y027846D01*
X033160Y027778D02*
X033160Y027914D01*
X033296Y028290D02*
X033365Y028358D01*
X033570Y028358D01*
X034100Y028400D02*
X034373Y028400D01*
X034305Y028195D02*
X034305Y028605D01*
X034100Y028400D01*
X034168Y027605D02*
X034305Y027605D01*
X034373Y027537D01*
X034373Y027469D01*
X034305Y027400D01*
X034373Y027332D01*
X034373Y027263D01*
X034305Y027195D01*
X034168Y027195D01*
X034100Y027263D01*
X034236Y027400D02*
X034305Y027400D01*
X034100Y027537D02*
X034168Y027605D01*
X033638Y027130D02*
X033296Y027130D01*
X033296Y026925D01*
X033365Y026857D01*
X033502Y026857D01*
X033570Y026925D01*
X033570Y027130D01*
X033638Y027130D02*
X033707Y027062D01*
X033707Y026994D01*
X033502Y026670D02*
X033365Y026670D01*
X033296Y026602D01*
X033296Y026465D01*
X033365Y026396D01*
X033502Y026396D01*
X033570Y026465D01*
X033570Y026602D01*
X033502Y026670D01*
X033570Y026226D02*
X033570Y026090D01*
X033570Y026158D02*
X033160Y026158D01*
X033160Y026090D01*
X033365Y025903D02*
X033570Y025903D01*
X033570Y025698D01*
X033502Y025629D01*
X033433Y025698D01*
X033433Y025903D01*
X033365Y025903D02*
X033296Y025834D01*
X033296Y025698D01*
X033365Y025442D02*
X033570Y025442D01*
X033365Y025442D02*
X033296Y025374D01*
X033296Y025169D01*
X033570Y025169D01*
X033570Y024982D02*
X033296Y024982D01*
X033160Y024845D01*
X033296Y024708D01*
X033570Y024708D01*
X033365Y024708D02*
X033365Y024982D01*
X034100Y025195D02*
X034373Y025195D01*
X034236Y025195D02*
X034236Y025605D01*
X034100Y025469D01*
X034100Y026195D02*
X034373Y026469D01*
X034373Y026537D01*
X034305Y026605D01*
X034168Y026605D01*
X034100Y026537D01*
X034100Y026195D02*
X034373Y026195D01*
X034305Y024605D02*
X034168Y024605D01*
X034100Y024537D01*
X034100Y024263D01*
X034373Y024537D01*
X034373Y024263D01*
X034305Y024195D01*
X034168Y024195D01*
X034100Y024263D01*
X034373Y024537D02*
X034305Y024605D01*
X034373Y022605D02*
X034373Y022195D01*
X034100Y022605D01*
X034100Y022195D01*
X033929Y022195D02*
X033793Y022195D01*
X033861Y022195D02*
X033861Y022605D01*
X033793Y022605D02*
X033929Y022605D01*
X033606Y022605D02*
X033606Y022332D01*
X033469Y022195D01*
X033332Y022332D01*
X033332Y022605D01*
X033379Y021605D02*
X033242Y021605D01*
X033174Y021537D01*
X033174Y021263D01*
X033242Y021195D01*
X033379Y021195D01*
X033447Y021263D01*
X033447Y021400D01*
X033311Y021400D01*
X033447Y021537D02*
X033379Y021605D01*
X033634Y021605D02*
X033634Y021195D01*
X033908Y021195D02*
X033634Y021605D01*
X033908Y021605D02*
X033908Y021195D01*
X034095Y021195D02*
X034300Y021195D01*
X034368Y021263D01*
X034368Y021537D01*
X034300Y021605D01*
X034095Y021605D01*
X034095Y021195D01*
X034095Y020605D02*
X034300Y020605D01*
X034368Y020537D01*
X034368Y020263D01*
X034300Y020195D01*
X034095Y020195D01*
X034095Y020605D01*
X033908Y020605D02*
X033908Y020195D01*
X033634Y020605D01*
X033634Y020195D01*
X033447Y020263D02*
X033447Y020400D01*
X033311Y020400D01*
X033447Y020263D02*
X033379Y020195D01*
X033242Y020195D01*
X033174Y020263D01*
X033174Y020537D01*
X033242Y020605D01*
X033379Y020605D01*
X033447Y020537D01*
X033634Y019605D02*
X033634Y019400D01*
X033771Y019469D01*
X033839Y019469D01*
X033908Y019400D01*
X033908Y019263D01*
X033839Y019195D01*
X033703Y019195D01*
X033634Y019263D01*
X033634Y019605D02*
X033908Y019605D01*
X034095Y019605D02*
X034095Y019332D01*
X034231Y019195D01*
X034368Y019332D01*
X034368Y019605D01*
X034300Y018605D02*
X034163Y018605D01*
X034095Y018537D01*
X034231Y018400D02*
X034300Y018400D01*
X034368Y018332D01*
X034368Y018263D01*
X034300Y018195D01*
X034163Y018195D01*
X034095Y018263D01*
X033908Y018332D02*
X033908Y018605D01*
X033908Y018332D02*
X033771Y018195D01*
X033634Y018332D01*
X033634Y018605D01*
X033447Y018537D02*
X033447Y018469D01*
X033379Y018400D01*
X033447Y018332D01*
X033447Y018263D01*
X033379Y018195D01*
X033242Y018195D01*
X033174Y018263D01*
X033311Y018400D02*
X033379Y018400D01*
X033447Y018537D02*
X033379Y018605D01*
X033242Y018605D01*
X033174Y018537D01*
X033174Y017605D02*
X033379Y017605D01*
X033447Y017537D01*
X033447Y017400D01*
X033379Y017332D01*
X033174Y017332D01*
X033311Y017332D02*
X033447Y017195D01*
X033634Y017263D02*
X033703Y017195D01*
X033839Y017195D01*
X033908Y017263D01*
X033908Y017332D01*
X033839Y017400D01*
X033703Y017400D01*
X033634Y017469D01*
X033634Y017537D01*
X033703Y017605D01*
X033839Y017605D01*
X033908Y017537D01*
X034095Y017605D02*
X034368Y017605D01*
X034231Y017605D02*
X034231Y017195D01*
X033174Y017195D02*
X033174Y017605D01*
X034300Y018400D02*
X034368Y018469D01*
X034368Y018537D01*
X034300Y018605D01*
X036855Y016400D02*
X036855Y016126D01*
X037265Y016126D01*
X037265Y015939D02*
X036991Y015939D01*
X037060Y016126D02*
X037060Y016263D01*
X037265Y015939D02*
X037265Y015734D01*
X037197Y015666D01*
X036991Y015666D01*
X036923Y015479D02*
X037197Y015205D01*
X037265Y015205D01*
X037265Y014950D02*
X036855Y014950D01*
X037060Y014745D01*
X037060Y015019D01*
X036855Y015205D02*
X036855Y015479D01*
X036923Y015479D01*
X036923Y014354D02*
X036855Y014286D01*
X036855Y014149D01*
X036923Y014080D01*
X036923Y013894D02*
X036855Y013825D01*
X036855Y013688D01*
X036923Y013620D01*
X037197Y013620D01*
X037265Y013688D01*
X037265Y013825D01*
X037197Y013894D01*
X037265Y014080D02*
X036991Y014354D01*
X036923Y014354D01*
X037265Y014354D02*
X037265Y014080D01*
X038605Y012911D02*
X038605Y012774D01*
X038673Y012705D01*
X038673Y012519D02*
X038810Y012519D01*
X038878Y012450D01*
X038878Y012245D01*
X038878Y012382D02*
X039015Y012519D01*
X039015Y012705D02*
X038741Y012979D01*
X038673Y012979D01*
X038605Y012911D01*
X038673Y012519D02*
X038605Y012450D01*
X038605Y012245D01*
X039015Y012245D01*
X039015Y012705D02*
X039015Y012979D01*
X041105Y012842D02*
X041515Y012842D01*
X041515Y012705D02*
X041515Y012979D01*
X041515Y013166D02*
X041241Y013439D01*
X041173Y013439D01*
X041105Y013371D01*
X041105Y013234D01*
X041173Y013166D01*
X041105Y012842D02*
X041241Y012705D01*
X041173Y012519D02*
X041310Y012519D01*
X041378Y012450D01*
X041378Y012245D01*
X041378Y012382D02*
X041515Y012519D01*
X041515Y012245D02*
X041105Y012245D01*
X041105Y012450D01*
X041173Y012519D01*
X041515Y013166D02*
X041515Y013439D01*
X041310Y013626D02*
X041310Y013900D01*
X041447Y014087D02*
X041173Y014360D01*
X041447Y014360D01*
X041515Y014292D01*
X041515Y014155D01*
X041447Y014087D01*
X041173Y014087D01*
X041105Y014155D01*
X041105Y014292D01*
X041173Y014360D01*
X035299Y011905D02*
X035026Y011905D01*
X035026Y011495D01*
X034839Y011495D02*
X034839Y011769D01*
X035026Y011700D02*
X035163Y011700D01*
X034839Y011495D02*
X034634Y011495D01*
X034565Y011563D01*
X034565Y011769D01*
X034379Y011495D02*
X034105Y011495D01*
X034242Y011495D02*
X034242Y011905D01*
X034105Y011769D01*
X033714Y011769D02*
X033646Y011700D01*
X033714Y011632D01*
X033714Y011563D01*
X033646Y011495D01*
X033509Y011495D01*
X033440Y011563D01*
X033254Y011563D02*
X033185Y011495D01*
X033048Y011495D01*
X032980Y011563D01*
X032980Y011837D01*
X033048Y011905D01*
X033185Y011905D01*
X033254Y011837D01*
X033440Y011837D02*
X033509Y011905D01*
X033646Y011905D01*
X033714Y011837D01*
X033714Y011769D01*
X033646Y011700D02*
X033577Y011700D01*
X031465Y011621D02*
X031397Y011689D01*
X031123Y011689D01*
X031055Y011621D01*
X031055Y011416D01*
X031465Y011416D01*
X031465Y011621D01*
X031260Y011876D02*
X031260Y012150D01*
X031191Y012337D02*
X031055Y012473D01*
X031465Y012473D01*
X031465Y012337D02*
X031465Y012610D01*
X031397Y012797D02*
X031465Y012865D01*
X031465Y013002D01*
X031397Y013071D01*
X031328Y013071D01*
X031260Y013002D01*
X031260Y012797D01*
X031397Y012797D01*
X031260Y012797D02*
X031123Y012934D01*
X031055Y013071D01*
X031055Y013257D02*
X031465Y013531D01*
X031465Y013718D02*
X031191Y013991D01*
X031123Y013991D01*
X031055Y013923D01*
X031055Y013786D01*
X031123Y013718D01*
X031055Y013531D02*
X031465Y013257D01*
X031465Y013718D02*
X031465Y013991D01*
X030715Y013923D02*
X030647Y013991D01*
X030305Y013991D01*
X030305Y014178D02*
X030715Y014178D01*
X030715Y014452D01*
X030715Y014639D02*
X030305Y014639D01*
X030305Y014912D01*
X030510Y014775D02*
X030510Y014639D01*
X030715Y014639D02*
X030715Y014912D01*
X030715Y013923D02*
X030715Y013786D01*
X030647Y013718D01*
X030305Y013718D01*
X030373Y013531D02*
X030305Y013463D01*
X030305Y013257D01*
X030715Y013257D01*
X030715Y013463D01*
X030647Y013531D01*
X030373Y013531D01*
X030373Y013071D02*
X030305Y013002D01*
X030305Y012865D01*
X030373Y012797D01*
X030647Y012797D01*
X030715Y012865D01*
X030715Y013002D01*
X030647Y013071D01*
X030373Y013071D01*
X030305Y012610D02*
X030715Y012610D01*
X030715Y012337D02*
X030305Y012337D01*
X030441Y012473D01*
X030305Y012610D01*
X030783Y012150D02*
X030783Y011876D01*
X030647Y011689D02*
X030373Y011689D01*
X030305Y011621D01*
X030305Y011416D01*
X030715Y011416D01*
X030715Y011621D01*
X030647Y011689D01*
X030647Y011229D02*
X030715Y011161D01*
X030715Y011024D01*
X030647Y010955D01*
X030373Y010955D01*
X030305Y011024D01*
X030305Y011161D01*
X030373Y011229D01*
X030715Y010769D02*
X030715Y010495D01*
X030305Y010495D01*
X031055Y010495D02*
X031465Y010495D01*
X031465Y010769D01*
X031397Y010955D02*
X031123Y010955D01*
X031055Y011024D01*
X031055Y011161D01*
X031123Y011229D01*
X031397Y011229D02*
X031465Y011161D01*
X031465Y011024D01*
X031397Y010955D01*
X038605Y023184D02*
X038605Y023389D01*
X038673Y023458D01*
X038810Y023458D01*
X038878Y023389D01*
X038878Y023184D01*
X038878Y023321D02*
X039015Y023458D01*
X039015Y023644D02*
X039015Y023918D01*
X039015Y023781D02*
X038605Y023781D01*
X038741Y023644D01*
X038605Y023184D02*
X039015Y023184D01*
X041105Y023184D02*
X041105Y023389D01*
X041173Y023458D01*
X041310Y023458D01*
X041378Y023389D01*
X041378Y023184D01*
X041378Y023321D02*
X041515Y023458D01*
X041515Y023644D02*
X041515Y023918D01*
X041515Y023781D02*
X041105Y023781D01*
X041241Y023644D01*
X041173Y024105D02*
X041105Y024173D01*
X041105Y024310D01*
X041173Y024378D01*
X041241Y024378D01*
X041515Y024105D01*
X041515Y024378D01*
X041310Y024565D02*
X041310Y024839D01*
X041447Y025026D02*
X041173Y025299D01*
X041447Y025299D01*
X041515Y025231D01*
X041515Y025094D01*
X041447Y025026D01*
X041173Y025026D01*
X041105Y025094D01*
X041105Y025231D01*
X041173Y025299D01*
X041105Y023184D02*
X041515Y023184D01*
X034373Y029263D02*
X034305Y029195D01*
X034168Y029195D01*
X034100Y029263D01*
X034100Y029400D02*
X034236Y029469D01*
X034305Y029469D01*
X034373Y029400D01*
X034373Y029263D01*
X034100Y029400D02*
X034100Y029605D01*
X034373Y029605D01*
X036073Y032445D02*
X036141Y032445D01*
X036210Y032513D01*
X036210Y032650D01*
X036278Y032719D01*
X036347Y032719D01*
X036415Y032650D01*
X036415Y032513D01*
X036347Y032445D01*
X036073Y032445D02*
X036005Y032513D01*
X036005Y032650D01*
X036073Y032719D01*
X036005Y032905D02*
X036005Y033179D01*
X036005Y033042D02*
X036415Y033042D01*
X036415Y033366D02*
X036141Y033366D01*
X036005Y033503D01*
X036141Y033639D01*
X036415Y033639D01*
X036415Y033826D02*
X036005Y033826D01*
X036005Y034031D01*
X036073Y034100D01*
X036210Y034100D01*
X036278Y034031D01*
X036278Y033826D01*
X036278Y033963D02*
X036415Y034100D01*
X036415Y034423D02*
X036005Y034423D01*
X036005Y034287D02*
X036005Y034560D01*
X036210Y033639D02*
X036210Y033366D01*
X036259Y036245D02*
X036190Y036313D01*
X036464Y036587D01*
X036464Y036313D01*
X036396Y036245D01*
X036259Y036245D01*
X036190Y036313D02*
X036190Y036587D01*
X036259Y036655D01*
X036396Y036655D01*
X036464Y036587D01*
X036651Y036655D02*
X036651Y036245D01*
X036651Y036382D02*
X036924Y036655D01*
X036719Y036450D02*
X036924Y036245D01*
X036396Y036870D02*
X036259Y036870D01*
X036190Y036938D01*
X036327Y037075D02*
X036396Y037075D01*
X036464Y037007D01*
X036464Y036938D01*
X036396Y036870D01*
X036396Y037075D02*
X036464Y037144D01*
X036464Y037212D01*
X036396Y037280D01*
X036259Y037280D01*
X036190Y037212D01*
X036004Y037212D02*
X036004Y037075D01*
X035935Y037007D01*
X035730Y037007D01*
X035867Y037007D02*
X036004Y036870D01*
X035867Y036655D02*
X035867Y036245D01*
X035730Y036245D02*
X036004Y036245D01*
X035730Y036519D02*
X035867Y036655D01*
X035730Y036870D02*
X035730Y037280D01*
X035935Y037280D01*
X036004Y037212D01*
X040705Y034585D02*
X040841Y034448D01*
X040705Y034312D01*
X041115Y034312D01*
X041115Y034125D02*
X040705Y034125D01*
X040841Y033988D01*
X040705Y033851D01*
X041115Y033851D01*
X041115Y033664D02*
X041115Y033391D01*
X040841Y033664D01*
X040773Y033664D01*
X040705Y033596D01*
X040705Y033459D01*
X040773Y033391D01*
X040705Y033067D02*
X041115Y033067D01*
X041115Y032930D02*
X041115Y033204D01*
X040841Y032930D02*
X040705Y033067D01*
X040773Y032744D02*
X040705Y032675D01*
X040705Y032538D01*
X040773Y032470D01*
X040773Y032744D02*
X040841Y032744D01*
X041115Y032470D01*
X041115Y032744D01*
X041115Y034585D02*
X040705Y034585D01*
X015424Y018280D02*
X015151Y018007D01*
X015219Y018075D02*
X015424Y017870D01*
X015151Y017870D02*
X015151Y018280D01*
X014964Y018212D02*
X014690Y017938D01*
X014759Y017870D01*
X014896Y017870D01*
X014964Y017938D01*
X014964Y018212D01*
X014896Y018280D01*
X014759Y018280D01*
X014690Y018212D01*
X014690Y017938D01*
X014504Y017870D02*
X014230Y017870D01*
X014367Y017870D02*
X014367Y018280D01*
X014230Y018144D01*
X014230Y018495D02*
X014230Y018905D01*
X014435Y018905D01*
X014504Y018837D01*
X014504Y018700D01*
X014435Y018632D01*
X014230Y018632D01*
X014367Y018632D02*
X014504Y018495D01*
X014690Y018563D02*
X014690Y018632D01*
X014759Y018700D01*
X014896Y018700D01*
X014964Y018632D01*
X014964Y018563D01*
X014896Y018495D01*
X014759Y018495D01*
X014690Y018563D01*
X014759Y018700D02*
X014690Y018769D01*
X014690Y018837D01*
X014759Y018905D01*
X014896Y018905D01*
X014964Y018837D01*
X014964Y018769D01*
X014896Y018700D01*
X013788Y018280D02*
X013788Y017870D01*
X013924Y017870D02*
X013651Y017870D01*
X013464Y017938D02*
X013396Y017870D01*
X013259Y017870D01*
X013190Y017938D01*
X013259Y018075D02*
X013396Y018075D01*
X013464Y018007D01*
X013464Y017938D01*
X013259Y018075D02*
X013190Y018144D01*
X013190Y018212D01*
X013259Y018280D01*
X013396Y018280D01*
X013464Y018212D01*
X013651Y018144D02*
X013788Y018280D01*
X013694Y017655D02*
X013421Y017655D01*
X013421Y017450D01*
X013557Y017519D01*
X013626Y017519D01*
X013694Y017450D01*
X013694Y017313D01*
X013626Y017245D01*
X013489Y017245D01*
X013421Y017313D01*
X013234Y017587D02*
X012960Y017313D01*
X012960Y017245D01*
X012798Y017245D02*
X012730Y017245D01*
X012730Y017313D01*
X012798Y017313D01*
X012798Y017245D01*
X012960Y017655D02*
X013234Y017655D01*
X013234Y017587D01*
X013004Y017870D02*
X012867Y018007D01*
X012935Y018007D02*
X012730Y018007D01*
X012730Y017870D02*
X012730Y018280D01*
X012935Y018280D01*
X013004Y018212D01*
X013004Y018075D01*
X012935Y018007D01*
X012174Y018144D02*
X011901Y017870D01*
X012174Y017870D01*
X012174Y018144D02*
X012174Y018212D01*
X012106Y018280D01*
X011969Y018280D01*
X011901Y018212D01*
X011714Y018212D02*
X011646Y018280D01*
X011509Y018280D01*
X011440Y018212D01*
X011440Y018144D01*
X011509Y018075D01*
X011646Y018075D01*
X011714Y018007D01*
X011714Y017938D01*
X011646Y017870D01*
X011509Y017870D01*
X011440Y017938D01*
X011254Y017870D02*
X011117Y018007D01*
X011185Y018007D02*
X010980Y018007D01*
X010980Y017870D02*
X010980Y018280D01*
X011185Y018280D01*
X011254Y018212D01*
X011254Y018075D01*
X011185Y018007D01*
X011210Y017655D02*
X011484Y017655D01*
X011484Y017587D01*
X011210Y017313D01*
X011210Y017245D01*
X011048Y017245D02*
X010980Y017245D01*
X010980Y017313D01*
X011048Y017313D01*
X011048Y017245D01*
X011671Y017313D02*
X011739Y017245D01*
X011876Y017245D01*
X011944Y017313D01*
X011944Y017450D01*
X011876Y017519D01*
X011807Y017519D01*
X011671Y017450D01*
X011671Y017655D01*
X011944Y017655D01*
X009799Y017087D02*
X009731Y017155D01*
X009594Y017155D01*
X009526Y017087D01*
X009799Y017087D02*
X009799Y017019D01*
X009526Y016745D01*
X009799Y016745D01*
X009674Y016530D02*
X009401Y016257D01*
X009469Y016325D02*
X009674Y016120D01*
X009401Y016120D02*
X009401Y016530D01*
X009214Y016462D02*
X008940Y016188D01*
X009009Y016120D01*
X009146Y016120D01*
X009214Y016188D01*
X009214Y016462D01*
X009146Y016530D01*
X009009Y016530D01*
X008940Y016462D01*
X008940Y016188D01*
X008754Y016120D02*
X008480Y016120D01*
X008617Y016120D02*
X008617Y016530D01*
X008480Y016394D01*
X008605Y016745D02*
X008605Y017155D01*
X008810Y017155D01*
X008879Y017087D01*
X008879Y016950D01*
X008810Y016882D01*
X008605Y016882D01*
X008742Y016882D02*
X008879Y016745D01*
X009065Y016745D02*
X009339Y016745D01*
X009202Y016745D02*
X009202Y017155D01*
X009065Y017019D01*
X008793Y014780D02*
X008520Y014507D01*
X008588Y014575D02*
X008793Y014370D01*
X008520Y014370D02*
X008520Y014780D01*
X008333Y014712D02*
X008059Y014438D01*
X008128Y014370D01*
X008264Y014370D01*
X008333Y014438D01*
X008333Y014712D01*
X008264Y014780D01*
X008128Y014780D01*
X008059Y014712D01*
X008059Y014438D01*
X007872Y014370D02*
X007599Y014370D01*
X007736Y014370D02*
X007736Y014780D01*
X007599Y014644D01*
X007293Y014370D02*
X007020Y014370D01*
X007156Y014370D02*
X007156Y014780D01*
X007020Y014644D01*
X006833Y014370D02*
X006559Y014370D01*
X006696Y014370D02*
X006696Y014780D01*
X006559Y014644D01*
X006372Y014712D02*
X006372Y014575D01*
X006304Y014507D01*
X006099Y014507D01*
X006236Y014507D02*
X006372Y014370D01*
X006099Y014370D02*
X006099Y014780D01*
X006304Y014780D01*
X006372Y014712D01*
X005140Y014712D02*
X004730Y014712D01*
X004730Y014917D01*
X004798Y014985D01*
X004935Y014985D01*
X005003Y014917D01*
X005003Y014712D01*
X005003Y014848D02*
X005140Y014985D01*
X005072Y014525D02*
X004798Y014525D01*
X004730Y014456D01*
X004730Y014320D01*
X004798Y014251D01*
X005072Y014251D01*
X005140Y014320D01*
X005140Y014456D01*
X005072Y014525D01*
X004730Y014064D02*
X004730Y013791D01*
X004730Y013928D02*
X005140Y013928D01*
X005072Y013604D02*
X004798Y013604D01*
X004730Y013536D01*
X004730Y013399D01*
X004798Y013330D01*
X005072Y013330D01*
X005140Y013399D01*
X005140Y013536D01*
X005072Y013604D01*
X005140Y013144D02*
X004730Y013144D01*
X004866Y013007D01*
X004730Y012870D01*
X005140Y012870D01*
X011730Y012757D02*
X011730Y012620D01*
X011730Y012688D02*
X012140Y012688D01*
X012140Y012620D02*
X012140Y012757D01*
X012072Y012927D02*
X011798Y012927D01*
X011730Y012995D01*
X011730Y013132D01*
X011798Y013200D01*
X011866Y013387D02*
X011730Y013524D01*
X012140Y013524D01*
X012140Y013387D02*
X012140Y013661D01*
X012072Y013200D02*
X012140Y013132D01*
X012140Y012995D01*
X012072Y012927D01*
X012855Y012746D02*
X012855Y012609D01*
X012923Y012541D01*
X012991Y012541D01*
X013060Y012609D01*
X013060Y012814D01*
X013197Y012814D02*
X012923Y012814D01*
X012855Y012746D01*
X013060Y013001D02*
X013060Y013206D01*
X013128Y013275D01*
X013197Y013275D01*
X013265Y013206D01*
X013265Y013070D01*
X013197Y013001D01*
X013060Y013001D01*
X012923Y013138D01*
X012855Y013275D01*
X012855Y013462D02*
X012855Y013735D01*
X012923Y013735D01*
X013197Y013462D01*
X013265Y013462D01*
X013197Y013922D02*
X013265Y013990D01*
X013265Y014127D01*
X013197Y014196D01*
X013128Y014196D01*
X013060Y014127D01*
X013060Y013990D01*
X012991Y013922D01*
X012923Y013922D01*
X012855Y013990D01*
X012855Y014127D01*
X012923Y014196D01*
X012855Y014382D02*
X013265Y014382D01*
X013265Y014656D01*
X013265Y014843D02*
X013265Y015048D01*
X013197Y015116D01*
X013128Y015116D01*
X013060Y015048D01*
X013060Y014843D01*
X013060Y015048D02*
X012991Y015116D01*
X012923Y015116D01*
X012855Y015048D01*
X012855Y014843D01*
X013265Y014843D01*
X013197Y012814D02*
X013265Y012746D01*
X013265Y012609D01*
X013197Y012541D01*
X013197Y012354D02*
X013265Y012286D01*
X013265Y012149D01*
X013197Y012080D01*
X013060Y012217D02*
X013060Y012286D01*
X013128Y012354D01*
X013197Y012354D01*
X013060Y012286D02*
X012991Y012354D01*
X012923Y012354D01*
X012855Y012286D01*
X012855Y012149D01*
X012923Y012080D01*
X012991Y011894D02*
X013265Y011894D01*
X013060Y011894D02*
X013060Y011620D01*
X012991Y011620D02*
X012855Y011757D01*
X012991Y011894D01*
X012991Y011620D02*
X013265Y011620D01*
D13*
X013319Y010250D02*
X013321Y010273D01*
X013327Y010296D01*
X013336Y010317D01*
X013349Y010337D01*
X013365Y010354D01*
X013383Y010368D01*
X013403Y010379D01*
X013425Y010387D01*
X013448Y010391D01*
X013472Y010391D01*
X013495Y010387D01*
X013517Y010379D01*
X013537Y010368D01*
X013555Y010354D01*
X013571Y010337D01*
X013584Y010317D01*
X013593Y010296D01*
X013599Y010273D01*
X013601Y010250D01*
X013599Y010227D01*
X013593Y010204D01*
X013584Y010183D01*
X013571Y010163D01*
X013555Y010146D01*
X013537Y010132D01*
X013517Y010121D01*
X013495Y010113D01*
X013472Y010109D01*
X013448Y010109D01*
X013425Y010113D01*
X013403Y010121D01*
X013383Y010132D01*
X013365Y010146D01*
X013349Y010163D01*
X013336Y010183D01*
X013327Y010204D01*
X013321Y010227D01*
X013319Y010250D01*
X013817Y009887D02*
X011303Y009887D01*
X011303Y016013D01*
X013817Y016013D01*
X013820Y016013D02*
X013820Y009887D01*
X013710Y009250D02*
X014910Y009250D01*
X014910Y008650D01*
X013710Y008650D01*
X013710Y009250D01*
X013260Y009475D02*
X013260Y008675D01*
X011860Y008675D01*
X011860Y009475D01*
X013260Y009475D01*
X014960Y009400D02*
X014960Y010000D01*
X016160Y010000D01*
X016160Y009400D01*
X014960Y009400D01*
X014960Y009250D02*
X016160Y009250D01*
X016160Y008650D01*
X014960Y008650D01*
X014960Y009250D01*
X014960Y010150D02*
X014960Y010750D01*
X016160Y010750D01*
X016160Y010150D01*
X014960Y010150D01*
X014960Y010900D02*
X014960Y011500D01*
X016160Y011500D01*
X016160Y010900D01*
X014960Y010900D01*
X017673Y008202D02*
X031847Y008202D01*
X031847Y039698D01*
X017673Y039698D01*
X017673Y008202D01*
X019583Y009915D02*
X029937Y009915D01*
X029937Y037985D01*
X019583Y037985D01*
X019583Y009915D01*
X014685Y016075D02*
X014685Y017075D01*
X012685Y017075D01*
X012685Y016075D01*
X014685Y016075D01*
X014085Y017150D02*
X014085Y017750D01*
X015285Y017750D01*
X015285Y017150D01*
X014085Y017150D01*
X012435Y017075D02*
X012435Y016075D01*
X010435Y016075D01*
X010435Y017075D01*
X012435Y017075D01*
X010160Y016000D02*
X010160Y015400D01*
X008960Y015400D01*
X008960Y016000D01*
X010160Y016000D01*
X010160Y015000D02*
X010160Y014400D01*
X008960Y014400D01*
X008960Y015000D01*
X010160Y015000D01*
X010160Y011500D02*
X008960Y011500D01*
X008960Y010900D01*
X010160Y010900D01*
X010160Y011500D01*
X010160Y010750D02*
X010160Y010150D01*
X008960Y010150D01*
X008960Y010750D01*
X010160Y010750D01*
X010160Y010000D02*
X010160Y009400D01*
X008960Y009400D01*
X008960Y010000D01*
X010160Y010000D01*
X010160Y009250D02*
X010160Y008650D01*
X008960Y008650D01*
X008960Y009250D01*
X010160Y009250D01*
X010210Y009250D02*
X011410Y009250D01*
X011410Y008650D01*
X010210Y008650D01*
X010210Y009250D01*
X003360Y012450D02*
X003110Y012450D01*
X003110Y012700D01*
X003110Y013200D02*
X003110Y013450D01*
X003360Y013450D01*
X003360Y014450D02*
X003110Y014450D01*
X003110Y014700D01*
X003110Y015200D02*
X003110Y015450D01*
X003360Y015450D01*
X013320Y031450D02*
X015960Y031450D01*
X015960Y034450D01*
X013320Y034450D01*
X013320Y031450D01*
X013456Y032950D02*
X013458Y033019D01*
X013464Y033087D01*
X013474Y033155D01*
X013487Y033223D01*
X013505Y033289D01*
X013526Y033355D01*
X013551Y033419D01*
X013580Y033481D01*
X013612Y033542D01*
X013647Y033601D01*
X013686Y033658D01*
X013728Y033712D01*
X013773Y033764D01*
X013821Y033813D01*
X013872Y033860D01*
X013925Y033903D01*
X013980Y033944D01*
X014038Y033981D01*
X014098Y034015D01*
X014160Y034045D01*
X014223Y034072D01*
X014288Y034095D01*
X014354Y034114D01*
X014421Y034130D01*
X014489Y034142D01*
X014557Y034150D01*
X014626Y034154D01*
X014694Y034154D01*
X014763Y034150D01*
X014831Y034142D01*
X014899Y034130D01*
X014966Y034114D01*
X015032Y034095D01*
X015097Y034072D01*
X015160Y034045D01*
X015222Y034015D01*
X015282Y033981D01*
X015340Y033944D01*
X015395Y033903D01*
X015448Y033860D01*
X015499Y033813D01*
X015547Y033764D01*
X015592Y033712D01*
X015634Y033658D01*
X015673Y033601D01*
X015708Y033542D01*
X015740Y033481D01*
X015769Y033419D01*
X015794Y033355D01*
X015815Y033289D01*
X015833Y033223D01*
X015846Y033155D01*
X015856Y033087D01*
X015862Y033019D01*
X015864Y032950D01*
X015862Y032881D01*
X015856Y032813D01*
X015846Y032745D01*
X015833Y032677D01*
X015815Y032611D01*
X015794Y032545D01*
X015769Y032481D01*
X015740Y032419D01*
X015708Y032358D01*
X015673Y032299D01*
X015634Y032242D01*
X015592Y032188D01*
X015547Y032136D01*
X015499Y032087D01*
X015448Y032040D01*
X015395Y031997D01*
X015340Y031956D01*
X015282Y031919D01*
X015222Y031885D01*
X015160Y031855D01*
X015097Y031828D01*
X015032Y031805D01*
X014966Y031786D01*
X014899Y031770D01*
X014831Y031758D01*
X014763Y031750D01*
X014694Y031746D01*
X014626Y031746D01*
X014557Y031750D01*
X014489Y031758D01*
X014421Y031770D01*
X014354Y031786D01*
X014288Y031805D01*
X014223Y031828D01*
X014160Y031855D01*
X014098Y031885D01*
X014038Y031919D01*
X013980Y031956D01*
X013925Y031997D01*
X013872Y032040D01*
X013821Y032087D01*
X013773Y032136D01*
X013728Y032188D01*
X013686Y032242D01*
X013647Y032299D01*
X013612Y032358D01*
X013580Y032419D01*
X013551Y032481D01*
X013526Y032545D01*
X013505Y032611D01*
X013487Y032677D01*
X013474Y032745D01*
X013464Y032813D01*
X013458Y032881D01*
X013456Y032950D01*
X013960Y033250D02*
X013960Y033650D01*
X014360Y033650D01*
X014260Y033550D01*
X015460Y032350D01*
X015260Y032150D01*
X014060Y033350D01*
X013960Y033250D01*
X013440Y034190D02*
X013442Y034210D01*
X013448Y034228D01*
X013457Y034246D01*
X013469Y034261D01*
X013484Y034273D01*
X013502Y034282D01*
X013520Y034288D01*
X013540Y034290D01*
X013560Y034288D01*
X013578Y034282D01*
X013596Y034273D01*
X013611Y034261D01*
X013623Y034246D01*
X013632Y034228D01*
X013638Y034210D01*
X013640Y034190D01*
X013638Y034170D01*
X013632Y034152D01*
X013623Y034134D01*
X013611Y034119D01*
X013596Y034107D01*
X013578Y034098D01*
X013560Y034092D01*
X013540Y034090D01*
X013520Y034092D01*
X013502Y034098D01*
X013484Y034107D01*
X013469Y034119D01*
X013457Y034134D01*
X013448Y034152D01*
X013442Y034170D01*
X013440Y034190D01*
X013660Y036050D02*
X015660Y036050D01*
X015860Y036250D01*
X015860Y036850D01*
X015860Y036845D02*
X015860Y038250D01*
X015660Y038450D01*
X013660Y038450D01*
X013460Y038250D01*
X013460Y036857D01*
X013460Y036850D02*
X013460Y036250D01*
X013660Y036050D01*
X013960Y037250D02*
X013962Y037302D01*
X013968Y037354D01*
X013978Y037406D01*
X013991Y037456D01*
X014008Y037506D01*
X014029Y037554D01*
X014054Y037600D01*
X014082Y037644D01*
X014113Y037686D01*
X014147Y037726D01*
X014184Y037763D01*
X014224Y037797D01*
X014266Y037828D01*
X014310Y037856D01*
X014356Y037881D01*
X014404Y037902D01*
X014454Y037919D01*
X014504Y037932D01*
X014556Y037942D01*
X014608Y037948D01*
X014660Y037950D01*
X014712Y037948D01*
X014764Y037942D01*
X014816Y037932D01*
X014866Y037919D01*
X014916Y037902D01*
X014964Y037881D01*
X015010Y037856D01*
X015054Y037828D01*
X015096Y037797D01*
X015136Y037763D01*
X015173Y037726D01*
X015207Y037686D01*
X015238Y037644D01*
X015266Y037600D01*
X015291Y037554D01*
X015312Y037506D01*
X015329Y037456D01*
X015342Y037406D01*
X015352Y037354D01*
X015358Y037302D01*
X015360Y037250D01*
X015358Y037198D01*
X015352Y037146D01*
X015342Y037094D01*
X015329Y037044D01*
X015312Y036994D01*
X015291Y036946D01*
X015266Y036900D01*
X015238Y036856D01*
X015207Y036814D01*
X015173Y036774D01*
X015136Y036737D01*
X015096Y036703D01*
X015054Y036672D01*
X015010Y036644D01*
X014964Y036619D01*
X014916Y036598D01*
X014866Y036581D01*
X014816Y036568D01*
X014764Y036558D01*
X014712Y036552D01*
X014660Y036550D01*
X014608Y036552D01*
X014556Y036558D01*
X014504Y036568D01*
X014454Y036581D01*
X014404Y036598D01*
X014356Y036619D01*
X014310Y036644D01*
X014266Y036672D01*
X014224Y036703D01*
X014184Y036737D01*
X014147Y036774D01*
X014113Y036814D01*
X014082Y036856D01*
X014054Y036900D01*
X014029Y036946D01*
X014008Y036994D01*
X013991Y037044D01*
X013978Y037094D01*
X013968Y037146D01*
X013962Y037198D01*
X013960Y037250D01*
X015510Y037400D02*
X015660Y037050D01*
X015660Y036750D01*
X015660Y037450D02*
X015660Y037750D01*
X008560Y037150D02*
X008562Y037194D01*
X008568Y037238D01*
X008578Y037281D01*
X008591Y037323D01*
X008608Y037364D01*
X008629Y037403D01*
X008653Y037440D01*
X008680Y037475D01*
X008710Y037507D01*
X008743Y037537D01*
X008779Y037563D01*
X008816Y037587D01*
X008856Y037606D01*
X008897Y037623D01*
X008940Y037635D01*
X008983Y037644D01*
X009027Y037649D01*
X009071Y037650D01*
X009115Y037647D01*
X009159Y037640D01*
X009202Y037629D01*
X009244Y037615D01*
X009284Y037597D01*
X009323Y037575D01*
X009359Y037551D01*
X009393Y037523D01*
X009425Y037492D01*
X009454Y037458D01*
X009480Y037422D01*
X009502Y037384D01*
X009521Y037344D01*
X009536Y037302D01*
X009548Y037260D01*
X009556Y037216D01*
X009560Y037172D01*
X009560Y037128D01*
X009556Y037084D01*
X009548Y037040D01*
X009536Y036998D01*
X009521Y036956D01*
X009502Y036916D01*
X009480Y036878D01*
X009454Y036842D01*
X009425Y036808D01*
X009393Y036777D01*
X009359Y036749D01*
X009323Y036725D01*
X009284Y036703D01*
X009244Y036685D01*
X009202Y036671D01*
X009159Y036660D01*
X009115Y036653D01*
X009071Y036650D01*
X009027Y036651D01*
X008983Y036656D01*
X008940Y036665D01*
X008897Y036677D01*
X008856Y036694D01*
X008816Y036713D01*
X008779Y036737D01*
X008743Y036763D01*
X008710Y036793D01*
X008680Y036825D01*
X008653Y036860D01*
X008629Y036897D01*
X008608Y036936D01*
X008591Y036977D01*
X008578Y037019D01*
X008568Y037062D01*
X008562Y037106D01*
X008560Y037150D01*
X006737Y037150D02*
X006739Y037246D01*
X006745Y037342D01*
X006755Y037437D01*
X006769Y037532D01*
X006786Y037627D01*
X006808Y037720D01*
X006834Y037813D01*
X006863Y037904D01*
X006896Y037994D01*
X006933Y038083D01*
X006973Y038170D01*
X007017Y038256D01*
X007064Y038339D01*
X007115Y038421D01*
X007169Y038500D01*
X007227Y038577D01*
X007287Y038651D01*
X007351Y038723D01*
X007417Y038793D01*
X007487Y038859D01*
X007559Y038923D01*
X007633Y038983D01*
X007710Y039041D01*
X007789Y039095D01*
X007871Y039146D01*
X007954Y039193D01*
X008040Y039237D01*
X008127Y039277D01*
X008216Y039314D01*
X008306Y039347D01*
X008397Y039376D01*
X008490Y039402D01*
X008583Y039424D01*
X008678Y039441D01*
X008773Y039455D01*
X008868Y039465D01*
X008964Y039471D01*
X009060Y039473D01*
X009156Y039471D01*
X009252Y039465D01*
X009347Y039455D01*
X009442Y039441D01*
X009537Y039424D01*
X009630Y039402D01*
X009723Y039376D01*
X009814Y039347D01*
X009904Y039314D01*
X009993Y039277D01*
X010080Y039237D01*
X010166Y039193D01*
X010249Y039146D01*
X010331Y039095D01*
X010410Y039041D01*
X010487Y038983D01*
X010561Y038923D01*
X010633Y038859D01*
X010703Y038793D01*
X010769Y038723D01*
X010833Y038651D01*
X010893Y038577D01*
X010951Y038500D01*
X011005Y038421D01*
X011056Y038339D01*
X011103Y038256D01*
X011147Y038170D01*
X011187Y038083D01*
X011224Y037994D01*
X011257Y037904D01*
X011286Y037813D01*
X011312Y037720D01*
X011334Y037627D01*
X011351Y037532D01*
X011365Y037437D01*
X011375Y037342D01*
X011381Y037246D01*
X011383Y037150D01*
X011381Y037054D01*
X011375Y036958D01*
X011365Y036863D01*
X011351Y036768D01*
X011334Y036673D01*
X011312Y036580D01*
X011286Y036487D01*
X011257Y036396D01*
X011224Y036306D01*
X011187Y036217D01*
X011147Y036130D01*
X011103Y036044D01*
X011056Y035961D01*
X011005Y035879D01*
X010951Y035800D01*
X010893Y035723D01*
X010833Y035649D01*
X010769Y035577D01*
X010703Y035507D01*
X010633Y035441D01*
X010561Y035377D01*
X010487Y035317D01*
X010410Y035259D01*
X010331Y035205D01*
X010249Y035154D01*
X010166Y035107D01*
X010080Y035063D01*
X009993Y035023D01*
X009904Y034986D01*
X009814Y034953D01*
X009723Y034924D01*
X009630Y034898D01*
X009537Y034876D01*
X009442Y034859D01*
X009347Y034845D01*
X009252Y034835D01*
X009156Y034829D01*
X009060Y034827D01*
X008964Y034829D01*
X008868Y034835D01*
X008773Y034845D01*
X008678Y034859D01*
X008583Y034876D01*
X008490Y034898D01*
X008397Y034924D01*
X008306Y034953D01*
X008216Y034986D01*
X008127Y035023D01*
X008040Y035063D01*
X007954Y035107D01*
X007871Y035154D01*
X007789Y035205D01*
X007710Y035259D01*
X007633Y035317D01*
X007559Y035377D01*
X007487Y035441D01*
X007417Y035507D01*
X007351Y035577D01*
X007287Y035649D01*
X007227Y035723D01*
X007169Y035800D01*
X007115Y035879D01*
X007064Y035961D01*
X007017Y036044D01*
X006973Y036130D01*
X006933Y036217D01*
X006896Y036306D01*
X006863Y036396D01*
X006834Y036487D01*
X006808Y036580D01*
X006786Y036673D01*
X006769Y036768D01*
X006755Y036863D01*
X006745Y036958D01*
X006739Y037054D01*
X006737Y037150D01*
X006895Y037150D02*
X007288Y037150D01*
X007092Y037347D02*
X007092Y036953D01*
X033031Y016604D02*
X033031Y015383D01*
X033031Y014517D02*
X033031Y013296D01*
X035984Y013296D01*
X036339Y013651D01*
X036339Y014517D01*
X036339Y015383D02*
X036339Y016249D01*
X035984Y016604D01*
X033031Y016604D01*
X033208Y014537D02*
X033232Y014463D01*
X033259Y014390D01*
X033290Y014318D01*
X033324Y014248D01*
X033362Y014180D01*
X033403Y014114D01*
X033447Y014050D01*
X033495Y013989D01*
X033546Y013930D01*
X033599Y013874D01*
X033656Y013820D01*
X033715Y013769D01*
X033776Y013722D01*
X033840Y013677D01*
X033906Y013636D01*
X033974Y013598D01*
X034044Y013564D01*
X034115Y013534D01*
X034188Y013506D01*
X034263Y013483D01*
X034338Y013464D01*
X034414Y013448D01*
X034491Y013436D01*
X034568Y013428D01*
X034646Y013424D01*
X034724Y013424D01*
X034802Y013428D01*
X034879Y013436D01*
X034956Y013448D01*
X035032Y013464D01*
X035107Y013483D01*
X035182Y013506D01*
X035255Y013534D01*
X035326Y013564D01*
X035396Y013598D01*
X035464Y013636D01*
X035530Y013677D01*
X035594Y013722D01*
X035655Y013769D01*
X035714Y013820D01*
X035771Y013874D01*
X035824Y013930D01*
X035875Y013989D01*
X035923Y014050D01*
X035967Y014114D01*
X036008Y014180D01*
X036046Y014248D01*
X036080Y014318D01*
X036111Y014390D01*
X036138Y014463D01*
X036162Y014537D01*
X036162Y015363D02*
X036138Y015437D01*
X036111Y015510D01*
X036080Y015582D01*
X036046Y015652D01*
X036008Y015720D01*
X035967Y015786D01*
X035923Y015850D01*
X035875Y015911D01*
X035824Y015970D01*
X035771Y016026D01*
X035714Y016080D01*
X035655Y016131D01*
X035594Y016178D01*
X035530Y016223D01*
X035464Y016264D01*
X035396Y016302D01*
X035326Y016336D01*
X035255Y016366D01*
X035182Y016394D01*
X035107Y016417D01*
X035032Y016436D01*
X034956Y016452D01*
X034879Y016464D01*
X034802Y016472D01*
X034724Y016476D01*
X034646Y016476D01*
X034568Y016472D01*
X034491Y016464D01*
X034414Y016452D01*
X034338Y016436D01*
X034263Y016417D01*
X034188Y016394D01*
X034115Y016366D01*
X034044Y016336D01*
X033974Y016302D01*
X033906Y016264D01*
X033840Y016223D01*
X033776Y016178D01*
X033715Y016131D01*
X033656Y016080D01*
X033599Y016026D01*
X033546Y015970D01*
X033495Y015911D01*
X033447Y015850D01*
X033403Y015786D01*
X033362Y015720D01*
X033324Y015652D01*
X033290Y015582D01*
X033259Y015510D01*
X033232Y015437D01*
X033208Y015363D01*
X033110Y012850D02*
X033110Y012050D01*
X034510Y012050D01*
X034510Y012850D01*
X033110Y012850D01*
X037092Y031088D02*
X037485Y031088D01*
X037092Y031087D02*
X037053Y031089D01*
X037015Y031095D01*
X036978Y031104D01*
X036941Y031117D01*
X036906Y031134D01*
X036873Y031153D01*
X036842Y031176D01*
X036813Y031202D01*
X036787Y031231D01*
X036764Y031262D01*
X036745Y031295D01*
X036728Y031330D01*
X036715Y031367D01*
X036706Y031404D01*
X036700Y031442D01*
X036698Y031481D01*
X036698Y035419D01*
X036700Y035458D01*
X036706Y035496D01*
X036715Y035533D01*
X036728Y035570D01*
X036745Y035605D01*
X036764Y035638D01*
X036787Y035669D01*
X036813Y035698D01*
X036842Y035724D01*
X036873Y035747D01*
X036906Y035766D01*
X036941Y035783D01*
X036978Y035796D01*
X037015Y035805D01*
X037053Y035811D01*
X037092Y035813D01*
X037092Y035812D02*
X037485Y035812D01*
X038666Y035812D02*
X039454Y035812D01*
X039572Y035419D02*
X039336Y035419D01*
X039139Y035222D01*
X038981Y035419D02*
X038666Y035419D01*
X040635Y035812D02*
X041029Y035812D01*
X041029Y035813D02*
X041068Y035811D01*
X041106Y035805D01*
X041143Y035796D01*
X041180Y035783D01*
X041215Y035766D01*
X041248Y035747D01*
X041279Y035724D01*
X041308Y035698D01*
X041334Y035669D01*
X041357Y035638D01*
X041376Y035605D01*
X041393Y035570D01*
X041406Y035533D01*
X041415Y035496D01*
X041421Y035458D01*
X041423Y035419D01*
X041422Y035419D02*
X041422Y031481D01*
X041423Y031481D02*
X041421Y031442D01*
X041415Y031404D01*
X041406Y031367D01*
X041393Y031330D01*
X041376Y031295D01*
X041357Y031262D01*
X041334Y031231D01*
X041308Y031202D01*
X041279Y031176D01*
X041248Y031153D01*
X041215Y031134D01*
X041180Y031117D01*
X041143Y031104D01*
X041106Y031095D01*
X041068Y031089D01*
X041029Y031087D01*
X041029Y031088D02*
X040635Y031088D01*
X039454Y031088D02*
X038666Y031088D01*
X037682Y033450D02*
X037684Y033524D01*
X037690Y033598D01*
X037700Y033671D01*
X037714Y033744D01*
X037731Y033816D01*
X037753Y033886D01*
X037778Y033956D01*
X037807Y034024D01*
X037840Y034090D01*
X037876Y034155D01*
X037916Y034217D01*
X037958Y034278D01*
X038004Y034336D01*
X038053Y034391D01*
X038105Y034444D01*
X038160Y034494D01*
X038217Y034540D01*
X038277Y034584D01*
X038339Y034624D01*
X038403Y034661D01*
X038469Y034695D01*
X038537Y034725D01*
X038606Y034751D01*
X038677Y034774D01*
X038748Y034792D01*
X038821Y034807D01*
X038894Y034818D01*
X038968Y034825D01*
X039042Y034828D01*
X039115Y034827D01*
X039189Y034822D01*
X039263Y034813D01*
X039336Y034800D01*
X039408Y034783D01*
X039479Y034763D01*
X039549Y034738D01*
X039617Y034710D01*
X039684Y034679D01*
X039749Y034643D01*
X039812Y034605D01*
X039873Y034563D01*
X039932Y034517D01*
X039988Y034469D01*
X040041Y034418D01*
X040091Y034364D01*
X040139Y034307D01*
X040183Y034248D01*
X040225Y034186D01*
X040263Y034123D01*
X040297Y034057D01*
X040328Y033990D01*
X040355Y033921D01*
X040378Y033851D01*
X040398Y033780D01*
X040414Y033707D01*
X040426Y033634D01*
X040434Y033561D01*
X040438Y033487D01*
X040438Y033413D01*
X040434Y033339D01*
X040426Y033266D01*
X040414Y033193D01*
X040398Y033120D01*
X040378Y033049D01*
X040355Y032979D01*
X040328Y032910D01*
X040297Y032843D01*
X040263Y032777D01*
X040225Y032714D01*
X040183Y032652D01*
X040139Y032593D01*
X040091Y032536D01*
X040041Y032482D01*
X039988Y032431D01*
X039932Y032383D01*
X039873Y032337D01*
X039812Y032295D01*
X039749Y032257D01*
X039684Y032221D01*
X039617Y032190D01*
X039549Y032162D01*
X039479Y032137D01*
X039408Y032117D01*
X039336Y032100D01*
X039263Y032087D01*
X039189Y032078D01*
X039115Y032073D01*
X039042Y032072D01*
X038968Y032075D01*
X038894Y032082D01*
X038821Y032093D01*
X038748Y032108D01*
X038677Y032126D01*
X038606Y032149D01*
X038537Y032175D01*
X038469Y032205D01*
X038403Y032239D01*
X038339Y032276D01*
X038277Y032316D01*
X038217Y032360D01*
X038160Y032406D01*
X038105Y032456D01*
X038053Y032509D01*
X038004Y032564D01*
X037958Y032622D01*
X037916Y032683D01*
X037876Y032745D01*
X037840Y032810D01*
X037807Y032876D01*
X037778Y032944D01*
X037753Y033014D01*
X037731Y033084D01*
X037714Y033156D01*
X037700Y033229D01*
X037690Y033302D01*
X037684Y033376D01*
X037682Y033450D01*
X036235Y034850D02*
X035635Y034850D01*
X035635Y036050D01*
X036235Y036050D01*
X036235Y034850D01*
D14*
X004560Y015700D02*
X004560Y015200D01*
X004310Y014950D01*
X004560Y014700D01*
X004560Y014200D01*
X004310Y013950D01*
X004560Y013700D01*
X004560Y013200D01*
X004310Y012950D01*
X004560Y012700D01*
X004560Y012200D01*
X004310Y011950D01*
X003810Y011950D01*
X003560Y012200D01*
X003560Y012700D01*
X003810Y012950D01*
X003560Y013200D01*
X003560Y013700D01*
X003810Y013950D01*
X003560Y014200D01*
X003560Y014700D01*
X003810Y014950D01*
X003560Y015200D01*
X003560Y015700D01*
X003810Y015950D01*
X004310Y015950D01*
X004560Y015700D01*
X004310Y014950D02*
X003810Y014950D01*
X003280Y015010D02*
X003280Y014880D01*
X003020Y014880D01*
X003020Y015010D01*
X003063Y015053D01*
X003107Y015053D01*
X003150Y015010D01*
X003150Y014880D01*
X003150Y015010D02*
X003193Y015053D01*
X003237Y015053D01*
X003280Y015010D01*
X003810Y013950D02*
X004310Y013950D01*
X004310Y012950D02*
X003810Y012950D01*
X003280Y012880D02*
X003107Y012880D01*
X003020Y012967D01*
X003107Y013053D01*
X003280Y013053D01*
X003150Y013053D02*
X003150Y012880D01*
D15*
X037170Y031678D02*
X037172Y031699D01*
X037178Y031719D01*
X037187Y031739D01*
X037199Y031756D01*
X037214Y031770D01*
X037232Y031782D01*
X037252Y031790D01*
X037272Y031795D01*
X037293Y031796D01*
X037314Y031793D01*
X037334Y031787D01*
X037353Y031776D01*
X037370Y031763D01*
X037383Y031747D01*
X037394Y031729D01*
X037402Y031709D01*
X037406Y031689D01*
X037406Y031667D01*
X037402Y031647D01*
X037394Y031627D01*
X037383Y031609D01*
X037370Y031593D01*
X037353Y031580D01*
X037334Y031569D01*
X037314Y031563D01*
X037293Y031560D01*
X037272Y031561D01*
X037252Y031566D01*
X037232Y031574D01*
X037214Y031586D01*
X037199Y031600D01*
X037187Y031617D01*
X037178Y031637D01*
X037172Y031657D01*
X037170Y031678D01*
X037170Y035222D02*
X037172Y035243D01*
X037178Y035263D01*
X037187Y035283D01*
X037199Y035300D01*
X037214Y035314D01*
X037232Y035326D01*
X037252Y035334D01*
X037272Y035339D01*
X037293Y035340D01*
X037314Y035337D01*
X037334Y035331D01*
X037353Y035320D01*
X037370Y035307D01*
X037383Y035291D01*
X037394Y035273D01*
X037402Y035253D01*
X037406Y035233D01*
X037406Y035211D01*
X037402Y035191D01*
X037394Y035171D01*
X037383Y035153D01*
X037370Y035137D01*
X037353Y035124D01*
X037334Y035113D01*
X037314Y035107D01*
X037293Y035104D01*
X037272Y035105D01*
X037252Y035110D01*
X037232Y035118D01*
X037214Y035130D01*
X037199Y035144D01*
X037187Y035161D01*
X037178Y035181D01*
X037172Y035201D01*
X037170Y035222D01*
X040714Y035222D02*
X040716Y035243D01*
X040722Y035263D01*
X040731Y035283D01*
X040743Y035300D01*
X040758Y035314D01*
X040776Y035326D01*
X040796Y035334D01*
X040816Y035339D01*
X040837Y035340D01*
X040858Y035337D01*
X040878Y035331D01*
X040897Y035320D01*
X040914Y035307D01*
X040927Y035291D01*
X040938Y035273D01*
X040946Y035253D01*
X040950Y035233D01*
X040950Y035211D01*
X040946Y035191D01*
X040938Y035171D01*
X040927Y035153D01*
X040914Y035137D01*
X040897Y035124D01*
X040878Y035113D01*
X040858Y035107D01*
X040837Y035104D01*
X040816Y035105D01*
X040796Y035110D01*
X040776Y035118D01*
X040758Y035130D01*
X040743Y035144D01*
X040731Y035161D01*
X040722Y035181D01*
X040716Y035201D01*
X040714Y035222D01*
X040714Y031678D02*
X040716Y031699D01*
X040722Y031719D01*
X040731Y031739D01*
X040743Y031756D01*
X040758Y031770D01*
X040776Y031782D01*
X040796Y031790D01*
X040816Y031795D01*
X040837Y031796D01*
X040858Y031793D01*
X040878Y031787D01*
X040897Y031776D01*
X040914Y031763D01*
X040927Y031747D01*
X040938Y031729D01*
X040946Y031709D01*
X040950Y031689D01*
X040950Y031667D01*
X040946Y031647D01*
X040938Y031627D01*
X040927Y031609D01*
X040914Y031593D01*
X040897Y031580D01*
X040878Y031569D01*
X040858Y031563D01*
X040837Y031560D01*
X040816Y031561D01*
X040796Y031566D01*
X040776Y031574D01*
X040758Y031586D01*
X040743Y031600D01*
X040731Y031617D01*
X040722Y031637D01*
X040716Y031657D01*
X040714Y031678D01*
M02*
