G75*
%MOIN*%
%OFA0B0*%
%FSLAX24Y24*%
%IPPOS*%
%LPD*%
%AMOC8*
5,1,8,0,0,1.08239X$1,22.5*
%
%ADD10R,0.0600X0.0600*%
%ADD11C,0.0600*%
%ADD12C,0.0700*%
%ADD13C,0.1384*%
%ADD14R,0.1384X0.1384*%
%ADD15C,0.0850*%
%ADD16C,0.0740*%
%ADD17R,0.0866X0.0236*%
%ADD18R,0.0480X0.0740*%
%ADD19R,0.0350X0.0420*%
%ADD20R,0.0380X0.0600*%
%ADD21R,0.1575X0.0630*%
%ADD22R,0.0740X0.0740*%
%ADD23R,0.0420X0.0350*%
%ADD24C,0.0340*%
%ADD25C,0.0591*%
%ADD26C,0.0240*%
%ADD27C,0.0320*%
%ADD28C,0.0160*%
%ADD29C,0.0500*%
%ADD30C,0.0100*%
%ADD31C,0.0120*%
D10*
X018658Y011352D03*
D11*
X018658Y012352D03*
X018658Y013352D03*
X018658Y014352D03*
X018658Y015352D03*
X018658Y016352D03*
X018658Y017352D03*
X018658Y018352D03*
X018658Y019352D03*
X018658Y020352D03*
X018658Y021352D03*
X018658Y022352D03*
X018658Y023352D03*
X018658Y024352D03*
X018658Y025352D03*
X018658Y026352D03*
X004060Y015450D03*
X004060Y014450D03*
X004060Y013450D03*
X004060Y012450D03*
D12*
X007781Y037150D03*
X010340Y037150D03*
D13*
X040060Y026714D03*
X040060Y025139D03*
X040060Y015775D03*
X040060Y014200D03*
D14*
X040060Y012625D03*
X040060Y023564D03*
D15*
X040044Y030989D03*
X038076Y030989D03*
X038076Y035911D03*
X040044Y035911D03*
D16*
X035160Y029450D03*
X035160Y028450D03*
X035160Y027450D03*
X035160Y026450D03*
X035160Y025450D03*
X035160Y024450D03*
X035160Y022450D03*
X035160Y021450D03*
X035160Y020450D03*
X035160Y019450D03*
X035160Y018450D03*
X035160Y017450D03*
X016160Y016950D03*
X016160Y017950D03*
X016160Y018950D03*
X016160Y019950D03*
X016160Y020950D03*
X016160Y022450D03*
X016160Y023450D03*
X016160Y024450D03*
X016160Y025450D03*
X016160Y026450D03*
X016160Y027450D03*
X016160Y028450D03*
X016160Y029450D03*
X014680Y032950D03*
X014680Y033950D03*
X015940Y036360D03*
X015940Y038140D03*
X013380Y038140D03*
X013380Y036360D03*
X016160Y015950D03*
X016160Y014950D03*
X016160Y013950D03*
D17*
X014371Y013700D03*
X014371Y014200D03*
X014371Y014700D03*
X014371Y015200D03*
X014371Y015700D03*
X014371Y013200D03*
X014371Y012700D03*
X014371Y012200D03*
X014371Y011700D03*
X014371Y011200D03*
X014371Y010700D03*
X014371Y010200D03*
X010749Y010200D03*
X010749Y010700D03*
X010749Y011200D03*
X010749Y011700D03*
X010749Y012200D03*
X010749Y012700D03*
X010749Y013200D03*
X010749Y013700D03*
X010749Y014200D03*
X010749Y014700D03*
X010749Y015200D03*
X010749Y015700D03*
D18*
X010785Y016575D03*
X012085Y016575D03*
X013035Y016575D03*
X014335Y016575D03*
D19*
X014345Y017450D03*
X015025Y017450D03*
X009900Y015700D03*
X009220Y015700D03*
X009220Y014700D03*
X009900Y014700D03*
X009900Y011200D03*
X009220Y011200D03*
X009220Y010450D03*
X009220Y009700D03*
X009900Y009700D03*
X009900Y010450D03*
X009900Y008950D03*
X010470Y008950D03*
X011150Y008950D03*
X009220Y008950D03*
X013970Y008950D03*
X014650Y008950D03*
X015220Y008950D03*
X015900Y008950D03*
X015900Y009700D03*
X015900Y010450D03*
X015220Y010450D03*
X015220Y009700D03*
X015220Y011200D03*
X015900Y011200D03*
D20*
X012970Y009075D03*
X012150Y009075D03*
X033400Y012450D03*
X034220Y012450D03*
D21*
X033484Y014950D03*
X035886Y014950D03*
D22*
X014680Y031950D03*
D23*
X035935Y035110D03*
X035935Y035790D03*
D24*
X023510Y030750D03*
X018810Y029600D03*
X017310Y033650D03*
X017310Y034950D03*
X012185Y031325D03*
X013685Y029825D03*
X015060Y020075D03*
X014935Y019200D03*
X010650Y017325D03*
X010435Y017825D03*
X009900Y016575D03*
X008685Y015575D03*
X008810Y014700D03*
X010060Y013200D03*
X010060Y012700D03*
X011560Y011700D03*
X013510Y011400D03*
X013560Y012700D03*
X013560Y013200D03*
X013610Y014400D03*
X016435Y012200D03*
X016185Y011700D03*
X017310Y011325D03*
X017060Y010825D03*
X016310Y010825D03*
X017185Y008325D03*
X013560Y008950D03*
X011560Y008950D03*
X008810Y009700D03*
X006560Y013450D03*
X004685Y011700D03*
X002761Y011700D03*
X020060Y013950D03*
X030860Y017450D03*
X034685Y012450D03*
X035685Y009575D03*
D25*
X036060Y013200D03*
X033560Y014200D03*
X013685Y016575D03*
X011435Y016575D03*
X012560Y012200D03*
X012560Y009700D03*
D26*
X012560Y009325D01*
X012310Y009075D01*
X012150Y009075D01*
X011560Y008950D02*
X011150Y008950D01*
X012970Y009075D02*
X013095Y008950D01*
X013560Y008950D01*
X013970Y008950D01*
X015900Y010450D02*
X016310Y010825D01*
X014371Y011700D02*
X013810Y011700D01*
X013510Y011400D01*
X014371Y012200D02*
X012560Y012200D01*
X010749Y012200D01*
X010749Y011700D02*
X011560Y011700D01*
X011310Y011700D02*
X010749Y011700D01*
X010749Y012700D02*
X010060Y012700D01*
X010060Y013200D02*
X010749Y013200D01*
X010749Y013700D02*
X011434Y013700D01*
X012085Y014351D01*
X012085Y016575D01*
X013035Y016575D02*
X013035Y014334D01*
X013669Y013700D01*
X014371Y013700D01*
X014371Y014200D02*
X013810Y014200D01*
X013610Y014400D01*
X014371Y014200D02*
X014410Y014200D01*
X014371Y013200D02*
X013560Y013200D01*
X013560Y012700D02*
X014371Y012700D01*
X010749Y014200D02*
X005810Y014200D01*
X005560Y014450D01*
X004060Y014450D01*
X004060Y013450D02*
X006560Y013450D01*
X008810Y014700D02*
X009220Y014700D01*
X009220Y010450D02*
X009220Y009700D01*
X008810Y009700D01*
X020060Y013950D02*
X020060Y029950D01*
X017060Y032950D01*
X014680Y032950D01*
X012185Y031325D02*
X007781Y035730D01*
X007781Y037150D01*
X013685Y029825D02*
X015410Y028100D01*
X015410Y024100D01*
X016060Y023450D01*
X016160Y023450D01*
X034220Y012450D02*
X034685Y012450D01*
D27*
X014335Y016575D02*
X013685Y016575D01*
X011435Y016575D02*
X010785Y016575D01*
D28*
X010650Y017325D02*
X013060Y017325D01*
X014935Y019200D01*
X015060Y020075D02*
X012810Y017825D01*
X010435Y017825D01*
X009900Y016575D02*
X009900Y015700D01*
X010310Y015700D01*
X009560Y015200D02*
X009900Y014860D01*
X009900Y014700D01*
X010749Y014700D01*
X010749Y014239D02*
X010749Y014200D01*
X009560Y015200D02*
X008810Y015200D01*
X008685Y015325D01*
X008685Y015575D01*
X011960Y016500D02*
X012085Y016575D01*
X014371Y015700D02*
X014810Y015700D01*
X015025Y015915D01*
X015025Y017450D01*
X015025Y017815D01*
X016160Y018950D01*
X016160Y017950D02*
X016560Y017950D01*
X018060Y016450D01*
X018559Y016450D01*
X018658Y016352D01*
X017560Y015950D02*
X017560Y015449D01*
X018658Y014352D01*
X017560Y015950D02*
X016560Y016950D01*
X016160Y016950D01*
X015060Y015200D02*
X014371Y015200D01*
X014371Y014700D02*
X014810Y014700D01*
X015060Y014450D01*
X015060Y012825D01*
X016185Y011700D01*
X016435Y012200D02*
X015560Y013075D01*
X015560Y014700D01*
X015060Y015200D01*
X014371Y014200D02*
X014371Y014161D01*
X017310Y011325D02*
X017935Y010700D01*
X034560Y010700D01*
X037060Y013200D01*
X037060Y024950D01*
X036560Y025450D01*
X035160Y025450D01*
X035160Y026450D02*
X037060Y026450D01*
X037560Y025950D01*
X037560Y012950D01*
X034810Y010200D01*
X017685Y010200D01*
X017060Y010825D01*
X015900Y010450D02*
X015900Y009700D01*
X015220Y009700D02*
X015220Y010450D01*
X014970Y010700D01*
X014371Y010700D01*
X014371Y010200D02*
X014685Y010200D01*
X014650Y010165D01*
X014650Y008950D01*
X015220Y008950D01*
X017185Y008325D02*
X010810Y008325D01*
X010435Y008700D01*
X010435Y008915D01*
X010470Y008950D01*
X010470Y010165D01*
X010435Y010200D01*
X010749Y010200D01*
X010749Y010700D02*
X010150Y010700D01*
X009900Y010450D01*
X009900Y009700D01*
X009816Y008956D02*
X009900Y008950D01*
X010470Y008950D01*
X010749Y011200D02*
X009900Y011200D01*
X009900Y011485D01*
X009685Y011700D01*
X004685Y011700D01*
X002761Y011700D02*
X002310Y012151D01*
X002310Y038348D01*
X003662Y039700D01*
X014310Y039700D01*
X015870Y038140D01*
X015940Y038140D01*
X017310Y036770D01*
X017310Y034950D01*
X017310Y033650D02*
X020760Y030200D01*
X020760Y027550D01*
X030860Y017450D01*
X034800Y019450D02*
X035160Y019450D01*
X038560Y015200D02*
X039560Y014200D01*
X040060Y014200D01*
X038560Y015200D02*
X038560Y027950D01*
X038060Y028450D01*
X035160Y028450D01*
X035160Y027450D02*
X037560Y027450D01*
X038060Y026950D01*
X038060Y011950D01*
X035685Y009575D01*
X039371Y025139D02*
X040060Y025139D01*
X039371Y025139D02*
X039060Y025450D01*
X039060Y028825D01*
X038435Y029450D01*
X035160Y029450D01*
X031360Y030750D02*
X023510Y030750D01*
X018810Y029600D02*
X017260Y028050D01*
X017260Y022950D01*
X016760Y022450D01*
X016160Y022450D01*
X015220Y011200D02*
X014371Y011200D01*
X031360Y030750D02*
X035560Y034950D01*
X035810Y034950D01*
X035935Y035075D01*
X035935Y035110D01*
X035810Y034950D02*
X039255Y034950D01*
X040044Y035911D01*
D29*
X035560Y022450D02*
X035160Y022450D01*
X035560Y022450D02*
X036060Y021950D01*
X036060Y014950D01*
X035886Y014950D01*
X036060Y014950D02*
X036060Y013200D01*
X033560Y014200D02*
X033560Y014874D01*
X033484Y014950D01*
X012560Y012200D02*
X012560Y009700D01*
D30*
X003643Y008150D02*
X002260Y009533D01*
X002260Y011932D01*
X002481Y011711D01*
X002481Y011644D01*
X002523Y011541D01*
X002602Y011463D01*
X002705Y011420D01*
X002816Y011420D01*
X002919Y011463D01*
X002998Y011541D01*
X003041Y011644D01*
X003041Y011756D01*
X002998Y011859D01*
X002919Y011937D01*
X002816Y011980D01*
X002749Y011980D01*
X002500Y012229D01*
X002500Y038269D01*
X003741Y039510D01*
X014231Y039510D01*
X015473Y038268D01*
X015460Y038235D01*
X015460Y038045D01*
X015533Y037868D01*
X015668Y037733D01*
X015845Y037660D01*
X016036Y037660D01*
X016117Y037694D01*
X017120Y036691D01*
X017120Y035156D01*
X017073Y035109D01*
X017030Y035006D01*
X017030Y034894D01*
X017073Y034791D01*
X017151Y034713D01*
X017254Y034670D01*
X017366Y034670D01*
X017469Y034713D01*
X017547Y034791D01*
X017590Y034894D01*
X017590Y035006D01*
X017547Y035109D01*
X017500Y035156D01*
X017500Y036849D01*
X017389Y036960D01*
X016386Y037963D01*
X016420Y038045D01*
X016420Y038235D01*
X016347Y038412D01*
X016212Y038547D01*
X016036Y038620D01*
X015845Y038620D01*
X015713Y038566D01*
X014529Y039750D01*
X040477Y039750D01*
X041860Y038367D01*
X041860Y009533D01*
X041860Y009533D01*
X041860Y009533D01*
X040477Y008150D01*
X017406Y008150D01*
X017422Y008166D01*
X017465Y008269D01*
X017465Y008381D01*
X017422Y008484D01*
X017344Y008562D01*
X017241Y008605D01*
X017129Y008605D01*
X017026Y008562D01*
X016979Y008515D01*
X010889Y008515D01*
X010732Y008672D01*
X010755Y008694D01*
X010755Y009206D01*
X010691Y009270D01*
X010660Y009270D01*
X010660Y009972D01*
X011228Y009972D01*
X011292Y010036D01*
X011292Y010364D01*
X011228Y010428D01*
X010270Y010428D01*
X010206Y010364D01*
X010206Y010036D01*
X010270Y009972D01*
X010280Y009972D01*
X010280Y009270D01*
X010249Y009270D01*
X010185Y009206D01*
X010121Y009270D01*
X009679Y009270D01*
X009615Y009206D01*
X009615Y008694D01*
X009679Y008630D01*
X010121Y008630D01*
X010185Y008694D01*
X010245Y008634D01*
X010245Y008621D01*
X010356Y008510D01*
X010620Y008246D01*
X010716Y008150D01*
X003643Y008150D01*
X003547Y008246D02*
X010621Y008246D01*
X010620Y008246D02*
X010620Y008246D01*
X010522Y008344D02*
X003449Y008344D01*
X003350Y008443D02*
X010424Y008443D01*
X010325Y008541D02*
X003252Y008541D01*
X003153Y008640D02*
X008933Y008640D01*
X008925Y008648D02*
X008953Y008620D01*
X008987Y008600D01*
X009025Y008590D01*
X009183Y008590D01*
X009183Y008912D01*
X009258Y008912D01*
X009258Y008988D01*
X009183Y008988D01*
X009183Y009310D01*
X009025Y009310D01*
X008987Y009300D01*
X008953Y009280D01*
X008925Y009252D01*
X008905Y009218D01*
X008895Y009180D01*
X008895Y008988D01*
X009183Y008988D01*
X009183Y008912D01*
X008895Y008912D01*
X008895Y008720D01*
X008905Y008682D01*
X008925Y008648D01*
X008895Y008738D02*
X003055Y008738D01*
X002956Y008837D02*
X004589Y008837D01*
X004597Y008832D02*
X004902Y008750D01*
X005218Y008750D01*
X005523Y008832D01*
X005797Y008990D01*
X006020Y009213D01*
X006178Y009487D01*
X006260Y009792D01*
X006260Y010108D01*
X006178Y010413D01*
X006020Y010687D01*
X005797Y010910D01*
X005523Y011068D01*
X005218Y011150D01*
X004902Y011150D01*
X004597Y011068D01*
X004323Y010910D01*
X004100Y010687D01*
X003942Y010413D01*
X003860Y010108D01*
X003860Y009792D01*
X003942Y009487D01*
X004100Y009213D01*
X004323Y008990D01*
X004597Y008832D01*
X004418Y008935D02*
X002858Y008935D01*
X002759Y009034D02*
X004279Y009034D01*
X004181Y009132D02*
X002661Y009132D01*
X002562Y009231D02*
X004090Y009231D01*
X004033Y009329D02*
X002464Y009329D01*
X002365Y009428D02*
X003976Y009428D01*
X003931Y009526D02*
X002267Y009526D01*
X002260Y009625D02*
X003905Y009625D01*
X003879Y009723D02*
X002260Y009723D01*
X002260Y009822D02*
X003860Y009822D01*
X003860Y009920D02*
X002260Y009920D01*
X002260Y010019D02*
X003860Y010019D01*
X003862Y010117D02*
X002260Y010117D01*
X002260Y010216D02*
X003889Y010216D01*
X003915Y010314D02*
X002260Y010314D01*
X002260Y010413D02*
X003942Y010413D01*
X003998Y010511D02*
X002260Y010511D01*
X002260Y010610D02*
X004055Y010610D01*
X004121Y010708D02*
X002260Y010708D01*
X002260Y010807D02*
X004219Y010807D01*
X004318Y010905D02*
X002260Y010905D01*
X002260Y011004D02*
X004485Y011004D01*
X004723Y011102D02*
X002260Y011102D01*
X002260Y011201D02*
X009183Y011201D01*
X009183Y011238D02*
X009183Y011162D01*
X009258Y011162D01*
X009258Y011238D01*
X009545Y011238D01*
X009545Y011430D01*
X009535Y011468D01*
X009515Y011502D01*
X009507Y011510D01*
X009606Y011510D01*
X009638Y011478D01*
X009615Y011456D01*
X009615Y010944D01*
X009679Y010880D01*
X010061Y010880D01*
X009951Y010770D01*
X009679Y010770D01*
X009615Y010706D01*
X009615Y010194D01*
X009679Y010130D01*
X009710Y010130D01*
X009710Y010020D01*
X009679Y010020D01*
X009615Y009956D01*
X009615Y009444D01*
X009679Y009380D01*
X010121Y009380D01*
X010185Y009444D01*
X010185Y009956D01*
X010121Y010020D01*
X010090Y010020D01*
X010090Y010130D01*
X010121Y010130D01*
X010185Y010194D01*
X010185Y010466D01*
X010229Y010510D01*
X010232Y010510D01*
X010270Y010472D01*
X011228Y010472D01*
X011292Y010536D01*
X011292Y010864D01*
X011228Y010928D01*
X010270Y010928D01*
X010232Y010890D01*
X010131Y010890D01*
X010185Y010944D01*
X010185Y011010D01*
X010232Y011010D01*
X010270Y010972D01*
X011228Y010972D01*
X011292Y011036D01*
X011292Y011364D01*
X011228Y011428D01*
X010270Y011428D01*
X010232Y011390D01*
X010185Y011390D01*
X010185Y011456D01*
X010121Y011520D01*
X010090Y011520D01*
X010090Y011564D01*
X009875Y011779D01*
X009764Y011890D01*
X004891Y011890D01*
X010232Y011890D01*
X010206Y011864D02*
X010206Y011536D01*
X010270Y011472D01*
X010652Y011472D01*
X010654Y011470D01*
X011394Y011470D01*
X011401Y011463D01*
X011504Y011420D01*
X011616Y011420D01*
X011719Y011463D01*
X011797Y011541D01*
X011840Y011644D01*
X011840Y011756D01*
X011797Y011859D01*
X011719Y011937D01*
X011640Y011970D01*
X012200Y011970D01*
X012200Y009890D01*
X012155Y009781D01*
X012155Y009619D01*
X012210Y009485D01*
X011914Y009485D01*
X011850Y009421D01*
X011850Y008729D01*
X011914Y008665D01*
X012386Y008665D01*
X012450Y008729D01*
X012450Y008890D01*
X012655Y009095D01*
X012670Y009110D01*
X012670Y008729D01*
X012734Y008665D01*
X013206Y008665D01*
X013261Y008720D01*
X013394Y008720D01*
X013401Y008713D01*
X013504Y008670D01*
X013616Y008670D01*
X013685Y008699D01*
X013685Y008694D01*
X013749Y008630D01*
X014191Y008630D01*
X014255Y008694D01*
X014255Y009206D01*
X014191Y009270D01*
X013749Y009270D01*
X013685Y009206D01*
X013685Y009201D01*
X013616Y009230D01*
X013504Y009230D01*
X013401Y009187D01*
X013394Y009180D01*
X013270Y009180D01*
X013270Y009421D01*
X013206Y009485D01*
X012910Y009485D01*
X012965Y009619D01*
X012965Y009781D01*
X012920Y009890D01*
X012920Y011970D01*
X014466Y011970D01*
X014468Y011972D01*
X014850Y011972D01*
X014914Y012036D01*
X014914Y012364D01*
X014850Y012428D01*
X014468Y012428D01*
X014466Y012430D01*
X013640Y012430D01*
X013719Y012463D01*
X013726Y012470D01*
X014466Y012470D01*
X014468Y012472D01*
X014850Y012472D01*
X014914Y012536D01*
X014914Y012702D01*
X015905Y011711D01*
X015905Y011644D01*
X015940Y011560D01*
X015938Y011560D01*
X015938Y011238D01*
X016225Y011238D01*
X016225Y011420D01*
X016241Y011420D01*
X016344Y011463D01*
X016422Y011541D01*
X016465Y011644D01*
X016465Y011756D01*
X016422Y011859D01*
X016348Y011933D01*
X016379Y011920D01*
X016491Y011920D01*
X016594Y011963D01*
X016672Y012041D01*
X016715Y012144D01*
X016715Y012256D01*
X016672Y012359D01*
X016594Y012437D01*
X016491Y012480D01*
X016424Y012480D01*
X015750Y013154D01*
X015750Y013686D01*
X015753Y013678D01*
X015888Y013543D01*
X016065Y013470D01*
X016256Y013470D01*
X016432Y013543D01*
X016567Y013678D01*
X016640Y013855D01*
X016640Y014045D01*
X016567Y014222D01*
X016432Y014357D01*
X016256Y014430D01*
X016065Y014430D01*
X015888Y014357D01*
X015753Y014222D01*
X015750Y014214D01*
X015750Y014686D01*
X015753Y014678D01*
X015888Y014543D01*
X016065Y014470D01*
X016256Y014470D01*
X016432Y014543D01*
X016567Y014678D01*
X016640Y014855D01*
X016640Y015045D01*
X016567Y015222D01*
X016432Y015357D01*
X016256Y015430D01*
X016065Y015430D01*
X015888Y015357D01*
X015753Y015222D01*
X015680Y015045D01*
X015680Y014855D01*
X015684Y014845D01*
X015684Y014845D01*
X015639Y014890D01*
X015139Y015390D01*
X014888Y015390D01*
X014850Y015428D01*
X013892Y015428D01*
X013828Y015364D01*
X013828Y015036D01*
X013892Y014972D01*
X014850Y014972D01*
X014888Y015010D01*
X014981Y015010D01*
X015370Y014621D01*
X015370Y012996D01*
X016155Y012211D01*
X016155Y012144D01*
X016198Y012041D01*
X016272Y011967D01*
X016241Y011980D01*
X016174Y011980D01*
X015250Y012904D01*
X015250Y014529D01*
X015000Y014779D01*
X014889Y014890D01*
X014888Y014890D01*
X014850Y014928D01*
X013892Y014928D01*
X013828Y014864D01*
X013828Y014578D01*
X013769Y014637D01*
X013666Y014680D01*
X013554Y014680D01*
X013451Y014637D01*
X013373Y014559D01*
X013330Y014456D01*
X013330Y014364D01*
X013265Y014429D01*
X013265Y016095D01*
X013321Y016095D01*
X013385Y016159D01*
X013385Y016302D01*
X013455Y016231D01*
X013604Y016170D01*
X013766Y016170D01*
X013915Y016231D01*
X013985Y016302D01*
X013985Y016159D01*
X014049Y016095D01*
X014621Y016095D01*
X014685Y016159D01*
X014685Y016991D01*
X014621Y017055D01*
X014049Y017055D01*
X013985Y016991D01*
X013985Y016848D01*
X013915Y016919D01*
X013766Y016980D01*
X013604Y016980D01*
X013455Y016919D01*
X013385Y016848D01*
X013385Y016991D01*
X013321Y017055D01*
X012749Y017055D01*
X012685Y016991D01*
X012685Y016159D01*
X012749Y016095D01*
X012805Y016095D01*
X012805Y014239D01*
X012940Y014104D01*
X013564Y013480D01*
X013504Y013480D01*
X013401Y013437D01*
X013323Y013359D01*
X013280Y013256D01*
X013280Y013144D01*
X013323Y013041D01*
X013401Y012963D01*
X013432Y012950D01*
X013401Y012937D01*
X013323Y012859D01*
X013280Y012756D01*
X013280Y012644D01*
X013323Y012541D01*
X013401Y012463D01*
X013480Y012430D01*
X012903Y012430D01*
X012790Y012544D01*
X012641Y012605D01*
X012479Y012605D01*
X012330Y012544D01*
X012217Y012430D01*
X010654Y012430D01*
X010652Y012428D01*
X010270Y012428D01*
X010206Y012364D01*
X010206Y012036D01*
X010270Y011972D01*
X010652Y011972D01*
X010654Y011970D01*
X011480Y011970D01*
X011401Y011937D01*
X011394Y011930D01*
X010654Y011930D01*
X010652Y011928D01*
X010270Y011928D01*
X010206Y011864D01*
X010206Y011792D02*
X009862Y011792D01*
X009961Y011693D02*
X010206Y011693D01*
X010206Y011595D02*
X010059Y011595D01*
X010145Y011496D02*
X010246Y011496D01*
X010240Y011398D02*
X010185Y011398D01*
X010185Y011004D02*
X010239Y011004D01*
X010247Y010905D02*
X010146Y010905D01*
X009988Y010807D02*
X005901Y010807D01*
X005802Y010905D02*
X008921Y010905D01*
X008925Y010898D02*
X008953Y010870D01*
X008987Y010850D01*
X009025Y010840D01*
X009183Y010840D01*
X009183Y011162D01*
X008895Y011162D01*
X008895Y010970D01*
X008905Y010932D01*
X008925Y010898D01*
X008895Y011004D02*
X005635Y011004D01*
X005397Y011102D02*
X008895Y011102D01*
X008895Y011238D02*
X009183Y011238D01*
X009258Y011201D02*
X009615Y011201D01*
X009545Y011162D02*
X009258Y011162D01*
X009258Y010840D01*
X009415Y010840D01*
X009453Y010850D01*
X009487Y010870D01*
X009515Y010898D01*
X009535Y010932D01*
X009545Y010970D01*
X009545Y011162D01*
X009545Y011102D02*
X009615Y011102D01*
X009615Y011004D02*
X009545Y011004D01*
X009519Y010905D02*
X009654Y010905D01*
X009617Y010708D02*
X009503Y010708D01*
X009505Y010706D02*
X009441Y010770D01*
X008999Y010770D01*
X008935Y010706D01*
X008935Y010194D01*
X008990Y010139D01*
X008990Y010011D01*
X008935Y009956D01*
X008935Y009951D01*
X008866Y009980D01*
X008754Y009980D01*
X008651Y009937D01*
X008573Y009859D01*
X008530Y009756D01*
X008530Y009644D01*
X008573Y009541D01*
X008651Y009463D01*
X008754Y009420D01*
X008866Y009420D01*
X008935Y009449D01*
X008935Y009444D01*
X008999Y009380D01*
X009441Y009380D01*
X009505Y009444D01*
X009505Y009956D01*
X009450Y010011D01*
X009450Y010139D01*
X009505Y010194D01*
X009505Y010706D01*
X009505Y010610D02*
X009615Y010610D01*
X009615Y010511D02*
X009505Y010511D01*
X009505Y010413D02*
X009615Y010413D01*
X009615Y010314D02*
X009505Y010314D01*
X009505Y010216D02*
X009615Y010216D01*
X009710Y010117D02*
X009450Y010117D01*
X009450Y010019D02*
X009678Y010019D01*
X009615Y009920D02*
X009505Y009920D01*
X009505Y009822D02*
X009615Y009822D01*
X009615Y009723D02*
X009505Y009723D01*
X009505Y009625D02*
X009615Y009625D01*
X009615Y009526D02*
X009505Y009526D01*
X009488Y009428D02*
X009632Y009428D01*
X009640Y009231D02*
X009528Y009231D01*
X009535Y009218D02*
X009515Y009252D01*
X009487Y009280D01*
X009453Y009300D01*
X009415Y009310D01*
X009258Y009310D01*
X009258Y008988D01*
X009545Y008988D01*
X009545Y009180D01*
X009535Y009218D01*
X009545Y009132D02*
X009615Y009132D01*
X009615Y009034D02*
X009545Y009034D01*
X009615Y008935D02*
X009258Y008935D01*
X009258Y008912D02*
X009545Y008912D01*
X009545Y008720D01*
X009535Y008682D01*
X009515Y008648D01*
X009487Y008620D01*
X009453Y008600D01*
X009415Y008590D01*
X009258Y008590D01*
X009258Y008912D01*
X009258Y008837D02*
X009183Y008837D01*
X009183Y008935D02*
X005702Y008935D01*
X005841Y009034D02*
X008895Y009034D01*
X008895Y009132D02*
X005939Y009132D01*
X006030Y009231D02*
X008913Y009231D01*
X008884Y009428D02*
X008952Y009428D01*
X008736Y009428D02*
X006144Y009428D01*
X006189Y009526D02*
X008588Y009526D01*
X008538Y009625D02*
X006215Y009625D01*
X006242Y009723D02*
X008530Y009723D01*
X008557Y009822D02*
X006260Y009822D01*
X006260Y009920D02*
X008634Y009920D01*
X008990Y010019D02*
X006260Y010019D01*
X006258Y010117D02*
X008990Y010117D01*
X008935Y010216D02*
X006231Y010216D01*
X006205Y010314D02*
X008935Y010314D01*
X008935Y010413D02*
X006178Y010413D01*
X006122Y010511D02*
X008935Y010511D01*
X008935Y010610D02*
X006065Y010610D01*
X005999Y010708D02*
X008937Y010708D01*
X009183Y010905D02*
X009258Y010905D01*
X009258Y011004D02*
X009183Y011004D01*
X009183Y011102D02*
X009258Y011102D01*
X009545Y011299D02*
X009615Y011299D01*
X009615Y011398D02*
X009545Y011398D01*
X009519Y011496D02*
X009620Y011496D01*
X008933Y011510D02*
X008925Y011502D01*
X008905Y011468D01*
X008895Y011430D01*
X008895Y011238D01*
X008895Y011299D02*
X002260Y011299D01*
X002260Y011398D02*
X008895Y011398D01*
X008921Y011496D02*
X004877Y011496D01*
X004891Y011510D02*
X008933Y011510D01*
X009901Y012463D02*
X010004Y012420D01*
X010116Y012420D01*
X010219Y012463D01*
X010226Y012470D01*
X010844Y012470D01*
X010846Y012472D01*
X011228Y012472D01*
X011292Y012536D01*
X011292Y012864D01*
X011228Y012928D01*
X010846Y012928D01*
X010844Y012930D01*
X010226Y012930D01*
X010219Y012937D01*
X010188Y012950D01*
X010219Y012963D01*
X010226Y012970D01*
X010844Y012970D01*
X010846Y012972D01*
X011228Y012972D01*
X011292Y013036D01*
X011292Y013364D01*
X011228Y013428D01*
X010846Y013428D01*
X010844Y013430D01*
X010226Y013430D01*
X010219Y013437D01*
X010116Y013480D01*
X010004Y013480D01*
X009901Y013437D01*
X009823Y013359D01*
X009780Y013256D01*
X009780Y013144D01*
X009823Y013041D01*
X009901Y012963D01*
X009932Y012950D01*
X009901Y012937D01*
X009823Y012859D01*
X009780Y012756D01*
X009780Y012644D01*
X009823Y012541D01*
X009901Y012463D01*
X009883Y012481D02*
X004470Y012481D01*
X004470Y012532D02*
X004408Y012682D01*
X004292Y012798D01*
X004142Y012860D01*
X003978Y012860D01*
X003828Y012798D01*
X003712Y012682D01*
X003650Y012532D01*
X003650Y012368D01*
X003712Y012218D01*
X003828Y012102D01*
X003978Y012040D01*
X004142Y012040D01*
X004292Y012102D01*
X004408Y012218D01*
X004470Y012368D01*
X004470Y012532D01*
X004450Y012580D02*
X009807Y012580D01*
X009780Y012678D02*
X004409Y012678D01*
X004313Y012777D02*
X009789Y012777D01*
X009839Y012875D02*
X002500Y012875D01*
X002500Y012777D02*
X003807Y012777D01*
X003711Y012678D02*
X002500Y012678D01*
X002500Y012580D02*
X003670Y012580D01*
X003650Y012481D02*
X002500Y012481D01*
X002500Y012383D02*
X003650Y012383D01*
X003685Y012284D02*
X002500Y012284D01*
X002544Y012186D02*
X003745Y012186D01*
X003865Y012087D02*
X002642Y012087D01*
X002741Y011989D02*
X010254Y011989D01*
X010206Y012087D02*
X004255Y012087D01*
X004375Y012186D02*
X010206Y012186D01*
X010206Y012284D02*
X004435Y012284D01*
X004470Y012383D02*
X010225Y012383D01*
X009891Y012974D02*
X002500Y012974D01*
X002500Y013072D02*
X003901Y013072D01*
X003828Y013102D02*
X003978Y013040D01*
X004142Y013040D01*
X004292Y013102D01*
X004408Y013218D01*
X004409Y013220D01*
X006394Y013220D01*
X006401Y013213D01*
X006504Y013170D01*
X006616Y013170D01*
X006719Y013213D01*
X006797Y013291D01*
X006840Y013394D01*
X006840Y013506D01*
X006797Y013609D01*
X006719Y013687D01*
X006616Y013730D01*
X006504Y013730D01*
X006401Y013687D01*
X006394Y013680D01*
X004409Y013680D01*
X004408Y013682D01*
X004292Y013798D01*
X004142Y013860D01*
X003978Y013860D01*
X003828Y013798D01*
X003712Y013682D01*
X003650Y013532D01*
X003650Y013368D01*
X003712Y013218D01*
X003828Y013102D01*
X003760Y013171D02*
X002500Y013171D01*
X002500Y013269D02*
X003691Y013269D01*
X003650Y013368D02*
X002500Y013368D01*
X002500Y013466D02*
X003650Y013466D01*
X003664Y013565D02*
X002500Y013565D01*
X002500Y013663D02*
X003704Y013663D01*
X003792Y013762D02*
X002500Y013762D01*
X002500Y013860D02*
X010206Y013860D01*
X010206Y013864D02*
X010206Y013536D01*
X010270Y013472D01*
X010652Y013472D01*
X010654Y013470D01*
X011529Y013470D01*
X012180Y014121D01*
X012315Y014256D01*
X012315Y016095D01*
X012371Y016095D01*
X012435Y016159D01*
X012435Y016991D01*
X012371Y017055D01*
X011799Y017055D01*
X011735Y016991D01*
X011735Y016848D01*
X011665Y016919D01*
X011516Y016980D01*
X011354Y016980D01*
X011205Y016919D01*
X011135Y016848D01*
X011135Y016991D01*
X011071Y017055D01*
X010730Y017055D01*
X010809Y017088D01*
X010856Y017135D01*
X013139Y017135D01*
X013250Y017246D01*
X014924Y018920D01*
X014991Y018920D01*
X015094Y018963D01*
X015172Y019041D01*
X015215Y019144D01*
X015215Y019256D01*
X015172Y019359D01*
X015094Y019437D01*
X014991Y019480D01*
X014879Y019480D01*
X014776Y019437D01*
X014698Y019359D01*
X014655Y019256D01*
X014655Y019189D01*
X012981Y017515D01*
X010856Y017515D01*
X010809Y017562D01*
X010706Y017605D01*
X010611Y017605D01*
X010641Y017635D01*
X012889Y017635D01*
X013000Y017746D01*
X015049Y019795D01*
X015116Y019795D01*
X015219Y019838D01*
X015297Y019916D01*
X015340Y020019D01*
X015340Y020131D01*
X015297Y020234D01*
X015219Y020312D01*
X015116Y020355D01*
X015004Y020355D01*
X014901Y020312D01*
X014823Y020234D01*
X014780Y020131D01*
X014780Y020064D01*
X012731Y018015D01*
X010641Y018015D01*
X010594Y018062D01*
X010491Y018105D01*
X010379Y018105D01*
X010276Y018062D01*
X010198Y017984D01*
X010155Y017881D01*
X010155Y017769D01*
X010198Y017666D01*
X010276Y017588D01*
X010379Y017545D01*
X010474Y017545D01*
X010413Y017484D01*
X010370Y017381D01*
X010370Y017269D01*
X010413Y017166D01*
X010491Y017088D01*
X010570Y017055D01*
X010499Y017055D01*
X010435Y016991D01*
X010435Y016159D01*
X010499Y016095D01*
X011071Y016095D01*
X011135Y016159D01*
X011135Y016302D01*
X011205Y016231D01*
X011354Y016170D01*
X011516Y016170D01*
X011665Y016231D01*
X011735Y016302D01*
X011735Y016159D01*
X011799Y016095D01*
X011855Y016095D01*
X011855Y014447D01*
X011338Y013930D01*
X010654Y013930D01*
X010652Y013928D01*
X010270Y013928D01*
X010206Y013864D01*
X010206Y013762D02*
X004328Y013762D01*
X004183Y014057D02*
X005628Y014057D01*
X005715Y013970D02*
X010844Y013970D01*
X010846Y013972D01*
X011228Y013972D01*
X011292Y014036D01*
X011292Y014364D01*
X011228Y014428D01*
X010846Y014428D01*
X010844Y014430D01*
X010171Y014430D01*
X010185Y014444D01*
X010185Y014510D01*
X010232Y014510D01*
X010270Y014472D01*
X011228Y014472D01*
X011292Y014536D01*
X011292Y014864D01*
X011228Y014928D01*
X010270Y014928D01*
X010232Y014890D01*
X010185Y014890D01*
X010185Y014956D01*
X010121Y015020D01*
X010009Y015020D01*
X009979Y015050D01*
X009979Y015050D01*
X009639Y015390D01*
X009507Y015390D01*
X009515Y015398D01*
X009535Y015432D01*
X009545Y015470D01*
X009545Y015662D01*
X009258Y015662D01*
X009258Y015738D01*
X009183Y015738D01*
X009183Y016060D01*
X009025Y016060D01*
X008987Y016050D01*
X008953Y016030D01*
X008925Y016002D01*
X008905Y015968D01*
X008895Y015930D01*
X008895Y015761D01*
X008844Y015812D01*
X008741Y015855D01*
X008629Y015855D01*
X008526Y015812D01*
X008448Y015734D01*
X008405Y015631D01*
X008405Y015519D01*
X008448Y015416D01*
X008495Y015369D01*
X008495Y015246D01*
X008731Y015010D01*
X008989Y015010D01*
X008935Y014956D01*
X008935Y014951D01*
X008866Y014980D01*
X008754Y014980D01*
X008651Y014937D01*
X008573Y014859D01*
X008530Y014756D01*
X008530Y014644D01*
X008573Y014541D01*
X008651Y014463D01*
X008730Y014430D01*
X005905Y014430D01*
X005790Y014545D01*
X005655Y014680D01*
X004409Y014680D01*
X004408Y014682D01*
X004292Y014798D01*
X004142Y014860D01*
X003978Y014860D01*
X003828Y014798D01*
X003712Y014682D01*
X003650Y014532D01*
X003650Y014368D01*
X003712Y014218D01*
X003828Y014102D01*
X003978Y014040D01*
X004142Y014040D01*
X004292Y014102D01*
X004408Y014218D01*
X004409Y014220D01*
X005465Y014220D01*
X005715Y013970D01*
X005529Y014156D02*
X004345Y014156D01*
X003937Y014057D02*
X002500Y014057D01*
X002500Y013959D02*
X011367Y013959D01*
X011292Y014057D02*
X011465Y014057D01*
X011564Y014156D02*
X011292Y014156D01*
X011292Y014254D02*
X011662Y014254D01*
X011761Y014353D02*
X011292Y014353D01*
X011292Y014550D02*
X011855Y014550D01*
X011855Y014648D02*
X011292Y014648D01*
X011292Y014747D02*
X011855Y014747D01*
X011855Y014845D02*
X011292Y014845D01*
X011240Y014942D02*
X011274Y014962D01*
X011302Y014990D01*
X011322Y015024D01*
X011332Y015062D01*
X011332Y015191D01*
X010758Y015191D01*
X010758Y014932D01*
X011202Y014932D01*
X011240Y014942D01*
X011242Y014944D02*
X011855Y014944D01*
X011855Y015042D02*
X011327Y015042D01*
X011332Y015141D02*
X011855Y015141D01*
X011855Y015239D02*
X011332Y015239D01*
X011332Y015209D02*
X011332Y015338D01*
X011322Y015376D01*
X011302Y015410D01*
X011274Y015438D01*
X011240Y015458D01*
X011202Y015468D01*
X010758Y015468D01*
X010758Y015209D01*
X010740Y015209D01*
X010740Y015191D01*
X010166Y015191D01*
X010166Y015062D01*
X010176Y015024D01*
X010196Y014990D01*
X010224Y014962D01*
X010258Y014942D01*
X010296Y014932D01*
X010740Y014932D01*
X010740Y015191D01*
X010758Y015191D01*
X010758Y015209D01*
X011332Y015209D01*
X011332Y015338D02*
X011855Y015338D01*
X011855Y015436D02*
X011276Y015436D01*
X011228Y015472D02*
X011292Y015536D01*
X011292Y015864D01*
X011228Y015928D01*
X010270Y015928D01*
X010232Y015890D01*
X010185Y015890D01*
X010185Y015956D01*
X010121Y016020D01*
X010090Y016020D01*
X010090Y016369D01*
X010137Y016416D01*
X010180Y016519D01*
X010180Y016631D01*
X010137Y016734D01*
X010059Y016812D01*
X009956Y016855D01*
X009844Y016855D01*
X009741Y016812D01*
X009663Y016734D01*
X009620Y016631D01*
X009620Y016519D01*
X009663Y016416D01*
X009710Y016369D01*
X009710Y016020D01*
X009679Y016020D01*
X009615Y015956D01*
X009615Y015444D01*
X009679Y015380D01*
X010121Y015380D01*
X010185Y015444D01*
X010185Y015510D01*
X010232Y015510D01*
X010270Y015472D01*
X011228Y015472D01*
X011290Y015535D02*
X011855Y015535D01*
X011855Y015633D02*
X011292Y015633D01*
X011292Y015732D02*
X011855Y015732D01*
X011855Y015830D02*
X011292Y015830D01*
X011101Y016126D02*
X011769Y016126D01*
X011735Y016224D02*
X011647Y016224D01*
X011855Y016027D02*
X010090Y016027D01*
X010090Y016126D02*
X010469Y016126D01*
X010435Y016224D02*
X010090Y016224D01*
X010090Y016323D02*
X010435Y016323D01*
X010435Y016421D02*
X010139Y016421D01*
X010180Y016520D02*
X010435Y016520D01*
X010435Y016618D02*
X010180Y016618D01*
X010144Y016717D02*
X010435Y016717D01*
X010435Y016815D02*
X010052Y016815D01*
X009748Y016815D02*
X002500Y016815D01*
X002500Y016717D02*
X009656Y016717D01*
X009620Y016618D02*
X002500Y016618D01*
X002500Y016520D02*
X007111Y016520D01*
X007141Y016532D02*
X006829Y016403D01*
X006590Y016164D01*
X006460Y015851D01*
X006460Y015513D01*
X006590Y015201D01*
X006829Y014962D01*
X007141Y014833D01*
X007479Y014833D01*
X007791Y014962D01*
X008030Y015201D01*
X008160Y015513D01*
X008160Y015851D01*
X008030Y016164D01*
X007791Y016403D01*
X007479Y016532D01*
X007141Y016532D01*
X006873Y016421D02*
X002500Y016421D01*
X002500Y016323D02*
X006749Y016323D01*
X006650Y016224D02*
X002500Y016224D01*
X002500Y016126D02*
X006574Y016126D01*
X006533Y016027D02*
X002500Y016027D01*
X002500Y015929D02*
X006492Y015929D01*
X006460Y015830D02*
X004214Y015830D01*
X004142Y015860D02*
X003978Y015860D01*
X003828Y015798D01*
X003712Y015682D01*
X003650Y015532D01*
X003650Y015368D01*
X003712Y015218D01*
X003828Y015102D01*
X003978Y015040D01*
X004142Y015040D01*
X004292Y015102D01*
X004408Y015218D01*
X004470Y015368D01*
X004470Y015532D01*
X004408Y015682D01*
X004292Y015798D01*
X004142Y015860D01*
X003906Y015830D02*
X002500Y015830D01*
X002500Y015732D02*
X003762Y015732D01*
X003692Y015633D02*
X002500Y015633D01*
X002500Y015535D02*
X003651Y015535D01*
X003650Y015436D02*
X002500Y015436D01*
X002500Y015338D02*
X003663Y015338D01*
X003704Y015239D02*
X002500Y015239D01*
X002500Y015141D02*
X003790Y015141D01*
X003974Y015042D02*
X002500Y015042D01*
X002500Y014944D02*
X006873Y014944D01*
X006749Y015042D02*
X004146Y015042D01*
X004178Y014845D02*
X007111Y014845D01*
X007509Y014845D02*
X008567Y014845D01*
X008530Y014747D02*
X004343Y014747D01*
X004330Y015141D02*
X006650Y015141D01*
X006574Y015239D02*
X004416Y015239D01*
X004457Y015338D02*
X006533Y015338D01*
X006492Y015436D02*
X004470Y015436D01*
X004469Y015535D02*
X006460Y015535D01*
X006460Y015633D02*
X004428Y015633D01*
X004358Y015732D02*
X006460Y015732D01*
X007509Y016520D02*
X009620Y016520D01*
X009661Y016421D02*
X007747Y016421D01*
X007871Y016323D02*
X009710Y016323D01*
X009710Y016224D02*
X007970Y016224D01*
X008046Y016126D02*
X009710Y016126D01*
X009710Y016027D02*
X009490Y016027D01*
X009487Y016030D02*
X009453Y016050D01*
X009415Y016060D01*
X009258Y016060D01*
X009258Y015738D01*
X009545Y015738D01*
X009545Y015930D01*
X009535Y015968D01*
X009515Y016002D01*
X009487Y016030D01*
X009545Y015929D02*
X009615Y015929D01*
X009615Y015830D02*
X009545Y015830D01*
X009615Y015732D02*
X009258Y015732D01*
X009258Y015830D02*
X009183Y015830D01*
X009183Y015929D02*
X009258Y015929D01*
X009258Y016027D02*
X009183Y016027D01*
X008950Y016027D02*
X008087Y016027D01*
X008128Y015929D02*
X008895Y015929D01*
X008895Y015830D02*
X008801Y015830D01*
X008569Y015830D02*
X008160Y015830D01*
X008160Y015732D02*
X008447Y015732D01*
X008406Y015633D02*
X008160Y015633D01*
X008160Y015535D02*
X008405Y015535D01*
X008440Y015436D02*
X008128Y015436D01*
X008087Y015338D02*
X008495Y015338D01*
X008502Y015239D02*
X008046Y015239D01*
X007970Y015141D02*
X008601Y015141D01*
X008699Y015042D02*
X007871Y015042D01*
X007747Y014944D02*
X008666Y014944D01*
X008530Y014648D02*
X005687Y014648D01*
X005786Y014550D02*
X008569Y014550D01*
X008679Y014451D02*
X005884Y014451D01*
X006743Y013663D02*
X010206Y013663D01*
X010206Y013565D02*
X006816Y013565D01*
X006840Y013466D02*
X009971Y013466D01*
X009832Y013368D02*
X006829Y013368D01*
X006775Y013269D02*
X009786Y013269D01*
X009780Y013171D02*
X006617Y013171D01*
X006503Y013171D02*
X004360Y013171D01*
X004219Y013072D02*
X009810Y013072D01*
X010149Y013466D02*
X013471Y013466D01*
X013479Y013565D02*
X011623Y013565D01*
X011722Y013663D02*
X013381Y013663D01*
X013282Y013762D02*
X011820Y013762D01*
X011919Y013860D02*
X013184Y013860D01*
X013085Y013959D02*
X012017Y013959D01*
X012116Y014057D02*
X012987Y014057D01*
X012888Y014156D02*
X012214Y014156D01*
X012313Y014254D02*
X012805Y014254D01*
X012805Y014353D02*
X012315Y014353D01*
X012315Y014451D02*
X012805Y014451D01*
X012805Y014550D02*
X012315Y014550D01*
X012315Y014648D02*
X012805Y014648D01*
X012805Y014747D02*
X012315Y014747D01*
X012315Y014845D02*
X012805Y014845D01*
X012805Y014944D02*
X012315Y014944D01*
X012315Y015042D02*
X012805Y015042D01*
X012805Y015141D02*
X012315Y015141D01*
X012315Y015239D02*
X012805Y015239D01*
X012805Y015338D02*
X012315Y015338D01*
X012315Y015436D02*
X012805Y015436D01*
X012805Y015535D02*
X012315Y015535D01*
X012315Y015633D02*
X012805Y015633D01*
X012805Y015732D02*
X012315Y015732D01*
X012315Y015830D02*
X012805Y015830D01*
X012805Y015929D02*
X012315Y015929D01*
X012315Y016027D02*
X012805Y016027D01*
X012719Y016126D02*
X012401Y016126D01*
X012435Y016224D02*
X012685Y016224D01*
X012685Y016323D02*
X012435Y016323D01*
X012435Y016421D02*
X012685Y016421D01*
X012685Y016520D02*
X012435Y016520D01*
X012435Y016618D02*
X012685Y016618D01*
X012685Y016717D02*
X012435Y016717D01*
X012435Y016815D02*
X012685Y016815D01*
X012685Y016914D02*
X012435Y016914D01*
X012414Y017012D02*
X012706Y017012D01*
X013213Y017209D02*
X014023Y017209D01*
X014020Y017220D02*
X014030Y017182D01*
X014050Y017148D01*
X014078Y017120D01*
X014112Y017100D01*
X014150Y017090D01*
X014308Y017090D01*
X014308Y017412D01*
X014383Y017412D01*
X014383Y017488D01*
X014308Y017488D01*
X014308Y017810D01*
X014150Y017810D01*
X014112Y017800D01*
X014078Y017780D01*
X014050Y017752D01*
X014030Y017718D01*
X014020Y017680D01*
X014020Y017488D01*
X014308Y017488D01*
X014308Y017412D01*
X014020Y017412D01*
X014020Y017220D01*
X014020Y017308D02*
X013311Y017308D01*
X013410Y017406D02*
X014020Y017406D01*
X014020Y017505D02*
X013508Y017505D01*
X013607Y017603D02*
X014020Y017603D01*
X014026Y017702D02*
X013705Y017702D01*
X013804Y017800D02*
X014113Y017800D01*
X014308Y017800D02*
X014383Y017800D01*
X014383Y017810D02*
X014383Y017488D01*
X014670Y017488D01*
X014670Y017680D01*
X014660Y017718D01*
X014640Y017752D01*
X014612Y017780D01*
X014578Y017800D01*
X014540Y017810D01*
X014383Y017810D01*
X014383Y017702D02*
X014308Y017702D01*
X014308Y017603D02*
X014383Y017603D01*
X014383Y017505D02*
X014308Y017505D01*
X014308Y017406D02*
X014383Y017406D01*
X014383Y017412D02*
X014383Y017090D01*
X014540Y017090D01*
X014578Y017100D01*
X014612Y017120D01*
X014640Y017148D01*
X014660Y017182D01*
X014670Y017220D01*
X014670Y017412D01*
X014383Y017412D01*
X014383Y017308D02*
X014308Y017308D01*
X014308Y017209D02*
X014383Y017209D01*
X014383Y017111D02*
X014308Y017111D01*
X014094Y017111D02*
X010832Y017111D01*
X011114Y017012D02*
X011756Y017012D01*
X011735Y016914D02*
X011670Y016914D01*
X011200Y016914D02*
X011135Y016914D01*
X010711Y017603D02*
X013069Y017603D01*
X013168Y017702D02*
X012955Y017702D01*
X013054Y017800D02*
X013266Y017800D01*
X013365Y017899D02*
X013152Y017899D01*
X013251Y017997D02*
X013463Y017997D01*
X013562Y018096D02*
X013349Y018096D01*
X013448Y018194D02*
X013660Y018194D01*
X013759Y018293D02*
X013546Y018293D01*
X013645Y018391D02*
X013857Y018391D01*
X013956Y018490D02*
X013743Y018490D01*
X013842Y018588D02*
X014054Y018588D01*
X014153Y018687D02*
X013940Y018687D01*
X014039Y018785D02*
X014251Y018785D01*
X014350Y018884D02*
X014137Y018884D01*
X014236Y018982D02*
X014448Y018982D01*
X014547Y019081D02*
X014334Y019081D01*
X014433Y019179D02*
X014645Y019179D01*
X014664Y019278D02*
X014531Y019278D01*
X014630Y019376D02*
X014715Y019376D01*
X014728Y019475D02*
X014866Y019475D01*
X014827Y019573D02*
X015858Y019573D01*
X015888Y019543D02*
X016065Y019470D01*
X016256Y019470D01*
X016432Y019543D01*
X016567Y019678D01*
X016640Y019855D01*
X016640Y020045D01*
X016567Y020222D01*
X016432Y020357D01*
X016256Y020430D01*
X016065Y020430D01*
X015888Y020357D01*
X015753Y020222D01*
X015680Y020045D01*
X015680Y019855D01*
X015753Y019678D01*
X015888Y019543D01*
X015934Y019376D02*
X015155Y019376D01*
X015206Y019278D02*
X015809Y019278D01*
X015753Y019222D02*
X015680Y019045D01*
X015680Y018855D01*
X015714Y018773D01*
X014946Y018005D01*
X014835Y017894D01*
X014835Y017770D01*
X014804Y017770D01*
X014740Y017706D01*
X014740Y017194D01*
X014804Y017130D01*
X014835Y017130D01*
X014835Y015994D01*
X014769Y015928D01*
X013892Y015928D01*
X013828Y015864D01*
X013828Y015536D01*
X013892Y015472D01*
X014850Y015472D01*
X014888Y015510D01*
X014889Y015510D01*
X015000Y015621D01*
X015215Y015836D01*
X015215Y017130D01*
X015246Y017130D01*
X015310Y017194D01*
X015310Y017706D01*
X015247Y017768D01*
X015983Y018504D01*
X016065Y018470D01*
X016256Y018470D01*
X016432Y018543D01*
X016567Y018678D01*
X016640Y018855D01*
X016640Y019045D01*
X016567Y019222D01*
X016432Y019357D01*
X016256Y019430D01*
X016065Y019430D01*
X015888Y019357D01*
X015753Y019222D01*
X015735Y019179D02*
X015215Y019179D01*
X015189Y019081D02*
X015695Y019081D01*
X015680Y018982D02*
X015113Y018982D01*
X014887Y018884D02*
X015680Y018884D01*
X015709Y018785D02*
X014789Y018785D01*
X014690Y018687D02*
X015628Y018687D01*
X015529Y018588D02*
X014592Y018588D01*
X014493Y018490D02*
X015431Y018490D01*
X015332Y018391D02*
X014395Y018391D01*
X014296Y018293D02*
X015234Y018293D01*
X015135Y018194D02*
X014198Y018194D01*
X014099Y018096D02*
X015037Y018096D01*
X014938Y017997D02*
X014001Y017997D01*
X013902Y017899D02*
X014840Y017899D01*
X014835Y017800D02*
X014577Y017800D01*
X014664Y017702D02*
X014740Y017702D01*
X014740Y017603D02*
X014670Y017603D01*
X014670Y017505D02*
X014740Y017505D01*
X014740Y017406D02*
X014670Y017406D01*
X014670Y017308D02*
X014740Y017308D01*
X014740Y017209D02*
X014667Y017209D01*
X014596Y017111D02*
X014835Y017111D01*
X014835Y017012D02*
X014664Y017012D01*
X014685Y016914D02*
X014835Y016914D01*
X014835Y016815D02*
X014685Y016815D01*
X014685Y016717D02*
X014835Y016717D01*
X014835Y016618D02*
X014685Y016618D01*
X014685Y016520D02*
X014835Y016520D01*
X014835Y016421D02*
X014685Y016421D01*
X014685Y016323D02*
X014835Y016323D01*
X014835Y016224D02*
X014685Y016224D01*
X014651Y016126D02*
X014835Y016126D01*
X014835Y016027D02*
X013265Y016027D01*
X013265Y015929D02*
X014770Y015929D01*
X015012Y015633D02*
X015798Y015633D01*
X015753Y015678D02*
X015888Y015543D01*
X016065Y015470D01*
X016256Y015470D01*
X016432Y015543D01*
X016567Y015678D01*
X016640Y015855D01*
X016640Y016045D01*
X016567Y016222D01*
X016432Y016357D01*
X016256Y016430D01*
X016065Y016430D01*
X015888Y016357D01*
X015753Y016222D01*
X015680Y016045D01*
X015680Y015855D01*
X015753Y015678D01*
X015731Y015732D02*
X015110Y015732D01*
X015209Y015830D02*
X015690Y015830D01*
X015680Y015929D02*
X015215Y015929D01*
X015215Y016027D02*
X015680Y016027D01*
X015713Y016126D02*
X015215Y016126D01*
X015215Y016224D02*
X015755Y016224D01*
X015854Y016323D02*
X015215Y016323D01*
X015215Y016421D02*
X016043Y016421D01*
X016065Y016470D02*
X016256Y016470D01*
X016432Y016543D01*
X016565Y016676D01*
X017370Y015871D01*
X017370Y015371D01*
X018265Y014475D01*
X018248Y014433D01*
X018248Y014270D01*
X018310Y014119D01*
X018425Y014004D01*
X018576Y013942D01*
X018739Y013942D01*
X018890Y014004D01*
X019005Y014119D01*
X019068Y014270D01*
X019068Y014433D01*
X019005Y014584D01*
X018890Y014699D01*
X018739Y014762D01*
X018576Y014762D01*
X018534Y014744D01*
X017750Y015528D01*
X017750Y016029D01*
X017639Y016140D01*
X016750Y017029D01*
X016639Y017140D01*
X016601Y017140D01*
X016567Y017222D01*
X016432Y017357D01*
X016256Y017430D01*
X016065Y017430D01*
X015888Y017357D01*
X015753Y017222D01*
X015680Y017045D01*
X015680Y016855D01*
X015753Y016678D01*
X015888Y016543D01*
X016065Y016470D01*
X015945Y016520D02*
X015215Y016520D01*
X015215Y016618D02*
X015813Y016618D01*
X015737Y016717D02*
X015215Y016717D01*
X015215Y016815D02*
X015696Y016815D01*
X015680Y016914D02*
X015215Y016914D01*
X015215Y017012D02*
X015680Y017012D01*
X015707Y017111D02*
X015215Y017111D01*
X015310Y017209D02*
X015748Y017209D01*
X015839Y017308D02*
X015310Y017308D01*
X015310Y017406D02*
X016007Y017406D01*
X016065Y017470D02*
X016256Y017470D01*
X016432Y017543D01*
X016565Y017676D01*
X017870Y016371D01*
X017981Y016260D01*
X018252Y016260D01*
X018310Y016119D01*
X018425Y016004D01*
X018576Y015942D01*
X018739Y015942D01*
X018890Y016004D01*
X019005Y016119D01*
X019068Y016270D01*
X019068Y016433D01*
X019005Y016584D01*
X018890Y016699D01*
X018739Y016762D01*
X018576Y016762D01*
X018425Y016699D01*
X018366Y016640D01*
X018139Y016640D01*
X016750Y018029D01*
X016639Y018140D01*
X016601Y018140D01*
X016567Y018222D01*
X016432Y018357D01*
X016256Y018430D01*
X016065Y018430D01*
X015888Y018357D01*
X015753Y018222D01*
X015680Y018045D01*
X015680Y017855D01*
X015753Y017678D01*
X015888Y017543D01*
X016065Y017470D01*
X015981Y017505D02*
X015310Y017505D01*
X015310Y017603D02*
X015828Y017603D01*
X015743Y017702D02*
X015310Y017702D01*
X015279Y017800D02*
X015703Y017800D01*
X015680Y017899D02*
X015377Y017899D01*
X015476Y017997D02*
X015680Y017997D01*
X015701Y018096D02*
X015574Y018096D01*
X015673Y018194D02*
X015742Y018194D01*
X015771Y018293D02*
X015824Y018293D01*
X015870Y018391D02*
X015970Y018391D01*
X015968Y018490D02*
X016017Y018490D01*
X016303Y018490D02*
X018271Y018490D01*
X018248Y018433D02*
X018248Y018270D01*
X018310Y018119D01*
X018425Y018004D01*
X018576Y017942D01*
X018739Y017942D01*
X018890Y018004D01*
X019005Y018119D01*
X019068Y018270D01*
X019068Y018433D01*
X019005Y018584D01*
X018890Y018699D01*
X018739Y018762D01*
X018576Y018762D01*
X018425Y018699D01*
X018310Y018584D01*
X018248Y018433D01*
X018248Y018391D02*
X016350Y018391D01*
X016496Y018293D02*
X018248Y018293D01*
X018279Y018194D02*
X016579Y018194D01*
X016683Y018096D02*
X018334Y018096D01*
X018442Y017997D02*
X016782Y017997D01*
X016880Y017899D02*
X019830Y017899D01*
X019830Y017997D02*
X018873Y017997D01*
X018981Y018096D02*
X019830Y018096D01*
X019830Y018194D02*
X019036Y018194D01*
X019068Y018293D02*
X019830Y018293D01*
X019830Y018391D02*
X019068Y018391D01*
X019044Y018490D02*
X019830Y018490D01*
X019830Y018588D02*
X019001Y018588D01*
X018903Y018687D02*
X019830Y018687D01*
X019830Y018785D02*
X016611Y018785D01*
X016640Y018884D02*
X019830Y018884D01*
X019830Y018982D02*
X018837Y018982D01*
X018890Y019004D02*
X019005Y019119D01*
X019068Y019270D01*
X019068Y019433D01*
X019005Y019584D01*
X018890Y019699D01*
X018739Y019762D01*
X018576Y019762D01*
X018425Y019699D01*
X018310Y019584D01*
X018248Y019433D01*
X018248Y019270D01*
X018310Y019119D01*
X018425Y019004D01*
X018576Y018942D01*
X018739Y018942D01*
X018890Y019004D01*
X018966Y019081D02*
X019830Y019081D01*
X019830Y019179D02*
X019030Y019179D01*
X019068Y019278D02*
X019830Y019278D01*
X019830Y019376D02*
X019068Y019376D01*
X019051Y019475D02*
X019830Y019475D01*
X019830Y019573D02*
X019010Y019573D01*
X018918Y019672D02*
X019830Y019672D01*
X019830Y019770D02*
X016605Y019770D01*
X016640Y019869D02*
X019830Y019869D01*
X019830Y019967D02*
X018801Y019967D01*
X018739Y019942D02*
X018890Y020004D01*
X019005Y020119D01*
X019068Y020270D01*
X019068Y020433D01*
X019005Y020584D01*
X018890Y020699D01*
X018739Y020762D01*
X018576Y020762D01*
X018425Y020699D01*
X018310Y020584D01*
X018248Y020433D01*
X018248Y020270D01*
X018310Y020119D01*
X018425Y020004D01*
X018576Y019942D01*
X018739Y019942D01*
X018515Y019967D02*
X016640Y019967D01*
X016632Y020066D02*
X018364Y020066D01*
X018292Y020164D02*
X016591Y020164D01*
X016526Y020263D02*
X018251Y020263D01*
X018248Y020361D02*
X016422Y020361D01*
X016432Y020543D02*
X016256Y020470D01*
X016065Y020470D01*
X015888Y020543D01*
X015753Y020678D01*
X015680Y020855D01*
X015680Y021045D01*
X015753Y021222D01*
X015888Y021357D01*
X016065Y021430D01*
X016256Y021430D01*
X016432Y021357D01*
X016567Y021222D01*
X016640Y021045D01*
X016640Y020855D01*
X016567Y020678D01*
X016432Y020543D01*
X016447Y020558D02*
X018299Y020558D01*
X018259Y020460D02*
X002500Y020460D01*
X002500Y020558D02*
X015873Y020558D01*
X015775Y020657D02*
X002500Y020657D01*
X002500Y020755D02*
X015721Y020755D01*
X015680Y020854D02*
X002500Y020854D01*
X002500Y020952D02*
X015680Y020952D01*
X015682Y021051D02*
X002500Y021051D01*
X002500Y021149D02*
X015723Y021149D01*
X015779Y021248D02*
X002500Y021248D01*
X002500Y021346D02*
X015877Y021346D01*
X016443Y021346D02*
X018248Y021346D01*
X018248Y021270D02*
X018248Y021433D01*
X018310Y021584D01*
X018425Y021699D01*
X018576Y021762D01*
X018739Y021762D01*
X018890Y021699D01*
X019005Y021584D01*
X019068Y021433D01*
X019068Y021270D01*
X019005Y021119D01*
X018890Y021004D01*
X018739Y020942D01*
X018576Y020942D01*
X018425Y021004D01*
X018310Y021119D01*
X018248Y021270D01*
X018257Y021248D02*
X016541Y021248D01*
X016597Y021149D02*
X018298Y021149D01*
X018379Y021051D02*
X016638Y021051D01*
X016640Y020952D02*
X018551Y020952D01*
X018560Y020755D02*
X016599Y020755D01*
X016640Y020854D02*
X019830Y020854D01*
X019830Y020952D02*
X018764Y020952D01*
X018755Y020755D02*
X019830Y020755D01*
X019830Y020657D02*
X018933Y020657D01*
X019016Y020558D02*
X019830Y020558D01*
X019830Y020460D02*
X019057Y020460D01*
X019068Y020361D02*
X019830Y020361D01*
X019830Y020263D02*
X019065Y020263D01*
X019024Y020164D02*
X019830Y020164D01*
X019830Y020066D02*
X018951Y020066D01*
X018398Y019672D02*
X016560Y019672D01*
X016462Y019573D02*
X018306Y019573D01*
X018265Y019475D02*
X016266Y019475D01*
X016386Y019376D02*
X018248Y019376D01*
X018248Y019278D02*
X016511Y019278D01*
X016585Y019179D02*
X018285Y019179D01*
X018349Y019081D02*
X016626Y019081D01*
X016640Y018982D02*
X018478Y018982D01*
X018413Y018687D02*
X016570Y018687D01*
X016477Y018588D02*
X018314Y018588D01*
X018576Y017762D02*
X018425Y017699D01*
X018310Y017584D01*
X018248Y017433D01*
X018248Y017270D01*
X018310Y017119D01*
X018425Y017004D01*
X018576Y016942D01*
X018739Y016942D01*
X018890Y017004D01*
X019005Y017119D01*
X019068Y017270D01*
X019068Y017433D01*
X019005Y017584D01*
X018890Y017699D01*
X018739Y017762D01*
X018576Y017762D01*
X018431Y017702D02*
X017077Y017702D01*
X016979Y017800D02*
X019830Y017800D01*
X019830Y017702D02*
X018884Y017702D01*
X018986Y017603D02*
X019830Y017603D01*
X019830Y017505D02*
X019038Y017505D01*
X019068Y017406D02*
X019830Y017406D01*
X019830Y017308D02*
X019068Y017308D01*
X019042Y017209D02*
X019830Y017209D01*
X019830Y017111D02*
X018996Y017111D01*
X018898Y017012D02*
X019830Y017012D01*
X019830Y016914D02*
X017865Y016914D01*
X017767Y017012D02*
X018417Y017012D01*
X018319Y017111D02*
X017668Y017111D01*
X017570Y017209D02*
X018273Y017209D01*
X018248Y017308D02*
X017471Y017308D01*
X017373Y017406D02*
X018248Y017406D01*
X018277Y017505D02*
X017274Y017505D01*
X017176Y017603D02*
X018329Y017603D01*
X017964Y016815D02*
X019830Y016815D01*
X019830Y016717D02*
X018848Y016717D01*
X018971Y016618D02*
X019830Y016618D01*
X019830Y016520D02*
X019032Y016520D01*
X019068Y016421D02*
X019830Y016421D01*
X019830Y016323D02*
X019068Y016323D01*
X019049Y016224D02*
X019830Y016224D01*
X019830Y016126D02*
X019008Y016126D01*
X018913Y016027D02*
X019830Y016027D01*
X019830Y015929D02*
X017750Y015929D01*
X017750Y016027D02*
X018402Y016027D01*
X018308Y016126D02*
X017653Y016126D01*
X017555Y016224D02*
X018267Y016224D01*
X017919Y016323D02*
X017456Y016323D01*
X017358Y016421D02*
X017820Y016421D01*
X017722Y016520D02*
X017259Y016520D01*
X017161Y016618D02*
X017623Y016618D01*
X017525Y016717D02*
X017062Y016717D01*
X016964Y016815D02*
X017426Y016815D01*
X017328Y016914D02*
X016865Y016914D01*
X016767Y017012D02*
X017229Y017012D01*
X017131Y017111D02*
X016668Y017111D01*
X016572Y017209D02*
X017032Y017209D01*
X016934Y017308D02*
X016481Y017308D01*
X016313Y017406D02*
X016835Y017406D01*
X016737Y017505D02*
X016339Y017505D01*
X016492Y017603D02*
X016638Y017603D01*
X016623Y016618D02*
X016507Y016618D01*
X016375Y016520D02*
X016722Y016520D01*
X016820Y016421D02*
X016277Y016421D01*
X016466Y016323D02*
X016919Y016323D01*
X017017Y016224D02*
X016565Y016224D01*
X016607Y016126D02*
X017116Y016126D01*
X017214Y016027D02*
X016640Y016027D01*
X016640Y015929D02*
X017313Y015929D01*
X017370Y015830D02*
X016630Y015830D01*
X016589Y015732D02*
X017370Y015732D01*
X017370Y015633D02*
X016522Y015633D01*
X016411Y015535D02*
X017370Y015535D01*
X017370Y015436D02*
X013265Y015436D01*
X013265Y015338D02*
X013828Y015338D01*
X013828Y015239D02*
X013265Y015239D01*
X013265Y015141D02*
X013828Y015141D01*
X013828Y015042D02*
X013265Y015042D01*
X013265Y014944D02*
X015048Y014944D01*
X015146Y014845D02*
X014934Y014845D01*
X015032Y014747D02*
X015245Y014747D01*
X015343Y014648D02*
X015131Y014648D01*
X015229Y014550D02*
X015370Y014550D01*
X015370Y014451D02*
X015250Y014451D01*
X015250Y014353D02*
X015370Y014353D01*
X015370Y014254D02*
X015250Y014254D01*
X015250Y014156D02*
X015370Y014156D01*
X015370Y014057D02*
X015250Y014057D01*
X015250Y013959D02*
X015370Y013959D01*
X015370Y013860D02*
X015250Y013860D01*
X015250Y013762D02*
X015370Y013762D01*
X015370Y013663D02*
X015250Y013663D01*
X015250Y013565D02*
X015370Y013565D01*
X015370Y013466D02*
X015250Y013466D01*
X015250Y013368D02*
X015370Y013368D01*
X015370Y013269D02*
X015250Y013269D01*
X015250Y013171D02*
X015370Y013171D01*
X015370Y013072D02*
X015250Y013072D01*
X015250Y012974D02*
X015393Y012974D01*
X015491Y012875D02*
X015279Y012875D01*
X015377Y012777D02*
X015590Y012777D01*
X015688Y012678D02*
X015476Y012678D01*
X015574Y012580D02*
X015787Y012580D01*
X015885Y012481D02*
X015673Y012481D01*
X015771Y012383D02*
X015984Y012383D01*
X016082Y012284D02*
X015870Y012284D01*
X015968Y012186D02*
X016155Y012186D01*
X016179Y012087D02*
X016067Y012087D01*
X016165Y011989D02*
X016251Y011989D01*
X016391Y011890D02*
X035481Y011890D01*
X035383Y011792D02*
X016450Y011792D01*
X016465Y011693D02*
X018248Y011693D01*
X018248Y011697D02*
X018248Y011006D01*
X018312Y010942D01*
X019003Y010942D01*
X019068Y011006D01*
X019068Y011697D01*
X019003Y011762D01*
X018312Y011762D01*
X018248Y011697D01*
X018248Y011595D02*
X017391Y011595D01*
X017366Y011605D02*
X017254Y011605D01*
X017151Y011562D01*
X017073Y011484D01*
X017030Y011381D01*
X017030Y011269D01*
X017073Y011166D01*
X017147Y011092D01*
X017116Y011105D01*
X017004Y011105D01*
X016901Y011062D01*
X016823Y010984D01*
X016780Y010881D01*
X016780Y010769D01*
X016823Y010666D01*
X016901Y010588D01*
X017004Y010545D01*
X017071Y010545D01*
X017606Y010010D01*
X034889Y010010D01*
X035000Y010121D01*
X035000Y010121D01*
X037639Y012760D01*
X037750Y012871D01*
X037750Y026029D01*
X037639Y026140D01*
X037139Y026640D01*
X035601Y026640D01*
X035567Y026722D01*
X035432Y026857D01*
X035256Y026930D01*
X035065Y026930D01*
X034888Y026857D01*
X034753Y026722D01*
X034680Y026545D01*
X034680Y026355D01*
X034753Y026178D01*
X034888Y026043D01*
X035065Y025970D01*
X035256Y025970D01*
X035432Y026043D01*
X035567Y026178D01*
X035601Y026260D01*
X036981Y026260D01*
X037370Y025871D01*
X037370Y013029D01*
X034731Y010390D01*
X017764Y010390D01*
X017340Y010814D01*
X017340Y010881D01*
X017297Y010984D01*
X017223Y011058D01*
X017254Y011045D01*
X017321Y011045D01*
X017856Y010510D01*
X034639Y010510D01*
X034750Y010621D01*
X037250Y013121D01*
X037250Y025029D01*
X037139Y025140D01*
X036639Y025640D01*
X035601Y025640D01*
X035567Y025722D01*
X035432Y025857D01*
X035256Y025930D01*
X035065Y025930D01*
X034888Y025857D01*
X034753Y025722D01*
X034680Y025545D01*
X034680Y025355D01*
X034753Y025178D01*
X034888Y025043D01*
X035065Y024970D01*
X035256Y024970D01*
X035432Y025043D01*
X035567Y025178D01*
X035601Y025260D01*
X036481Y025260D01*
X036870Y024871D01*
X036870Y013279D01*
X034481Y010890D01*
X018014Y010890D01*
X017590Y011314D01*
X017590Y011381D01*
X017547Y011484D01*
X017469Y011562D01*
X017366Y011605D01*
X017229Y011595D02*
X016444Y011595D01*
X016377Y011496D02*
X017085Y011496D01*
X017037Y011398D02*
X016225Y011398D01*
X016225Y011299D02*
X017030Y011299D01*
X017059Y011201D02*
X015938Y011201D01*
X015938Y011238D02*
X015938Y011162D01*
X016225Y011162D01*
X016225Y011093D01*
X016254Y011105D01*
X016366Y011105D01*
X016469Y011062D01*
X016547Y010984D01*
X016590Y010881D01*
X016590Y010769D01*
X016547Y010666D01*
X016469Y010588D01*
X016366Y010545D01*
X016345Y010545D01*
X016185Y010399D01*
X016185Y010194D01*
X016121Y010130D01*
X016090Y010130D01*
X016090Y010020D01*
X016121Y010020D01*
X016185Y009956D01*
X016185Y009444D01*
X016121Y009380D01*
X015679Y009380D01*
X015615Y009444D01*
X015615Y009956D01*
X015679Y010020D01*
X015710Y010020D01*
X015710Y010130D01*
X015679Y010130D01*
X015615Y010194D01*
X015615Y010706D01*
X015679Y010770D01*
X015909Y010770D01*
X015986Y010840D01*
X015938Y010840D01*
X015938Y011162D01*
X015863Y011162D01*
X015863Y010840D01*
X015705Y010840D01*
X015667Y010850D01*
X015633Y010870D01*
X015605Y010898D01*
X015585Y010932D01*
X015575Y010970D01*
X015575Y011162D01*
X015863Y011162D01*
X015863Y011238D01*
X015863Y011560D01*
X015705Y011560D01*
X015667Y011550D01*
X015633Y011530D01*
X015605Y011502D01*
X015585Y011468D01*
X015575Y011430D01*
X015575Y011238D01*
X015863Y011238D01*
X015938Y011238D01*
X015938Y011299D02*
X015863Y011299D01*
X015863Y011201D02*
X015505Y011201D01*
X015505Y011299D02*
X015575Y011299D01*
X015575Y011398D02*
X015505Y011398D01*
X015505Y011456D02*
X015441Y011520D01*
X014999Y011520D01*
X014935Y011456D01*
X014935Y011390D01*
X014888Y011390D01*
X014850Y011428D01*
X013892Y011428D01*
X013828Y011364D01*
X013828Y011036D01*
X013892Y010972D01*
X014850Y010972D01*
X014888Y011010D01*
X014935Y011010D01*
X014935Y010944D01*
X014989Y010890D01*
X014888Y010890D01*
X014850Y010928D01*
X013892Y010928D01*
X013828Y010864D01*
X013828Y010536D01*
X013892Y010472D01*
X014850Y010472D01*
X014888Y010510D01*
X014891Y010510D01*
X014935Y010466D01*
X014935Y010194D01*
X014999Y010130D01*
X015030Y010130D01*
X015030Y010020D01*
X014999Y010020D01*
X014935Y009956D01*
X014935Y009444D01*
X014999Y009380D01*
X015441Y009380D01*
X015505Y009444D01*
X015505Y009956D01*
X015441Y010020D01*
X015410Y010020D01*
X015410Y010130D01*
X015441Y010130D01*
X015505Y010194D01*
X015505Y010706D01*
X015441Y010770D01*
X015169Y010770D01*
X015059Y010880D01*
X015441Y010880D01*
X015505Y010944D01*
X015505Y011456D01*
X015465Y011496D02*
X015601Y011496D01*
X015863Y011496D02*
X015938Y011496D01*
X015938Y011398D02*
X015863Y011398D01*
X015926Y011595D02*
X014914Y011595D01*
X014914Y011536D02*
X014914Y011864D01*
X014850Y011928D01*
X014468Y011928D01*
X014466Y011930D01*
X013715Y011930D01*
X013465Y011680D01*
X013454Y011680D01*
X013351Y011637D01*
X013273Y011559D01*
X013230Y011456D01*
X013230Y011344D01*
X013273Y011241D01*
X013351Y011163D01*
X013454Y011120D01*
X013566Y011120D01*
X013669Y011163D01*
X013747Y011241D01*
X013790Y011344D01*
X013790Y011355D01*
X013905Y011470D01*
X014466Y011470D01*
X014468Y011472D01*
X014850Y011472D01*
X014914Y011536D01*
X014874Y011496D02*
X014975Y011496D01*
X014935Y011398D02*
X014880Y011398D01*
X014914Y011693D02*
X015905Y011693D01*
X015825Y011792D02*
X014914Y011792D01*
X014888Y011890D02*
X015726Y011890D01*
X015628Y011989D02*
X014866Y011989D01*
X014914Y012087D02*
X015529Y012087D01*
X015431Y012186D02*
X014914Y012186D01*
X014914Y012284D02*
X015332Y012284D01*
X015234Y012383D02*
X014895Y012383D01*
X014859Y012481D02*
X015135Y012481D01*
X015037Y012580D02*
X014914Y012580D01*
X014914Y012678D02*
X014938Y012678D01*
X015750Y013171D02*
X018289Y013171D01*
X018310Y013119D02*
X018425Y013004D01*
X018576Y012942D01*
X018739Y012942D01*
X018890Y013004D01*
X019005Y013119D01*
X019068Y013270D01*
X019068Y013433D01*
X019005Y013584D01*
X018890Y013699D01*
X018739Y013762D01*
X018576Y013762D01*
X018425Y013699D01*
X018310Y013584D01*
X018248Y013433D01*
X018248Y013270D01*
X018310Y013119D01*
X018357Y013072D02*
X015832Y013072D01*
X015930Y012974D02*
X018499Y012974D01*
X018552Y012790D02*
X018485Y012769D01*
X018422Y012736D01*
X018365Y012695D01*
X018314Y012645D01*
X018273Y012587D01*
X018241Y012524D01*
X018219Y012457D01*
X018210Y012402D01*
X018608Y012402D01*
X018608Y012799D01*
X018552Y012790D01*
X018509Y012777D02*
X016127Y012777D01*
X016029Y012875D02*
X033127Y012875D01*
X033118Y012870D02*
X033090Y012842D01*
X033070Y012808D01*
X033060Y012770D01*
X033060Y012495D01*
X033355Y012495D01*
X033355Y012405D01*
X033060Y012405D01*
X033060Y012130D01*
X033070Y012092D01*
X033090Y012058D01*
X033118Y012030D01*
X033152Y012010D01*
X033190Y012000D01*
X033355Y012000D01*
X033355Y012405D01*
X033445Y012405D01*
X033445Y012000D01*
X033610Y012000D01*
X033648Y012010D01*
X033682Y012030D01*
X033710Y012058D01*
X033730Y012092D01*
X033740Y012130D01*
X033740Y012405D01*
X033445Y012405D01*
X033445Y012495D01*
X033355Y012495D01*
X033355Y012900D01*
X033190Y012900D01*
X033152Y012890D01*
X033118Y012870D01*
X033062Y012777D02*
X018806Y012777D01*
X018830Y012769D02*
X018763Y012790D01*
X018708Y012799D01*
X018708Y012402D01*
X018608Y012402D01*
X018608Y012302D01*
X018210Y012302D01*
X018219Y012246D01*
X018241Y012179D01*
X018273Y012116D01*
X018314Y012058D01*
X018365Y012008D01*
X018422Y011967D01*
X018485Y011935D01*
X018552Y011913D01*
X018608Y011904D01*
X018608Y012302D01*
X018708Y012302D01*
X018708Y012402D01*
X019105Y012402D01*
X019097Y012457D01*
X019075Y012524D01*
X019043Y012587D01*
X019001Y012645D01*
X018951Y012695D01*
X018894Y012736D01*
X018830Y012769D01*
X018708Y012777D02*
X018608Y012777D01*
X018608Y012678D02*
X018708Y012678D01*
X018708Y012580D02*
X018608Y012580D01*
X018608Y012481D02*
X018708Y012481D01*
X018708Y012383D02*
X033060Y012383D01*
X033060Y012284D02*
X019103Y012284D01*
X019105Y012302D02*
X018708Y012302D01*
X018708Y011904D01*
X018763Y011913D01*
X018830Y011935D01*
X018894Y011967D01*
X018951Y012008D01*
X019001Y012058D01*
X019043Y012116D01*
X019075Y012179D01*
X019097Y012246D01*
X019105Y012302D01*
X019077Y012186D02*
X033060Y012186D01*
X033073Y012087D02*
X019022Y012087D01*
X018924Y011989D02*
X035580Y011989D01*
X035678Y012087D02*
X034503Y012087D01*
X034520Y012104D02*
X034456Y012040D01*
X033984Y012040D01*
X033920Y012104D01*
X033920Y012796D01*
X033984Y012860D01*
X034456Y012860D01*
X034520Y012796D01*
X034520Y012681D01*
X034526Y012687D01*
X034629Y012730D01*
X034741Y012730D01*
X034844Y012687D01*
X034922Y012609D01*
X034965Y012506D01*
X034965Y012394D01*
X034922Y012291D01*
X034844Y012213D01*
X034741Y012170D01*
X034629Y012170D01*
X034526Y012213D01*
X034520Y012219D01*
X034520Y012104D01*
X034520Y012186D02*
X034592Y012186D01*
X034778Y012186D02*
X035777Y012186D01*
X035875Y012284D02*
X034915Y012284D01*
X034960Y012383D02*
X035974Y012383D01*
X036072Y012481D02*
X034965Y012481D01*
X034934Y012580D02*
X036171Y012580D01*
X036269Y012678D02*
X034853Y012678D01*
X034520Y012777D02*
X036368Y012777D01*
X036290Y012856D02*
X036404Y012970D01*
X036465Y013119D01*
X036465Y013281D01*
X036420Y013390D01*
X036420Y014525D01*
X036719Y014525D01*
X036783Y014589D01*
X036783Y015311D01*
X036719Y015375D01*
X036420Y015375D01*
X036420Y022022D01*
X036365Y022154D01*
X036264Y022255D01*
X036264Y022255D01*
X035865Y022654D01*
X035764Y022755D01*
X035632Y022810D01*
X035479Y022810D01*
X035432Y022857D01*
X035256Y022930D01*
X035065Y022930D01*
X034888Y022857D01*
X034753Y022722D01*
X034680Y022545D01*
X034680Y022355D01*
X034753Y022178D01*
X034888Y022043D01*
X035065Y021970D01*
X035256Y021970D01*
X035432Y022043D01*
X035445Y022056D01*
X035700Y021801D01*
X035700Y015375D01*
X035053Y015375D01*
X034988Y015311D01*
X034988Y014589D01*
X035053Y014525D01*
X035700Y014525D01*
X035700Y013390D01*
X035655Y013281D01*
X035655Y013119D01*
X035716Y012970D01*
X035830Y012856D01*
X035979Y012795D01*
X036141Y012795D01*
X036290Y012856D01*
X036308Y012875D02*
X036466Y012875D01*
X036405Y012974D02*
X036565Y012974D01*
X036663Y013072D02*
X036446Y013072D01*
X036465Y013171D02*
X036762Y013171D01*
X036860Y013269D02*
X036465Y013269D01*
X036429Y013368D02*
X036870Y013368D01*
X036870Y013466D02*
X036420Y013466D01*
X036420Y013565D02*
X036870Y013565D01*
X036870Y013663D02*
X036420Y013663D01*
X036420Y013762D02*
X036870Y013762D01*
X036870Y013860D02*
X036420Y013860D01*
X036420Y013959D02*
X036870Y013959D01*
X036870Y014057D02*
X036420Y014057D01*
X036420Y014156D02*
X036870Y014156D01*
X036870Y014254D02*
X036420Y014254D01*
X036420Y014353D02*
X036870Y014353D01*
X036870Y014451D02*
X036420Y014451D01*
X036743Y014550D02*
X036870Y014550D01*
X036870Y014648D02*
X036783Y014648D01*
X036783Y014747D02*
X036870Y014747D01*
X036870Y014845D02*
X036783Y014845D01*
X036783Y014944D02*
X036870Y014944D01*
X036870Y015042D02*
X036783Y015042D01*
X036783Y015141D02*
X036870Y015141D01*
X036870Y015239D02*
X036783Y015239D01*
X036756Y015338D02*
X036870Y015338D01*
X036870Y015436D02*
X036420Y015436D01*
X036420Y015535D02*
X036870Y015535D01*
X036870Y015633D02*
X036420Y015633D01*
X036420Y015732D02*
X036870Y015732D01*
X036870Y015830D02*
X036420Y015830D01*
X036420Y015929D02*
X036870Y015929D01*
X036870Y016027D02*
X036420Y016027D01*
X036420Y016126D02*
X036870Y016126D01*
X036870Y016224D02*
X036420Y016224D01*
X036420Y016323D02*
X036870Y016323D01*
X036870Y016421D02*
X036420Y016421D01*
X036420Y016520D02*
X036870Y016520D01*
X036870Y016618D02*
X036420Y016618D01*
X036420Y016717D02*
X036870Y016717D01*
X036870Y016815D02*
X036420Y016815D01*
X036420Y016914D02*
X036870Y016914D01*
X036870Y017012D02*
X036420Y017012D01*
X036420Y017111D02*
X036870Y017111D01*
X036870Y017209D02*
X036420Y017209D01*
X036420Y017308D02*
X036870Y017308D01*
X036870Y017406D02*
X036420Y017406D01*
X036420Y017505D02*
X036870Y017505D01*
X036870Y017603D02*
X036420Y017603D01*
X036420Y017702D02*
X036870Y017702D01*
X036870Y017800D02*
X036420Y017800D01*
X036420Y017899D02*
X036870Y017899D01*
X036870Y017997D02*
X036420Y017997D01*
X036420Y018096D02*
X036870Y018096D01*
X036870Y018194D02*
X036420Y018194D01*
X036420Y018293D02*
X036870Y018293D01*
X036870Y018391D02*
X036420Y018391D01*
X036420Y018490D02*
X036870Y018490D01*
X036870Y018588D02*
X036420Y018588D01*
X036420Y018687D02*
X036870Y018687D01*
X036870Y018785D02*
X036420Y018785D01*
X036420Y018884D02*
X036870Y018884D01*
X036870Y018982D02*
X036420Y018982D01*
X036420Y019081D02*
X036870Y019081D01*
X036870Y019179D02*
X036420Y019179D01*
X036420Y019278D02*
X036870Y019278D01*
X036870Y019376D02*
X036420Y019376D01*
X036420Y019475D02*
X036870Y019475D01*
X036870Y019573D02*
X036420Y019573D01*
X036420Y019672D02*
X036870Y019672D01*
X036870Y019770D02*
X036420Y019770D01*
X036420Y019869D02*
X036870Y019869D01*
X036870Y019967D02*
X036420Y019967D01*
X036420Y020066D02*
X036870Y020066D01*
X036870Y020164D02*
X036420Y020164D01*
X036420Y020263D02*
X036870Y020263D01*
X036870Y020361D02*
X036420Y020361D01*
X036420Y020460D02*
X036870Y020460D01*
X036870Y020558D02*
X036420Y020558D01*
X036420Y020657D02*
X036870Y020657D01*
X036870Y020755D02*
X036420Y020755D01*
X036420Y020854D02*
X036870Y020854D01*
X036870Y020952D02*
X036420Y020952D01*
X036420Y021051D02*
X036870Y021051D01*
X036870Y021149D02*
X036420Y021149D01*
X036420Y021248D02*
X036870Y021248D01*
X036870Y021346D02*
X036420Y021346D01*
X036420Y021445D02*
X036870Y021445D01*
X036870Y021543D02*
X036420Y021543D01*
X036420Y021642D02*
X036870Y021642D01*
X036870Y021740D02*
X036420Y021740D01*
X036420Y021839D02*
X036870Y021839D01*
X036870Y021937D02*
X036420Y021937D01*
X036414Y022036D02*
X036870Y022036D01*
X036870Y022134D02*
X036373Y022134D01*
X036287Y022233D02*
X036870Y022233D01*
X036870Y022331D02*
X036188Y022331D01*
X036090Y022430D02*
X036870Y022430D01*
X036870Y022528D02*
X035991Y022528D01*
X035893Y022627D02*
X036870Y022627D01*
X036870Y022725D02*
X035794Y022725D01*
X035865Y022654D02*
X035865Y022654D01*
X035465Y022824D02*
X036870Y022824D01*
X036870Y022922D02*
X035275Y022922D01*
X035045Y022922D02*
X025657Y022922D01*
X025755Y022824D02*
X034855Y022824D01*
X034756Y022725D02*
X025854Y022725D01*
X025952Y022627D02*
X034714Y022627D01*
X034680Y022528D02*
X026051Y022528D01*
X026149Y022430D02*
X034680Y022430D01*
X034690Y022331D02*
X026248Y022331D01*
X026346Y022233D02*
X034731Y022233D01*
X034797Y022134D02*
X026445Y022134D01*
X026543Y022036D02*
X034906Y022036D01*
X034888Y021857D02*
X034753Y021722D01*
X034680Y021545D01*
X034680Y021355D01*
X034753Y021178D01*
X034888Y021043D01*
X035065Y020970D01*
X035256Y020970D01*
X035432Y021043D01*
X035567Y021178D01*
X035640Y021355D01*
X035640Y021545D01*
X035567Y021722D01*
X035432Y021857D01*
X035256Y021930D01*
X035065Y021930D01*
X034888Y021857D01*
X034870Y021839D02*
X026740Y021839D01*
X026642Y021937D02*
X035564Y021937D01*
X035662Y021839D02*
X035450Y021839D01*
X035549Y021740D02*
X035700Y021740D01*
X035700Y021642D02*
X035600Y021642D01*
X035640Y021543D02*
X035700Y021543D01*
X035700Y021445D02*
X035640Y021445D01*
X035637Y021346D02*
X035700Y021346D01*
X035700Y021248D02*
X035596Y021248D01*
X035538Y021149D02*
X035700Y021149D01*
X035700Y021051D02*
X035439Y021051D01*
X035432Y020857D02*
X035256Y020930D01*
X035065Y020930D01*
X034888Y020857D01*
X034753Y020722D01*
X034680Y020545D01*
X034680Y020355D01*
X034753Y020178D01*
X034888Y020043D01*
X035065Y019970D01*
X035256Y019970D01*
X035432Y020043D01*
X035567Y020178D01*
X035640Y020355D01*
X035640Y020545D01*
X035567Y020722D01*
X035432Y020857D01*
X035435Y020854D02*
X035700Y020854D01*
X035700Y020952D02*
X027627Y020952D01*
X027725Y020854D02*
X034885Y020854D01*
X034786Y020755D02*
X027824Y020755D01*
X027922Y020657D02*
X034726Y020657D01*
X034685Y020558D02*
X028021Y020558D01*
X028119Y020460D02*
X034680Y020460D01*
X034680Y020361D02*
X028218Y020361D01*
X028316Y020263D02*
X034718Y020263D01*
X034767Y020164D02*
X028415Y020164D01*
X028513Y020066D02*
X034866Y020066D01*
X034960Y019932D02*
X034887Y019895D01*
X034821Y019847D01*
X034763Y019789D01*
X034715Y019723D01*
X034678Y019650D01*
X034653Y019572D01*
X034641Y019500D01*
X035110Y019500D01*
X035110Y019400D01*
X034641Y019400D01*
X034653Y019328D01*
X034678Y019250D01*
X034715Y019177D01*
X034763Y019111D01*
X034821Y019053D01*
X034887Y019005D01*
X034960Y018968D01*
X035038Y018943D01*
X035110Y018931D01*
X035110Y019400D01*
X035210Y019400D01*
X035210Y018931D01*
X035282Y018943D01*
X035360Y018968D01*
X035433Y019005D01*
X035499Y019053D01*
X035557Y019111D01*
X035605Y019177D01*
X035642Y019250D01*
X035667Y019328D01*
X035679Y019400D01*
X035210Y019400D01*
X035210Y019500D01*
X035110Y019500D01*
X035110Y019969D01*
X035038Y019957D01*
X034960Y019932D01*
X034851Y019869D02*
X028710Y019869D01*
X028612Y019967D02*
X035100Y019967D01*
X035110Y019967D02*
X035210Y019967D01*
X035210Y019969D02*
X035210Y019500D01*
X035679Y019500D01*
X035667Y019572D01*
X035642Y019650D01*
X035605Y019723D01*
X035557Y019789D01*
X035499Y019847D01*
X035433Y019895D01*
X035360Y019932D01*
X035282Y019957D01*
X035210Y019969D01*
X035220Y019967D02*
X035700Y019967D01*
X035700Y019869D02*
X035469Y019869D01*
X035570Y019770D02*
X035700Y019770D01*
X035700Y019672D02*
X035631Y019672D01*
X035667Y019573D02*
X035700Y019573D01*
X035700Y019475D02*
X035210Y019475D01*
X035210Y019573D02*
X035110Y019573D01*
X035110Y019475D02*
X029104Y019475D01*
X029006Y019573D02*
X034653Y019573D01*
X034689Y019672D02*
X028907Y019672D01*
X028809Y019770D02*
X034750Y019770D01*
X035110Y019770D02*
X035210Y019770D01*
X035210Y019672D02*
X035110Y019672D01*
X035110Y019869D02*
X035210Y019869D01*
X035454Y020066D02*
X035700Y020066D01*
X035700Y020164D02*
X035553Y020164D01*
X035602Y020263D02*
X035700Y020263D01*
X035700Y020361D02*
X035640Y020361D01*
X035640Y020460D02*
X035700Y020460D01*
X035700Y020558D02*
X035635Y020558D01*
X035594Y020657D02*
X035700Y020657D01*
X035700Y020755D02*
X035534Y020755D01*
X034881Y021051D02*
X027528Y021051D01*
X027430Y021149D02*
X034782Y021149D01*
X034724Y021248D02*
X027331Y021248D01*
X027233Y021346D02*
X034684Y021346D01*
X034680Y021445D02*
X027134Y021445D01*
X027036Y021543D02*
X034680Y021543D01*
X034720Y021642D02*
X026937Y021642D01*
X026839Y021740D02*
X034771Y021740D01*
X035414Y022036D02*
X035465Y022036D01*
X036870Y023021D02*
X025558Y023021D01*
X025460Y023119D02*
X036870Y023119D01*
X036870Y023218D02*
X025361Y023218D01*
X025263Y023316D02*
X036870Y023316D01*
X036870Y023415D02*
X025164Y023415D01*
X025066Y023513D02*
X036870Y023513D01*
X036870Y023612D02*
X024967Y023612D01*
X024869Y023710D02*
X036870Y023710D01*
X036870Y023809D02*
X024770Y023809D01*
X024672Y023907D02*
X036870Y023907D01*
X036870Y024006D02*
X035341Y024006D01*
X035256Y023970D02*
X035432Y024043D01*
X035567Y024178D01*
X035640Y024355D01*
X035640Y024545D01*
X035567Y024722D01*
X035432Y024857D01*
X035256Y024930D01*
X035065Y024930D01*
X034888Y024857D01*
X034753Y024722D01*
X034680Y024545D01*
X034680Y024355D01*
X034753Y024178D01*
X034888Y024043D01*
X035065Y023970D01*
X035256Y023970D01*
X035493Y024104D02*
X036870Y024104D01*
X036870Y024203D02*
X035577Y024203D01*
X035618Y024301D02*
X036870Y024301D01*
X036870Y024400D02*
X035640Y024400D01*
X035640Y024498D02*
X036870Y024498D01*
X036870Y024597D02*
X035619Y024597D01*
X035578Y024695D02*
X036870Y024695D01*
X036870Y024794D02*
X035495Y024794D01*
X035347Y024892D02*
X036849Y024892D01*
X036751Y024991D02*
X035305Y024991D01*
X035478Y025089D02*
X036652Y025089D01*
X036554Y025188D02*
X035571Y025188D01*
X035584Y025680D02*
X037370Y025680D01*
X037370Y025582D02*
X036697Y025582D01*
X036796Y025483D02*
X037370Y025483D01*
X037370Y025385D02*
X036894Y025385D01*
X036993Y025286D02*
X037370Y025286D01*
X037370Y025188D02*
X037091Y025188D01*
X037190Y025089D02*
X037370Y025089D01*
X037370Y024991D02*
X037250Y024991D01*
X037250Y024892D02*
X037370Y024892D01*
X037370Y024794D02*
X037250Y024794D01*
X037250Y024695D02*
X037370Y024695D01*
X037370Y024597D02*
X037250Y024597D01*
X037250Y024498D02*
X037370Y024498D01*
X037370Y024400D02*
X037250Y024400D01*
X037250Y024301D02*
X037370Y024301D01*
X037370Y024203D02*
X037250Y024203D01*
X037250Y024104D02*
X037370Y024104D01*
X037370Y024006D02*
X037250Y024006D01*
X037250Y023907D02*
X037370Y023907D01*
X037370Y023809D02*
X037250Y023809D01*
X037250Y023710D02*
X037370Y023710D01*
X037370Y023612D02*
X037250Y023612D01*
X037250Y023513D02*
X037370Y023513D01*
X037370Y023415D02*
X037250Y023415D01*
X037250Y023316D02*
X037370Y023316D01*
X037370Y023218D02*
X037250Y023218D01*
X037250Y023119D02*
X037370Y023119D01*
X037370Y023021D02*
X037250Y023021D01*
X037250Y022922D02*
X037370Y022922D01*
X037370Y022824D02*
X037250Y022824D01*
X037250Y022725D02*
X037370Y022725D01*
X037370Y022627D02*
X037250Y022627D01*
X037250Y022528D02*
X037370Y022528D01*
X037370Y022430D02*
X037250Y022430D01*
X037250Y022331D02*
X037370Y022331D01*
X037370Y022233D02*
X037250Y022233D01*
X037250Y022134D02*
X037370Y022134D01*
X037370Y022036D02*
X037250Y022036D01*
X037250Y021937D02*
X037370Y021937D01*
X037370Y021839D02*
X037250Y021839D01*
X037250Y021740D02*
X037370Y021740D01*
X037370Y021642D02*
X037250Y021642D01*
X037250Y021543D02*
X037370Y021543D01*
X037370Y021445D02*
X037250Y021445D01*
X037250Y021346D02*
X037370Y021346D01*
X037370Y021248D02*
X037250Y021248D01*
X037250Y021149D02*
X037370Y021149D01*
X037370Y021051D02*
X037250Y021051D01*
X037250Y020952D02*
X037370Y020952D01*
X037370Y020854D02*
X037250Y020854D01*
X037250Y020755D02*
X037370Y020755D01*
X037370Y020657D02*
X037250Y020657D01*
X037250Y020558D02*
X037370Y020558D01*
X037370Y020460D02*
X037250Y020460D01*
X037250Y020361D02*
X037370Y020361D01*
X037370Y020263D02*
X037250Y020263D01*
X037250Y020164D02*
X037370Y020164D01*
X037370Y020066D02*
X037250Y020066D01*
X037250Y019967D02*
X037370Y019967D01*
X037370Y019869D02*
X037250Y019869D01*
X037250Y019770D02*
X037370Y019770D01*
X037370Y019672D02*
X037250Y019672D01*
X037250Y019573D02*
X037370Y019573D01*
X037370Y019475D02*
X037250Y019475D01*
X037250Y019376D02*
X037370Y019376D01*
X037370Y019278D02*
X037250Y019278D01*
X037250Y019179D02*
X037370Y019179D01*
X037370Y019081D02*
X037250Y019081D01*
X037250Y018982D02*
X037370Y018982D01*
X037370Y018884D02*
X037250Y018884D01*
X037250Y018785D02*
X037370Y018785D01*
X037370Y018687D02*
X037250Y018687D01*
X037250Y018588D02*
X037370Y018588D01*
X037370Y018490D02*
X037250Y018490D01*
X037250Y018391D02*
X037370Y018391D01*
X037370Y018293D02*
X037250Y018293D01*
X037250Y018194D02*
X037370Y018194D01*
X037370Y018096D02*
X037250Y018096D01*
X037250Y017997D02*
X037370Y017997D01*
X037370Y017899D02*
X037250Y017899D01*
X037250Y017800D02*
X037370Y017800D01*
X037370Y017702D02*
X037250Y017702D01*
X037250Y017603D02*
X037370Y017603D01*
X037370Y017505D02*
X037250Y017505D01*
X037250Y017406D02*
X037370Y017406D01*
X037370Y017308D02*
X037250Y017308D01*
X037250Y017209D02*
X037370Y017209D01*
X037370Y017111D02*
X037250Y017111D01*
X037250Y017012D02*
X037370Y017012D01*
X037370Y016914D02*
X037250Y016914D01*
X037250Y016815D02*
X037370Y016815D01*
X037370Y016717D02*
X037250Y016717D01*
X037250Y016618D02*
X037370Y016618D01*
X037370Y016520D02*
X037250Y016520D01*
X037250Y016421D02*
X037370Y016421D01*
X037370Y016323D02*
X037250Y016323D01*
X037250Y016224D02*
X037370Y016224D01*
X037370Y016126D02*
X037250Y016126D01*
X037250Y016027D02*
X037370Y016027D01*
X037370Y015929D02*
X037250Y015929D01*
X037250Y015830D02*
X037370Y015830D01*
X037370Y015732D02*
X037250Y015732D01*
X037250Y015633D02*
X037370Y015633D01*
X037370Y015535D02*
X037250Y015535D01*
X037250Y015436D02*
X037370Y015436D01*
X037370Y015338D02*
X037250Y015338D01*
X037250Y015239D02*
X037370Y015239D01*
X037370Y015141D02*
X037250Y015141D01*
X037250Y015042D02*
X037370Y015042D01*
X037370Y014944D02*
X037250Y014944D01*
X037250Y014845D02*
X037370Y014845D01*
X037370Y014747D02*
X037250Y014747D01*
X037250Y014648D02*
X037370Y014648D01*
X037370Y014550D02*
X037250Y014550D01*
X037250Y014451D02*
X037370Y014451D01*
X037370Y014353D02*
X037250Y014353D01*
X037250Y014254D02*
X037370Y014254D01*
X037370Y014156D02*
X037250Y014156D01*
X037250Y014057D02*
X037370Y014057D01*
X037370Y013959D02*
X037250Y013959D01*
X037250Y013860D02*
X037370Y013860D01*
X037370Y013762D02*
X037250Y013762D01*
X037250Y013663D02*
X037370Y013663D01*
X037370Y013565D02*
X037250Y013565D01*
X037250Y013466D02*
X037370Y013466D01*
X037370Y013368D02*
X037250Y013368D01*
X037250Y013269D02*
X037370Y013269D01*
X037370Y013171D02*
X037250Y013171D01*
X037201Y013072D02*
X037370Y013072D01*
X037315Y012974D02*
X037102Y012974D01*
X037004Y012875D02*
X037216Y012875D01*
X037118Y012777D02*
X036905Y012777D01*
X036807Y012678D02*
X037019Y012678D01*
X036921Y012580D02*
X036708Y012580D01*
X036610Y012481D02*
X036822Y012481D01*
X036724Y012383D02*
X036511Y012383D01*
X036413Y012284D02*
X036625Y012284D01*
X036527Y012186D02*
X036314Y012186D01*
X036216Y012087D02*
X036428Y012087D01*
X036330Y011989D02*
X036117Y011989D01*
X036019Y011890D02*
X036231Y011890D01*
X036133Y011792D02*
X035920Y011792D01*
X035822Y011693D02*
X036034Y011693D01*
X035936Y011595D02*
X035723Y011595D01*
X035625Y011496D02*
X035837Y011496D01*
X035739Y011398D02*
X035526Y011398D01*
X035428Y011299D02*
X035640Y011299D01*
X035542Y011201D02*
X035329Y011201D01*
X035231Y011102D02*
X035443Y011102D01*
X035345Y011004D02*
X035132Y011004D01*
X035034Y010905D02*
X035246Y010905D01*
X035148Y010807D02*
X034935Y010807D01*
X034837Y010708D02*
X035049Y010708D01*
X034951Y010610D02*
X034738Y010610D01*
X034640Y010511D02*
X034852Y010511D01*
X034754Y010413D02*
X017741Y010413D01*
X017643Y010511D02*
X017855Y010511D01*
X017757Y010610D02*
X017544Y010610D01*
X017446Y010708D02*
X017658Y010708D01*
X017560Y010807D02*
X017347Y010807D01*
X017330Y010905D02*
X017461Y010905D01*
X017363Y011004D02*
X017278Y011004D01*
X017137Y011102D02*
X017123Y011102D01*
X016997Y011102D02*
X016373Y011102D01*
X016247Y011102D02*
X016225Y011102D01*
X015938Y011102D02*
X015863Y011102D01*
X015863Y011004D02*
X015938Y011004D01*
X015938Y010905D02*
X015863Y010905D01*
X015949Y010807D02*
X015132Y010807D01*
X014974Y010905D02*
X014873Y010905D01*
X014881Y011004D02*
X014935Y011004D01*
X015466Y010905D02*
X015601Y010905D01*
X015575Y011004D02*
X015505Y011004D01*
X015505Y011102D02*
X015575Y011102D01*
X015617Y010708D02*
X015503Y010708D01*
X015505Y010610D02*
X015615Y010610D01*
X015615Y010511D02*
X015505Y010511D01*
X015505Y010413D02*
X015615Y010413D01*
X015615Y010314D02*
X015505Y010314D01*
X015505Y010216D02*
X015615Y010216D01*
X015710Y010117D02*
X015410Y010117D01*
X015442Y010019D02*
X015678Y010019D01*
X015615Y009920D02*
X015505Y009920D01*
X015505Y009822D02*
X015615Y009822D01*
X015615Y009723D02*
X015505Y009723D01*
X015505Y009625D02*
X015615Y009625D01*
X015615Y009526D02*
X015505Y009526D01*
X015488Y009428D02*
X015632Y009428D01*
X015667Y009300D02*
X015633Y009280D01*
X015605Y009252D01*
X015585Y009218D01*
X015575Y009180D01*
X015575Y008988D01*
X015863Y008988D01*
X015863Y009310D01*
X015705Y009310D01*
X015667Y009300D01*
X015593Y009231D02*
X015480Y009231D01*
X015505Y009206D02*
X015441Y009270D01*
X014999Y009270D01*
X014935Y009206D01*
X014871Y009270D01*
X014840Y009270D01*
X014840Y009972D01*
X014850Y009972D01*
X014914Y010036D01*
X014914Y010364D01*
X014850Y010428D01*
X013892Y010428D01*
X013828Y010364D01*
X013828Y010036D01*
X013892Y009972D01*
X014460Y009972D01*
X014460Y009270D01*
X014429Y009270D01*
X014365Y009206D01*
X014365Y008694D01*
X014429Y008630D01*
X014871Y008630D01*
X014935Y008694D01*
X014999Y008630D01*
X015441Y008630D01*
X015505Y008694D01*
X015505Y009206D01*
X015505Y009132D02*
X015575Y009132D01*
X015575Y009034D02*
X015505Y009034D01*
X015505Y008935D02*
X015863Y008935D01*
X015863Y008912D02*
X015575Y008912D01*
X015575Y008720D01*
X015585Y008682D01*
X015605Y008648D01*
X015633Y008620D01*
X015667Y008600D01*
X015705Y008590D01*
X015863Y008590D01*
X015863Y008912D01*
X015938Y008912D01*
X015938Y008988D01*
X015863Y008988D01*
X015863Y008912D01*
X015938Y008912D02*
X015938Y008590D01*
X016095Y008590D01*
X016133Y008600D01*
X016167Y008620D01*
X016195Y008648D01*
X016215Y008682D01*
X016225Y008720D01*
X016225Y008912D01*
X015938Y008912D01*
X015938Y008935D02*
X017949Y008935D01*
X017989Y008837D02*
X016225Y008837D01*
X016225Y008738D02*
X018044Y008738D01*
X018021Y008761D02*
X018232Y008549D01*
X018508Y008435D01*
X018807Y008435D01*
X019083Y008549D01*
X019294Y008761D01*
X019409Y009037D01*
X019409Y009336D01*
X019294Y009612D01*
X019083Y009823D01*
X018807Y009937D01*
X018508Y009937D01*
X018232Y009823D01*
X018021Y009612D01*
X017906Y009336D01*
X017906Y009037D01*
X018021Y008761D01*
X018142Y008640D02*
X016187Y008640D01*
X015938Y008640D02*
X015863Y008640D01*
X015863Y008738D02*
X015938Y008738D01*
X015938Y008837D02*
X015863Y008837D01*
X015938Y008988D02*
X016225Y008988D01*
X016225Y009180D01*
X016215Y009218D01*
X016195Y009252D01*
X016167Y009280D01*
X016133Y009300D01*
X016095Y009310D01*
X015938Y009310D01*
X015938Y008988D01*
X015938Y009034D02*
X015863Y009034D01*
X015863Y009132D02*
X015938Y009132D01*
X015938Y009231D02*
X015863Y009231D01*
X016208Y009231D02*
X017906Y009231D01*
X017906Y009329D02*
X014840Y009329D01*
X014840Y009428D02*
X014952Y009428D01*
X014935Y009526D02*
X014840Y009526D01*
X014840Y009625D02*
X014935Y009625D01*
X014935Y009723D02*
X014840Y009723D01*
X014840Y009822D02*
X014935Y009822D01*
X014935Y009920D02*
X014840Y009920D01*
X014896Y010019D02*
X014998Y010019D01*
X015030Y010117D02*
X014914Y010117D01*
X014914Y010216D02*
X014935Y010216D01*
X014935Y010314D02*
X014914Y010314D01*
X014935Y010413D02*
X014865Y010413D01*
X014460Y009920D02*
X012920Y009920D01*
X012920Y010019D02*
X013846Y010019D01*
X013828Y010117D02*
X012920Y010117D01*
X012920Y010216D02*
X013828Y010216D01*
X013828Y010314D02*
X012920Y010314D01*
X012920Y010413D02*
X013877Y010413D01*
X013853Y010511D02*
X012920Y010511D01*
X012920Y010610D02*
X013828Y010610D01*
X013828Y010708D02*
X012920Y010708D01*
X012920Y010807D02*
X013828Y010807D01*
X013869Y010905D02*
X012920Y010905D01*
X012920Y011004D02*
X013861Y011004D01*
X013828Y011102D02*
X012920Y011102D01*
X012920Y011201D02*
X013314Y011201D01*
X013249Y011299D02*
X012920Y011299D01*
X012920Y011398D02*
X013230Y011398D01*
X013247Y011496D02*
X012920Y011496D01*
X012920Y011595D02*
X013309Y011595D01*
X013478Y011693D02*
X012920Y011693D01*
X012920Y011792D02*
X013576Y011792D01*
X013675Y011890D02*
X012920Y011890D01*
X012852Y012481D02*
X013383Y012481D01*
X013307Y012580D02*
X012703Y012580D01*
X012417Y012580D02*
X011292Y012580D01*
X011292Y012678D02*
X013280Y012678D01*
X013289Y012777D02*
X011292Y012777D01*
X011281Y012875D02*
X013339Y012875D01*
X013391Y012974D02*
X011229Y012974D01*
X011292Y013072D02*
X013310Y013072D01*
X013280Y013171D02*
X011292Y013171D01*
X011292Y013269D02*
X013286Y013269D01*
X013332Y013368D02*
X011288Y013368D01*
X011237Y012481D02*
X012268Y012481D01*
X012200Y011890D02*
X011766Y011890D01*
X011825Y011792D02*
X012200Y011792D01*
X012200Y011693D02*
X011840Y011693D01*
X011819Y011595D02*
X012200Y011595D01*
X012200Y011496D02*
X011752Y011496D01*
X012200Y011398D02*
X011258Y011398D01*
X011292Y011299D02*
X012200Y011299D01*
X012200Y011201D02*
X011292Y011201D01*
X011292Y011102D02*
X012200Y011102D01*
X012200Y011004D02*
X011259Y011004D01*
X011251Y010905D02*
X012200Y010905D01*
X012200Y010807D02*
X011292Y010807D01*
X011292Y010708D02*
X012200Y010708D01*
X012200Y010610D02*
X011292Y010610D01*
X011267Y010511D02*
X012200Y010511D01*
X012200Y010413D02*
X011243Y010413D01*
X011292Y010314D02*
X012200Y010314D01*
X012200Y010216D02*
X011292Y010216D01*
X011292Y010117D02*
X012200Y010117D01*
X012200Y010019D02*
X011274Y010019D01*
X010760Y010200D02*
X010749Y010200D01*
X010660Y009920D02*
X012200Y009920D01*
X012172Y009822D02*
X010660Y009822D01*
X010660Y009723D02*
X012155Y009723D01*
X012155Y009625D02*
X010660Y009625D01*
X010660Y009526D02*
X012193Y009526D01*
X011857Y009428D02*
X010660Y009428D01*
X010660Y009329D02*
X011850Y009329D01*
X011850Y009231D02*
X011410Y009231D01*
X011435Y009206D02*
X011371Y009270D01*
X010929Y009270D01*
X010865Y009206D01*
X010865Y008694D01*
X010929Y008630D01*
X011371Y008630D01*
X011435Y008694D01*
X011435Y008699D01*
X011504Y008670D01*
X011616Y008670D01*
X011719Y008713D01*
X011797Y008791D01*
X011840Y008894D01*
X011840Y009006D01*
X011797Y009109D01*
X011719Y009187D01*
X011616Y009230D01*
X011504Y009230D01*
X011435Y009201D01*
X011435Y009206D01*
X011774Y009132D02*
X011850Y009132D01*
X011850Y009034D02*
X011829Y009034D01*
X011840Y008935D02*
X011850Y008935D01*
X011850Y008837D02*
X011816Y008837D01*
X011850Y008738D02*
X011744Y008738D01*
X011380Y008640D02*
X013740Y008640D01*
X014200Y008640D02*
X014420Y008640D01*
X014365Y008738D02*
X014255Y008738D01*
X014255Y008837D02*
X014365Y008837D01*
X014365Y008935D02*
X014255Y008935D01*
X014255Y009034D02*
X014365Y009034D01*
X014365Y009132D02*
X014255Y009132D01*
X014230Y009231D02*
X014390Y009231D01*
X014460Y009329D02*
X013270Y009329D01*
X013270Y009231D02*
X013710Y009231D01*
X013263Y009428D02*
X014460Y009428D01*
X014460Y009526D02*
X012927Y009526D01*
X012965Y009625D02*
X014460Y009625D01*
X014460Y009723D02*
X012965Y009723D01*
X012948Y009822D02*
X014460Y009822D01*
X014910Y009231D02*
X014960Y009231D01*
X014935Y009206D02*
X014935Y009140D01*
X014935Y009206D01*
X014935Y009140D02*
X014935Y009140D01*
X014935Y008760D02*
X014935Y008694D01*
X014935Y008760D01*
X014935Y008760D01*
X014935Y008738D02*
X014935Y008738D01*
X014880Y008640D02*
X014990Y008640D01*
X015450Y008640D02*
X015613Y008640D01*
X015575Y008738D02*
X015505Y008738D01*
X015505Y008837D02*
X015575Y008837D01*
X016225Y009034D02*
X017908Y009034D01*
X017906Y009132D02*
X016225Y009132D01*
X016168Y009428D02*
X017945Y009428D01*
X017985Y009526D02*
X016185Y009526D01*
X016185Y009625D02*
X018034Y009625D01*
X018132Y009723D02*
X016185Y009723D01*
X016185Y009822D02*
X018231Y009822D01*
X018466Y009920D02*
X016185Y009920D01*
X016122Y010019D02*
X017598Y010019D01*
X017499Y010117D02*
X016090Y010117D01*
X016185Y010216D02*
X017401Y010216D01*
X017302Y010314D02*
X016185Y010314D01*
X016200Y010413D02*
X017204Y010413D01*
X017105Y010511D02*
X016308Y010511D01*
X016491Y010610D02*
X016880Y010610D01*
X016805Y010708D02*
X016565Y010708D01*
X016590Y010807D02*
X016780Y010807D01*
X016790Y010905D02*
X016580Y010905D01*
X016528Y011004D02*
X016843Y011004D01*
X017605Y011299D02*
X018248Y011299D01*
X018248Y011201D02*
X017703Y011201D01*
X017802Y011102D02*
X018248Y011102D01*
X018250Y011004D02*
X017900Y011004D01*
X017999Y010905D02*
X034496Y010905D01*
X034595Y011004D02*
X019065Y011004D01*
X019068Y011102D02*
X034693Y011102D01*
X034792Y011201D02*
X019068Y011201D01*
X019068Y011299D02*
X034890Y011299D01*
X034989Y011398D02*
X019068Y011398D01*
X019068Y011496D02*
X035087Y011496D01*
X035186Y011595D02*
X019068Y011595D01*
X019068Y011693D02*
X035284Y011693D01*
X035882Y011004D02*
X036845Y011004D01*
X036943Y011102D02*
X035981Y011102D01*
X036079Y011201D02*
X037042Y011201D01*
X037140Y011299D02*
X036178Y011299D01*
X036276Y011398D02*
X037239Y011398D01*
X037337Y011496D02*
X036375Y011496D01*
X036473Y011595D02*
X037436Y011595D01*
X037534Y011693D02*
X036572Y011693D01*
X036670Y011792D02*
X037633Y011792D01*
X037731Y011890D02*
X036769Y011890D01*
X036867Y011989D02*
X037830Y011989D01*
X037870Y012029D02*
X035696Y009855D01*
X035629Y009855D01*
X035526Y009812D01*
X035448Y009734D01*
X035405Y009631D01*
X035405Y009519D01*
X035448Y009416D01*
X035526Y009338D01*
X035629Y009295D01*
X035741Y009295D01*
X035844Y009338D01*
X035922Y009416D01*
X035965Y009519D01*
X035965Y009586D01*
X038250Y011871D01*
X038250Y027029D01*
X038139Y027140D01*
X037639Y027640D01*
X035601Y027640D01*
X035567Y027722D01*
X035432Y027857D01*
X035256Y027930D01*
X035065Y027930D01*
X034888Y027857D01*
X034753Y027722D01*
X034680Y027545D01*
X034680Y027355D01*
X021224Y027355D01*
X021126Y027453D02*
X034680Y027453D01*
X034680Y027355D02*
X034753Y027178D01*
X034888Y027043D01*
X035065Y026970D01*
X035256Y026970D01*
X035432Y027043D01*
X035567Y027178D01*
X035601Y027260D01*
X037481Y027260D01*
X037870Y026871D01*
X037870Y012029D01*
X037870Y012087D02*
X036966Y012087D01*
X037064Y012186D02*
X037870Y012186D01*
X037870Y012284D02*
X037163Y012284D01*
X037261Y012383D02*
X037870Y012383D01*
X037870Y012481D02*
X037360Y012481D01*
X037458Y012580D02*
X037870Y012580D01*
X037870Y012678D02*
X037557Y012678D01*
X037639Y012760D02*
X037639Y012760D01*
X037655Y012777D02*
X037870Y012777D01*
X037870Y012875D02*
X037750Y012875D01*
X037750Y012974D02*
X037870Y012974D01*
X037870Y013072D02*
X037750Y013072D01*
X037750Y013171D02*
X037870Y013171D01*
X037870Y013269D02*
X037750Y013269D01*
X037750Y013368D02*
X037870Y013368D01*
X037870Y013466D02*
X037750Y013466D01*
X037750Y013565D02*
X037870Y013565D01*
X037870Y013663D02*
X037750Y013663D01*
X037750Y013762D02*
X037870Y013762D01*
X037870Y013860D02*
X037750Y013860D01*
X037750Y013959D02*
X037870Y013959D01*
X037870Y014057D02*
X037750Y014057D01*
X037750Y014156D02*
X037870Y014156D01*
X037870Y014254D02*
X037750Y014254D01*
X037750Y014353D02*
X037870Y014353D01*
X037870Y014451D02*
X037750Y014451D01*
X037750Y014550D02*
X037870Y014550D01*
X037870Y014648D02*
X037750Y014648D01*
X037750Y014747D02*
X037870Y014747D01*
X037870Y014845D02*
X037750Y014845D01*
X037750Y014944D02*
X037870Y014944D01*
X037870Y015042D02*
X037750Y015042D01*
X037750Y015141D02*
X037870Y015141D01*
X037870Y015239D02*
X037750Y015239D01*
X037750Y015338D02*
X037870Y015338D01*
X037870Y015436D02*
X037750Y015436D01*
X037750Y015535D02*
X037870Y015535D01*
X037870Y015633D02*
X037750Y015633D01*
X037750Y015732D02*
X037870Y015732D01*
X037870Y015830D02*
X037750Y015830D01*
X037750Y015929D02*
X037870Y015929D01*
X037870Y016027D02*
X037750Y016027D01*
X037750Y016126D02*
X037870Y016126D01*
X037870Y016224D02*
X037750Y016224D01*
X037750Y016323D02*
X037870Y016323D01*
X037870Y016421D02*
X037750Y016421D01*
X037750Y016520D02*
X037870Y016520D01*
X037870Y016618D02*
X037750Y016618D01*
X037750Y016717D02*
X037870Y016717D01*
X037870Y016815D02*
X037750Y016815D01*
X037750Y016914D02*
X037870Y016914D01*
X037870Y017012D02*
X037750Y017012D01*
X037750Y017111D02*
X037870Y017111D01*
X037870Y017209D02*
X037750Y017209D01*
X037750Y017308D02*
X037870Y017308D01*
X037870Y017406D02*
X037750Y017406D01*
X037750Y017505D02*
X037870Y017505D01*
X037870Y017603D02*
X037750Y017603D01*
X037750Y017702D02*
X037870Y017702D01*
X037870Y017800D02*
X037750Y017800D01*
X037750Y017899D02*
X037870Y017899D01*
X037870Y017997D02*
X037750Y017997D01*
X037750Y018096D02*
X037870Y018096D01*
X037870Y018194D02*
X037750Y018194D01*
X037750Y018293D02*
X037870Y018293D01*
X037870Y018391D02*
X037750Y018391D01*
X037750Y018490D02*
X037870Y018490D01*
X037870Y018588D02*
X037750Y018588D01*
X037750Y018687D02*
X037870Y018687D01*
X037870Y018785D02*
X037750Y018785D01*
X037750Y018884D02*
X037870Y018884D01*
X037870Y018982D02*
X037750Y018982D01*
X037750Y019081D02*
X037870Y019081D01*
X037870Y019179D02*
X037750Y019179D01*
X037750Y019278D02*
X037870Y019278D01*
X037870Y019376D02*
X037750Y019376D01*
X037750Y019475D02*
X037870Y019475D01*
X037870Y019573D02*
X037750Y019573D01*
X037750Y019672D02*
X037870Y019672D01*
X037870Y019770D02*
X037750Y019770D01*
X037750Y019869D02*
X037870Y019869D01*
X037870Y019967D02*
X037750Y019967D01*
X037750Y020066D02*
X037870Y020066D01*
X037870Y020164D02*
X037750Y020164D01*
X037750Y020263D02*
X037870Y020263D01*
X037870Y020361D02*
X037750Y020361D01*
X037750Y020460D02*
X037870Y020460D01*
X037870Y020558D02*
X037750Y020558D01*
X037750Y020657D02*
X037870Y020657D01*
X037870Y020755D02*
X037750Y020755D01*
X037750Y020854D02*
X037870Y020854D01*
X037870Y020952D02*
X037750Y020952D01*
X037750Y021051D02*
X037870Y021051D01*
X037870Y021149D02*
X037750Y021149D01*
X037750Y021248D02*
X037870Y021248D01*
X037870Y021346D02*
X037750Y021346D01*
X037750Y021445D02*
X037870Y021445D01*
X037870Y021543D02*
X037750Y021543D01*
X037750Y021642D02*
X037870Y021642D01*
X037870Y021740D02*
X037750Y021740D01*
X037750Y021839D02*
X037870Y021839D01*
X037870Y021937D02*
X037750Y021937D01*
X037750Y022036D02*
X037870Y022036D01*
X037870Y022134D02*
X037750Y022134D01*
X037750Y022233D02*
X037870Y022233D01*
X037870Y022331D02*
X037750Y022331D01*
X037750Y022430D02*
X037870Y022430D01*
X037870Y022528D02*
X037750Y022528D01*
X037750Y022627D02*
X037870Y022627D01*
X037870Y022725D02*
X037750Y022725D01*
X037750Y022824D02*
X037870Y022824D01*
X037870Y022922D02*
X037750Y022922D01*
X037750Y023021D02*
X037870Y023021D01*
X037870Y023119D02*
X037750Y023119D01*
X037750Y023218D02*
X037870Y023218D01*
X037870Y023316D02*
X037750Y023316D01*
X037750Y023415D02*
X037870Y023415D01*
X037870Y023513D02*
X037750Y023513D01*
X037750Y023612D02*
X037870Y023612D01*
X037870Y023710D02*
X037750Y023710D01*
X037750Y023809D02*
X037870Y023809D01*
X037870Y023907D02*
X037750Y023907D01*
X037750Y024006D02*
X037870Y024006D01*
X037870Y024104D02*
X037750Y024104D01*
X037750Y024203D02*
X037870Y024203D01*
X037870Y024301D02*
X037750Y024301D01*
X037750Y024400D02*
X037870Y024400D01*
X037870Y024498D02*
X037750Y024498D01*
X037750Y024597D02*
X037870Y024597D01*
X037870Y024695D02*
X037750Y024695D01*
X037750Y024794D02*
X037870Y024794D01*
X037870Y024892D02*
X037750Y024892D01*
X037750Y024991D02*
X037870Y024991D01*
X037870Y025089D02*
X037750Y025089D01*
X037750Y025188D02*
X037870Y025188D01*
X037870Y025286D02*
X037750Y025286D01*
X037750Y025385D02*
X037870Y025385D01*
X037870Y025483D02*
X037750Y025483D01*
X037750Y025582D02*
X037870Y025582D01*
X037870Y025680D02*
X037750Y025680D01*
X037750Y025779D02*
X037870Y025779D01*
X037870Y025877D02*
X037750Y025877D01*
X037750Y025976D02*
X037870Y025976D01*
X037870Y026074D02*
X037705Y026074D01*
X037606Y026173D02*
X037870Y026173D01*
X037870Y026271D02*
X037508Y026271D01*
X037409Y026370D02*
X037870Y026370D01*
X037870Y026468D02*
X037311Y026468D01*
X037212Y026567D02*
X037870Y026567D01*
X037870Y026665D02*
X035591Y026665D01*
X035525Y026764D02*
X037870Y026764D01*
X037870Y026862D02*
X035420Y026862D01*
X035448Y027059D02*
X037682Y027059D01*
X037584Y027158D02*
X035546Y027158D01*
X035599Y027256D02*
X037485Y027256D01*
X037727Y027552D02*
X038370Y027552D01*
X038370Y027650D02*
X035597Y027650D01*
X035540Y027749D02*
X038370Y027749D01*
X038370Y027847D02*
X035442Y027847D01*
X035432Y028043D02*
X035567Y028178D01*
X035601Y028260D01*
X037981Y028260D01*
X038370Y027871D01*
X038370Y015121D01*
X039258Y014233D01*
X039258Y014040D01*
X039380Y013746D01*
X039606Y013520D01*
X039733Y013467D01*
X039348Y013467D01*
X039310Y013457D01*
X039276Y013437D01*
X039248Y013409D01*
X039228Y013375D01*
X039218Y013337D01*
X039218Y012675D01*
X040010Y012675D01*
X040010Y012575D01*
X040110Y012575D01*
X040110Y011783D01*
X040772Y011783D01*
X040810Y011793D01*
X040844Y011813D01*
X040872Y011841D01*
X040892Y011875D01*
X040902Y011913D01*
X040902Y012575D01*
X040110Y012575D01*
X040110Y012675D01*
X040902Y012675D01*
X040902Y013337D01*
X040892Y013375D01*
X040872Y013409D01*
X040844Y013437D01*
X040810Y013457D01*
X040772Y013467D01*
X040387Y013467D01*
X040514Y013520D01*
X040740Y013746D01*
X040862Y014040D01*
X040862Y014360D01*
X040740Y014654D01*
X040514Y014880D01*
X040255Y014987D01*
X040514Y015095D01*
X040740Y015320D01*
X040862Y015615D01*
X040862Y015934D01*
X040740Y016229D01*
X040514Y016455D01*
X040220Y016577D01*
X039900Y016577D01*
X039606Y016455D01*
X039380Y016229D01*
X039258Y015934D01*
X039258Y015615D01*
X039380Y015320D01*
X039606Y015095D01*
X039865Y014987D01*
X039606Y014880D01*
X039380Y014654D01*
X039378Y014650D01*
X038750Y015279D01*
X038750Y028029D01*
X038639Y028140D01*
X038139Y028640D01*
X035601Y028640D01*
X035567Y028722D01*
X035432Y028857D01*
X035256Y028930D01*
X035065Y028930D01*
X034888Y028857D01*
X034753Y028722D01*
X034680Y028545D01*
X034680Y028355D01*
X034753Y028178D01*
X034888Y028043D01*
X035065Y027970D01*
X035256Y027970D01*
X035432Y028043D01*
X035433Y028044D02*
X038197Y028044D01*
X038099Y028143D02*
X035531Y028143D01*
X035593Y028241D02*
X038000Y028241D01*
X038242Y028537D02*
X038870Y028537D01*
X038870Y028635D02*
X038144Y028635D01*
X038341Y028438D02*
X038870Y028438D01*
X038870Y028340D02*
X038439Y028340D01*
X038538Y028241D02*
X038870Y028241D01*
X038870Y028143D02*
X038636Y028143D01*
X038735Y028044D02*
X038870Y028044D01*
X038870Y027946D02*
X038750Y027946D01*
X038750Y027847D02*
X038870Y027847D01*
X038870Y027749D02*
X038750Y027749D01*
X038750Y027650D02*
X038870Y027650D01*
X038870Y027552D02*
X038750Y027552D01*
X038750Y027453D02*
X038870Y027453D01*
X038870Y027355D02*
X038750Y027355D01*
X038750Y027256D02*
X038870Y027256D01*
X038870Y027158D02*
X038750Y027158D01*
X038750Y027059D02*
X038870Y027059D01*
X038870Y026961D02*
X038750Y026961D01*
X038750Y026862D02*
X038870Y026862D01*
X038870Y026764D02*
X038750Y026764D01*
X038750Y026665D02*
X038870Y026665D01*
X038870Y026567D02*
X038750Y026567D01*
X038750Y026468D02*
X038870Y026468D01*
X038870Y026370D02*
X038750Y026370D01*
X038750Y026271D02*
X038870Y026271D01*
X038870Y026173D02*
X038750Y026173D01*
X038750Y026074D02*
X038870Y026074D01*
X038870Y025976D02*
X038750Y025976D01*
X038750Y025877D02*
X038870Y025877D01*
X038870Y025779D02*
X038750Y025779D01*
X038750Y025680D02*
X038870Y025680D01*
X038870Y025582D02*
X038750Y025582D01*
X038750Y025483D02*
X038870Y025483D01*
X038870Y025385D02*
X038750Y025385D01*
X038750Y025286D02*
X038955Y025286D01*
X038870Y025371D02*
X039181Y025060D01*
X039258Y024983D01*
X039258Y024979D01*
X039380Y024685D01*
X039606Y024459D01*
X039733Y024406D01*
X039348Y024406D01*
X039310Y024396D01*
X039276Y024376D01*
X039248Y024348D01*
X039228Y024314D01*
X039218Y024276D01*
X039218Y023614D01*
X040010Y023614D01*
X040010Y023514D01*
X040110Y023514D01*
X040110Y022722D01*
X040772Y022722D01*
X040810Y022732D01*
X040844Y022752D01*
X040872Y022780D01*
X040892Y022814D01*
X040902Y022852D01*
X040902Y023514D01*
X040110Y023514D01*
X040110Y023614D01*
X040902Y023614D01*
X040902Y024276D01*
X040892Y024314D01*
X040872Y024348D01*
X040844Y024376D01*
X040810Y024396D01*
X040772Y024406D01*
X040387Y024406D01*
X040514Y024459D01*
X040740Y024685D01*
X040862Y024979D01*
X040862Y025299D01*
X040740Y025593D01*
X040514Y025819D01*
X040255Y025926D01*
X040514Y026034D01*
X040740Y026259D01*
X040862Y026554D01*
X040862Y026873D01*
X040740Y027168D01*
X040514Y027394D01*
X040220Y027516D01*
X039900Y027516D01*
X039606Y027394D01*
X039380Y027168D01*
X039258Y026873D01*
X039258Y026554D01*
X039380Y026259D01*
X039606Y026034D01*
X039865Y025926D01*
X039606Y025819D01*
X039380Y025593D01*
X039323Y025456D01*
X039250Y025529D01*
X039250Y028904D01*
X039139Y029015D01*
X038514Y029640D01*
X035601Y029640D01*
X035567Y029722D01*
X035432Y029857D01*
X035256Y029930D01*
X035065Y029930D01*
X034888Y029857D01*
X034753Y029722D01*
X034680Y029545D01*
X034680Y029355D01*
X034753Y029178D01*
X034888Y029043D01*
X035065Y028970D01*
X035256Y028970D01*
X035432Y029043D01*
X035567Y029178D01*
X035601Y029260D01*
X038356Y029260D01*
X038870Y028746D01*
X038870Y025371D01*
X038750Y025188D02*
X039054Y025188D01*
X039152Y025089D02*
X038750Y025089D01*
X038750Y024991D02*
X039251Y024991D01*
X039294Y024892D02*
X038750Y024892D01*
X038750Y024794D02*
X039335Y024794D01*
X039376Y024695D02*
X038750Y024695D01*
X038750Y024597D02*
X039468Y024597D01*
X039567Y024498D02*
X038750Y024498D01*
X038750Y024400D02*
X039323Y024400D01*
X039225Y024301D02*
X038750Y024301D01*
X038750Y024203D02*
X039218Y024203D01*
X039218Y024104D02*
X038750Y024104D01*
X038750Y024006D02*
X039218Y024006D01*
X039218Y023907D02*
X038750Y023907D01*
X038750Y023809D02*
X039218Y023809D01*
X039218Y023710D02*
X038750Y023710D01*
X038750Y023612D02*
X040010Y023612D01*
X040010Y023514D02*
X039218Y023514D01*
X039218Y022852D01*
X039228Y022814D01*
X039248Y022780D01*
X039276Y022752D01*
X039310Y022732D01*
X039348Y022722D01*
X040010Y022722D01*
X040010Y023514D01*
X040010Y023513D02*
X040110Y023513D01*
X040110Y023415D02*
X040010Y023415D01*
X040010Y023316D02*
X040110Y023316D01*
X040110Y023218D02*
X040010Y023218D01*
X040010Y023119D02*
X040110Y023119D01*
X040110Y023021D02*
X040010Y023021D01*
X040010Y022922D02*
X040110Y022922D01*
X040110Y022824D02*
X040010Y022824D01*
X040010Y022725D02*
X040110Y022725D01*
X040783Y022725D02*
X041860Y022725D01*
X041860Y022627D02*
X038750Y022627D01*
X038750Y022725D02*
X039337Y022725D01*
X039226Y022824D02*
X038750Y022824D01*
X038750Y022922D02*
X039218Y022922D01*
X039218Y023021D02*
X038750Y023021D01*
X038750Y023119D02*
X039218Y023119D01*
X039218Y023218D02*
X038750Y023218D01*
X038750Y023316D02*
X039218Y023316D01*
X039218Y023415D02*
X038750Y023415D01*
X038750Y023513D02*
X039218Y023513D01*
X038370Y023513D02*
X038250Y023513D01*
X038250Y023415D02*
X038370Y023415D01*
X038370Y023316D02*
X038250Y023316D01*
X038250Y023218D02*
X038370Y023218D01*
X038370Y023119D02*
X038250Y023119D01*
X038250Y023021D02*
X038370Y023021D01*
X038370Y022922D02*
X038250Y022922D01*
X038250Y022824D02*
X038370Y022824D01*
X038370Y022725D02*
X038250Y022725D01*
X038250Y022627D02*
X038370Y022627D01*
X038370Y022528D02*
X038250Y022528D01*
X038250Y022430D02*
X038370Y022430D01*
X038370Y022331D02*
X038250Y022331D01*
X038250Y022233D02*
X038370Y022233D01*
X038370Y022134D02*
X038250Y022134D01*
X038250Y022036D02*
X038370Y022036D01*
X038370Y021937D02*
X038250Y021937D01*
X038250Y021839D02*
X038370Y021839D01*
X038370Y021740D02*
X038250Y021740D01*
X038250Y021642D02*
X038370Y021642D01*
X038370Y021543D02*
X038250Y021543D01*
X038250Y021445D02*
X038370Y021445D01*
X038370Y021346D02*
X038250Y021346D01*
X038250Y021248D02*
X038370Y021248D01*
X038370Y021149D02*
X038250Y021149D01*
X038250Y021051D02*
X038370Y021051D01*
X038370Y020952D02*
X038250Y020952D01*
X038250Y020854D02*
X038370Y020854D01*
X038370Y020755D02*
X038250Y020755D01*
X038250Y020657D02*
X038370Y020657D01*
X038370Y020558D02*
X038250Y020558D01*
X038250Y020460D02*
X038370Y020460D01*
X038370Y020361D02*
X038250Y020361D01*
X038250Y020263D02*
X038370Y020263D01*
X038370Y020164D02*
X038250Y020164D01*
X038250Y020066D02*
X038370Y020066D01*
X038370Y019967D02*
X038250Y019967D01*
X038250Y019869D02*
X038370Y019869D01*
X038370Y019770D02*
X038250Y019770D01*
X038250Y019672D02*
X038370Y019672D01*
X038370Y019573D02*
X038250Y019573D01*
X038250Y019475D02*
X038370Y019475D01*
X038370Y019376D02*
X038250Y019376D01*
X038250Y019278D02*
X038370Y019278D01*
X038370Y019179D02*
X038250Y019179D01*
X038250Y019081D02*
X038370Y019081D01*
X038370Y018982D02*
X038250Y018982D01*
X038250Y018884D02*
X038370Y018884D01*
X038370Y018785D02*
X038250Y018785D01*
X038250Y018687D02*
X038370Y018687D01*
X038370Y018588D02*
X038250Y018588D01*
X038250Y018490D02*
X038370Y018490D01*
X038370Y018391D02*
X038250Y018391D01*
X038250Y018293D02*
X038370Y018293D01*
X038370Y018194D02*
X038250Y018194D01*
X038250Y018096D02*
X038370Y018096D01*
X038370Y017997D02*
X038250Y017997D01*
X038250Y017899D02*
X038370Y017899D01*
X038370Y017800D02*
X038250Y017800D01*
X038250Y017702D02*
X038370Y017702D01*
X038370Y017603D02*
X038250Y017603D01*
X038250Y017505D02*
X038370Y017505D01*
X038370Y017406D02*
X038250Y017406D01*
X038250Y017308D02*
X038370Y017308D01*
X038370Y017209D02*
X038250Y017209D01*
X038250Y017111D02*
X038370Y017111D01*
X038370Y017012D02*
X038250Y017012D01*
X038250Y016914D02*
X038370Y016914D01*
X038370Y016815D02*
X038250Y016815D01*
X038250Y016717D02*
X038370Y016717D01*
X038370Y016618D02*
X038250Y016618D01*
X038250Y016520D02*
X038370Y016520D01*
X038370Y016421D02*
X038250Y016421D01*
X038250Y016323D02*
X038370Y016323D01*
X038370Y016224D02*
X038250Y016224D01*
X038250Y016126D02*
X038370Y016126D01*
X038370Y016027D02*
X038250Y016027D01*
X038250Y015929D02*
X038370Y015929D01*
X038370Y015830D02*
X038250Y015830D01*
X038250Y015732D02*
X038370Y015732D01*
X038370Y015633D02*
X038250Y015633D01*
X038250Y015535D02*
X038370Y015535D01*
X038370Y015436D02*
X038250Y015436D01*
X038250Y015338D02*
X038370Y015338D01*
X038370Y015239D02*
X038250Y015239D01*
X038250Y015141D02*
X038370Y015141D01*
X038449Y015042D02*
X038250Y015042D01*
X038250Y014944D02*
X038548Y014944D01*
X038646Y014845D02*
X038250Y014845D01*
X038250Y014747D02*
X038745Y014747D01*
X038843Y014648D02*
X038250Y014648D01*
X038250Y014550D02*
X038942Y014550D01*
X039040Y014451D02*
X038250Y014451D01*
X038250Y014353D02*
X039139Y014353D01*
X039237Y014254D02*
X038250Y014254D01*
X038250Y014156D02*
X039258Y014156D01*
X039258Y014057D02*
X038250Y014057D01*
X038250Y013959D02*
X039292Y013959D01*
X039333Y013860D02*
X038250Y013860D01*
X038250Y013762D02*
X039373Y013762D01*
X039463Y013663D02*
X038250Y013663D01*
X038250Y013565D02*
X039561Y013565D01*
X039343Y013466D02*
X038250Y013466D01*
X038250Y013368D02*
X039226Y013368D01*
X039218Y013269D02*
X038250Y013269D01*
X038250Y013171D02*
X039218Y013171D01*
X039218Y013072D02*
X038250Y013072D01*
X038250Y012974D02*
X039218Y012974D01*
X039218Y012875D02*
X038250Y012875D01*
X038250Y012777D02*
X039218Y012777D01*
X039218Y012678D02*
X038250Y012678D01*
X038250Y012580D02*
X040010Y012580D01*
X040010Y012575D02*
X039218Y012575D01*
X039218Y011913D01*
X039228Y011875D01*
X039248Y011841D01*
X039276Y011813D01*
X039310Y011793D01*
X039348Y011783D01*
X040010Y011783D01*
X040010Y012575D01*
X040010Y012481D02*
X040110Y012481D01*
X040110Y012383D02*
X040010Y012383D01*
X040010Y012284D02*
X040110Y012284D01*
X040110Y012186D02*
X040010Y012186D01*
X040010Y012087D02*
X040110Y012087D01*
X040110Y011989D02*
X040010Y011989D01*
X040010Y011890D02*
X040110Y011890D01*
X040110Y011792D02*
X040010Y011792D01*
X039317Y011792D02*
X038170Y011792D01*
X038250Y011890D02*
X039224Y011890D01*
X039218Y011989D02*
X038250Y011989D01*
X038250Y012087D02*
X039218Y012087D01*
X039218Y012186D02*
X038250Y012186D01*
X038250Y012284D02*
X039218Y012284D01*
X039218Y012383D02*
X038250Y012383D01*
X038250Y012481D02*
X039218Y012481D01*
X040110Y012580D02*
X041860Y012580D01*
X041860Y012678D02*
X040902Y012678D01*
X040902Y012777D02*
X041860Y012777D01*
X041860Y012875D02*
X040902Y012875D01*
X040902Y012974D02*
X041860Y012974D01*
X041860Y013072D02*
X040902Y013072D01*
X040902Y013171D02*
X041860Y013171D01*
X041860Y013269D02*
X040902Y013269D01*
X040894Y013368D02*
X041860Y013368D01*
X041860Y013466D02*
X040777Y013466D01*
X040657Y013663D02*
X041860Y013663D01*
X041860Y013565D02*
X040559Y013565D01*
X040747Y013762D02*
X041860Y013762D01*
X041860Y013860D02*
X040787Y013860D01*
X040828Y013959D02*
X041860Y013959D01*
X041860Y014057D02*
X040862Y014057D01*
X040862Y014156D02*
X041860Y014156D01*
X041860Y014254D02*
X040862Y014254D01*
X040862Y014353D02*
X041860Y014353D01*
X041860Y014451D02*
X040824Y014451D01*
X040783Y014550D02*
X041860Y014550D01*
X041860Y014648D02*
X040743Y014648D01*
X040648Y014747D02*
X041860Y014747D01*
X041860Y014845D02*
X040549Y014845D01*
X040361Y014944D02*
X041860Y014944D01*
X041860Y015042D02*
X040387Y015042D01*
X040560Y015141D02*
X041860Y015141D01*
X041860Y015239D02*
X040659Y015239D01*
X040747Y015338D02*
X041860Y015338D01*
X041860Y015436D02*
X040788Y015436D01*
X040829Y015535D02*
X041860Y015535D01*
X041860Y015633D02*
X040862Y015633D01*
X040862Y015732D02*
X041860Y015732D01*
X041860Y015830D02*
X040862Y015830D01*
X040862Y015929D02*
X041860Y015929D01*
X041860Y016027D02*
X040824Y016027D01*
X040783Y016126D02*
X041860Y016126D01*
X041860Y016224D02*
X040742Y016224D01*
X040647Y016323D02*
X041860Y016323D01*
X041860Y016421D02*
X040548Y016421D01*
X040358Y016520D02*
X041860Y016520D01*
X041860Y016618D02*
X038750Y016618D01*
X038750Y016520D02*
X039762Y016520D01*
X039572Y016421D02*
X038750Y016421D01*
X038750Y016323D02*
X039473Y016323D01*
X039378Y016224D02*
X038750Y016224D01*
X038750Y016126D02*
X039337Y016126D01*
X039296Y016027D02*
X038750Y016027D01*
X038750Y015929D02*
X039258Y015929D01*
X039258Y015830D02*
X038750Y015830D01*
X038750Y015732D02*
X039258Y015732D01*
X039258Y015633D02*
X038750Y015633D01*
X038750Y015535D02*
X039291Y015535D01*
X039332Y015436D02*
X038750Y015436D01*
X038750Y015338D02*
X039373Y015338D01*
X039461Y015239D02*
X038790Y015239D01*
X038888Y015141D02*
X039560Y015141D01*
X039733Y015042D02*
X038987Y015042D01*
X039085Y014944D02*
X039759Y014944D01*
X039571Y014845D02*
X039184Y014845D01*
X039282Y014747D02*
X039472Y014747D01*
X038750Y016717D02*
X041860Y016717D01*
X041860Y016815D02*
X038750Y016815D01*
X038750Y016914D02*
X041860Y016914D01*
X041860Y017012D02*
X038750Y017012D01*
X038750Y017111D02*
X041860Y017111D01*
X041860Y017209D02*
X038750Y017209D01*
X038750Y017308D02*
X041860Y017308D01*
X041860Y017406D02*
X038750Y017406D01*
X038750Y017505D02*
X041860Y017505D01*
X041860Y017603D02*
X038750Y017603D01*
X038750Y017702D02*
X041860Y017702D01*
X041860Y017800D02*
X038750Y017800D01*
X038750Y017899D02*
X041860Y017899D01*
X041860Y017997D02*
X038750Y017997D01*
X038750Y018096D02*
X041860Y018096D01*
X041860Y018194D02*
X038750Y018194D01*
X038750Y018293D02*
X041860Y018293D01*
X041860Y018391D02*
X038750Y018391D01*
X038750Y018490D02*
X041860Y018490D01*
X041860Y018588D02*
X038750Y018588D01*
X038750Y018687D02*
X041860Y018687D01*
X041860Y018785D02*
X038750Y018785D01*
X038750Y018884D02*
X041860Y018884D01*
X041860Y018982D02*
X038750Y018982D01*
X038750Y019081D02*
X041860Y019081D01*
X041860Y019179D02*
X038750Y019179D01*
X038750Y019278D02*
X041860Y019278D01*
X041860Y019376D02*
X038750Y019376D01*
X038750Y019475D02*
X041860Y019475D01*
X041860Y019573D02*
X038750Y019573D01*
X038750Y019672D02*
X041860Y019672D01*
X041860Y019770D02*
X038750Y019770D01*
X038750Y019869D02*
X041860Y019869D01*
X041860Y019967D02*
X038750Y019967D01*
X038750Y020066D02*
X041860Y020066D01*
X041860Y020164D02*
X038750Y020164D01*
X038750Y020263D02*
X041860Y020263D01*
X041860Y020361D02*
X038750Y020361D01*
X038750Y020460D02*
X041860Y020460D01*
X041860Y020558D02*
X038750Y020558D01*
X038750Y020657D02*
X041860Y020657D01*
X041860Y020755D02*
X038750Y020755D01*
X038750Y020854D02*
X041860Y020854D01*
X041860Y020952D02*
X038750Y020952D01*
X038750Y021051D02*
X041860Y021051D01*
X041860Y021149D02*
X038750Y021149D01*
X038750Y021248D02*
X041860Y021248D01*
X041860Y021346D02*
X038750Y021346D01*
X038750Y021445D02*
X041860Y021445D01*
X041860Y021543D02*
X038750Y021543D01*
X038750Y021642D02*
X041860Y021642D01*
X041860Y021740D02*
X038750Y021740D01*
X038750Y021839D02*
X041860Y021839D01*
X041860Y021937D02*
X038750Y021937D01*
X038750Y022036D02*
X041860Y022036D01*
X041860Y022134D02*
X038750Y022134D01*
X038750Y022233D02*
X041860Y022233D01*
X041860Y022331D02*
X038750Y022331D01*
X038750Y022430D02*
X041860Y022430D01*
X041860Y022528D02*
X038750Y022528D01*
X038370Y023612D02*
X038250Y023612D01*
X038250Y023710D02*
X038370Y023710D01*
X038370Y023809D02*
X038250Y023809D01*
X038250Y023907D02*
X038370Y023907D01*
X038370Y024006D02*
X038250Y024006D01*
X038250Y024104D02*
X038370Y024104D01*
X038370Y024203D02*
X038250Y024203D01*
X038250Y024301D02*
X038370Y024301D01*
X038370Y024400D02*
X038250Y024400D01*
X038250Y024498D02*
X038370Y024498D01*
X038370Y024597D02*
X038250Y024597D01*
X038250Y024695D02*
X038370Y024695D01*
X038370Y024794D02*
X038250Y024794D01*
X038250Y024892D02*
X038370Y024892D01*
X038370Y024991D02*
X038250Y024991D01*
X038250Y025089D02*
X038370Y025089D01*
X038370Y025188D02*
X038250Y025188D01*
X038250Y025286D02*
X038370Y025286D01*
X038370Y025385D02*
X038250Y025385D01*
X038250Y025483D02*
X038370Y025483D01*
X038370Y025582D02*
X038250Y025582D01*
X038250Y025680D02*
X038370Y025680D01*
X038370Y025779D02*
X038250Y025779D01*
X038250Y025877D02*
X038370Y025877D01*
X038370Y025976D02*
X038250Y025976D01*
X038250Y026074D02*
X038370Y026074D01*
X038370Y026173D02*
X038250Y026173D01*
X038250Y026271D02*
X038370Y026271D01*
X038370Y026370D02*
X038250Y026370D01*
X038250Y026468D02*
X038370Y026468D01*
X038370Y026567D02*
X038250Y026567D01*
X038250Y026665D02*
X038370Y026665D01*
X038370Y026764D02*
X038250Y026764D01*
X038250Y026862D02*
X038370Y026862D01*
X038370Y026961D02*
X038250Y026961D01*
X038220Y027059D02*
X038370Y027059D01*
X038370Y027158D02*
X038121Y027158D01*
X038023Y027256D02*
X038370Y027256D01*
X038370Y027355D02*
X037924Y027355D01*
X037826Y027453D02*
X038370Y027453D01*
X038296Y027946D02*
X020950Y027946D01*
X020950Y028044D02*
X034887Y028044D01*
X034789Y028143D02*
X020950Y028143D01*
X020950Y028241D02*
X034727Y028241D01*
X034686Y028340D02*
X020950Y028340D01*
X020950Y028438D02*
X034680Y028438D01*
X034680Y028537D02*
X020950Y028537D01*
X020950Y028635D02*
X034717Y028635D01*
X034765Y028734D02*
X020950Y028734D01*
X020950Y028832D02*
X034863Y028832D01*
X034922Y029029D02*
X020950Y029029D01*
X020950Y028931D02*
X038686Y028931D01*
X038587Y029029D02*
X035398Y029029D01*
X035516Y029128D02*
X038489Y029128D01*
X038390Y029226D02*
X035587Y029226D01*
X035457Y028832D02*
X038784Y028832D01*
X038870Y028734D02*
X035555Y028734D01*
X034804Y029128D02*
X020950Y029128D01*
X020950Y029226D02*
X034733Y029226D01*
X034692Y029325D02*
X020950Y029325D01*
X020950Y029423D02*
X034680Y029423D01*
X034680Y029522D02*
X020950Y029522D01*
X020950Y029620D02*
X034711Y029620D01*
X034752Y029719D02*
X020950Y029719D01*
X020950Y029817D02*
X034848Y029817D01*
X035030Y029916D02*
X020950Y029916D01*
X020950Y030014D02*
X041860Y030014D01*
X041860Y029916D02*
X035290Y029916D01*
X035472Y029817D02*
X041860Y029817D01*
X041860Y029719D02*
X035568Y029719D01*
X034878Y027847D02*
X020950Y027847D01*
X020950Y027749D02*
X034780Y027749D01*
X034723Y027650D02*
X020950Y027650D01*
X020950Y027629D02*
X030849Y017730D01*
X030916Y017730D01*
X031019Y017687D01*
X031097Y017609D01*
X031140Y017506D01*
X031140Y017394D01*
X031097Y017291D01*
X031019Y017213D01*
X030916Y017170D01*
X030804Y017170D01*
X030701Y017213D01*
X030623Y017291D01*
X030580Y017394D01*
X030580Y017461D01*
X020681Y027360D01*
X020570Y027471D01*
X020570Y030121D01*
X017321Y033370D01*
X017254Y033370D01*
X017151Y033413D01*
X017073Y033491D01*
X017030Y033594D01*
X017030Y033706D01*
X017073Y033809D01*
X017151Y033887D01*
X017254Y033930D01*
X017366Y033930D01*
X017469Y033887D01*
X017547Y033809D01*
X017590Y033706D01*
X017590Y033639D01*
X020950Y030279D01*
X020950Y027629D01*
X021027Y027552D02*
X034683Y027552D01*
X034721Y027256D02*
X021323Y027256D01*
X021421Y027158D02*
X034774Y027158D01*
X034872Y027059D02*
X021520Y027059D01*
X021618Y026961D02*
X037781Y026961D01*
X037069Y026173D02*
X035561Y026173D01*
X035463Y026074D02*
X037167Y026074D01*
X037266Y025976D02*
X035269Y025976D01*
X035383Y025877D02*
X037364Y025877D01*
X037370Y025779D02*
X035510Y025779D01*
X035051Y025976D02*
X022603Y025976D01*
X022505Y026074D02*
X034857Y026074D01*
X034759Y026173D02*
X022406Y026173D01*
X022308Y026271D02*
X034715Y026271D01*
X034680Y026370D02*
X022209Y026370D01*
X022111Y026468D02*
X034680Y026468D01*
X034689Y026567D02*
X022012Y026567D01*
X021914Y026665D02*
X034730Y026665D01*
X034795Y026764D02*
X021815Y026764D01*
X021717Y026862D02*
X034901Y026862D01*
X034937Y025877D02*
X022702Y025877D01*
X022800Y025779D02*
X034810Y025779D01*
X034736Y025680D02*
X022899Y025680D01*
X022997Y025582D02*
X034695Y025582D01*
X034680Y025483D02*
X023096Y025483D01*
X023194Y025385D02*
X034680Y025385D01*
X034708Y025286D02*
X023293Y025286D01*
X023391Y025188D02*
X034749Y025188D01*
X034842Y025089D02*
X023490Y025089D01*
X023588Y024991D02*
X035015Y024991D01*
X034973Y024892D02*
X023687Y024892D01*
X023785Y024794D02*
X034825Y024794D01*
X034742Y024695D02*
X023884Y024695D01*
X023982Y024597D02*
X034701Y024597D01*
X034680Y024498D02*
X024081Y024498D01*
X024179Y024400D02*
X034680Y024400D01*
X034702Y024301D02*
X024278Y024301D01*
X024376Y024203D02*
X034743Y024203D01*
X034827Y024104D02*
X024475Y024104D01*
X024573Y024006D02*
X034979Y024006D01*
X039250Y025582D02*
X039375Y025582D01*
X039334Y025483D02*
X039296Y025483D01*
X039250Y025680D02*
X039467Y025680D01*
X039565Y025779D02*
X039250Y025779D01*
X039250Y025877D02*
X039746Y025877D01*
X039746Y025976D02*
X039250Y025976D01*
X039250Y026074D02*
X039565Y026074D01*
X039467Y026173D02*
X039250Y026173D01*
X039250Y026271D02*
X039375Y026271D01*
X039334Y026370D02*
X039250Y026370D01*
X039250Y026468D02*
X039294Y026468D01*
X039258Y026567D02*
X039250Y026567D01*
X039250Y026665D02*
X039258Y026665D01*
X039250Y026764D02*
X039258Y026764D01*
X039250Y026862D02*
X039258Y026862D01*
X039250Y026961D02*
X039294Y026961D01*
X039335Y027059D02*
X039250Y027059D01*
X039250Y027158D02*
X039376Y027158D01*
X039468Y027256D02*
X039250Y027256D01*
X039250Y027355D02*
X039566Y027355D01*
X039749Y027453D02*
X039250Y027453D01*
X039250Y027552D02*
X041860Y027552D01*
X041860Y027650D02*
X039250Y027650D01*
X039250Y027749D02*
X041860Y027749D01*
X041860Y027847D02*
X039250Y027847D01*
X039250Y027946D02*
X041860Y027946D01*
X041860Y028044D02*
X039250Y028044D01*
X039250Y028143D02*
X041860Y028143D01*
X041860Y028241D02*
X039250Y028241D01*
X039250Y028340D02*
X041860Y028340D01*
X041860Y028438D02*
X039250Y028438D01*
X039250Y028537D02*
X041860Y028537D01*
X041860Y028635D02*
X039250Y028635D01*
X039250Y028734D02*
X041860Y028734D01*
X041860Y028832D02*
X039250Y028832D01*
X039223Y028931D02*
X041860Y028931D01*
X041860Y029029D02*
X039125Y029029D01*
X039026Y029128D02*
X041860Y029128D01*
X041860Y029226D02*
X038928Y029226D01*
X038829Y029325D02*
X041860Y029325D01*
X041860Y029423D02*
X038731Y029423D01*
X038632Y029522D02*
X041860Y029522D01*
X041860Y029620D02*
X038534Y029620D01*
X038182Y030454D02*
X037969Y030454D01*
X037773Y030536D01*
X037622Y030686D01*
X037541Y030883D01*
X037541Y031096D01*
X037622Y031292D01*
X037773Y031443D01*
X037969Y031524D01*
X038182Y031524D01*
X038379Y031443D01*
X038529Y031292D01*
X038611Y031096D01*
X038611Y030883D01*
X038529Y030686D01*
X038379Y030536D01*
X038182Y030454D01*
X038308Y030507D02*
X039812Y030507D01*
X039741Y030536D02*
X039938Y030454D01*
X040151Y030454D01*
X040347Y030536D01*
X040498Y030686D01*
X040579Y030883D01*
X040579Y031096D01*
X040498Y031292D01*
X040347Y031443D01*
X040151Y031524D01*
X039938Y031524D01*
X039741Y031443D01*
X039591Y031292D01*
X039509Y031096D01*
X039509Y030883D01*
X039591Y030686D01*
X039741Y030536D01*
X039672Y030605D02*
X038448Y030605D01*
X038536Y030704D02*
X039584Y030704D01*
X039543Y030802D02*
X038577Y030802D01*
X038611Y030901D02*
X039509Y030901D01*
X039509Y030999D02*
X038611Y030999D01*
X038610Y031098D02*
X039510Y031098D01*
X039551Y031196D02*
X038569Y031196D01*
X038527Y031295D02*
X039593Y031295D01*
X039691Y031393D02*
X038429Y031393D01*
X038261Y031492D02*
X039859Y031492D01*
X040230Y031492D02*
X041860Y031492D01*
X041860Y031590D02*
X032469Y031590D01*
X032567Y031689D02*
X041860Y031689D01*
X041860Y031787D02*
X032666Y031787D01*
X032764Y031886D02*
X041860Y031886D01*
X041860Y031984D02*
X032863Y031984D01*
X032961Y032083D02*
X041860Y032083D01*
X041860Y032181D02*
X033060Y032181D01*
X033158Y032280D02*
X041860Y032280D01*
X041860Y032378D02*
X033257Y032378D01*
X033355Y032477D02*
X041860Y032477D01*
X041860Y032575D02*
X033454Y032575D01*
X033552Y032674D02*
X041860Y032674D01*
X041860Y032772D02*
X033651Y032772D01*
X033749Y032871D02*
X041860Y032871D01*
X041860Y032969D02*
X033848Y032969D01*
X033946Y033068D02*
X041860Y033068D01*
X041860Y033166D02*
X034045Y033166D01*
X034143Y033265D02*
X041860Y033265D01*
X041860Y033363D02*
X034242Y033363D01*
X034340Y033462D02*
X041860Y033462D01*
X041860Y033560D02*
X034439Y033560D01*
X034537Y033659D02*
X041860Y033659D01*
X041860Y033757D02*
X034636Y033757D01*
X034734Y033856D02*
X041860Y033856D01*
X041860Y033954D02*
X034833Y033954D01*
X034931Y034053D02*
X041860Y034053D01*
X041860Y034151D02*
X035030Y034151D01*
X035128Y034250D02*
X041860Y034250D01*
X041860Y034348D02*
X035227Y034348D01*
X035325Y034447D02*
X041860Y034447D01*
X041860Y034545D02*
X035424Y034545D01*
X035522Y034644D02*
X041860Y034644D01*
X041860Y034742D02*
X035621Y034742D01*
X035639Y034760D02*
X039187Y034760D01*
X039195Y034753D01*
X039264Y034760D01*
X039334Y034760D01*
X039341Y034768D01*
X039352Y034769D01*
X039396Y034822D01*
X039445Y034871D01*
X039445Y034882D01*
X039873Y035403D01*
X039938Y035376D01*
X040151Y035376D01*
X040347Y035457D01*
X040498Y035608D01*
X040579Y035804D01*
X040579Y036017D01*
X040498Y036214D01*
X040347Y036364D01*
X040151Y036446D01*
X039938Y036446D01*
X039741Y036364D01*
X039591Y036214D01*
X039509Y036017D01*
X039509Y035804D01*
X039577Y035641D01*
X039165Y035140D01*
X036255Y035140D01*
X036255Y035331D01*
X036191Y035395D01*
X035679Y035395D01*
X035615Y035331D01*
X035615Y035140D01*
X035481Y035140D01*
X031281Y030940D01*
X023716Y030940D01*
X023669Y030987D01*
X023566Y031030D01*
X023454Y031030D01*
X023351Y030987D01*
X023273Y030909D01*
X023230Y030806D01*
X023230Y030694D01*
X023273Y030591D01*
X023351Y030513D01*
X023454Y030470D01*
X023566Y030470D01*
X023669Y030513D01*
X023716Y030560D01*
X031439Y030560D01*
X031550Y030671D01*
X035639Y034760D01*
X035379Y035038D02*
X017577Y035038D01*
X017590Y034939D02*
X035280Y034939D01*
X035182Y034841D02*
X017568Y034841D01*
X017498Y034742D02*
X035083Y034742D01*
X034985Y034644D02*
X009192Y034644D01*
X009093Y034742D02*
X017122Y034742D01*
X017052Y034841D02*
X008995Y034841D01*
X008896Y034939D02*
X017030Y034939D01*
X017043Y035038D02*
X008798Y035038D01*
X008699Y035136D02*
X017100Y035136D01*
X017120Y035235D02*
X008601Y035235D01*
X008502Y035333D02*
X017120Y035333D01*
X017120Y035432D02*
X008404Y035432D01*
X008305Y035530D02*
X017120Y035530D01*
X017120Y035629D02*
X008207Y035629D01*
X008108Y035727D02*
X017120Y035727D01*
X017120Y035826D02*
X008011Y035826D01*
X008011Y035825D02*
X008011Y036747D01*
X008041Y036760D01*
X008170Y036889D01*
X008241Y037058D01*
X008241Y037241D01*
X008170Y037411D01*
X008041Y037540D01*
X007872Y037610D01*
X007689Y037610D01*
X007520Y037540D01*
X007391Y037411D01*
X007321Y037241D01*
X007321Y037058D01*
X007391Y036889D01*
X007520Y036760D01*
X007551Y036747D01*
X007551Y035634D01*
X011905Y031280D01*
X011905Y031269D01*
X011948Y031166D01*
X012026Y031088D01*
X012129Y031045D01*
X012241Y031045D01*
X012344Y031088D01*
X012422Y031166D01*
X012465Y031269D01*
X012465Y031381D01*
X012422Y031484D01*
X012344Y031562D01*
X012241Y031605D01*
X012230Y031605D01*
X008011Y035825D01*
X008011Y035924D02*
X013178Y035924D01*
X013108Y035953D02*
X013285Y035880D01*
X013476Y035880D01*
X013652Y035953D01*
X013787Y036088D01*
X013860Y036265D01*
X013860Y036455D01*
X013787Y036632D01*
X013652Y036767D01*
X013476Y036840D01*
X013285Y036840D01*
X013108Y036767D01*
X012973Y036632D01*
X012900Y036455D01*
X012900Y036265D01*
X012973Y036088D01*
X013108Y035953D01*
X013039Y036023D02*
X008011Y036023D01*
X008011Y036121D02*
X012959Y036121D01*
X012919Y036220D02*
X008011Y036220D01*
X008011Y036318D02*
X012900Y036318D01*
X012900Y036417D02*
X008011Y036417D01*
X008011Y036515D02*
X012925Y036515D01*
X012966Y036614D02*
X008011Y036614D01*
X008011Y036712D02*
X010195Y036712D01*
X010248Y036690D02*
X010431Y036690D01*
X010600Y036760D01*
X010730Y036889D01*
X010800Y037058D01*
X010800Y037241D01*
X010730Y037411D01*
X010600Y037540D01*
X010431Y037610D01*
X010248Y037610D01*
X010079Y037540D01*
X009950Y037411D01*
X009880Y037241D01*
X009880Y037058D01*
X009950Y036889D01*
X010079Y036760D01*
X010248Y036690D01*
X010484Y036712D02*
X013053Y036712D01*
X013214Y036811D02*
X010651Y036811D01*
X010738Y036909D02*
X016902Y036909D01*
X016804Y037008D02*
X010778Y037008D01*
X010800Y037106D02*
X016705Y037106D01*
X016607Y037205D02*
X010800Y037205D01*
X010774Y037303D02*
X016508Y037303D01*
X016410Y037402D02*
X010733Y037402D01*
X010640Y037500D02*
X016311Y037500D01*
X016213Y037599D02*
X010459Y037599D01*
X010220Y037599D02*
X007900Y037599D01*
X008081Y037500D02*
X010039Y037500D01*
X009946Y037402D02*
X008174Y037402D01*
X008215Y037303D02*
X009905Y037303D01*
X009880Y037205D02*
X008241Y037205D01*
X008241Y037106D02*
X009880Y037106D01*
X009901Y037008D02*
X008219Y037008D01*
X008179Y036909D02*
X009941Y036909D01*
X010028Y036811D02*
X008092Y036811D01*
X007551Y036712D02*
X002500Y036712D01*
X002500Y036614D02*
X007551Y036614D01*
X007551Y036515D02*
X002500Y036515D01*
X002500Y036417D02*
X007551Y036417D01*
X007551Y036318D02*
X002500Y036318D01*
X002500Y036220D02*
X007551Y036220D01*
X007551Y036121D02*
X002500Y036121D01*
X002500Y036023D02*
X007551Y036023D01*
X007551Y035924D02*
X002500Y035924D01*
X002500Y035826D02*
X007551Y035826D01*
X007551Y035727D02*
X002500Y035727D01*
X002500Y035629D02*
X007556Y035629D01*
X007655Y035530D02*
X002500Y035530D01*
X002500Y035432D02*
X007753Y035432D01*
X007852Y035333D02*
X002500Y035333D01*
X002500Y035235D02*
X007950Y035235D01*
X008049Y035136D02*
X002500Y035136D01*
X002500Y035038D02*
X008147Y035038D01*
X008246Y034939D02*
X002500Y034939D01*
X002500Y034841D02*
X008344Y034841D01*
X008443Y034742D02*
X002500Y034742D01*
X002500Y034644D02*
X008541Y034644D01*
X008640Y034545D02*
X002500Y034545D01*
X002500Y034447D02*
X008738Y034447D01*
X008837Y034348D02*
X002500Y034348D01*
X002500Y034250D02*
X008935Y034250D01*
X009034Y034151D02*
X002500Y034151D01*
X002500Y034053D02*
X009132Y034053D01*
X009231Y033954D02*
X002500Y033954D01*
X002500Y033856D02*
X009329Y033856D01*
X009428Y033757D02*
X002500Y033757D01*
X002500Y033659D02*
X009526Y033659D01*
X009625Y033560D02*
X002500Y033560D01*
X002500Y033462D02*
X009723Y033462D01*
X009822Y033363D02*
X002500Y033363D01*
X002500Y033265D02*
X009920Y033265D01*
X010019Y033166D02*
X002500Y033166D01*
X002500Y033068D02*
X010117Y033068D01*
X010216Y032969D02*
X007716Y032969D01*
X007791Y032938D02*
X007479Y033067D01*
X007141Y033067D01*
X006829Y032938D01*
X006590Y032699D01*
X006460Y032387D01*
X006460Y032049D01*
X006590Y031736D01*
X006829Y031497D01*
X007141Y031368D01*
X007479Y031368D01*
X007791Y031497D01*
X008030Y031736D01*
X008160Y032049D01*
X008160Y032387D01*
X008030Y032699D01*
X007791Y032938D01*
X007859Y032871D02*
X010314Y032871D01*
X010413Y032772D02*
X007957Y032772D01*
X008041Y032674D02*
X010511Y032674D01*
X010610Y032575D02*
X008082Y032575D01*
X008122Y032477D02*
X010708Y032477D01*
X010807Y032378D02*
X008160Y032378D01*
X008160Y032280D02*
X010905Y032280D01*
X011004Y032181D02*
X008160Y032181D01*
X008160Y032083D02*
X011102Y032083D01*
X011201Y031984D02*
X008133Y031984D01*
X008092Y031886D02*
X011299Y031886D01*
X011398Y031787D02*
X008051Y031787D01*
X007982Y031689D02*
X011496Y031689D01*
X011595Y031590D02*
X007884Y031590D01*
X007777Y031492D02*
X011693Y031492D01*
X011792Y031393D02*
X007539Y031393D01*
X007081Y031393D02*
X002500Y031393D01*
X002500Y031295D02*
X011890Y031295D01*
X011935Y031196D02*
X002500Y031196D01*
X002500Y031098D02*
X012017Y031098D01*
X012354Y031098D02*
X018587Y031098D01*
X018489Y031196D02*
X012435Y031196D01*
X012465Y031295D02*
X018390Y031295D01*
X018292Y031393D02*
X012460Y031393D01*
X012414Y031492D02*
X014188Y031492D01*
X014190Y031488D02*
X014218Y031460D01*
X014252Y031440D01*
X014290Y031430D01*
X014630Y031430D01*
X014630Y031900D01*
X014160Y031900D01*
X014160Y031560D01*
X014170Y031522D01*
X014190Y031488D01*
X014160Y031590D02*
X012277Y031590D01*
X012147Y031689D02*
X014160Y031689D01*
X014160Y031787D02*
X012048Y031787D01*
X011950Y031886D02*
X014160Y031886D01*
X014160Y032000D02*
X014160Y032340D01*
X014170Y032378D01*
X014190Y032412D01*
X014218Y032440D01*
X014252Y032460D01*
X014290Y032470D01*
X014630Y032470D01*
X014630Y032000D01*
X014630Y031900D01*
X014730Y031900D01*
X014730Y031430D01*
X015070Y031430D01*
X015108Y031440D01*
X015142Y031460D01*
X015170Y031488D01*
X015190Y031522D01*
X015200Y031560D01*
X015200Y031900D01*
X014730Y031900D01*
X014730Y032000D01*
X014630Y032000D01*
X014160Y032000D01*
X014160Y032083D02*
X011753Y032083D01*
X011654Y032181D02*
X014160Y032181D01*
X014160Y032280D02*
X011556Y032280D01*
X011457Y032378D02*
X014170Y032378D01*
X014376Y032575D02*
X011260Y032575D01*
X011162Y032674D02*
X014278Y032674D01*
X014273Y032678D02*
X014408Y032543D01*
X014585Y032470D01*
X014776Y032470D01*
X014952Y032543D01*
X015087Y032678D01*
X015104Y032720D01*
X016965Y032720D01*
X019830Y029855D01*
X019830Y014116D01*
X019823Y014109D01*
X019780Y014006D01*
X019780Y013894D01*
X019823Y013791D01*
X019901Y013713D01*
X020004Y013670D01*
X020116Y013670D01*
X020219Y013713D01*
X020297Y013791D01*
X020340Y013894D01*
X020340Y014006D01*
X020297Y014109D01*
X020290Y014116D01*
X020290Y030045D01*
X020155Y030180D01*
X017155Y033180D01*
X015104Y033180D01*
X015087Y033222D01*
X014952Y033357D01*
X014776Y033430D01*
X014585Y033430D01*
X014408Y033357D01*
X014273Y033222D01*
X014200Y033045D01*
X014200Y032855D01*
X014273Y032678D01*
X014234Y032772D02*
X011063Y032772D01*
X010965Y032871D02*
X014200Y032871D01*
X014200Y032969D02*
X010866Y032969D01*
X010768Y033068D02*
X014209Y033068D01*
X014250Y033166D02*
X010669Y033166D01*
X010571Y033265D02*
X014316Y033265D01*
X014423Y033363D02*
X010472Y033363D01*
X010374Y033462D02*
X017102Y033462D01*
X017044Y033560D02*
X014969Y033560D01*
X014952Y033543D02*
X015087Y033678D01*
X015160Y033855D01*
X015160Y034045D01*
X015087Y034222D01*
X014952Y034357D01*
X014776Y034430D01*
X014585Y034430D01*
X014408Y034357D01*
X014273Y034222D01*
X014200Y034045D01*
X014200Y033855D01*
X014273Y033678D01*
X014408Y033543D01*
X014585Y033470D01*
X014776Y033470D01*
X014952Y033543D01*
X015067Y033659D02*
X017030Y033659D01*
X017051Y033757D02*
X015120Y033757D01*
X015160Y033856D02*
X017120Y033856D01*
X017500Y033856D02*
X034197Y033856D01*
X034295Y033954D02*
X015160Y033954D01*
X015157Y034053D02*
X034394Y034053D01*
X034492Y034151D02*
X015116Y034151D01*
X015059Y034250D02*
X034591Y034250D01*
X034689Y034348D02*
X014961Y034348D01*
X014399Y034348D02*
X009487Y034348D01*
X009389Y034447D02*
X034788Y034447D01*
X034886Y034545D02*
X009290Y034545D01*
X009586Y034250D02*
X014301Y034250D01*
X014244Y034151D02*
X009684Y034151D01*
X009783Y034053D02*
X014203Y034053D01*
X014200Y033954D02*
X009881Y033954D01*
X009980Y033856D02*
X014200Y033856D01*
X014240Y033757D02*
X010078Y033757D01*
X010177Y033659D02*
X014293Y033659D01*
X014391Y033560D02*
X010275Y033560D01*
X011359Y032477D02*
X014569Y032477D01*
X014630Y032378D02*
X014730Y032378D01*
X014730Y032470D02*
X014730Y032000D01*
X015200Y032000D01*
X015200Y032340D01*
X015190Y032378D01*
X015170Y032412D01*
X015142Y032440D01*
X015108Y032460D01*
X015070Y032470D01*
X014730Y032470D01*
X014791Y032477D02*
X017208Y032477D01*
X017110Y032575D02*
X014984Y032575D01*
X015082Y032674D02*
X017011Y032674D01*
X017307Y032378D02*
X015190Y032378D01*
X015200Y032280D02*
X017405Y032280D01*
X017504Y032181D02*
X015200Y032181D01*
X015200Y032083D02*
X017602Y032083D01*
X017701Y031984D02*
X014730Y031984D01*
X014730Y031886D02*
X014630Y031886D01*
X014630Y031984D02*
X011851Y031984D01*
X013526Y030062D02*
X013448Y029984D01*
X013405Y029881D01*
X013405Y029769D01*
X013448Y029666D01*
X013526Y029588D01*
X013629Y029545D01*
X013640Y029545D01*
X015180Y028005D01*
X015180Y024005D01*
X015315Y023870D01*
X015680Y023505D01*
X015680Y023355D01*
X015753Y023178D01*
X015888Y023043D01*
X016065Y022970D01*
X016256Y022970D01*
X016432Y023043D01*
X016567Y023178D01*
X016640Y023355D01*
X016640Y023545D01*
X016567Y023722D01*
X016432Y023857D01*
X016256Y023930D01*
X016065Y023930D01*
X015952Y023883D01*
X015640Y024195D01*
X015640Y028195D01*
X013965Y029870D01*
X013965Y029881D01*
X013922Y029984D01*
X013844Y030062D01*
X013741Y030105D01*
X013629Y030105D01*
X013526Y030062D01*
X013478Y030014D02*
X002500Y030014D01*
X002500Y029916D02*
X013419Y029916D01*
X013405Y029817D02*
X002500Y029817D01*
X002500Y029719D02*
X013426Y029719D01*
X013494Y029620D02*
X002500Y029620D01*
X002500Y029522D02*
X013663Y029522D01*
X013762Y029423D02*
X002500Y029423D01*
X002500Y029325D02*
X013860Y029325D01*
X013959Y029226D02*
X002500Y029226D01*
X002500Y029128D02*
X014057Y029128D01*
X014156Y029029D02*
X002500Y029029D01*
X002500Y028931D02*
X014254Y028931D01*
X014353Y028832D02*
X002500Y028832D01*
X002500Y028734D02*
X014451Y028734D01*
X014550Y028635D02*
X002500Y028635D01*
X002500Y028537D02*
X014648Y028537D01*
X014747Y028438D02*
X002500Y028438D01*
X002500Y028340D02*
X014845Y028340D01*
X014944Y028241D02*
X002500Y028241D01*
X002500Y028143D02*
X015042Y028143D01*
X015141Y028044D02*
X002500Y028044D01*
X002500Y027946D02*
X015180Y027946D01*
X015180Y027847D02*
X002500Y027847D01*
X002500Y027749D02*
X015180Y027749D01*
X015180Y027650D02*
X002500Y027650D01*
X002500Y027552D02*
X015180Y027552D01*
X015180Y027453D02*
X002500Y027453D01*
X002500Y027355D02*
X015180Y027355D01*
X015180Y027256D02*
X002500Y027256D01*
X002500Y027158D02*
X015180Y027158D01*
X015180Y027059D02*
X002500Y027059D01*
X002500Y026961D02*
X015180Y026961D01*
X015180Y026862D02*
X002500Y026862D01*
X002500Y026764D02*
X015180Y026764D01*
X015180Y026665D02*
X002500Y026665D01*
X002500Y026567D02*
X015180Y026567D01*
X015180Y026468D02*
X007826Y026468D01*
X007622Y026518D02*
X006998Y026518D01*
X006393Y026369D01*
X006393Y026369D01*
X005840Y026079D01*
X005373Y025666D01*
X005373Y025666D01*
X005019Y025152D01*
X004798Y024569D01*
X004723Y023950D01*
X004798Y023331D01*
X005019Y022748D01*
X005373Y022234D01*
X005840Y021821D01*
X005840Y021821D01*
X006393Y021531D01*
X006998Y021382D01*
X007622Y021382D01*
X008227Y021531D01*
X008227Y021531D01*
X008780Y021821D01*
X009247Y022234D01*
X009247Y022234D01*
X009601Y022748D01*
X009822Y023331D01*
X009897Y023950D01*
X009822Y024569D01*
X009822Y024569D01*
X009601Y025152D01*
X009601Y025152D01*
X009247Y025666D01*
X009247Y025666D01*
X009247Y025666D01*
X008780Y026079D01*
X008780Y026079D01*
X008227Y026369D01*
X007622Y026518D01*
X008226Y026370D02*
X015180Y026370D01*
X015180Y026271D02*
X008414Y026271D01*
X008227Y026369D02*
X008227Y026369D01*
X008602Y026173D02*
X015180Y026173D01*
X015180Y026074D02*
X008786Y026074D01*
X008897Y025976D02*
X015180Y025976D01*
X015180Y025877D02*
X009008Y025877D01*
X009119Y025779D02*
X015180Y025779D01*
X015180Y025680D02*
X009230Y025680D01*
X009305Y025582D02*
X015180Y025582D01*
X015180Y025483D02*
X009373Y025483D01*
X009441Y025385D02*
X015180Y025385D01*
X015180Y025286D02*
X009509Y025286D01*
X009577Y025188D02*
X015180Y025188D01*
X015180Y025089D02*
X009625Y025089D01*
X009662Y024991D02*
X015180Y024991D01*
X015180Y024892D02*
X009700Y024892D01*
X009737Y024794D02*
X015180Y024794D01*
X015180Y024695D02*
X009774Y024695D01*
X009812Y024597D02*
X015180Y024597D01*
X015180Y024498D02*
X009831Y024498D01*
X009843Y024400D02*
X015180Y024400D01*
X015180Y024301D02*
X009855Y024301D01*
X009867Y024203D02*
X015180Y024203D01*
X015180Y024104D02*
X009879Y024104D01*
X009890Y024006D02*
X015180Y024006D01*
X015278Y023907D02*
X009892Y023907D01*
X009880Y023809D02*
X015376Y023809D01*
X015315Y023870D02*
X015315Y023870D01*
X015475Y023710D02*
X009868Y023710D01*
X009856Y023612D02*
X015573Y023612D01*
X015672Y023513D02*
X009844Y023513D01*
X009832Y023415D02*
X015680Y023415D01*
X015696Y023316D02*
X009816Y023316D01*
X009822Y023331D02*
X009822Y023331D01*
X009779Y023218D02*
X015737Y023218D01*
X015812Y023119D02*
X009742Y023119D01*
X009704Y023021D02*
X015943Y023021D01*
X016045Y022922D02*
X009667Y022922D01*
X009630Y022824D02*
X015855Y022824D01*
X015888Y022857D02*
X015753Y022722D01*
X015680Y022545D01*
X015680Y022355D01*
X015753Y022178D01*
X015888Y022043D01*
X016065Y021970D01*
X016256Y021970D01*
X016432Y022043D01*
X016567Y022178D01*
X016601Y022260D01*
X016839Y022260D01*
X016950Y022371D01*
X017339Y022760D01*
X017450Y022871D01*
X017450Y027971D01*
X018799Y029320D01*
X018866Y029320D01*
X018969Y029363D01*
X019047Y029441D01*
X019090Y029544D01*
X019090Y029656D01*
X019047Y029759D01*
X018969Y029837D01*
X018866Y029880D01*
X018754Y029880D01*
X018651Y029837D01*
X018573Y029759D01*
X018530Y029656D01*
X018530Y029589D01*
X017070Y028129D01*
X017070Y023029D01*
X016681Y022640D01*
X016601Y022640D01*
X016567Y022722D01*
X016432Y022857D01*
X016256Y022930D01*
X016065Y022930D01*
X015888Y022857D01*
X015756Y022725D02*
X009585Y022725D01*
X009601Y022748D02*
X009601Y022748D01*
X009517Y022627D02*
X015714Y022627D01*
X015680Y022528D02*
X009449Y022528D01*
X009381Y022430D02*
X015680Y022430D01*
X015690Y022331D02*
X009313Y022331D01*
X009245Y022233D02*
X015731Y022233D01*
X015797Y022134D02*
X009133Y022134D01*
X009022Y022036D02*
X015906Y022036D01*
X016414Y022036D02*
X018394Y022036D01*
X018425Y022004D02*
X018576Y021942D01*
X018739Y021942D01*
X018890Y022004D01*
X019005Y022119D01*
X019068Y022270D01*
X019068Y022433D01*
X019005Y022584D01*
X018890Y022699D01*
X018739Y022762D01*
X018576Y022762D01*
X018425Y022699D01*
X018310Y022584D01*
X018248Y022433D01*
X018248Y022270D01*
X018310Y022119D01*
X018425Y022004D01*
X018304Y022134D02*
X016523Y022134D01*
X016590Y022233D02*
X018263Y022233D01*
X018248Y022331D02*
X016910Y022331D01*
X017008Y022430D02*
X018248Y022430D01*
X018287Y022528D02*
X017107Y022528D01*
X017205Y022627D02*
X018353Y022627D01*
X018488Y022725D02*
X017304Y022725D01*
X017402Y022824D02*
X019830Y022824D01*
X019830Y022922D02*
X017450Y022922D01*
X017450Y023021D02*
X018409Y023021D01*
X018425Y023004D02*
X018576Y022942D01*
X018739Y022942D01*
X018890Y023004D01*
X019005Y023119D01*
X019830Y023119D01*
X019830Y023021D02*
X018906Y023021D01*
X019005Y023119D02*
X019068Y023270D01*
X019068Y023433D01*
X019005Y023584D01*
X018890Y023699D01*
X018739Y023762D01*
X018576Y023762D01*
X018425Y023699D01*
X018310Y023584D01*
X018248Y023433D01*
X018248Y023270D01*
X018310Y023119D01*
X018425Y023004D01*
X018310Y023119D02*
X017450Y023119D01*
X017450Y023218D02*
X018269Y023218D01*
X018248Y023316D02*
X017450Y023316D01*
X017450Y023415D02*
X018248Y023415D01*
X018281Y023513D02*
X017450Y023513D01*
X017450Y023612D02*
X018338Y023612D01*
X018452Y023710D02*
X017450Y023710D01*
X017450Y023809D02*
X019830Y023809D01*
X019830Y023907D02*
X017450Y023907D01*
X017450Y024006D02*
X018424Y024006D01*
X018425Y024004D02*
X018576Y023942D01*
X018739Y023942D01*
X018890Y024004D01*
X019005Y024119D01*
X019068Y024270D01*
X019068Y024433D01*
X019005Y024584D01*
X018890Y024699D01*
X018739Y024762D01*
X018576Y024762D01*
X018425Y024699D01*
X018310Y024584D01*
X018248Y024433D01*
X018248Y024270D01*
X018310Y024119D01*
X018425Y024004D01*
X018325Y024104D02*
X017450Y024104D01*
X017450Y024203D02*
X018276Y024203D01*
X018248Y024301D02*
X017450Y024301D01*
X017450Y024400D02*
X018248Y024400D01*
X018275Y024498D02*
X017450Y024498D01*
X017450Y024597D02*
X018323Y024597D01*
X018421Y024695D02*
X017450Y024695D01*
X017450Y024794D02*
X019830Y024794D01*
X019830Y024892D02*
X017450Y024892D01*
X017450Y024991D02*
X018389Y024991D01*
X018365Y025008D02*
X018422Y024967D01*
X018485Y024935D01*
X018552Y024913D01*
X018608Y024904D01*
X018608Y025302D01*
X018210Y025302D01*
X018219Y025246D01*
X018241Y025179D01*
X018273Y025116D01*
X018314Y025058D01*
X018365Y025008D01*
X018292Y025089D02*
X017450Y025089D01*
X017450Y025188D02*
X018238Y025188D01*
X018212Y025286D02*
X017450Y025286D01*
X017450Y025385D02*
X018608Y025385D01*
X018608Y025402D02*
X018608Y025302D01*
X018708Y025302D01*
X018708Y025402D01*
X018608Y025402D01*
X018608Y025799D01*
X018552Y025790D01*
X018485Y025769D01*
X018422Y025736D01*
X018365Y025695D01*
X018314Y025645D01*
X018273Y025587D01*
X018241Y025524D01*
X018219Y025457D01*
X018210Y025402D01*
X018608Y025402D01*
X018608Y025483D02*
X018708Y025483D01*
X018708Y025402D02*
X018708Y025799D01*
X018763Y025790D01*
X018830Y025769D01*
X018894Y025736D01*
X018951Y025695D01*
X019001Y025645D01*
X019043Y025587D01*
X019075Y025524D01*
X019097Y025457D01*
X019105Y025402D01*
X018708Y025402D01*
X018708Y025385D02*
X019830Y025385D01*
X019830Y025483D02*
X019088Y025483D01*
X019046Y025582D02*
X019830Y025582D01*
X019830Y025680D02*
X018966Y025680D01*
X018800Y025779D02*
X019830Y025779D01*
X019830Y025877D02*
X017450Y025877D01*
X017450Y025779D02*
X018516Y025779D01*
X018608Y025779D02*
X018708Y025779D01*
X018708Y025680D02*
X018608Y025680D01*
X018608Y025582D02*
X018708Y025582D01*
X018708Y025302D02*
X019105Y025302D01*
X019097Y025246D01*
X019075Y025179D01*
X019043Y025116D01*
X019001Y025058D01*
X018951Y025008D01*
X018894Y024967D01*
X018830Y024935D01*
X018763Y024913D01*
X018708Y024904D01*
X018708Y025302D01*
X018708Y025286D02*
X018608Y025286D01*
X018608Y025188D02*
X018708Y025188D01*
X018708Y025089D02*
X018608Y025089D01*
X018608Y024991D02*
X018708Y024991D01*
X018926Y024991D02*
X019830Y024991D01*
X019830Y025089D02*
X019023Y025089D01*
X019078Y025188D02*
X019830Y025188D01*
X019830Y025286D02*
X019103Y025286D01*
X018894Y024695D02*
X019830Y024695D01*
X019830Y024597D02*
X018993Y024597D01*
X019041Y024498D02*
X019830Y024498D01*
X019830Y024400D02*
X019068Y024400D01*
X019068Y024301D02*
X019830Y024301D01*
X019830Y024203D02*
X019040Y024203D01*
X018990Y024104D02*
X019830Y024104D01*
X019830Y024006D02*
X018891Y024006D01*
X018864Y023710D02*
X019830Y023710D01*
X019830Y023612D02*
X018978Y023612D01*
X019035Y023513D02*
X019830Y023513D01*
X019830Y023415D02*
X019068Y023415D01*
X019068Y023316D02*
X019830Y023316D01*
X019830Y023218D02*
X019046Y023218D01*
X018827Y022725D02*
X019830Y022725D01*
X019830Y022627D02*
X018963Y022627D01*
X019028Y022528D02*
X019830Y022528D01*
X019830Y022430D02*
X019068Y022430D01*
X019068Y022331D02*
X019830Y022331D01*
X019830Y022233D02*
X019052Y022233D01*
X019011Y022134D02*
X019830Y022134D01*
X019830Y022036D02*
X018921Y022036D01*
X018791Y021740D02*
X019830Y021740D01*
X019830Y021642D02*
X018948Y021642D01*
X019022Y021543D02*
X019830Y021543D01*
X019830Y021445D02*
X019063Y021445D01*
X019068Y021346D02*
X019830Y021346D01*
X019830Y021248D02*
X019058Y021248D01*
X019018Y021149D02*
X019830Y021149D01*
X019830Y021051D02*
X018936Y021051D01*
X018383Y020657D02*
X016545Y020657D01*
X015898Y020361D02*
X002500Y020361D01*
X002500Y020263D02*
X014852Y020263D01*
X014794Y020164D02*
X002500Y020164D01*
X002500Y020066D02*
X014780Y020066D01*
X014683Y019967D02*
X002500Y019967D01*
X002500Y019869D02*
X014585Y019869D01*
X014486Y019770D02*
X002500Y019770D01*
X002500Y019672D02*
X014388Y019672D01*
X014289Y019573D02*
X002500Y019573D01*
X002500Y019475D02*
X014191Y019475D01*
X014092Y019376D02*
X002500Y019376D01*
X002500Y019278D02*
X013994Y019278D01*
X013895Y019179D02*
X002500Y019179D01*
X002500Y019081D02*
X013797Y019081D01*
X013698Y018982D02*
X002500Y018982D01*
X002500Y018884D02*
X013600Y018884D01*
X013501Y018785D02*
X002500Y018785D01*
X002500Y018687D02*
X013403Y018687D01*
X013304Y018588D02*
X002500Y018588D01*
X002500Y018490D02*
X013206Y018490D01*
X013107Y018391D02*
X002500Y018391D01*
X002500Y018293D02*
X013009Y018293D01*
X012910Y018194D02*
X002500Y018194D01*
X002500Y018096D02*
X010356Y018096D01*
X010514Y018096D02*
X012812Y018096D01*
X013364Y017012D02*
X014006Y017012D01*
X013985Y016914D02*
X013920Y016914D01*
X013450Y016914D02*
X013385Y016914D01*
X013385Y016224D02*
X013473Y016224D01*
X013351Y016126D02*
X014019Y016126D01*
X013985Y016224D02*
X013897Y016224D01*
X013828Y015830D02*
X013265Y015830D01*
X013265Y015732D02*
X013828Y015732D01*
X013828Y015633D02*
X013265Y015633D01*
X013265Y015535D02*
X013830Y015535D01*
X013828Y014845D02*
X013265Y014845D01*
X013265Y014747D02*
X013828Y014747D01*
X013828Y014648D02*
X013743Y014648D01*
X013477Y014648D02*
X013265Y014648D01*
X013265Y014550D02*
X013369Y014550D01*
X013330Y014451D02*
X013265Y014451D01*
X011855Y014451D02*
X010185Y014451D01*
X010185Y014944D02*
X010256Y014944D01*
X010171Y015042D02*
X009987Y015042D01*
X009888Y015141D02*
X010166Y015141D01*
X010166Y015209D02*
X010166Y015338D01*
X010176Y015376D01*
X010196Y015410D01*
X010224Y015438D01*
X010258Y015458D01*
X010296Y015468D01*
X010740Y015468D01*
X010740Y015209D01*
X010166Y015209D01*
X010166Y015239D02*
X009790Y015239D01*
X009691Y015338D02*
X010166Y015338D01*
X010177Y015436D02*
X010222Y015436D01*
X010310Y015700D02*
X010749Y015700D01*
X010740Y015436D02*
X010758Y015436D01*
X010758Y015338D02*
X010740Y015338D01*
X010740Y015239D02*
X010758Y015239D01*
X010758Y015141D02*
X010740Y015141D01*
X010740Y015042D02*
X010758Y015042D01*
X010758Y014944D02*
X010740Y014944D01*
X010185Y015929D02*
X011855Y015929D01*
X011223Y016224D02*
X011135Y016224D01*
X010435Y016914D02*
X002500Y016914D01*
X002500Y017012D02*
X010456Y017012D01*
X010469Y017111D02*
X002500Y017111D01*
X002500Y017209D02*
X010395Y017209D01*
X010370Y017308D02*
X002500Y017308D01*
X002500Y017406D02*
X010381Y017406D01*
X010434Y017505D02*
X002500Y017505D01*
X002500Y017603D02*
X010261Y017603D01*
X010183Y017702D02*
X002500Y017702D01*
X002500Y017800D02*
X010155Y017800D01*
X010162Y017899D02*
X002500Y017899D01*
X002500Y017997D02*
X010211Y017997D01*
X009615Y015633D02*
X009545Y015633D01*
X009545Y015535D02*
X009615Y015535D01*
X009623Y015436D02*
X009536Y015436D01*
X013833Y011398D02*
X013862Y011398D01*
X013828Y011299D02*
X013771Y011299D01*
X013828Y011201D02*
X013707Y011201D01*
X012670Y009034D02*
X012594Y009034D01*
X012670Y008935D02*
X012495Y008935D01*
X012450Y008837D02*
X012670Y008837D01*
X012670Y008738D02*
X012450Y008738D01*
X010920Y008640D02*
X010764Y008640D01*
X010755Y008738D02*
X010865Y008738D01*
X010865Y008837D02*
X010755Y008837D01*
X010755Y008935D02*
X010865Y008935D01*
X010865Y009034D02*
X010755Y009034D01*
X010755Y009132D02*
X010865Y009132D01*
X010890Y009231D02*
X010730Y009231D01*
X010280Y009329D02*
X006087Y009329D01*
X005531Y008837D02*
X008895Y008837D01*
X009183Y008738D02*
X009258Y008738D01*
X009258Y008640D02*
X009183Y008640D01*
X009507Y008640D02*
X009670Y008640D01*
X009615Y008738D02*
X009545Y008738D01*
X009545Y008837D02*
X009615Y008837D01*
X009810Y008944D02*
X009900Y008950D01*
X010185Y009140D02*
X010185Y009206D01*
X010185Y009140D01*
X010185Y009140D01*
X010160Y009231D02*
X010210Y009231D01*
X010168Y009428D02*
X010280Y009428D01*
X010280Y009526D02*
X010185Y009526D01*
X010185Y009625D02*
X010280Y009625D01*
X010280Y009723D02*
X010185Y009723D01*
X010185Y009822D02*
X010280Y009822D01*
X010280Y009920D02*
X010185Y009920D01*
X010224Y010019D02*
X010122Y010019D01*
X010090Y010117D02*
X010206Y010117D01*
X010206Y010216D02*
X010185Y010216D01*
X010185Y010314D02*
X010206Y010314D01*
X010185Y010413D02*
X010255Y010413D01*
X009258Y009231D02*
X009183Y009231D01*
X009183Y009132D02*
X009258Y009132D01*
X009258Y009034D02*
X009183Y009034D01*
X010130Y008640D02*
X010240Y008640D01*
X010185Y008694D02*
X010185Y008760D01*
X010185Y008760D01*
X010185Y008694D01*
X010185Y008738D02*
X010185Y008738D01*
X010863Y008541D02*
X017005Y008541D01*
X017365Y008541D02*
X018252Y008541D01*
X018490Y008443D02*
X017439Y008443D01*
X017465Y008344D02*
X040671Y008344D01*
X040573Y008246D02*
X017455Y008246D01*
X018825Y008443D02*
X030695Y008443D01*
X030713Y008435D02*
X031012Y008435D01*
X031288Y008549D01*
X031499Y008761D01*
X031614Y009037D01*
X031614Y009336D01*
X031499Y009612D01*
X031288Y009823D01*
X031012Y009937D01*
X030713Y009937D01*
X030437Y009823D01*
X030226Y009612D01*
X030111Y009336D01*
X030111Y009037D01*
X030226Y008761D01*
X030437Y008549D01*
X030713Y008435D01*
X030457Y008541D02*
X019063Y008541D01*
X019173Y008640D02*
X030347Y008640D01*
X030248Y008738D02*
X019272Y008738D01*
X019326Y008837D02*
X030194Y008837D01*
X030153Y008935D02*
X019367Y008935D01*
X019407Y009034D02*
X030113Y009034D01*
X030111Y009132D02*
X019409Y009132D01*
X019409Y009231D02*
X030111Y009231D01*
X030111Y009329D02*
X019409Y009329D01*
X019371Y009428D02*
X030149Y009428D01*
X030190Y009526D02*
X019330Y009526D01*
X019282Y009625D02*
X030238Y009625D01*
X030337Y009723D02*
X019183Y009723D01*
X019085Y009822D02*
X030435Y009822D01*
X030671Y009920D02*
X018849Y009920D01*
X018248Y011398D02*
X017583Y011398D01*
X017535Y011496D02*
X018248Y011496D01*
X018392Y011989D02*
X016620Y011989D01*
X016691Y012087D02*
X018294Y012087D01*
X018238Y012186D02*
X016715Y012186D01*
X016703Y012284D02*
X018213Y012284D01*
X018227Y012481D02*
X016423Y012481D01*
X016324Y012580D02*
X018269Y012580D01*
X018348Y012678D02*
X016226Y012678D01*
X016649Y012383D02*
X018608Y012383D01*
X018608Y012284D02*
X018708Y012284D01*
X018708Y012186D02*
X018608Y012186D01*
X018608Y012087D02*
X018708Y012087D01*
X018708Y011989D02*
X018608Y011989D01*
X019089Y012481D02*
X033355Y012481D01*
X033445Y012481D02*
X033920Y012481D01*
X033920Y012383D02*
X033740Y012383D01*
X033740Y012284D02*
X033920Y012284D01*
X033920Y012186D02*
X033740Y012186D01*
X033727Y012087D02*
X033937Y012087D01*
X033740Y012495D02*
X033740Y012770D01*
X033730Y012808D01*
X033710Y012842D01*
X033682Y012870D01*
X033648Y012890D01*
X033610Y012900D01*
X033445Y012900D01*
X033445Y012495D01*
X033740Y012495D01*
X033740Y012580D02*
X033920Y012580D01*
X033920Y012678D02*
X033740Y012678D01*
X033738Y012777D02*
X033920Y012777D01*
X033674Y012875D02*
X035812Y012875D01*
X035715Y012974D02*
X018816Y012974D01*
X018958Y013072D02*
X035674Y013072D01*
X035655Y013171D02*
X019026Y013171D01*
X019067Y013269D02*
X035655Y013269D01*
X035691Y013368D02*
X019068Y013368D01*
X019054Y013466D02*
X035700Y013466D01*
X035700Y013565D02*
X019013Y013565D01*
X018926Y013663D02*
X035700Y013663D01*
X035700Y013762D02*
X020268Y013762D01*
X020326Y013860D02*
X033327Y013860D01*
X033330Y013856D02*
X033479Y013795D01*
X033641Y013795D01*
X033790Y013856D01*
X033904Y013970D01*
X033965Y014119D01*
X033965Y014281D01*
X033920Y014390D01*
X033920Y014525D01*
X034317Y014525D01*
X034382Y014589D01*
X034382Y015311D01*
X034317Y015375D01*
X032651Y015375D01*
X032587Y015311D01*
X032587Y014589D01*
X032651Y014525D01*
X033200Y014525D01*
X033200Y014390D01*
X033155Y014281D01*
X033155Y014119D01*
X033216Y013970D01*
X033330Y013856D01*
X033228Y013959D02*
X020340Y013959D01*
X020319Y014057D02*
X033181Y014057D01*
X033155Y014156D02*
X020290Y014156D01*
X020290Y014254D02*
X033155Y014254D01*
X033185Y014353D02*
X020290Y014353D01*
X020290Y014451D02*
X033200Y014451D01*
X032627Y014550D02*
X020290Y014550D01*
X020290Y014648D02*
X032587Y014648D01*
X032587Y014747D02*
X020290Y014747D01*
X020290Y014845D02*
X032587Y014845D01*
X032587Y014944D02*
X020290Y014944D01*
X020290Y015042D02*
X032587Y015042D01*
X032587Y015141D02*
X020290Y015141D01*
X020290Y015239D02*
X032587Y015239D01*
X032614Y015338D02*
X020290Y015338D01*
X020290Y015436D02*
X035700Y015436D01*
X035700Y015535D02*
X020290Y015535D01*
X020290Y015633D02*
X035700Y015633D01*
X035700Y015732D02*
X020290Y015732D01*
X020290Y015830D02*
X035700Y015830D01*
X035700Y015929D02*
X020290Y015929D01*
X020290Y016027D02*
X035700Y016027D01*
X035700Y016126D02*
X020290Y016126D01*
X020290Y016224D02*
X035700Y016224D01*
X035700Y016323D02*
X020290Y016323D01*
X020290Y016421D02*
X035700Y016421D01*
X035700Y016520D02*
X020290Y016520D01*
X020290Y016618D02*
X035700Y016618D01*
X035700Y016717D02*
X020290Y016717D01*
X020290Y016815D02*
X035700Y016815D01*
X035700Y016914D02*
X020290Y016914D01*
X020290Y017012D02*
X034963Y017012D01*
X034888Y017043D02*
X035065Y016970D01*
X035256Y016970D01*
X035432Y017043D01*
X035567Y017178D01*
X035640Y017355D01*
X035640Y017545D01*
X035567Y017722D01*
X035432Y017857D01*
X035256Y017930D01*
X035065Y017930D01*
X034888Y017857D01*
X034753Y017722D01*
X034680Y017545D01*
X034680Y017355D01*
X034753Y017178D01*
X034888Y017043D01*
X034821Y017111D02*
X020290Y017111D01*
X020290Y017209D02*
X030710Y017209D01*
X030616Y017308D02*
X020290Y017308D01*
X020290Y017406D02*
X030580Y017406D01*
X030537Y017505D02*
X020290Y017505D01*
X020290Y017603D02*
X030438Y017603D01*
X030340Y017702D02*
X020290Y017702D01*
X020290Y017800D02*
X030241Y017800D01*
X030143Y017899D02*
X020290Y017899D01*
X020290Y017997D02*
X030044Y017997D01*
X029946Y018096D02*
X020290Y018096D01*
X020290Y018194D02*
X029847Y018194D01*
X029749Y018293D02*
X020290Y018293D01*
X020290Y018391D02*
X029650Y018391D01*
X029552Y018490D02*
X020290Y018490D01*
X020290Y018588D02*
X029453Y018588D01*
X029355Y018687D02*
X020290Y018687D01*
X020290Y018785D02*
X029256Y018785D01*
X029158Y018884D02*
X020290Y018884D01*
X020290Y018982D02*
X029059Y018982D01*
X028961Y019081D02*
X020290Y019081D01*
X020290Y019179D02*
X028862Y019179D01*
X028764Y019278D02*
X020290Y019278D01*
X020290Y019376D02*
X028665Y019376D01*
X028567Y019475D02*
X020290Y019475D01*
X020290Y019573D02*
X028468Y019573D01*
X028370Y019672D02*
X020290Y019672D01*
X020290Y019770D02*
X028271Y019770D01*
X028173Y019869D02*
X020290Y019869D01*
X020290Y019967D02*
X028074Y019967D01*
X027976Y020066D02*
X020290Y020066D01*
X020290Y020164D02*
X027877Y020164D01*
X027779Y020263D02*
X020290Y020263D01*
X020290Y020361D02*
X027680Y020361D01*
X027582Y020460D02*
X020290Y020460D01*
X020290Y020558D02*
X027483Y020558D01*
X027385Y020657D02*
X020290Y020657D01*
X020290Y020755D02*
X027286Y020755D01*
X027188Y020854D02*
X020290Y020854D01*
X020290Y020952D02*
X027089Y020952D01*
X026991Y021051D02*
X020290Y021051D01*
X020290Y021149D02*
X026892Y021149D01*
X026794Y021248D02*
X020290Y021248D01*
X020290Y021346D02*
X026695Y021346D01*
X026597Y021445D02*
X020290Y021445D01*
X020290Y021543D02*
X026498Y021543D01*
X026400Y021642D02*
X020290Y021642D01*
X020290Y021740D02*
X026301Y021740D01*
X026203Y021839D02*
X020290Y021839D01*
X020290Y021937D02*
X026104Y021937D01*
X026006Y022036D02*
X020290Y022036D01*
X020290Y022134D02*
X025907Y022134D01*
X025809Y022233D02*
X020290Y022233D01*
X020290Y022331D02*
X025710Y022331D01*
X025612Y022430D02*
X020290Y022430D01*
X020290Y022528D02*
X025513Y022528D01*
X025415Y022627D02*
X020290Y022627D01*
X020290Y022725D02*
X025316Y022725D01*
X025218Y022824D02*
X020290Y022824D01*
X020290Y022922D02*
X025119Y022922D01*
X025021Y023021D02*
X020290Y023021D01*
X020290Y023119D02*
X024922Y023119D01*
X024824Y023218D02*
X020290Y023218D01*
X020290Y023316D02*
X024725Y023316D01*
X024627Y023415D02*
X020290Y023415D01*
X020290Y023513D02*
X024528Y023513D01*
X024430Y023612D02*
X020290Y023612D01*
X020290Y023710D02*
X024331Y023710D01*
X024233Y023809D02*
X020290Y023809D01*
X020290Y023907D02*
X024134Y023907D01*
X024036Y024006D02*
X020290Y024006D01*
X020290Y024104D02*
X023937Y024104D01*
X023839Y024203D02*
X020290Y024203D01*
X020290Y024301D02*
X023740Y024301D01*
X023642Y024400D02*
X020290Y024400D01*
X020290Y024498D02*
X023543Y024498D01*
X023445Y024597D02*
X020290Y024597D01*
X020290Y024695D02*
X023346Y024695D01*
X023248Y024794D02*
X020290Y024794D01*
X020290Y024892D02*
X023149Y024892D01*
X023051Y024991D02*
X020290Y024991D01*
X020290Y025089D02*
X022952Y025089D01*
X022854Y025188D02*
X020290Y025188D01*
X020290Y025286D02*
X022755Y025286D01*
X022657Y025385D02*
X020290Y025385D01*
X020290Y025483D02*
X022558Y025483D01*
X022460Y025582D02*
X020290Y025582D01*
X020290Y025680D02*
X022361Y025680D01*
X022263Y025779D02*
X020290Y025779D01*
X020290Y025877D02*
X022164Y025877D01*
X022066Y025976D02*
X020290Y025976D01*
X020290Y026074D02*
X021967Y026074D01*
X021869Y026173D02*
X020290Y026173D01*
X020290Y026271D02*
X021770Y026271D01*
X021672Y026370D02*
X020290Y026370D01*
X020290Y026468D02*
X021573Y026468D01*
X021475Y026567D02*
X020290Y026567D01*
X020290Y026665D02*
X021376Y026665D01*
X021278Y026764D02*
X020290Y026764D01*
X020290Y026862D02*
X021179Y026862D01*
X021081Y026961D02*
X020290Y026961D01*
X020290Y027059D02*
X020982Y027059D01*
X020884Y027158D02*
X020290Y027158D01*
X020290Y027256D02*
X020785Y027256D01*
X020687Y027355D02*
X020290Y027355D01*
X020290Y027453D02*
X020588Y027453D01*
X020570Y027552D02*
X020290Y027552D01*
X020290Y027650D02*
X020570Y027650D01*
X020570Y027749D02*
X020290Y027749D01*
X020290Y027847D02*
X020570Y027847D01*
X020570Y027946D02*
X020290Y027946D01*
X020290Y028044D02*
X020570Y028044D01*
X020570Y028143D02*
X020290Y028143D01*
X020290Y028241D02*
X020570Y028241D01*
X020570Y028340D02*
X020290Y028340D01*
X020290Y028438D02*
X020570Y028438D01*
X020570Y028537D02*
X020290Y028537D01*
X020290Y028635D02*
X020570Y028635D01*
X020570Y028734D02*
X020290Y028734D01*
X020290Y028832D02*
X020570Y028832D01*
X020570Y028931D02*
X020290Y028931D01*
X020290Y029029D02*
X020570Y029029D01*
X020570Y029128D02*
X020290Y029128D01*
X020290Y029226D02*
X020570Y029226D01*
X020570Y029325D02*
X020290Y029325D01*
X020290Y029423D02*
X020570Y029423D01*
X020570Y029522D02*
X020290Y029522D01*
X020290Y029620D02*
X020570Y029620D01*
X020570Y029719D02*
X020290Y029719D01*
X020290Y029817D02*
X020570Y029817D01*
X020570Y029916D02*
X020290Y029916D01*
X020290Y030014D02*
X020570Y030014D01*
X020570Y030113D02*
X020223Y030113D01*
X020124Y030211D02*
X020480Y030211D01*
X020382Y030310D02*
X020026Y030310D01*
X019927Y030408D02*
X020283Y030408D01*
X020185Y030507D02*
X019829Y030507D01*
X019730Y030605D02*
X020086Y030605D01*
X019988Y030704D02*
X019632Y030704D01*
X019533Y030802D02*
X019889Y030802D01*
X019791Y030901D02*
X019435Y030901D01*
X019336Y030999D02*
X019692Y030999D01*
X019594Y031098D02*
X019238Y031098D01*
X019139Y031196D02*
X019495Y031196D01*
X019397Y031295D02*
X019041Y031295D01*
X018942Y031393D02*
X019298Y031393D01*
X019200Y031492D02*
X018844Y031492D01*
X018745Y031590D02*
X019101Y031590D01*
X019003Y031689D02*
X018647Y031689D01*
X018548Y031787D02*
X018904Y031787D01*
X018806Y031886D02*
X018450Y031886D01*
X018351Y031984D02*
X018707Y031984D01*
X018609Y032083D02*
X018253Y032083D01*
X018154Y032181D02*
X018510Y032181D01*
X018412Y032280D02*
X018056Y032280D01*
X017957Y032378D02*
X018313Y032378D01*
X018215Y032477D02*
X017859Y032477D01*
X017760Y032575D02*
X018116Y032575D01*
X018018Y032674D02*
X017662Y032674D01*
X017563Y032772D02*
X017919Y032772D01*
X017821Y032871D02*
X017465Y032871D01*
X017366Y032969D02*
X017722Y032969D01*
X017624Y033068D02*
X017268Y033068D01*
X017169Y033166D02*
X017525Y033166D01*
X017427Y033265D02*
X015044Y033265D01*
X014937Y033363D02*
X017328Y033363D01*
X017669Y033560D02*
X033901Y033560D01*
X033803Y033462D02*
X017767Y033462D01*
X017866Y033363D02*
X033704Y033363D01*
X033606Y033265D02*
X017964Y033265D01*
X018063Y033166D02*
X033507Y033166D01*
X033409Y033068D02*
X018161Y033068D01*
X018260Y032969D02*
X033310Y032969D01*
X033212Y032871D02*
X018358Y032871D01*
X018457Y032772D02*
X033113Y032772D01*
X033015Y032674D02*
X018555Y032674D01*
X018654Y032575D02*
X032916Y032575D01*
X032818Y032477D02*
X018752Y032477D01*
X018851Y032378D02*
X032719Y032378D01*
X032621Y032280D02*
X018949Y032280D01*
X019048Y032181D02*
X032522Y032181D01*
X032424Y032083D02*
X019146Y032083D01*
X019245Y031984D02*
X032325Y031984D01*
X032227Y031886D02*
X019343Y031886D01*
X019442Y031787D02*
X032128Y031787D01*
X032030Y031689D02*
X019540Y031689D01*
X019639Y031590D02*
X031931Y031590D01*
X031833Y031492D02*
X019737Y031492D01*
X019836Y031393D02*
X031734Y031393D01*
X031636Y031295D02*
X019934Y031295D01*
X020033Y031196D02*
X031537Y031196D01*
X031439Y031098D02*
X020131Y031098D01*
X020230Y030999D02*
X023380Y030999D01*
X023269Y030901D02*
X020328Y030901D01*
X020427Y030802D02*
X023230Y030802D01*
X023230Y030704D02*
X020525Y030704D01*
X020624Y030605D02*
X023267Y030605D01*
X023366Y030507D02*
X020722Y030507D01*
X020821Y030408D02*
X041860Y030408D01*
X041860Y030310D02*
X020919Y030310D01*
X020950Y030211D02*
X041860Y030211D01*
X041860Y030113D02*
X020950Y030113D01*
X019830Y029817D02*
X018989Y029817D01*
X019064Y029719D02*
X019830Y029719D01*
X019830Y029620D02*
X019090Y029620D01*
X019081Y029522D02*
X019830Y029522D01*
X019830Y029423D02*
X019029Y029423D01*
X018877Y029325D02*
X019830Y029325D01*
X019830Y029226D02*
X018705Y029226D01*
X018606Y029128D02*
X019830Y029128D01*
X019830Y029029D02*
X018508Y029029D01*
X018409Y028931D02*
X019830Y028931D01*
X019830Y028832D02*
X018311Y028832D01*
X018212Y028734D02*
X019830Y028734D01*
X019830Y028635D02*
X018114Y028635D01*
X018015Y028537D02*
X019830Y028537D01*
X019830Y028438D02*
X017917Y028438D01*
X017818Y028340D02*
X019830Y028340D01*
X019830Y028241D02*
X017720Y028241D01*
X017621Y028143D02*
X019830Y028143D01*
X019830Y028044D02*
X017523Y028044D01*
X017450Y027946D02*
X019830Y027946D01*
X019830Y027847D02*
X017450Y027847D01*
X017450Y027749D02*
X019830Y027749D01*
X019830Y027650D02*
X017450Y027650D01*
X017450Y027552D02*
X019830Y027552D01*
X019830Y027453D02*
X017450Y027453D01*
X017450Y027355D02*
X019830Y027355D01*
X019830Y027256D02*
X017450Y027256D01*
X017450Y027158D02*
X019830Y027158D01*
X019830Y027059D02*
X017450Y027059D01*
X017450Y026961D02*
X019830Y026961D01*
X019830Y026862D02*
X017450Y026862D01*
X017450Y026764D02*
X019830Y026764D01*
X019830Y026665D02*
X018924Y026665D01*
X018890Y026699D02*
X018739Y026762D01*
X018576Y026762D01*
X018425Y026699D01*
X018310Y026584D01*
X018248Y026433D01*
X018248Y026270D01*
X018310Y026119D01*
X018425Y026004D01*
X018576Y025942D01*
X018739Y025942D01*
X018890Y026004D01*
X019005Y026119D01*
X019068Y026270D01*
X019068Y026433D01*
X019005Y026584D01*
X018890Y026699D01*
X019012Y026567D02*
X019830Y026567D01*
X019830Y026468D02*
X019053Y026468D01*
X019068Y026370D02*
X019830Y026370D01*
X019830Y026271D02*
X019068Y026271D01*
X019027Y026173D02*
X019830Y026173D01*
X019830Y026074D02*
X018960Y026074D01*
X018821Y025976D02*
X019830Y025976D01*
X018494Y025976D02*
X017450Y025976D01*
X017450Y026074D02*
X018355Y026074D01*
X018288Y026173D02*
X017450Y026173D01*
X017450Y026271D02*
X018248Y026271D01*
X018248Y026370D02*
X017450Y026370D01*
X017450Y026468D02*
X018262Y026468D01*
X018303Y026567D02*
X017450Y026567D01*
X017450Y026665D02*
X018391Y026665D01*
X018350Y025680D02*
X017450Y025680D01*
X017450Y025582D02*
X018270Y025582D01*
X018227Y025483D02*
X017450Y025483D01*
X017070Y025483D02*
X016640Y025483D01*
X016640Y025545D02*
X016567Y025722D01*
X016432Y025857D01*
X016256Y025930D01*
X016065Y025930D01*
X015888Y025857D01*
X015753Y025722D01*
X015680Y025545D01*
X015680Y025355D01*
X015753Y025178D01*
X015888Y025043D01*
X016065Y024970D01*
X016256Y024970D01*
X016432Y025043D01*
X016567Y025178D01*
X016640Y025355D01*
X016640Y025545D01*
X016625Y025582D02*
X017070Y025582D01*
X017070Y025680D02*
X016584Y025680D01*
X016510Y025779D02*
X017070Y025779D01*
X017070Y025877D02*
X016383Y025877D01*
X016269Y025976D02*
X017070Y025976D01*
X017070Y026074D02*
X016463Y026074D01*
X016432Y026043D02*
X016567Y026178D01*
X016640Y026355D01*
X016640Y026545D01*
X016567Y026722D01*
X016432Y026857D01*
X016256Y026930D01*
X016065Y026930D01*
X015888Y026857D01*
X015753Y026722D01*
X015680Y026545D01*
X015680Y026355D01*
X015753Y026178D01*
X015888Y026043D01*
X016065Y025970D01*
X016256Y025970D01*
X016432Y026043D01*
X016561Y026173D02*
X017070Y026173D01*
X017070Y026271D02*
X016605Y026271D01*
X016640Y026370D02*
X017070Y026370D01*
X017070Y026468D02*
X016640Y026468D01*
X016631Y026567D02*
X017070Y026567D01*
X017070Y026665D02*
X016591Y026665D01*
X016525Y026764D02*
X017070Y026764D01*
X017070Y026862D02*
X016420Y026862D01*
X016432Y027043D02*
X016567Y027178D01*
X016640Y027355D01*
X017070Y027355D01*
X017070Y027453D02*
X016640Y027453D01*
X016640Y027545D02*
X016567Y027722D01*
X016432Y027857D01*
X016256Y027930D01*
X016065Y027930D01*
X015888Y027857D01*
X015753Y027722D01*
X015680Y027545D01*
X015680Y027355D01*
X015640Y027355D01*
X015680Y027355D02*
X015753Y027178D01*
X015888Y027043D01*
X016065Y026970D01*
X016256Y026970D01*
X016432Y027043D01*
X016448Y027059D02*
X017070Y027059D01*
X017070Y026961D02*
X015640Y026961D01*
X015640Y027059D02*
X015872Y027059D01*
X015774Y027158D02*
X015640Y027158D01*
X015640Y027256D02*
X015721Y027256D01*
X015680Y027453D02*
X015640Y027453D01*
X015640Y027552D02*
X015683Y027552D01*
X015723Y027650D02*
X015640Y027650D01*
X015640Y027749D02*
X015780Y027749D01*
X015878Y027847D02*
X015640Y027847D01*
X015640Y027946D02*
X017070Y027946D01*
X017070Y028044D02*
X016433Y028044D01*
X016432Y028043D02*
X016567Y028178D01*
X016640Y028355D01*
X016640Y028545D01*
X016567Y028722D01*
X016432Y028857D01*
X016256Y028930D01*
X016065Y028930D01*
X015888Y028857D01*
X015753Y028722D01*
X015680Y028545D01*
X015680Y028355D01*
X015753Y028178D01*
X015888Y028043D01*
X016065Y027970D01*
X016256Y027970D01*
X016432Y028043D01*
X016531Y028143D02*
X017084Y028143D01*
X017182Y028241D02*
X016593Y028241D01*
X016634Y028340D02*
X017281Y028340D01*
X017379Y028438D02*
X016640Y028438D01*
X016640Y028537D02*
X017478Y028537D01*
X017576Y028635D02*
X016603Y028635D01*
X016555Y028734D02*
X017675Y028734D01*
X017773Y028832D02*
X016457Y028832D01*
X016398Y029029D02*
X017970Y029029D01*
X017872Y028931D02*
X014905Y028931D01*
X014806Y029029D02*
X015922Y029029D01*
X015888Y029043D02*
X016065Y028970D01*
X016256Y028970D01*
X016432Y029043D01*
X016567Y029178D01*
X016640Y029355D01*
X016640Y029545D01*
X016567Y029722D01*
X016432Y029857D01*
X016256Y029930D01*
X016065Y029930D01*
X015888Y029857D01*
X015753Y029722D01*
X015680Y029545D01*
X015680Y029355D01*
X015753Y029178D01*
X015888Y029043D01*
X015804Y029128D02*
X014708Y029128D01*
X014609Y029226D02*
X015733Y029226D01*
X015692Y029325D02*
X014511Y029325D01*
X014412Y029423D02*
X015680Y029423D01*
X015680Y029522D02*
X014314Y029522D01*
X014215Y029620D02*
X015711Y029620D01*
X015752Y029719D02*
X014117Y029719D01*
X014018Y029817D02*
X015848Y029817D01*
X016030Y029916D02*
X013951Y029916D01*
X013892Y030014D02*
X019671Y030014D01*
X019769Y029916D02*
X016290Y029916D01*
X016472Y029817D02*
X018631Y029817D01*
X018556Y029719D02*
X016568Y029719D01*
X016609Y029620D02*
X018530Y029620D01*
X018463Y029522D02*
X016640Y029522D01*
X016640Y029423D02*
X018364Y029423D01*
X018266Y029325D02*
X016628Y029325D01*
X016587Y029226D02*
X018167Y029226D01*
X018069Y029128D02*
X016516Y029128D01*
X015863Y028832D02*
X015003Y028832D01*
X015102Y028734D02*
X015765Y028734D01*
X015717Y028635D02*
X015200Y028635D01*
X015299Y028537D02*
X015680Y028537D01*
X015680Y028438D02*
X015397Y028438D01*
X015496Y028340D02*
X015686Y028340D01*
X015727Y028241D02*
X015594Y028241D01*
X015640Y028143D02*
X015789Y028143D01*
X015887Y028044D02*
X015640Y028044D01*
X016442Y027847D02*
X017070Y027847D01*
X017070Y027749D02*
X016540Y027749D01*
X016597Y027650D02*
X017070Y027650D01*
X017070Y027552D02*
X016638Y027552D01*
X016640Y027545D02*
X016640Y027355D01*
X016599Y027256D02*
X017070Y027256D01*
X017070Y027158D02*
X016546Y027158D01*
X015901Y026862D02*
X015640Y026862D01*
X015640Y026764D02*
X015795Y026764D01*
X015730Y026665D02*
X015640Y026665D01*
X015640Y026567D02*
X015689Y026567D01*
X015680Y026468D02*
X015640Y026468D01*
X015640Y026370D02*
X015680Y026370D01*
X015715Y026271D02*
X015640Y026271D01*
X015640Y026173D02*
X015759Y026173D01*
X015857Y026074D02*
X015640Y026074D01*
X015640Y025976D02*
X016051Y025976D01*
X015937Y025877D02*
X015640Y025877D01*
X015640Y025779D02*
X015810Y025779D01*
X015736Y025680D02*
X015640Y025680D01*
X015640Y025582D02*
X015695Y025582D01*
X015680Y025483D02*
X015640Y025483D01*
X015640Y025385D02*
X015680Y025385D01*
X015708Y025286D02*
X015640Y025286D01*
X015640Y025188D02*
X015749Y025188D01*
X015842Y025089D02*
X015640Y025089D01*
X015640Y024991D02*
X016015Y024991D01*
X016065Y024930D02*
X015888Y024857D01*
X015753Y024722D01*
X015680Y024545D01*
X015680Y024355D01*
X015753Y024178D01*
X015888Y024043D01*
X016065Y023970D01*
X016256Y023970D01*
X016432Y024043D01*
X016567Y024178D01*
X016640Y024355D01*
X016640Y024545D01*
X016567Y024722D01*
X016432Y024857D01*
X016256Y024930D01*
X016065Y024930D01*
X015973Y024892D02*
X015640Y024892D01*
X015640Y024794D02*
X015825Y024794D01*
X015742Y024695D02*
X015640Y024695D01*
X015640Y024597D02*
X015701Y024597D01*
X015680Y024498D02*
X015640Y024498D01*
X015640Y024400D02*
X015680Y024400D01*
X015702Y024301D02*
X015640Y024301D01*
X015640Y024203D02*
X015743Y024203D01*
X015731Y024104D02*
X015827Y024104D01*
X015830Y024006D02*
X015979Y024006D01*
X016009Y023907D02*
X015928Y023907D01*
X016311Y023907D02*
X017070Y023907D01*
X017070Y023809D02*
X016480Y023809D01*
X016572Y023710D02*
X017070Y023710D01*
X017070Y023612D02*
X016613Y023612D01*
X016640Y023513D02*
X017070Y023513D01*
X017070Y023415D02*
X016640Y023415D01*
X016624Y023316D02*
X017070Y023316D01*
X017070Y023218D02*
X016583Y023218D01*
X016508Y023119D02*
X017070Y023119D01*
X017062Y023021D02*
X016378Y023021D01*
X016275Y022922D02*
X016963Y022922D01*
X016865Y022824D02*
X016465Y022824D01*
X016564Y022725D02*
X016766Y022725D01*
X017070Y024006D02*
X016341Y024006D01*
X016493Y024104D02*
X017070Y024104D01*
X017070Y024203D02*
X016577Y024203D01*
X016618Y024301D02*
X017070Y024301D01*
X017070Y024400D02*
X016640Y024400D01*
X016640Y024498D02*
X017070Y024498D01*
X017070Y024597D02*
X016619Y024597D01*
X016578Y024695D02*
X017070Y024695D01*
X017070Y024794D02*
X016495Y024794D01*
X016347Y024892D02*
X017070Y024892D01*
X017070Y024991D02*
X016305Y024991D01*
X016478Y025089D02*
X017070Y025089D01*
X017070Y025188D02*
X016571Y025188D01*
X016612Y025286D02*
X017070Y025286D01*
X017070Y025385D02*
X016640Y025385D01*
X018524Y021740D02*
X008626Y021740D01*
X008780Y021821D02*
X008780Y021821D01*
X008800Y021839D02*
X019830Y021839D01*
X019830Y021937D02*
X008911Y021937D01*
X008438Y021642D02*
X018368Y021642D01*
X018293Y021543D02*
X008251Y021543D01*
X007877Y021445D02*
X018252Y021445D01*
X015794Y020263D02*
X015268Y020263D01*
X015326Y020164D02*
X015729Y020164D01*
X015688Y020066D02*
X015340Y020066D01*
X015318Y019967D02*
X015680Y019967D01*
X015680Y019869D02*
X015250Y019869D01*
X015024Y019770D02*
X015715Y019770D01*
X015760Y019672D02*
X014925Y019672D01*
X015004Y019475D02*
X016054Y019475D01*
X018062Y016717D02*
X018467Y016717D01*
X018576Y015762D02*
X018425Y015699D01*
X018310Y015584D01*
X018248Y015433D01*
X018248Y015270D01*
X018310Y015119D01*
X018425Y015004D01*
X018576Y014942D01*
X018739Y014942D01*
X018890Y015004D01*
X019005Y015119D01*
X019068Y015270D01*
X019068Y015433D01*
X019005Y015584D01*
X018890Y015699D01*
X018739Y015762D01*
X018576Y015762D01*
X018504Y015732D02*
X017750Y015732D01*
X017750Y015830D02*
X019830Y015830D01*
X019830Y015732D02*
X018812Y015732D01*
X018956Y015633D02*
X019830Y015633D01*
X019830Y015535D02*
X019026Y015535D01*
X019066Y015436D02*
X019830Y015436D01*
X019830Y015338D02*
X019068Y015338D01*
X019055Y015239D02*
X019830Y015239D01*
X019830Y015141D02*
X019014Y015141D01*
X018928Y015042D02*
X019830Y015042D01*
X019830Y014944D02*
X018744Y014944D01*
X018571Y014944D02*
X018334Y014944D01*
X018387Y015042D02*
X018236Y015042D01*
X018301Y015141D02*
X018137Y015141D01*
X018039Y015239D02*
X018261Y015239D01*
X018248Y015338D02*
X017940Y015338D01*
X017842Y015436D02*
X018249Y015436D01*
X018290Y015535D02*
X017750Y015535D01*
X017750Y015633D02*
X018359Y015633D01*
X017797Y014944D02*
X016640Y014944D01*
X016640Y015042D02*
X017699Y015042D01*
X017600Y015141D02*
X016601Y015141D01*
X016550Y015239D02*
X017502Y015239D01*
X017403Y015338D02*
X016451Y015338D01*
X015909Y015535D02*
X014913Y015535D01*
X015191Y015338D02*
X015869Y015338D01*
X015770Y015239D02*
X015290Y015239D01*
X015388Y015141D02*
X015719Y015141D01*
X015680Y015042D02*
X015487Y015042D01*
X015585Y014944D02*
X015680Y014944D01*
X015750Y014648D02*
X015783Y014648D01*
X015750Y014550D02*
X015882Y014550D01*
X015750Y014451D02*
X018255Y014451D01*
X018248Y014353D02*
X016436Y014353D01*
X016535Y014254D02*
X018254Y014254D01*
X018295Y014156D02*
X016594Y014156D01*
X016635Y014057D02*
X018372Y014057D01*
X018535Y013959D02*
X016640Y013959D01*
X016640Y013860D02*
X019794Y013860D01*
X019780Y013959D02*
X018780Y013959D01*
X018943Y014057D02*
X019801Y014057D01*
X019830Y014156D02*
X019020Y014156D01*
X019061Y014254D02*
X019830Y014254D01*
X019830Y014353D02*
X019068Y014353D01*
X019060Y014451D02*
X019830Y014451D01*
X019830Y014550D02*
X019019Y014550D01*
X018941Y014648D02*
X019830Y014648D01*
X019830Y014747D02*
X018776Y014747D01*
X018540Y014747D02*
X018531Y014747D01*
X018433Y014845D02*
X019830Y014845D01*
X019853Y013762D02*
X018739Y013762D01*
X018576Y013762D02*
X016602Y013762D01*
X016552Y013663D02*
X018389Y013663D01*
X018302Y013565D02*
X016453Y013565D01*
X015867Y013565D02*
X015750Y013565D01*
X015750Y013663D02*
X015768Y013663D01*
X015750Y013466D02*
X018261Y013466D01*
X018248Y013368D02*
X015750Y013368D01*
X015750Y013269D02*
X018248Y013269D01*
X018968Y012678D02*
X033060Y012678D01*
X033060Y012580D02*
X019047Y012580D01*
X018191Y014550D02*
X016438Y014550D01*
X016537Y014648D02*
X018093Y014648D01*
X017994Y014747D02*
X016595Y014747D01*
X016636Y014845D02*
X017896Y014845D01*
X015884Y014353D02*
X015750Y014353D01*
X015750Y014254D02*
X015785Y014254D01*
X006743Y021445D02*
X002500Y021445D01*
X002500Y021543D02*
X006370Y021543D01*
X006393Y021531D02*
X006393Y021531D01*
X006182Y021642D02*
X002500Y021642D01*
X002500Y021740D02*
X005994Y021740D01*
X005820Y021839D02*
X002500Y021839D01*
X002500Y021937D02*
X005709Y021937D01*
X005598Y022036D02*
X002500Y022036D01*
X002500Y022134D02*
X005487Y022134D01*
X005376Y022233D02*
X002500Y022233D01*
X002500Y022331D02*
X005307Y022331D01*
X005373Y022234D02*
X005373Y022234D01*
X005239Y022430D02*
X002500Y022430D01*
X002500Y022528D02*
X005171Y022528D01*
X005103Y022627D02*
X002500Y022627D01*
X002500Y022725D02*
X005035Y022725D01*
X005019Y022748D02*
X005019Y022748D01*
X004990Y022824D02*
X002500Y022824D01*
X002500Y022922D02*
X004953Y022922D01*
X004916Y023021D02*
X002500Y023021D01*
X002500Y023119D02*
X004878Y023119D01*
X004841Y023218D02*
X002500Y023218D01*
X002500Y023316D02*
X004804Y023316D01*
X004788Y023415D02*
X002500Y023415D01*
X002500Y023513D02*
X004776Y023513D01*
X004764Y023612D02*
X002500Y023612D01*
X002500Y023710D02*
X004752Y023710D01*
X004740Y023809D02*
X002500Y023809D01*
X002500Y023907D02*
X004728Y023907D01*
X004730Y024006D02*
X002500Y024006D01*
X002500Y024104D02*
X004742Y024104D01*
X004753Y024203D02*
X002500Y024203D01*
X002500Y024301D02*
X004765Y024301D01*
X004777Y024400D02*
X002500Y024400D01*
X002500Y024498D02*
X004789Y024498D01*
X004808Y024597D02*
X002500Y024597D01*
X002500Y024695D02*
X004846Y024695D01*
X004883Y024794D02*
X002500Y024794D01*
X002500Y024892D02*
X004920Y024892D01*
X004958Y024991D02*
X002500Y024991D01*
X002500Y025089D02*
X004995Y025089D01*
X005019Y025152D02*
X005019Y025152D01*
X005043Y025188D02*
X002500Y025188D01*
X002500Y025286D02*
X005111Y025286D01*
X005179Y025385D02*
X002500Y025385D01*
X002500Y025483D02*
X005247Y025483D01*
X005315Y025582D02*
X002500Y025582D01*
X002500Y025680D02*
X005390Y025680D01*
X005501Y025779D02*
X002500Y025779D01*
X002500Y025877D02*
X005612Y025877D01*
X005723Y025976D02*
X002500Y025976D01*
X002500Y026074D02*
X005834Y026074D01*
X005840Y026079D02*
X005840Y026079D01*
X006018Y026173D02*
X002500Y026173D01*
X002500Y026271D02*
X006206Y026271D01*
X006395Y026370D02*
X002500Y026370D01*
X002500Y026468D02*
X006794Y026468D01*
X002500Y030113D02*
X019572Y030113D01*
X019474Y030211D02*
X002500Y030211D01*
X002500Y030310D02*
X019375Y030310D01*
X019277Y030408D02*
X002500Y030408D01*
X002500Y030507D02*
X019178Y030507D01*
X019080Y030605D02*
X002500Y030605D01*
X002500Y030704D02*
X018981Y030704D01*
X018883Y030802D02*
X002500Y030802D01*
X002500Y030901D02*
X018784Y030901D01*
X018686Y030999D02*
X002500Y030999D01*
X002500Y031492D02*
X006843Y031492D01*
X006736Y031590D02*
X002500Y031590D01*
X002500Y031689D02*
X006638Y031689D01*
X006569Y031787D02*
X002500Y031787D01*
X002500Y031886D02*
X006528Y031886D01*
X006487Y031984D02*
X002500Y031984D01*
X002500Y032083D02*
X006460Y032083D01*
X006460Y032181D02*
X002500Y032181D01*
X002500Y032280D02*
X006460Y032280D01*
X006460Y032378D02*
X002500Y032378D01*
X002500Y032477D02*
X006498Y032477D01*
X006538Y032575D02*
X002500Y032575D01*
X002500Y032674D02*
X006579Y032674D01*
X006663Y032772D02*
X002500Y032772D01*
X002500Y032871D02*
X006761Y032871D01*
X006904Y032969D02*
X002500Y032969D01*
X002500Y036811D02*
X004676Y036811D01*
X004597Y036832D02*
X004902Y036750D01*
X005218Y036750D01*
X005523Y036832D01*
X005797Y036990D01*
X006020Y037213D01*
X006178Y037487D01*
X006260Y037792D01*
X006260Y038108D01*
X006178Y038413D01*
X006020Y038687D01*
X005797Y038910D01*
X005523Y039068D01*
X005218Y039150D01*
X004902Y039150D01*
X004597Y039068D01*
X004323Y038910D01*
X004100Y038687D01*
X003942Y038413D01*
X003860Y038108D01*
X003860Y037792D01*
X003942Y037487D01*
X004100Y037213D01*
X004323Y036990D01*
X004597Y036832D01*
X004463Y036909D02*
X002500Y036909D01*
X002500Y037008D02*
X004305Y037008D01*
X004207Y037106D02*
X002500Y037106D01*
X002500Y037205D02*
X004108Y037205D01*
X004048Y037303D02*
X002500Y037303D01*
X002500Y037402D02*
X003991Y037402D01*
X003938Y037500D02*
X002500Y037500D01*
X002500Y037599D02*
X003912Y037599D01*
X003885Y037697D02*
X002500Y037697D01*
X002500Y037796D02*
X003860Y037796D01*
X003860Y037894D02*
X002500Y037894D01*
X002500Y037993D02*
X003860Y037993D01*
X003860Y038091D02*
X002500Y038091D01*
X002500Y038190D02*
X003882Y038190D01*
X003908Y038288D02*
X002519Y038288D01*
X002617Y038387D02*
X003935Y038387D01*
X003983Y038485D02*
X002716Y038485D01*
X002814Y038584D02*
X004040Y038584D01*
X004097Y038682D02*
X002913Y038682D01*
X003011Y038781D02*
X004194Y038781D01*
X004292Y038879D02*
X003110Y038879D01*
X003208Y038978D02*
X004440Y038978D01*
X004626Y039076D02*
X003307Y039076D01*
X003405Y039175D02*
X014567Y039175D01*
X014468Y039273D02*
X003504Y039273D01*
X003602Y039372D02*
X014370Y039372D01*
X014271Y039470D02*
X003701Y039470D01*
X005494Y039076D02*
X014665Y039076D01*
X014764Y038978D02*
X005680Y038978D01*
X005828Y038879D02*
X014862Y038879D01*
X014961Y038781D02*
X005927Y038781D01*
X006023Y038682D02*
X015059Y038682D01*
X015158Y038584D02*
X013563Y038584D01*
X013476Y038620D02*
X013652Y038547D01*
X013787Y038412D01*
X013860Y038235D01*
X013860Y038045D01*
X013787Y037868D01*
X013652Y037733D01*
X013476Y037660D01*
X013285Y037660D01*
X013108Y037733D01*
X012973Y037868D01*
X012900Y038045D01*
X012900Y038235D01*
X012973Y038412D01*
X013108Y038547D01*
X013285Y038620D01*
X013476Y038620D01*
X013714Y038485D02*
X015256Y038485D01*
X015355Y038387D02*
X013797Y038387D01*
X013838Y038288D02*
X015453Y038288D01*
X015460Y038190D02*
X013860Y038190D01*
X013860Y038091D02*
X015460Y038091D01*
X015482Y037993D02*
X013839Y037993D01*
X013798Y037894D02*
X015522Y037894D01*
X015606Y037796D02*
X013714Y037796D01*
X013565Y037697D02*
X015755Y037697D01*
X016399Y037993D02*
X018436Y037993D01*
X018508Y037963D02*
X018807Y037963D01*
X019083Y038077D01*
X019294Y038288D01*
X030226Y038288D01*
X030437Y038077D01*
X030713Y037963D01*
X031012Y037963D01*
X031288Y038077D01*
X031499Y038288D01*
X037908Y038288D01*
X037882Y038190D02*
X031401Y038190D01*
X031499Y038288D02*
X031614Y038564D01*
X031614Y038863D01*
X031499Y039139D01*
X031288Y039351D01*
X031012Y039465D01*
X030713Y039465D01*
X030437Y039351D01*
X030226Y039139D01*
X030111Y038863D01*
X030111Y038564D01*
X030226Y038288D01*
X030185Y038387D02*
X019335Y038387D01*
X019376Y038485D02*
X030144Y038485D01*
X030111Y038584D02*
X019409Y038584D01*
X019409Y038564D02*
X019294Y038288D01*
X019196Y038190D02*
X030324Y038190D01*
X030423Y038091D02*
X019097Y038091D01*
X018879Y037993D02*
X030641Y037993D01*
X031084Y037993D02*
X037860Y037993D01*
X037860Y038091D02*
X031302Y038091D01*
X031540Y038387D02*
X037935Y038387D01*
X037942Y038413D02*
X037860Y038108D01*
X037860Y037792D01*
X037942Y037487D01*
X038100Y037213D01*
X038323Y036990D01*
X038597Y036832D01*
X038902Y036750D01*
X039218Y036750D01*
X039523Y036832D01*
X039797Y036990D01*
X040020Y037213D01*
X040178Y037487D01*
X040260Y037792D01*
X040260Y038108D01*
X040178Y038413D01*
X040020Y038687D01*
X039797Y038910D01*
X039523Y039068D01*
X039218Y039150D01*
X038902Y039150D01*
X038597Y039068D01*
X038323Y038910D01*
X038100Y038687D01*
X037942Y038413D01*
X037983Y038485D02*
X031581Y038485D01*
X031614Y038584D02*
X038040Y038584D01*
X038097Y038682D02*
X031614Y038682D01*
X031614Y038781D02*
X038194Y038781D01*
X038292Y038879D02*
X031607Y038879D01*
X031566Y038978D02*
X038440Y038978D01*
X038626Y039076D02*
X031525Y039076D01*
X031464Y039175D02*
X041053Y039175D01*
X040954Y039273D02*
X031365Y039273D01*
X031237Y039372D02*
X040856Y039372D01*
X040757Y039470D02*
X014809Y039470D01*
X014907Y039372D02*
X018283Y039372D01*
X018232Y039351D02*
X018021Y039139D01*
X017906Y038863D01*
X017906Y038564D01*
X018021Y038288D01*
X016398Y038288D01*
X016420Y038190D02*
X018120Y038190D01*
X018218Y038091D02*
X016420Y038091D01*
X016455Y037894D02*
X037860Y037894D01*
X037860Y037796D02*
X016553Y037796D01*
X016652Y037697D02*
X037885Y037697D01*
X037912Y037599D02*
X016750Y037599D01*
X016849Y037500D02*
X037938Y037500D01*
X037991Y037402D02*
X016947Y037402D01*
X017046Y037303D02*
X038048Y037303D01*
X038108Y037205D02*
X017144Y037205D01*
X017243Y037106D02*
X038207Y037106D01*
X038305Y037008D02*
X017341Y037008D01*
X017440Y036909D02*
X038463Y036909D01*
X038676Y036811D02*
X017500Y036811D01*
X017500Y036712D02*
X041860Y036712D01*
X041860Y036614D02*
X017500Y036614D01*
X017500Y036515D02*
X041860Y036515D01*
X041860Y036417D02*
X040221Y036417D01*
X040393Y036318D02*
X041860Y036318D01*
X041860Y036220D02*
X040492Y036220D01*
X040536Y036121D02*
X041860Y036121D01*
X041860Y036023D02*
X040577Y036023D01*
X040579Y035924D02*
X041860Y035924D01*
X041860Y035826D02*
X040579Y035826D01*
X040547Y035727D02*
X041860Y035727D01*
X041860Y035629D02*
X040507Y035629D01*
X040420Y035530D02*
X041860Y035530D01*
X041860Y035432D02*
X040286Y035432D01*
X039816Y035333D02*
X041860Y035333D01*
X041860Y035235D02*
X039735Y035235D01*
X039654Y035136D02*
X041860Y035136D01*
X041860Y035038D02*
X039573Y035038D01*
X039492Y034939D02*
X041860Y034939D01*
X041860Y034841D02*
X039414Y034841D01*
X039243Y035235D02*
X036255Y035235D01*
X036253Y035333D02*
X039324Y035333D01*
X039405Y035432D02*
X038317Y035432D01*
X038379Y035457D02*
X038529Y035608D01*
X038611Y035804D01*
X038611Y036017D01*
X038529Y036214D01*
X038379Y036364D01*
X038182Y036446D01*
X037969Y036446D01*
X037773Y036364D01*
X037622Y036214D01*
X037541Y036017D01*
X037541Y035804D01*
X037622Y035608D01*
X037773Y035457D01*
X037969Y035376D01*
X038182Y035376D01*
X038379Y035457D01*
X038452Y035530D02*
X039486Y035530D01*
X039567Y035629D02*
X038538Y035629D01*
X038579Y035727D02*
X039541Y035727D01*
X039509Y035826D02*
X038611Y035826D01*
X038611Y035924D02*
X039509Y035924D01*
X039512Y036023D02*
X038608Y036023D01*
X038568Y036121D02*
X039552Y036121D01*
X039597Y036220D02*
X038523Y036220D01*
X038425Y036318D02*
X039695Y036318D01*
X039868Y036417D02*
X038252Y036417D01*
X037899Y036417D02*
X017500Y036417D01*
X017500Y036318D02*
X037727Y036318D01*
X037628Y036220D02*
X017500Y036220D01*
X017500Y036121D02*
X037584Y036121D01*
X037543Y036023D02*
X036285Y036023D01*
X036265Y036057D01*
X036237Y036085D01*
X036203Y036105D01*
X036165Y036115D01*
X035973Y036115D01*
X035973Y035828D01*
X035898Y035828D01*
X035898Y036115D01*
X035705Y036115D01*
X035667Y036105D01*
X035633Y036085D01*
X035605Y036057D01*
X035585Y036023D01*
X035575Y035985D01*
X035575Y035828D01*
X035898Y035828D01*
X035898Y035752D01*
X035973Y035752D01*
X035973Y035465D01*
X036165Y035465D01*
X036203Y035475D01*
X036237Y035495D01*
X036265Y035523D01*
X036285Y035557D01*
X036295Y035595D01*
X036295Y035752D01*
X035973Y035752D01*
X035973Y035828D01*
X036295Y035828D01*
X036295Y035985D01*
X036285Y036023D01*
X036295Y035924D02*
X037541Y035924D01*
X037541Y035826D02*
X035973Y035826D01*
X035898Y035826D02*
X017500Y035826D01*
X017500Y035924D02*
X035575Y035924D01*
X035585Y036023D02*
X017500Y036023D01*
X017500Y035727D02*
X035575Y035727D01*
X035575Y035752D02*
X035575Y035595D01*
X035585Y035557D01*
X035605Y035523D01*
X035633Y035495D01*
X035667Y035475D01*
X035705Y035465D01*
X035898Y035465D01*
X035898Y035752D01*
X035575Y035752D01*
X035575Y035629D02*
X017500Y035629D01*
X017500Y035530D02*
X035601Y035530D01*
X035618Y035333D02*
X017500Y035333D01*
X017500Y035235D02*
X035615Y035235D01*
X035477Y035136D02*
X017520Y035136D01*
X017500Y035432D02*
X037834Y035432D01*
X037700Y035530D02*
X036269Y035530D01*
X036295Y035629D02*
X037614Y035629D01*
X037573Y035727D02*
X036295Y035727D01*
X035973Y035727D02*
X035898Y035727D01*
X035898Y035629D02*
X035973Y035629D01*
X035973Y035530D02*
X035898Y035530D01*
X035898Y035924D02*
X035973Y035924D01*
X035973Y036023D02*
X035898Y036023D01*
X034098Y033757D02*
X017569Y033757D01*
X017590Y033659D02*
X034000Y033659D01*
X032370Y031492D02*
X037890Y031492D01*
X037723Y031393D02*
X032272Y031393D01*
X032173Y031295D02*
X037624Y031295D01*
X037582Y031196D02*
X032075Y031196D01*
X031976Y031098D02*
X037542Y031098D01*
X037541Y030999D02*
X031878Y030999D01*
X031779Y030901D02*
X037541Y030901D01*
X037574Y030802D02*
X031681Y030802D01*
X031582Y030704D02*
X037615Y030704D01*
X037703Y030605D02*
X031484Y030605D01*
X031340Y030999D02*
X023640Y030999D01*
X023654Y030507D02*
X037843Y030507D01*
X040277Y030507D02*
X041860Y030507D01*
X041860Y030605D02*
X040417Y030605D01*
X040505Y030704D02*
X041860Y030704D01*
X041860Y030802D02*
X040546Y030802D01*
X040579Y030901D02*
X041860Y030901D01*
X041860Y030999D02*
X040579Y030999D01*
X040579Y031098D02*
X041860Y031098D01*
X041860Y031196D02*
X040538Y031196D01*
X040496Y031295D02*
X041860Y031295D01*
X041860Y031393D02*
X040397Y031393D01*
X040371Y027453D02*
X041860Y027453D01*
X041860Y027355D02*
X040554Y027355D01*
X040652Y027256D02*
X041860Y027256D01*
X041860Y027158D02*
X040744Y027158D01*
X040785Y027059D02*
X041860Y027059D01*
X041860Y026961D02*
X040826Y026961D01*
X040862Y026862D02*
X041860Y026862D01*
X041860Y026764D02*
X040862Y026764D01*
X040862Y026665D02*
X041860Y026665D01*
X041860Y026567D02*
X040862Y026567D01*
X040826Y026468D02*
X041860Y026468D01*
X041860Y026370D02*
X040786Y026370D01*
X040745Y026271D02*
X041860Y026271D01*
X041860Y026173D02*
X040653Y026173D01*
X040555Y026074D02*
X041860Y026074D01*
X041860Y025976D02*
X040374Y025976D01*
X040374Y025877D02*
X041860Y025877D01*
X041860Y025779D02*
X040555Y025779D01*
X040653Y025680D02*
X041860Y025680D01*
X041860Y025582D02*
X040745Y025582D01*
X040786Y025483D02*
X041860Y025483D01*
X041860Y025385D02*
X040827Y025385D01*
X040862Y025286D02*
X041860Y025286D01*
X041860Y025188D02*
X040862Y025188D01*
X040862Y025089D02*
X041860Y025089D01*
X041860Y024991D02*
X040862Y024991D01*
X040826Y024892D02*
X041860Y024892D01*
X041860Y024794D02*
X040785Y024794D01*
X040744Y024695D02*
X041860Y024695D01*
X041860Y024597D02*
X040652Y024597D01*
X040553Y024498D02*
X041860Y024498D01*
X041860Y024400D02*
X040797Y024400D01*
X040895Y024301D02*
X041860Y024301D01*
X041860Y024203D02*
X040902Y024203D01*
X040902Y024104D02*
X041860Y024104D01*
X041860Y024006D02*
X040902Y024006D01*
X040902Y023907D02*
X041860Y023907D01*
X041860Y023809D02*
X040902Y023809D01*
X040902Y023710D02*
X041860Y023710D01*
X041860Y023612D02*
X040110Y023612D01*
X040902Y023513D02*
X041860Y023513D01*
X041860Y023415D02*
X040902Y023415D01*
X040902Y023316D02*
X041860Y023316D01*
X041860Y023218D02*
X040902Y023218D01*
X040902Y023119D02*
X041860Y023119D01*
X041860Y023021D02*
X040902Y023021D01*
X040902Y022922D02*
X041860Y022922D01*
X041860Y022824D02*
X040894Y022824D01*
X035700Y019376D02*
X035675Y019376D01*
X035651Y019278D02*
X035700Y019278D01*
X035700Y019179D02*
X035606Y019179D01*
X035526Y019081D02*
X035700Y019081D01*
X035700Y018982D02*
X035387Y018982D01*
X035368Y018884D02*
X035700Y018884D01*
X035700Y018785D02*
X035504Y018785D01*
X035567Y018722D02*
X035432Y018857D01*
X035256Y018930D01*
X035065Y018930D01*
X034888Y018857D01*
X034753Y018722D01*
X034680Y018545D01*
X034680Y018355D01*
X034753Y018178D01*
X034888Y018043D01*
X035065Y017970D01*
X035256Y017970D01*
X035432Y018043D01*
X035567Y018178D01*
X035640Y018355D01*
X035640Y018545D01*
X035567Y018722D01*
X035582Y018687D02*
X035700Y018687D01*
X035700Y018588D02*
X035622Y018588D01*
X035640Y018490D02*
X035700Y018490D01*
X035700Y018391D02*
X035640Y018391D01*
X035614Y018293D02*
X035700Y018293D01*
X035700Y018194D02*
X035574Y018194D01*
X035484Y018096D02*
X035700Y018096D01*
X035700Y017997D02*
X035321Y017997D01*
X035332Y017899D02*
X035700Y017899D01*
X035700Y017800D02*
X035489Y017800D01*
X035575Y017702D02*
X035700Y017702D01*
X035700Y017603D02*
X035616Y017603D01*
X035640Y017505D02*
X035700Y017505D01*
X035700Y017406D02*
X035640Y017406D01*
X035621Y017308D02*
X035700Y017308D01*
X035700Y017209D02*
X035580Y017209D01*
X035499Y017111D02*
X035700Y017111D01*
X035700Y017012D02*
X035357Y017012D01*
X034740Y017209D02*
X031010Y017209D01*
X031104Y017308D02*
X034700Y017308D01*
X034680Y017406D02*
X031140Y017406D01*
X031140Y017505D02*
X034680Y017505D01*
X034704Y017603D02*
X031100Y017603D01*
X030984Y017702D02*
X034745Y017702D01*
X034831Y017800D02*
X030779Y017800D01*
X030680Y017899D02*
X034989Y017899D01*
X034999Y017997D02*
X030582Y017997D01*
X030483Y018096D02*
X034836Y018096D01*
X034747Y018194D02*
X030385Y018194D01*
X030286Y018293D02*
X034706Y018293D01*
X034680Y018391D02*
X030188Y018391D01*
X030089Y018490D02*
X034680Y018490D01*
X034698Y018588D02*
X029991Y018588D01*
X029892Y018687D02*
X034738Y018687D01*
X034816Y018785D02*
X029794Y018785D01*
X029695Y018884D02*
X034952Y018884D01*
X034933Y018982D02*
X029597Y018982D01*
X029498Y019081D02*
X034794Y019081D01*
X034714Y019179D02*
X029400Y019179D01*
X029301Y019278D02*
X034669Y019278D01*
X034645Y019376D02*
X029203Y019376D01*
X034355Y015338D02*
X035015Y015338D01*
X034988Y015239D02*
X034382Y015239D01*
X034382Y015141D02*
X034988Y015141D01*
X034988Y015042D02*
X034382Y015042D01*
X034382Y014944D02*
X034988Y014944D01*
X034988Y014845D02*
X034382Y014845D01*
X034382Y014747D02*
X034988Y014747D01*
X034988Y014648D02*
X034382Y014648D01*
X034342Y014550D02*
X035028Y014550D01*
X035700Y014451D02*
X033920Y014451D01*
X033936Y014353D02*
X035700Y014353D01*
X035700Y014254D02*
X033965Y014254D01*
X033965Y014156D02*
X035700Y014156D01*
X035700Y014057D02*
X033939Y014057D01*
X033892Y013959D02*
X035700Y013959D01*
X035700Y013860D02*
X033793Y013860D01*
X033445Y012875D02*
X033355Y012875D01*
X033355Y012777D02*
X033445Y012777D01*
X033445Y012678D02*
X033355Y012678D01*
X033355Y012580D02*
X033445Y012580D01*
X033445Y012383D02*
X033355Y012383D01*
X033355Y012284D02*
X033445Y012284D01*
X033445Y012186D02*
X033355Y012186D01*
X033355Y012087D02*
X033445Y012087D01*
X035390Y010511D02*
X036352Y010511D01*
X036254Y010413D02*
X035291Y010413D01*
X035193Y010314D02*
X036155Y010314D01*
X036057Y010216D02*
X035094Y010216D01*
X034996Y010117D02*
X035958Y010117D01*
X035860Y010019D02*
X034897Y010019D01*
X035443Y009723D02*
X031388Y009723D01*
X031486Y009625D02*
X035405Y009625D01*
X035405Y009526D02*
X031535Y009526D01*
X031576Y009428D02*
X035443Y009428D01*
X035547Y009329D02*
X031614Y009329D01*
X031614Y009231D02*
X038090Y009231D01*
X038100Y009213D02*
X038323Y008990D01*
X038597Y008832D01*
X038902Y008750D01*
X039218Y008750D01*
X039523Y008832D01*
X039797Y008990D01*
X040020Y009213D01*
X040178Y009487D01*
X040260Y009792D01*
X040260Y010108D01*
X040178Y010413D01*
X040020Y010687D01*
X039797Y010910D01*
X039523Y011068D01*
X039218Y011150D01*
X038902Y011150D01*
X038597Y011068D01*
X038323Y010910D01*
X038100Y010687D01*
X037942Y010413D01*
X037860Y010108D01*
X037860Y009792D01*
X037942Y009487D01*
X038100Y009213D01*
X038181Y009132D02*
X031614Y009132D01*
X031612Y009034D02*
X038279Y009034D01*
X038418Y008935D02*
X031571Y008935D01*
X031531Y008837D02*
X038589Y008837D01*
X038033Y009329D02*
X035823Y009329D01*
X035927Y009428D02*
X037976Y009428D01*
X037931Y009526D02*
X035965Y009526D01*
X036003Y009625D02*
X037905Y009625D01*
X037879Y009723D02*
X036102Y009723D01*
X036200Y009822D02*
X037860Y009822D01*
X037860Y009920D02*
X036299Y009920D01*
X036397Y010019D02*
X037860Y010019D01*
X037862Y010117D02*
X036496Y010117D01*
X036594Y010216D02*
X037889Y010216D01*
X037915Y010314D02*
X036693Y010314D01*
X036791Y010413D02*
X037942Y010413D01*
X037998Y010511D02*
X036890Y010511D01*
X036988Y010610D02*
X038055Y010610D01*
X038121Y010708D02*
X037087Y010708D01*
X037185Y010807D02*
X038219Y010807D01*
X038318Y010905D02*
X037284Y010905D01*
X037382Y011004D02*
X038485Y011004D01*
X038723Y011102D02*
X037481Y011102D01*
X037579Y011201D02*
X041860Y011201D01*
X041860Y011299D02*
X037678Y011299D01*
X037776Y011398D02*
X041860Y011398D01*
X041860Y011496D02*
X037875Y011496D01*
X037973Y011595D02*
X041860Y011595D01*
X041860Y011693D02*
X038072Y011693D01*
X036746Y010905D02*
X035784Y010905D01*
X035685Y010807D02*
X036648Y010807D01*
X036549Y010708D02*
X035587Y010708D01*
X035488Y010610D02*
X036451Y010610D01*
X035761Y009920D02*
X031054Y009920D01*
X031289Y009822D02*
X035548Y009822D01*
X039397Y011102D02*
X041860Y011102D01*
X041860Y011004D02*
X039635Y011004D01*
X039802Y010905D02*
X041860Y010905D01*
X041860Y010807D02*
X039901Y010807D01*
X039999Y010708D02*
X041860Y010708D01*
X041860Y010610D02*
X040065Y010610D01*
X040122Y010511D02*
X041860Y010511D01*
X041860Y010413D02*
X040178Y010413D01*
X040205Y010314D02*
X041860Y010314D01*
X041860Y010216D02*
X040231Y010216D01*
X040258Y010117D02*
X041860Y010117D01*
X041860Y010019D02*
X040260Y010019D01*
X040260Y009920D02*
X041860Y009920D01*
X041860Y009822D02*
X040260Y009822D01*
X040242Y009723D02*
X041860Y009723D01*
X041860Y009625D02*
X040215Y009625D01*
X040189Y009526D02*
X041853Y009526D01*
X041755Y009428D02*
X040144Y009428D01*
X040087Y009329D02*
X041656Y009329D01*
X041558Y009231D02*
X040030Y009231D01*
X039939Y009132D02*
X041459Y009132D01*
X041361Y009034D02*
X039841Y009034D01*
X039702Y008935D02*
X041262Y008935D01*
X041164Y008837D02*
X039531Y008837D01*
X040770Y008443D02*
X031030Y008443D01*
X031268Y008541D02*
X040868Y008541D01*
X040967Y008640D02*
X031378Y008640D01*
X031477Y008738D02*
X041065Y008738D01*
X040803Y011792D02*
X041860Y011792D01*
X041860Y011890D02*
X040896Y011890D01*
X040902Y011989D02*
X041860Y011989D01*
X041860Y012087D02*
X040902Y012087D01*
X040902Y012186D02*
X041860Y012186D01*
X041860Y012284D02*
X040902Y012284D01*
X040902Y012383D02*
X041860Y012383D01*
X041860Y012481D02*
X040902Y012481D01*
X035210Y018982D02*
X035110Y018982D01*
X035110Y019081D02*
X035210Y019081D01*
X035210Y019179D02*
X035110Y019179D01*
X035110Y019278D02*
X035210Y019278D01*
X035210Y019376D02*
X035110Y019376D01*
X018193Y031492D02*
X015172Y031492D01*
X015200Y031590D02*
X018095Y031590D01*
X017996Y031689D02*
X015200Y031689D01*
X015200Y031787D02*
X017898Y031787D01*
X017799Y031886D02*
X015200Y031886D01*
X014730Y031787D02*
X014630Y031787D01*
X014630Y031689D02*
X014730Y031689D01*
X014730Y031590D02*
X014630Y031590D01*
X014630Y031492D02*
X014730Y031492D01*
X014730Y032083D02*
X014630Y032083D01*
X014630Y032181D02*
X014730Y032181D01*
X014730Y032280D02*
X014630Y032280D01*
X013582Y035924D02*
X015738Y035924D01*
X015668Y035953D02*
X015845Y035880D01*
X016036Y035880D01*
X016212Y035953D01*
X016347Y036088D01*
X016420Y036265D01*
X016420Y036455D01*
X016347Y036632D01*
X016212Y036767D01*
X016036Y036840D01*
X015845Y036840D01*
X015668Y036767D01*
X015533Y036632D01*
X015460Y036455D01*
X015460Y036265D01*
X015533Y036088D01*
X015668Y035953D01*
X015599Y036023D02*
X013721Y036023D01*
X013801Y036121D02*
X015519Y036121D01*
X015479Y036220D02*
X013841Y036220D01*
X013860Y036318D02*
X015460Y036318D01*
X015460Y036417D02*
X013860Y036417D01*
X013835Y036515D02*
X015485Y036515D01*
X015526Y036614D02*
X013795Y036614D01*
X013707Y036712D02*
X015613Y036712D01*
X015774Y036811D02*
X013547Y036811D01*
X013195Y037697D02*
X006235Y037697D01*
X006260Y037796D02*
X013046Y037796D01*
X012962Y037894D02*
X006260Y037894D01*
X006260Y037993D02*
X012922Y037993D01*
X012900Y038091D02*
X006260Y038091D01*
X006238Y038190D02*
X012900Y038190D01*
X012922Y038288D02*
X006212Y038288D01*
X006185Y038387D02*
X012963Y038387D01*
X013046Y038485D02*
X006137Y038485D01*
X006080Y038584D02*
X013197Y038584D01*
X014612Y039667D02*
X040560Y039667D01*
X040659Y039569D02*
X014710Y039569D01*
X015006Y039273D02*
X018155Y039273D01*
X018232Y039351D02*
X018508Y039465D01*
X018807Y039465D01*
X019083Y039351D01*
X019294Y039139D01*
X019409Y038863D01*
X019409Y038564D01*
X019409Y038682D02*
X030111Y038682D01*
X030111Y038781D02*
X019409Y038781D01*
X019402Y038879D02*
X030118Y038879D01*
X030159Y038978D02*
X019361Y038978D01*
X019321Y039076D02*
X030199Y039076D01*
X030261Y039175D02*
X019259Y039175D01*
X019161Y039273D02*
X030359Y039273D01*
X030488Y039372D02*
X019033Y039372D01*
X018056Y039175D02*
X015104Y039175D01*
X015203Y039076D02*
X017995Y039076D01*
X017954Y038978D02*
X015301Y038978D01*
X015400Y038879D02*
X017913Y038879D01*
X017906Y038781D02*
X015498Y038781D01*
X015597Y038682D02*
X017906Y038682D01*
X017906Y038584D02*
X016123Y038584D01*
X016274Y038485D02*
X017939Y038485D01*
X017980Y038387D02*
X016357Y038387D01*
X015757Y038584D02*
X015695Y038584D01*
X016107Y036811D02*
X017001Y036811D01*
X017099Y036712D02*
X016267Y036712D01*
X016355Y036614D02*
X017120Y036614D01*
X017120Y036515D02*
X016395Y036515D01*
X016420Y036417D02*
X017120Y036417D01*
X017120Y036318D02*
X016420Y036318D01*
X016401Y036220D02*
X017120Y036220D01*
X017120Y036121D02*
X016361Y036121D01*
X016281Y036023D02*
X017120Y036023D01*
X017120Y035924D02*
X016142Y035924D01*
X018232Y038077D02*
X018508Y037963D01*
X018232Y038077D02*
X018021Y038288D01*
X007661Y037599D02*
X006208Y037599D01*
X006182Y037500D02*
X007480Y037500D01*
X007387Y037402D02*
X006129Y037402D01*
X006072Y037303D02*
X007346Y037303D01*
X007321Y037205D02*
X006012Y037205D01*
X005913Y037106D02*
X007321Y037106D01*
X007342Y037008D02*
X005815Y037008D01*
X005657Y036909D02*
X007382Y036909D01*
X007469Y036811D02*
X005444Y036811D01*
X003942Y014845D02*
X002500Y014845D01*
X002500Y014747D02*
X003777Y014747D01*
X003698Y014648D02*
X002500Y014648D01*
X002500Y014550D02*
X003657Y014550D01*
X003650Y014451D02*
X002500Y014451D01*
X002500Y014353D02*
X003657Y014353D01*
X003697Y014254D02*
X002500Y014254D01*
X002500Y014156D02*
X003775Y014156D01*
X004629Y011980D02*
X004526Y011937D01*
X004448Y011859D01*
X004405Y011756D01*
X004405Y011644D01*
X004448Y011541D01*
X004526Y011463D01*
X004629Y011420D01*
X004741Y011420D01*
X004844Y011463D01*
X004891Y011510D01*
X004891Y011890D02*
X004844Y011937D01*
X004741Y011980D01*
X004629Y011980D01*
X004479Y011890D02*
X002967Y011890D01*
X003026Y011792D02*
X004420Y011792D01*
X004405Y011693D02*
X003041Y011693D01*
X003020Y011595D02*
X004426Y011595D01*
X004493Y011496D02*
X002953Y011496D01*
X002569Y011496D02*
X002260Y011496D01*
X002260Y011595D02*
X002501Y011595D01*
X002481Y011693D02*
X002260Y011693D01*
X002260Y011792D02*
X002401Y011792D01*
X002302Y011890D02*
X002260Y011890D01*
X039444Y036811D02*
X041860Y036811D01*
X041860Y036909D02*
X039657Y036909D01*
X039815Y037008D02*
X041860Y037008D01*
X041860Y037106D02*
X039913Y037106D01*
X040012Y037205D02*
X041860Y037205D01*
X041860Y037303D02*
X040072Y037303D01*
X040129Y037402D02*
X041860Y037402D01*
X041860Y037500D02*
X040182Y037500D01*
X040208Y037599D02*
X041860Y037599D01*
X041860Y037697D02*
X040235Y037697D01*
X040260Y037796D02*
X041860Y037796D01*
X041860Y037894D02*
X040260Y037894D01*
X040260Y037993D02*
X041860Y037993D01*
X041860Y038091D02*
X040260Y038091D01*
X040238Y038190D02*
X041860Y038190D01*
X041860Y038288D02*
X040212Y038288D01*
X040185Y038387D02*
X041841Y038387D01*
X041742Y038485D02*
X040137Y038485D01*
X040080Y038584D02*
X041644Y038584D01*
X041545Y038682D02*
X040023Y038682D01*
X039927Y038781D02*
X041447Y038781D01*
X041348Y038879D02*
X039828Y038879D01*
X039680Y038978D02*
X041250Y038978D01*
X041151Y039076D02*
X039494Y039076D01*
D31*
X014371Y011200D02*
X014360Y011200D01*
M02*
