G75*
%MOIN*%
%OFA0B0*%
%FSLAX24Y24*%
%IPPOS*%
%LPD*%
%AMOC8*
5,1,8,0,0,1.08239X$1,22.5*
%
%ADD10C,0.0000*%
%ADD11C,0.0050*%
D10*
X003560Y007950D02*
X040560Y007950D01*
X042060Y009450D01*
X042060Y038450D01*
X040560Y039950D01*
X003560Y039950D01*
X002060Y038450D01*
X002060Y009450D01*
X003560Y007950D01*
X004060Y009950D02*
X004062Y010013D01*
X004068Y010075D01*
X004078Y010137D01*
X004091Y010199D01*
X004109Y010259D01*
X004130Y010318D01*
X004155Y010376D01*
X004184Y010432D01*
X004216Y010486D01*
X004251Y010538D01*
X004289Y010587D01*
X004331Y010635D01*
X004375Y010679D01*
X004423Y010721D01*
X004472Y010759D01*
X004524Y010794D01*
X004578Y010826D01*
X004634Y010855D01*
X004692Y010880D01*
X004751Y010901D01*
X004811Y010919D01*
X004873Y010932D01*
X004935Y010942D01*
X004997Y010948D01*
X005060Y010950D01*
X005123Y010948D01*
X005185Y010942D01*
X005247Y010932D01*
X005309Y010919D01*
X005369Y010901D01*
X005428Y010880D01*
X005486Y010855D01*
X005542Y010826D01*
X005596Y010794D01*
X005648Y010759D01*
X005697Y010721D01*
X005745Y010679D01*
X005789Y010635D01*
X005831Y010587D01*
X005869Y010538D01*
X005904Y010486D01*
X005936Y010432D01*
X005965Y010376D01*
X005990Y010318D01*
X006011Y010259D01*
X006029Y010199D01*
X006042Y010137D01*
X006052Y010075D01*
X006058Y010013D01*
X006060Y009950D01*
X006058Y009887D01*
X006052Y009825D01*
X006042Y009763D01*
X006029Y009701D01*
X006011Y009641D01*
X005990Y009582D01*
X005965Y009524D01*
X005936Y009468D01*
X005904Y009414D01*
X005869Y009362D01*
X005831Y009313D01*
X005789Y009265D01*
X005745Y009221D01*
X005697Y009179D01*
X005648Y009141D01*
X005596Y009106D01*
X005542Y009074D01*
X005486Y009045D01*
X005428Y009020D01*
X005369Y008999D01*
X005309Y008981D01*
X005247Y008968D01*
X005185Y008958D01*
X005123Y008952D01*
X005060Y008950D01*
X004997Y008952D01*
X004935Y008958D01*
X004873Y008968D01*
X004811Y008981D01*
X004751Y008999D01*
X004692Y009020D01*
X004634Y009045D01*
X004578Y009074D01*
X004524Y009106D01*
X004472Y009141D01*
X004423Y009179D01*
X004375Y009221D01*
X004331Y009265D01*
X004289Y009313D01*
X004251Y009362D01*
X004216Y009414D01*
X004184Y009468D01*
X004155Y009524D01*
X004130Y009582D01*
X004109Y009641D01*
X004091Y009701D01*
X004078Y009763D01*
X004068Y009825D01*
X004062Y009887D01*
X004060Y009950D01*
X006660Y015682D02*
X006662Y015732D01*
X006668Y015782D01*
X006678Y015832D01*
X006691Y015880D01*
X006708Y015928D01*
X006729Y015974D01*
X006753Y016018D01*
X006781Y016060D01*
X006812Y016100D01*
X006846Y016137D01*
X006883Y016172D01*
X006922Y016203D01*
X006963Y016232D01*
X007007Y016257D01*
X007053Y016279D01*
X007100Y016297D01*
X007148Y016311D01*
X007197Y016322D01*
X007247Y016329D01*
X007297Y016332D01*
X007348Y016331D01*
X007398Y016326D01*
X007448Y016317D01*
X007496Y016305D01*
X007544Y016288D01*
X007590Y016268D01*
X007635Y016245D01*
X007678Y016218D01*
X007718Y016188D01*
X007756Y016155D01*
X007791Y016119D01*
X007824Y016080D01*
X007853Y016039D01*
X007879Y015996D01*
X007902Y015951D01*
X007921Y015904D01*
X007936Y015856D01*
X007948Y015807D01*
X007956Y015757D01*
X007960Y015707D01*
X007960Y015657D01*
X007956Y015607D01*
X007948Y015557D01*
X007936Y015508D01*
X007921Y015460D01*
X007902Y015413D01*
X007879Y015368D01*
X007853Y015325D01*
X007824Y015284D01*
X007791Y015245D01*
X007756Y015209D01*
X007718Y015176D01*
X007678Y015146D01*
X007635Y015119D01*
X007590Y015096D01*
X007544Y015076D01*
X007496Y015059D01*
X007448Y015047D01*
X007398Y015038D01*
X007348Y015033D01*
X007297Y015032D01*
X007247Y015035D01*
X007197Y015042D01*
X007148Y015053D01*
X007100Y015067D01*
X007053Y015085D01*
X007007Y015107D01*
X006963Y015132D01*
X006922Y015161D01*
X006883Y015192D01*
X006846Y015227D01*
X006812Y015264D01*
X006781Y015304D01*
X006753Y015346D01*
X006729Y015390D01*
X006708Y015436D01*
X006691Y015484D01*
X006678Y015532D01*
X006668Y015582D01*
X006662Y015632D01*
X006660Y015682D01*
X018107Y009186D02*
X018109Y009233D01*
X018115Y009279D01*
X018125Y009325D01*
X018138Y009370D01*
X018156Y009413D01*
X018177Y009455D01*
X018201Y009495D01*
X018229Y009532D01*
X018260Y009567D01*
X018294Y009600D01*
X018330Y009629D01*
X018369Y009655D01*
X018410Y009678D01*
X018453Y009697D01*
X018497Y009713D01*
X018542Y009725D01*
X018588Y009733D01*
X018635Y009737D01*
X018681Y009737D01*
X018728Y009733D01*
X018774Y009725D01*
X018819Y009713D01*
X018863Y009697D01*
X018906Y009678D01*
X018947Y009655D01*
X018986Y009629D01*
X019022Y009600D01*
X019056Y009567D01*
X019087Y009532D01*
X019115Y009495D01*
X019139Y009455D01*
X019160Y009413D01*
X019178Y009370D01*
X019191Y009325D01*
X019201Y009279D01*
X019207Y009233D01*
X019209Y009186D01*
X019207Y009139D01*
X019201Y009093D01*
X019191Y009047D01*
X019178Y009002D01*
X019160Y008959D01*
X019139Y008917D01*
X019115Y008877D01*
X019087Y008840D01*
X019056Y008805D01*
X019022Y008772D01*
X018986Y008743D01*
X018947Y008717D01*
X018906Y008694D01*
X018863Y008675D01*
X018819Y008659D01*
X018774Y008647D01*
X018728Y008639D01*
X018681Y008635D01*
X018635Y008635D01*
X018588Y008639D01*
X018542Y008647D01*
X018497Y008659D01*
X018453Y008675D01*
X018410Y008694D01*
X018369Y008717D01*
X018330Y008743D01*
X018294Y008772D01*
X018260Y008805D01*
X018229Y008840D01*
X018201Y008877D01*
X018177Y008917D01*
X018156Y008959D01*
X018138Y009002D01*
X018125Y009047D01*
X018115Y009093D01*
X018109Y009139D01*
X018107Y009186D01*
X030311Y009186D02*
X030313Y009233D01*
X030319Y009279D01*
X030329Y009325D01*
X030342Y009370D01*
X030360Y009413D01*
X030381Y009455D01*
X030405Y009495D01*
X030433Y009532D01*
X030464Y009567D01*
X030498Y009600D01*
X030534Y009629D01*
X030573Y009655D01*
X030614Y009678D01*
X030657Y009697D01*
X030701Y009713D01*
X030746Y009725D01*
X030792Y009733D01*
X030839Y009737D01*
X030885Y009737D01*
X030932Y009733D01*
X030978Y009725D01*
X031023Y009713D01*
X031067Y009697D01*
X031110Y009678D01*
X031151Y009655D01*
X031190Y009629D01*
X031226Y009600D01*
X031260Y009567D01*
X031291Y009532D01*
X031319Y009495D01*
X031343Y009455D01*
X031364Y009413D01*
X031382Y009370D01*
X031395Y009325D01*
X031405Y009279D01*
X031411Y009233D01*
X031413Y009186D01*
X031411Y009139D01*
X031405Y009093D01*
X031395Y009047D01*
X031382Y009002D01*
X031364Y008959D01*
X031343Y008917D01*
X031319Y008877D01*
X031291Y008840D01*
X031260Y008805D01*
X031226Y008772D01*
X031190Y008743D01*
X031151Y008717D01*
X031110Y008694D01*
X031067Y008675D01*
X031023Y008659D01*
X030978Y008647D01*
X030932Y008639D01*
X030885Y008635D01*
X030839Y008635D01*
X030792Y008639D01*
X030746Y008647D01*
X030701Y008659D01*
X030657Y008675D01*
X030614Y008694D01*
X030573Y008717D01*
X030534Y008743D01*
X030498Y008772D01*
X030464Y008805D01*
X030433Y008840D01*
X030405Y008877D01*
X030381Y008917D01*
X030360Y008959D01*
X030342Y009002D01*
X030329Y009047D01*
X030319Y009093D01*
X030313Y009139D01*
X030311Y009186D01*
X038060Y009950D02*
X038062Y010013D01*
X038068Y010075D01*
X038078Y010137D01*
X038091Y010199D01*
X038109Y010259D01*
X038130Y010318D01*
X038155Y010376D01*
X038184Y010432D01*
X038216Y010486D01*
X038251Y010538D01*
X038289Y010587D01*
X038331Y010635D01*
X038375Y010679D01*
X038423Y010721D01*
X038472Y010759D01*
X038524Y010794D01*
X038578Y010826D01*
X038634Y010855D01*
X038692Y010880D01*
X038751Y010901D01*
X038811Y010919D01*
X038873Y010932D01*
X038935Y010942D01*
X038997Y010948D01*
X039060Y010950D01*
X039123Y010948D01*
X039185Y010942D01*
X039247Y010932D01*
X039309Y010919D01*
X039369Y010901D01*
X039428Y010880D01*
X039486Y010855D01*
X039542Y010826D01*
X039596Y010794D01*
X039648Y010759D01*
X039697Y010721D01*
X039745Y010679D01*
X039789Y010635D01*
X039831Y010587D01*
X039869Y010538D01*
X039904Y010486D01*
X039936Y010432D01*
X039965Y010376D01*
X039990Y010318D01*
X040011Y010259D01*
X040029Y010199D01*
X040042Y010137D01*
X040052Y010075D01*
X040058Y010013D01*
X040060Y009950D01*
X040058Y009887D01*
X040052Y009825D01*
X040042Y009763D01*
X040029Y009701D01*
X040011Y009641D01*
X039990Y009582D01*
X039965Y009524D01*
X039936Y009468D01*
X039904Y009414D01*
X039869Y009362D01*
X039831Y009313D01*
X039789Y009265D01*
X039745Y009221D01*
X039697Y009179D01*
X039648Y009141D01*
X039596Y009106D01*
X039542Y009074D01*
X039486Y009045D01*
X039428Y009020D01*
X039369Y008999D01*
X039309Y008981D01*
X039247Y008968D01*
X039185Y008958D01*
X039123Y008952D01*
X039060Y008950D01*
X038997Y008952D01*
X038935Y008958D01*
X038873Y008968D01*
X038811Y008981D01*
X038751Y008999D01*
X038692Y009020D01*
X038634Y009045D01*
X038578Y009074D01*
X038524Y009106D01*
X038472Y009141D01*
X038423Y009179D01*
X038375Y009221D01*
X038331Y009265D01*
X038289Y009313D01*
X038251Y009362D01*
X038216Y009414D01*
X038184Y009468D01*
X038155Y009524D01*
X038130Y009582D01*
X038109Y009641D01*
X038091Y009701D01*
X038078Y009763D01*
X038068Y009825D01*
X038062Y009887D01*
X038060Y009950D01*
X042060Y009450D02*
X042060Y009450D01*
X038060Y037950D02*
X038062Y038013D01*
X038068Y038075D01*
X038078Y038137D01*
X038091Y038199D01*
X038109Y038259D01*
X038130Y038318D01*
X038155Y038376D01*
X038184Y038432D01*
X038216Y038486D01*
X038251Y038538D01*
X038289Y038587D01*
X038331Y038635D01*
X038375Y038679D01*
X038423Y038721D01*
X038472Y038759D01*
X038524Y038794D01*
X038578Y038826D01*
X038634Y038855D01*
X038692Y038880D01*
X038751Y038901D01*
X038811Y038919D01*
X038873Y038932D01*
X038935Y038942D01*
X038997Y038948D01*
X039060Y038950D01*
X039123Y038948D01*
X039185Y038942D01*
X039247Y038932D01*
X039309Y038919D01*
X039369Y038901D01*
X039428Y038880D01*
X039486Y038855D01*
X039542Y038826D01*
X039596Y038794D01*
X039648Y038759D01*
X039697Y038721D01*
X039745Y038679D01*
X039789Y038635D01*
X039831Y038587D01*
X039869Y038538D01*
X039904Y038486D01*
X039936Y038432D01*
X039965Y038376D01*
X039990Y038318D01*
X040011Y038259D01*
X040029Y038199D01*
X040042Y038137D01*
X040052Y038075D01*
X040058Y038013D01*
X040060Y037950D01*
X040058Y037887D01*
X040052Y037825D01*
X040042Y037763D01*
X040029Y037701D01*
X040011Y037641D01*
X039990Y037582D01*
X039965Y037524D01*
X039936Y037468D01*
X039904Y037414D01*
X039869Y037362D01*
X039831Y037313D01*
X039789Y037265D01*
X039745Y037221D01*
X039697Y037179D01*
X039648Y037141D01*
X039596Y037106D01*
X039542Y037074D01*
X039486Y037045D01*
X039428Y037020D01*
X039369Y036999D01*
X039309Y036981D01*
X039247Y036968D01*
X039185Y036958D01*
X039123Y036952D01*
X039060Y036950D01*
X038997Y036952D01*
X038935Y036958D01*
X038873Y036968D01*
X038811Y036981D01*
X038751Y036999D01*
X038692Y037020D01*
X038634Y037045D01*
X038578Y037074D01*
X038524Y037106D01*
X038472Y037141D01*
X038423Y037179D01*
X038375Y037221D01*
X038331Y037265D01*
X038289Y037313D01*
X038251Y037362D01*
X038216Y037414D01*
X038184Y037468D01*
X038155Y037524D01*
X038130Y037582D01*
X038109Y037641D01*
X038091Y037701D01*
X038078Y037763D01*
X038068Y037825D01*
X038062Y037887D01*
X038060Y037950D01*
X042060Y038450D02*
X042060Y038450D01*
X030311Y038714D02*
X030313Y038761D01*
X030319Y038807D01*
X030329Y038853D01*
X030342Y038898D01*
X030360Y038941D01*
X030381Y038983D01*
X030405Y039023D01*
X030433Y039060D01*
X030464Y039095D01*
X030498Y039128D01*
X030534Y039157D01*
X030573Y039183D01*
X030614Y039206D01*
X030657Y039225D01*
X030701Y039241D01*
X030746Y039253D01*
X030792Y039261D01*
X030839Y039265D01*
X030885Y039265D01*
X030932Y039261D01*
X030978Y039253D01*
X031023Y039241D01*
X031067Y039225D01*
X031110Y039206D01*
X031151Y039183D01*
X031190Y039157D01*
X031226Y039128D01*
X031260Y039095D01*
X031291Y039060D01*
X031319Y039023D01*
X031343Y038983D01*
X031364Y038941D01*
X031382Y038898D01*
X031395Y038853D01*
X031405Y038807D01*
X031411Y038761D01*
X031413Y038714D01*
X031411Y038667D01*
X031405Y038621D01*
X031395Y038575D01*
X031382Y038530D01*
X031364Y038487D01*
X031343Y038445D01*
X031319Y038405D01*
X031291Y038368D01*
X031260Y038333D01*
X031226Y038300D01*
X031190Y038271D01*
X031151Y038245D01*
X031110Y038222D01*
X031067Y038203D01*
X031023Y038187D01*
X030978Y038175D01*
X030932Y038167D01*
X030885Y038163D01*
X030839Y038163D01*
X030792Y038167D01*
X030746Y038175D01*
X030701Y038187D01*
X030657Y038203D01*
X030614Y038222D01*
X030573Y038245D01*
X030534Y038271D01*
X030498Y038300D01*
X030464Y038333D01*
X030433Y038368D01*
X030405Y038405D01*
X030381Y038445D01*
X030360Y038487D01*
X030342Y038530D01*
X030329Y038575D01*
X030319Y038621D01*
X030313Y038667D01*
X030311Y038714D01*
X018107Y038714D02*
X018109Y038761D01*
X018115Y038807D01*
X018125Y038853D01*
X018138Y038898D01*
X018156Y038941D01*
X018177Y038983D01*
X018201Y039023D01*
X018229Y039060D01*
X018260Y039095D01*
X018294Y039128D01*
X018330Y039157D01*
X018369Y039183D01*
X018410Y039206D01*
X018453Y039225D01*
X018497Y039241D01*
X018542Y039253D01*
X018588Y039261D01*
X018635Y039265D01*
X018681Y039265D01*
X018728Y039261D01*
X018774Y039253D01*
X018819Y039241D01*
X018863Y039225D01*
X018906Y039206D01*
X018947Y039183D01*
X018986Y039157D01*
X019022Y039128D01*
X019056Y039095D01*
X019087Y039060D01*
X019115Y039023D01*
X019139Y038983D01*
X019160Y038941D01*
X019178Y038898D01*
X019191Y038853D01*
X019201Y038807D01*
X019207Y038761D01*
X019209Y038714D01*
X019207Y038667D01*
X019201Y038621D01*
X019191Y038575D01*
X019178Y038530D01*
X019160Y038487D01*
X019139Y038445D01*
X019115Y038405D01*
X019087Y038368D01*
X019056Y038333D01*
X019022Y038300D01*
X018986Y038271D01*
X018947Y038245D01*
X018906Y038222D01*
X018863Y038203D01*
X018819Y038187D01*
X018774Y038175D01*
X018728Y038167D01*
X018681Y038163D01*
X018635Y038163D01*
X018588Y038167D01*
X018542Y038175D01*
X018497Y038187D01*
X018453Y038203D01*
X018410Y038222D01*
X018369Y038245D01*
X018330Y038271D01*
X018294Y038300D01*
X018260Y038333D01*
X018229Y038368D01*
X018201Y038405D01*
X018177Y038445D01*
X018156Y038487D01*
X018138Y038530D01*
X018125Y038575D01*
X018115Y038621D01*
X018109Y038667D01*
X018107Y038714D01*
X006660Y032218D02*
X006662Y032268D01*
X006668Y032318D01*
X006678Y032368D01*
X006691Y032416D01*
X006708Y032464D01*
X006729Y032510D01*
X006753Y032554D01*
X006781Y032596D01*
X006812Y032636D01*
X006846Y032673D01*
X006883Y032708D01*
X006922Y032739D01*
X006963Y032768D01*
X007007Y032793D01*
X007053Y032815D01*
X007100Y032833D01*
X007148Y032847D01*
X007197Y032858D01*
X007247Y032865D01*
X007297Y032868D01*
X007348Y032867D01*
X007398Y032862D01*
X007448Y032853D01*
X007496Y032841D01*
X007544Y032824D01*
X007590Y032804D01*
X007635Y032781D01*
X007678Y032754D01*
X007718Y032724D01*
X007756Y032691D01*
X007791Y032655D01*
X007824Y032616D01*
X007853Y032575D01*
X007879Y032532D01*
X007902Y032487D01*
X007921Y032440D01*
X007936Y032392D01*
X007948Y032343D01*
X007956Y032293D01*
X007960Y032243D01*
X007960Y032193D01*
X007956Y032143D01*
X007948Y032093D01*
X007936Y032044D01*
X007921Y031996D01*
X007902Y031949D01*
X007879Y031904D01*
X007853Y031861D01*
X007824Y031820D01*
X007791Y031781D01*
X007756Y031745D01*
X007718Y031712D01*
X007678Y031682D01*
X007635Y031655D01*
X007590Y031632D01*
X007544Y031612D01*
X007496Y031595D01*
X007448Y031583D01*
X007398Y031574D01*
X007348Y031569D01*
X007297Y031568D01*
X007247Y031571D01*
X007197Y031578D01*
X007148Y031589D01*
X007100Y031603D01*
X007053Y031621D01*
X007007Y031643D01*
X006963Y031668D01*
X006922Y031697D01*
X006883Y031728D01*
X006846Y031763D01*
X006812Y031800D01*
X006781Y031840D01*
X006753Y031882D01*
X006729Y031926D01*
X006708Y031972D01*
X006691Y032020D01*
X006678Y032068D01*
X006668Y032118D01*
X006662Y032168D01*
X006660Y032218D01*
X004060Y037950D02*
X004062Y038013D01*
X004068Y038075D01*
X004078Y038137D01*
X004091Y038199D01*
X004109Y038259D01*
X004130Y038318D01*
X004155Y038376D01*
X004184Y038432D01*
X004216Y038486D01*
X004251Y038538D01*
X004289Y038587D01*
X004331Y038635D01*
X004375Y038679D01*
X004423Y038721D01*
X004472Y038759D01*
X004524Y038794D01*
X004578Y038826D01*
X004634Y038855D01*
X004692Y038880D01*
X004751Y038901D01*
X004811Y038919D01*
X004873Y038932D01*
X004935Y038942D01*
X004997Y038948D01*
X005060Y038950D01*
X005123Y038948D01*
X005185Y038942D01*
X005247Y038932D01*
X005309Y038919D01*
X005369Y038901D01*
X005428Y038880D01*
X005486Y038855D01*
X005542Y038826D01*
X005596Y038794D01*
X005648Y038759D01*
X005697Y038721D01*
X005745Y038679D01*
X005789Y038635D01*
X005831Y038587D01*
X005869Y038538D01*
X005904Y038486D01*
X005936Y038432D01*
X005965Y038376D01*
X005990Y038318D01*
X006011Y038259D01*
X006029Y038199D01*
X006042Y038137D01*
X006052Y038075D01*
X006058Y038013D01*
X006060Y037950D01*
X006058Y037887D01*
X006052Y037825D01*
X006042Y037763D01*
X006029Y037701D01*
X006011Y037641D01*
X005990Y037582D01*
X005965Y037524D01*
X005936Y037468D01*
X005904Y037414D01*
X005869Y037362D01*
X005831Y037313D01*
X005789Y037265D01*
X005745Y037221D01*
X005697Y037179D01*
X005648Y037141D01*
X005596Y037106D01*
X005542Y037074D01*
X005486Y037045D01*
X005428Y037020D01*
X005369Y036999D01*
X005309Y036981D01*
X005247Y036968D01*
X005185Y036958D01*
X005123Y036952D01*
X005060Y036950D01*
X004997Y036952D01*
X004935Y036958D01*
X004873Y036968D01*
X004811Y036981D01*
X004751Y036999D01*
X004692Y037020D01*
X004634Y037045D01*
X004578Y037074D01*
X004524Y037106D01*
X004472Y037141D01*
X004423Y037179D01*
X004375Y037221D01*
X004331Y037265D01*
X004289Y037313D01*
X004251Y037362D01*
X004216Y037414D01*
X004184Y037468D01*
X004155Y037524D01*
X004130Y037582D01*
X004109Y037641D01*
X004091Y037701D01*
X004078Y037763D01*
X004068Y037825D01*
X004062Y037887D01*
X004060Y037950D01*
D11*
X004948Y023950D02*
X004950Y024047D01*
X004956Y024144D01*
X004966Y024240D01*
X004980Y024336D01*
X004998Y024432D01*
X005019Y024526D01*
X005045Y024620D01*
X005074Y024712D01*
X005108Y024803D01*
X005144Y024893D01*
X005185Y024981D01*
X005229Y025067D01*
X005277Y025152D01*
X005328Y025234D01*
X005382Y025315D01*
X005440Y025393D01*
X005501Y025468D01*
X005564Y025541D01*
X005631Y025612D01*
X005701Y025679D01*
X005773Y025744D01*
X005848Y025805D01*
X005926Y025864D01*
X006005Y025919D01*
X006087Y025971D01*
X006171Y026019D01*
X006257Y026064D01*
X006345Y026106D01*
X006434Y026144D01*
X006525Y026178D01*
X006617Y026208D01*
X006710Y026235D01*
X006805Y026257D01*
X006900Y026276D01*
X006996Y026291D01*
X007092Y026302D01*
X007189Y026309D01*
X007286Y026312D01*
X007383Y026311D01*
X007480Y026306D01*
X007576Y026297D01*
X007672Y026284D01*
X007768Y026267D01*
X007863Y026246D01*
X007956Y026222D01*
X008049Y026193D01*
X008141Y026161D01*
X008231Y026125D01*
X008319Y026086D01*
X008406Y026042D01*
X008491Y025996D01*
X008574Y025945D01*
X008655Y025892D01*
X008733Y025835D01*
X008810Y025775D01*
X008883Y025712D01*
X008954Y025646D01*
X009022Y025577D01*
X009088Y025505D01*
X009150Y025431D01*
X009209Y025354D01*
X009265Y025275D01*
X009318Y025193D01*
X009368Y025110D01*
X009413Y025024D01*
X009456Y024937D01*
X009495Y024848D01*
X009530Y024758D01*
X009561Y024666D01*
X009588Y024573D01*
X009612Y024479D01*
X009632Y024384D01*
X009648Y024288D01*
X009660Y024192D01*
X009668Y024095D01*
X009672Y023998D01*
X009672Y023902D01*
X009668Y023805D01*
X009660Y023708D01*
X009648Y023612D01*
X009632Y023516D01*
X009612Y023421D01*
X009588Y023327D01*
X009561Y023234D01*
X009530Y023142D01*
X009495Y023052D01*
X009456Y022963D01*
X009413Y022876D01*
X009368Y022790D01*
X009318Y022707D01*
X009265Y022625D01*
X009209Y022546D01*
X009150Y022469D01*
X009088Y022395D01*
X009022Y022323D01*
X008954Y022254D01*
X008883Y022188D01*
X008810Y022125D01*
X008733Y022065D01*
X008655Y022008D01*
X008574Y021955D01*
X008491Y021904D01*
X008406Y021858D01*
X008319Y021814D01*
X008231Y021775D01*
X008141Y021739D01*
X008049Y021707D01*
X007956Y021678D01*
X007863Y021654D01*
X007768Y021633D01*
X007672Y021616D01*
X007576Y021603D01*
X007480Y021594D01*
X007383Y021589D01*
X007286Y021588D01*
X007189Y021591D01*
X007092Y021598D01*
X006996Y021609D01*
X006900Y021624D01*
X006805Y021643D01*
X006710Y021665D01*
X006617Y021692D01*
X006525Y021722D01*
X006434Y021756D01*
X006345Y021794D01*
X006257Y021836D01*
X006171Y021881D01*
X006087Y021929D01*
X006005Y021981D01*
X005926Y022036D01*
X005848Y022095D01*
X005773Y022156D01*
X005701Y022221D01*
X005631Y022288D01*
X005564Y022359D01*
X005501Y022432D01*
X005440Y022507D01*
X005382Y022585D01*
X005328Y022666D01*
X005277Y022748D01*
X005229Y022833D01*
X005185Y022919D01*
X005144Y023007D01*
X005108Y023097D01*
X005074Y023188D01*
X005045Y023280D01*
X005019Y023374D01*
X004998Y023468D01*
X004980Y023564D01*
X004966Y023660D01*
X004956Y023756D01*
X004950Y023853D01*
X004948Y023950D01*
M02*
